<svg width="234" height="307" viewBox="0 0 234 307" fill="none" xmlns="http://www.w3.org/2000/svg">
<path d="M195.354 11.3116C195.661 11.3064 195.828 11.7022 195.729 12.1918C195.625 12.6866 195.083 13.0303 194.51 12.9626C193.937 12.9001 193.354 12.921 193.203 13.0147C193.057 13.1032 193.354 12.7647 193.864 12.2491C194.38 11.7335 195.047 11.3116 195.354 11.3116Z" fill="#98CA3B"/>
<path d="M195.943 14.5559C195.724 13.7434 195.083 13.0298 194.51 12.9621C193.937 12.8996 194.114 13.5559 194.906 14.4361C195.693 15.3111 196.161 15.3632 195.943 14.5559Z" fill="#159C1F"/>
<path d="M193.828 14.2331C193.63 13.4675 193.354 12.9206 193.203 13.0144C193.057 13.1029 193.214 13.7279 193.557 14.405C193.901 15.0769 194.021 15.004 193.828 14.2331Z" fill="#4590D4"/>
<path d="M198.302 6.79008L199.599 4.33695C200.922 1.84737 201.719 -0.0953397 201.39 0.00361893C201.057 0.0973683 199.708 2.19112 198.37 4.67029L197.213 6.82133C195.88 9.30049 195.047 11.3109 195.354 11.3109C195.661 11.3057 196.984 9.28487 198.302 6.79008Z" fill="#F7DC0F"/>
<path d="M194.906 14.4365C195.693 15.3115 195.854 15.9365 195.261 15.8271C194.667 15.7177 194.021 15.0042 193.828 14.2334C193.63 13.4677 194.115 13.5563 194.906 14.4365Z" fill="#0683C7"/>
<path d="M196.479 11.733C196.792 11.9726 196.708 12.3685 196.297 12.6237C195.88 12.8789 195.625 12.6862 195.729 12.1914C195.828 11.7018 196.167 11.4987 196.479 11.733Z" fill="#159C1F"/>
<path d="M197.13 15.2276C197.573 14.7901 197.865 14.113 197.786 13.7224C197.708 13.3318 197.51 12.8266 197.344 12.5922C197.177 12.3526 196.708 12.3683 196.297 12.6235C195.88 12.8787 195.724 13.7433 195.943 14.5558C196.161 15.363 196.693 15.6651 197.13 15.2276Z" fill="#63BC49"/>
<path d="M203.984 0.998963C205.088 1.65001 204.458 3.87917 202.578 5.97813L200.448 8.36355C198.567 10.4625 196.791 11.9729 196.479 11.7333C196.166 11.499 196.984 9.28542 198.302 6.79063L199.599 4.3375C200.916 1.84792 202.88 0.353131 203.984 0.998963Z" fill="#FFFF8F"/>
<path d="M204.583 9.44099L202.177 10.6806C199.672 11.9722 197.511 12.8264 197.344 12.592C197.177 12.3524 198.568 10.4618 200.448 8.36286L202.578 5.97744C204.458 3.87849 206.682 3.27953 207.552 4.64411C208.417 6.00349 207.089 8.15453 204.583 9.44099Z" fill="#FFFF81"/>
<path d="M204.958 10.5193L202.469 11.5454C199.865 12.6183 197.729 13.3839 197.698 13.2537C197.667 13.1235 199.672 11.9724 202.177 10.6808L204.583 9.44119C207.088 8.15473 209.245 7.44119 209.396 7.84744C209.552 8.25369 207.562 9.4516 204.958 10.5193Z" fill="#F4C90C"/>
<path d="M202.76 12.8062L204.828 12.1083C207.495 11.2073 209.661 10.0562 209.667 9.53021C209.672 9.00416 207.562 9.45208 204.958 10.5198L202.469 11.5458C199.864 12.6187 197.792 13.6969 197.838 13.9625C197.891 14.2229 200.094 13.7021 202.76 12.8062Z" fill="#F19B1D"/>
<path d="M50.4061 219.879L57.0988 224.217C58.8697 225.368 58.9947 227.4 57.3749 228.754L47.0832 237.358C45.4634 238.707 44.3801 238.118 44.6665 236.04L46.6717 221.566C46.9582 219.488 48.6301 218.733 50.4061 219.879Z" fill="#E3DF01"/>
<path d="M65.2655 230.509L63.4374 228.989C61.8124 227.64 59.1822 227.64 57.5624 228.994L47.2707 237.598C45.6509 238.952 45.979 239.562 48.0103 238.957L64.5259 234.046C66.5572 233.447 66.8853 231.858 65.2655 230.509Z" fill="#63BC49"/>
<path d="M44.2811 220.707L36.5363 229.722C35.1613 231.321 35.4217 233.639 37.1144 234.899L40.6561 237.535C42.3488 238.795 43.9582 238.134 44.2446 236.05L46.2499 221.582C46.5363 219.498 45.6561 219.108 44.2811 220.707Z" fill="#F4C90C"/>
<path d="M37.7186 244.666L40.5155 242.629C42.2186 241.384 42.2291 239.353 40.5363 238.093L36.9947 235.457C35.302 234.197 34.0155 234.874 34.1197 236.973L34.4374 243.124C34.5415 245.223 36.0155 245.91 37.7186 244.666Z" fill="#E3DF01"/>
<path d="M65.0363 235.436L50.9009 245.129C49.1613 246.322 46.9895 245.764 46.0572 243.879L46.0103 243.785C45.078 241.895 45.9686 239.879 47.9999 239.275L64.5155 234.363C66.5415 233.764 66.7759 234.244 65.0363 235.436Z" fill="#0683C7"/>
<path d="M38.5988 247.275L43.3279 247.421C45.4425 247.484 46.4061 246.004 45.4738 244.119L45.4269 244.025C44.4946 242.14 42.354 241.624 40.6456 242.869L37.854 244.905C36.1456 246.15 36.479 247.213 38.5988 247.275Z" fill="#FA6024"/>
<path d="M37.4478 226.291L35.8853 229.082C34.8541 230.916 35.1353 231.108 36.5103 229.509L44.2551 220.494C45.6301 218.895 45.7499 218.317 44.526 219.202L42.3124 220.806C42.3124 220.806 41.6405 221.291 40.8124 221.884C39.9843 222.483 38.4791 224.452 37.4478 226.291Z" fill="#FFFF81"/>
<path d="M30.6458 215.353C28.7813 216.16 28.0521 218.265 29.026 220.062C29.9948 221.853 32.4948 223.181 34.6094 223.02L35.2604 222.973C37.375 222.812 39.6927 222.233 40.4427 221.676C41.1927 221.124 40.5104 219.551 38.9167 218.166L36.9063 216.41C35.3125 215.025 32.5104 214.551 30.6458 215.353Z" fill="#CD2918"/>
<path d="M26.3384 230.78L28.578 227.097C29.6769 225.301 31.1144 225.457 31.7967 227.446L32.3436 229.056C33.0259 231.04 31.8801 232.91 29.7811 233.222L28.1457 233.467C26.0519 233.78 25.2394 232.577 26.3384 230.78Z" fill="#7F3F98"/>
<path d="M33.8019 236.676C33.6977 234.634 31.9165 233.233 29.8175 233.551L28.1821 233.796C26.0883 234.108 25.8435 235.27 27.6352 236.395L30.7498 238.342C32.5415 239.467 33.906 238.717 33.8019 236.676Z" fill="#FA8C14"/>
<path d="M34.6092 223.415L35.2655 223.368C37.3749 223.207 38.2551 224.566 37.2238 226.4L35.6613 229.191C34.6353 231.03 33.2447 230.905 32.5676 228.915L32.0155 227.306C31.3384 225.316 32.4999 223.577 34.6092 223.415Z" fill="#4590D4"/>
<path d="M34.1614 243.91C34.0729 242.155 32.2864 240.879 30.1771 241.061L28.2187 241.228C26.1093 241.405 25.8958 242.384 27.7396 243.415L30.9791 245.223C32.8281 246.254 34.25 245.665 34.1614 243.91Z" fill="#50BC5C"/>
<path d="M24.3071 237.89C24.3071 239.775 26.0207 241.161 28.13 240.978L30.0884 240.812C32.1978 240.634 32.4582 239.577 30.6665 238.457L27.5519 236.509C25.7603 235.384 24.3071 236.004 24.3071 237.89Z" fill="#159C1F"/>
<path d="M21.7498 233.874L22.8904 237.587C23.505 239.592 23.4581 241.379 22.7811 241.566C22.104 241.754 20.4217 240.629 19.0206 239.051L18.9217 238.936C17.5258 237.358 17.3383 234.77 18.5102 233.155C19.6821 231.54 21.1352 231.863 21.7498 233.874Z" fill="#50BC5C"/>
<mask id="mask0_372_268" style="mask-type:luminance" maskUnits="userSpaceOnUse" x="0" y="226" width="13" height="17">
<path d="M0 226.571H12.9896V242.571H0V226.571Z" fill="white"/>
</mask>
<g mask="url(#mask0_372_268)">
<path d="M11.8437 229.686L12.026 231.686C12.2135 233.774 10.875 236.316 9.03121 237.353L2.85413 240.832C1.01038 241.868 -3.79086e-05 241.071 0.593713 239.056L1.88538 234.665C2.47913 232.649 4.43225 230.134 6.24475 229.045L8.21871 227.868C10.0312 226.78 11.6562 227.592 11.8437 229.686Z" fill="#1FB789"/>
</g>
<path d="M24.5417 220.343L22.1302 224.02C20.974 225.78 18.8854 228.468 17.4583 230.025L15.4427 232.228C14.0208 233.785 12.7135 233.353 12.526 231.259L12.3438 229.265C12.1563 227.171 13.4896 224.629 15.3281 223.582L23.3021 219.046C25.1406 217.999 25.6927 218.577 24.5417 220.343Z" fill="#98CA3B"/>
<path d="M17.9843 244.025L13.5832 246.363C11.7134 247.353 10.9478 246.624 11.8801 244.738L11.9478 244.603C12.8749 242.712 14.7395 240.717 16.1145 240.15C17.4947 239.577 19.2239 239.811 19.9895 240.67C20.7499 241.53 19.8541 243.035 17.9843 244.025Z" fill="#4590D4"/>
<path d="M26.7968 224.753L23.9218 225.764C21.927 226.467 21.2447 225.608 22.3957 223.847L24.8072 220.17C25.9634 218.41 27.6874 218.436 28.6561 220.233C29.6249 222.024 28.7968 224.05 26.7968 224.753Z" fill="#F7DC0F"/>
<mask id="mask1_372_268" style="mask-type:luminance" maskUnits="userSpaceOnUse" x="0" y="235" width="19" height="13">
<path d="M0 235.905H18.3229V247.905H0V235.905Z" fill="white"/>
</mask>
<g mask="url(#mask1_372_268)">
<path d="M14.1979 236.072C13.2447 235.937 10.9791 236.671 9.13537 237.713L2.9635 241.187C1.11975 242.228 0.0155809 244.228 0.494748 245.655C0.973914 247.088 2.83329 247.369 4.651 246.285L10.0572 243.051C11.875 241.968 14.4635 240.629 15.8385 240.056C17.2135 239.483 17.7916 238.416 17.125 237.666C16.4635 236.916 15.151 236.202 14.1979 236.072Z" fill="#4590D4"/>
</g>
<path d="M7.70837 249.363C6.52608 249.952 4.60941 249.994 3.43233 249.457C2.25524 248.921 2.77608 247.608 4.58858 246.525L10 243.296C11.8125 242.207 12.5365 242.863 11.6042 244.749L11.5417 244.889C10.6094 246.775 8.89587 248.78 7.70837 249.363Z" fill="#98CA3B"/>
<path d="M28.4531 243.425L31.6927 245.233C33.5416 246.264 36.7552 247.149 38.8698 247.217L43.5989 247.358C45.7187 247.42 48.8489 246.504 50.5885 245.311L64.7239 235.618C66.4635 234.425 68.4375 233.92 69.1302 234.498C69.8229 235.071 68.9687 236.504 67.2187 237.696L47.0833 251.431C45.3385 252.623 42.2448 253.238 40.1666 252.806L39.2552 252.613C37.1823 252.181 34.2812 250.629 32.7812 249.144L27.8281 244.248C26.3281 242.764 26.6041 242.394 28.4531 243.425Z" fill="#1FB789"/>
<path d="M28.2709 227.212L26.0261 230.895C24.9323 232.691 24.0417 235.681 24.0417 237.566C24.0417 239.452 23.5417 239.348 22.9271 237.343L21.7865 233.629C21.1719 231.619 19.724 231.296 18.5521 232.91C17.3802 234.525 15.6563 235.723 14.7031 235.593C13.75 235.462 14.1302 234.093 15.5521 232.535L17.5729 230.332C18.9948 228.775 21.7656 226.941 23.7656 226.238L26.6406 225.228C28.6354 224.525 29.3646 225.415 28.2709 227.212Z" fill="#FA8C14"/>
<path d="M66.4374 73.1807C66.6457 73.1807 66.8436 74.8838 66.8801 76.9827V77.2744C66.9166 79.3734 67.0832 81.7588 67.2499 82.6025C67.4166 83.4463 66.3645 85.3577 64.8957 86.8734L64.3697 87.4098C62.9061 88.9255 60.953 89.5505 60.0103 88.8057C59.0728 88.0557 59.5155 86.238 60.9999 84.7432L61.6405 84.0921C63.1301 82.5921 64.6822 79.7119 65.1197 77.6598L65.2759 76.8994C65.7082 74.8473 66.2291 73.1807 66.4374 73.1807Z" fill="#FFFF81"/>
<path d="M94.0831 238.832L104.969 244.087C106.87 245.009 106.729 245.421 104.651 245.009L93.2915 242.769C91.2134 242.358 89.7759 240.936 90.0779 239.592C90.3852 238.254 92.1769 237.91 94.0831 238.832Z" fill="#4590D4"/>
<path d="M124.791 239.759L128.036 245.858C129.031 247.712 128.135 248.942 126.047 248.598L113.068 246.457C110.979 246.113 110.693 244.863 112.437 243.666L119.844 238.567C121.583 237.369 123.797 237.905 124.791 239.759Z" fill="#0683C7"/>
<path d="M132.938 234.848L130.911 245.306C130.516 247.368 129.391 247.535 128.401 245.676L125.151 239.582C124.156 237.723 124.891 235.457 126.786 234.519L130.229 232.816C132.12 231.874 133.333 232.785 132.938 234.848Z" fill="#F19B1D"/>
<path d="M116.937 224.441L120.474 231.946C121.375 233.852 120.687 236.363 118.948 237.561L111.542 242.66C109.797 243.858 106.844 244.082 104.937 243.16L94.052 237.905C92.1509 236.983 91.1561 234.628 91.8384 232.639L96.5728 218.826C97.2551 216.837 96.4426 216.259 94.7603 217.535L75.4009 232.212C73.7186 233.488 73.5624 233.311 75.0572 231.816L85.7186 221.149C87.2082 219.655 87.1665 217.28 85.6249 215.837L78.5155 209.191C76.9738 207.753 77.4218 206.868 79.5103 207.217L90.1145 208.983C92.203 209.332 94.203 207.936 94.5728 205.868L94.802 204.623C95.1718 202.556 96.677 202.097 98.1561 203.597L112.63 218.28C114.109 219.78 116.036 222.54 116.937 224.441Z" fill="#50BC5C"/>
<path d="M116.318 251.635L111.276 266.53C110.599 268.52 109.338 268.588 108.453 266.681L105.427 260.14C104.547 258.233 105.276 255.77 107.062 254.64L114.302 250.072C116.088 248.942 116.995 249.645 116.318 251.635Z" fill="#E3DF01"/>
<path d="M102.422 248.952L99.7186 258.582C99.1509 260.603 98.5884 260.545 98.4634 258.446L97.828 247.931C97.703 245.832 98.9113 244.394 100.526 244.712C102.14 245.03 102.989 246.931 102.422 248.952Z" fill="#0683C7"/>
<path d="M124.875 252.983L124.396 257.275L123.557 266.421C123.365 268.514 123.76 268.593 124.438 266.603L128.865 253.598C129.542 251.608 129.016 249.817 127.693 249.603C126.37 249.384 125.109 250.9 124.875 252.983Z" fill="#1FB789"/>
<path d="M74.5364 210.217L72.0728 230.603C71.8228 232.691 72.828 233.17 74.3176 231.675L84.9791 221.009C86.4739 219.514 86.4322 217.139 84.8905 215.696L77.7811 209.05C76.2395 207.613 74.7864 208.134 74.5364 210.217Z" fill="#FA8C14"/>
<path d="M74.1041 210.228L71.6458 230.614C71.3958 232.697 69.8749 233.296 68.2499 231.942L63.9166 228.338C62.2968 226.989 61.9583 224.494 63.1614 222.765L72.3749 209.577C73.5833 207.853 74.3541 208.145 74.1041 210.228Z" fill="#0683C7"/>
<path d="M55.8853 205.509L49.8176 213.764C48.5676 215.457 49.1457 216.186 51.1041 215.384L70.7083 207.348C72.6666 206.546 72.5728 205.535 70.5051 205.087L61.8958 203.243C59.8228 202.796 57.1353 203.811 55.8853 205.509Z" fill="#ED7922"/>
<path d="M62.8749 222.525L72.0885 209.337C73.2968 207.613 72.6874 206.863 70.7239 207.665L51.1197 215.702C49.1614 216.504 49.0155 218.087 50.7864 219.233L57.4791 223.572C59.2551 224.723 61.6718 224.254 62.8749 222.525Z" fill="#98CA3B"/>
<path d="M123.615 261.566L123.125 266.925C122.932 269.014 122.047 272.253 121.151 274.155L120.698 275.123C119.797 277.024 117.365 278.378 115.26 278.139L109.38 277.472C107.276 277.238 106.75 275.806 108.208 274.28L121.328 260.54C122.781 259.019 123.807 259.477 123.615 261.566Z" fill="#0683C7"/>
<path d="M60.8645 95.0404L59.1197 106.051C58.7863 108.129 57.2707 110.978 55.7291 112.421L54.8957 113.202C53.3541 114.639 52.7082 114.217 53.4582 112.254L60.1041 94.8425C60.8541 92.8737 61.1926 92.9675 60.8645 95.0404Z" fill="#1FB789"/>
<path d="M60.1092 116.306L59.5311 114.124C58.9894 112.093 58.2342 110.744 57.8436 111.108C57.4478 111.473 56.7759 113.436 56.3332 115.489L55.479 119.499C55.0363 121.556 56.1144 122.494 57.8853 121.598C59.6561 120.707 60.6509 118.337 60.1092 116.306Z" fill="#63BC49"/>
<path d="M51.8489 111.931L51.2916 101.66C51.177 99.5659 51.9427 96.3888 53 94.5711L53.5833 93.5659C54.6458 91.7482 56.8229 90.4826 58.4583 90.7378C60.0885 90.993 60.802 92.7951 60.052 94.7586L53.4114 112.175C52.6614 114.139 51.9583 114.029 51.8489 111.931Z" fill="#CD2918"/>
<path d="M56.1771 115.618L55.3177 119.623C54.8802 121.681 54.1927 123.78 53.7916 124.311C53.3854 124.847 52.5989 123.894 52.0312 122.191C51.4635 120.488 51.2239 118.54 51.4896 117.842C51.7552 117.139 53.0937 115.524 54.4739 114.233C55.8541 112.941 56.6146 113.561 56.1771 115.618Z" fill="#4590D4"/>
<path d="M51.005 102.014L51.5623 112.285C51.6769 114.384 51.5519 116.649 51.2811 117.353C51.0154 118.051 49.4581 118.233 47.8123 117.764C46.1613 117.29 45.3383 115.285 45.979 113.285L49.6404 101.842C50.2811 99.8422 50.8904 99.9151 51.005 102.014Z" fill="#98CA3B"/>
<path d="M52.7759 126.254C52.8228 125.853 52.4009 124.15 51.8332 122.447C51.2655 120.743 49.4686 118.978 47.8176 118.504C46.1666 118.035 44.8488 119.353 44.8749 121.452L44.9478 127.28C44.9738 129.379 46.5051 130.275 48.3749 129.28L49.3176 128.775C51.1874 127.78 52.7343 126.65 52.7759 126.254Z" fill="#3873BB"/>
<path d="M53.1042 130.863C52.9063 128.91 51.2344 128.129 49.3698 129.124L48.4219 129.629C46.5573 130.624 46.6615 132.004 48.6615 132.712L49.849 133.129C51.8438 133.837 53.3021 132.822 53.1042 130.863Z" fill="#F19B1D"/>
<path d="M56.0052 137.655C54.6823 136.051 52.6719 135.468 51.5104 136.358C50.349 137.244 51.0573 138.442 53.0938 139.03L54.7188 139.499C56.75 140.088 57.3281 139.265 56.0052 137.655Z" fill="#E3DF01"/>
<path d="M44.979 133.65C44.979 134.775 45.9217 136.16 47.0832 136.749C48.2498 137.337 50.1353 137.092 51.2915 136.207C52.453 135.316 51.7759 134.025 49.7811 133.316L48.5936 132.9C46.5936 132.191 44.979 132.53 44.979 133.65Z" fill="#FA6024"/>
<path d="M91.8124 85.6391L91.7603 89.0297C91.7239 91.1286 91.5312 92.8266 91.3333 92.8161C91.1301 92.8057 90.5051 91.1599 89.9374 89.1339L88.9895 85.7536C88.4218 83.7276 88.8385 82.0349 89.9166 81.962C90.9999 81.8943 91.8489 83.5401 91.8124 85.6391Z" fill="#F19B1D"/>
<path d="M110.687 89.1811L101.698 94.5145C99.88 95.5926 99.4894 95.1447 100.823 93.5145L102.104 91.9468C103.437 90.3166 105.797 88.2176 107.375 87.2593C108.948 86.3009 111.068 85.9051 112.104 86.3739C113.14 86.8426 112.505 88.103 110.687 89.1811Z" fill="#F19B1D"/>
<path d="M218.427 63.3375L221.177 64.0719C223.224 64.6136 224.76 65.3479 224.609 65.7073C224.453 66.0667 222.625 66.1396 220.526 65.874L215.448 65.2229C213.344 64.9521 212.328 64.2021 213.182 63.5459C214.031 62.8896 216.38 62.7959 218.427 63.3375Z" fill="#159C1F"/>
<path d="M200.406 74.4259L184.76 86.1706C183.073 87.4415 183.354 88.0144 185.396 87.4467L194.927 84.8113C196.969 84.2488 199.276 82.2175 200.083 80.2748L202.005 75.6498C202.812 73.7071 202.094 73.1602 200.406 74.4259Z" fill="#E3DF01"/>
<path d="M209.557 72.9986L201.802 80.8528C200.318 82.358 199.771 81.9986 200.578 80.0559L202.495 75.4309C203.302 73.4882 205.641 71.5819 207.719 71.1705L208.479 71.0246C210.557 70.6132 211.042 71.4986 209.557 72.9986Z" fill="#FA6024"/>
<path d="M100.182 266.697L103.333 273.718C104.193 275.634 104.552 277.369 104.135 277.587C103.724 277.806 101.672 278.139 99.5625 278.332L96.5677 278.603C94.4583 278.796 92.7864 277.249 92.8437 275.15L92.8593 274.442C92.9114 272.343 93.9948 269.285 95.2708 267.608L96.3125 266.249C97.5885 264.577 99.3229 264.775 100.182 266.697Z" fill="#159C1F"/>
<path d="M115.521 280.946L110.875 283.374C109 284.358 107.031 283.509 106.469 281.483L106.422 281.311C105.865 279.285 107.115 277.837 109.224 278.077L115.099 278.738C117.208 278.978 117.396 279.967 115.521 280.946Z" fill="#98CA3B"/>
<path d="M121.375 248.66C123.349 248.983 124.755 250.941 124.526 253.03L124.469 253.54C124.234 255.624 122.864 258.556 121.406 260.082L112.146 269.78C110.687 271.306 110.057 270.926 110.729 268.936L116.583 251.676C117.26 249.686 119.406 248.337 121.375 248.66Z" fill="#F19B1D"/>
<path d="M82.6926 281.009C81.9426 281.921 81.0416 284.343 80.6874 286.41L80.5051 287.436C80.151 289.509 79.9947 291.806 80.1562 292.566C80.3229 293.327 81.7395 294.572 83.3176 295.337C84.901 296.108 87.6458 295.837 89.4531 294.744L92.0156 293.186C93.8229 292.087 93.5989 291.509 91.5156 291.895L89.2551 292.316C87.1718 292.707 84.9635 292.415 84.3176 291.671C83.6718 290.926 83.3281 288.983 83.5468 287.337C83.7656 285.686 84.9687 283.28 86.2343 281.957C87.4999 280.639 87.5208 279.52 86.2864 279.462C85.052 279.405 83.4426 280.098 82.6926 281.009Z" fill="#FA8C14"/>
<path d="M90.6459 282.421C90.2292 283.931 90.6198 285.983 88.8646 287.166L87.6094 288.009C85.8542 289.186 84.6094 288.806 84.8282 287.16C85.0469 285.509 86.25 283.103 87.5157 281.78C88.7813 280.462 90.6459 279.431 91.6823 279.478C92.7136 279.525 91.0625 280.91 90.6459 282.421Z" fill="#FA8C14"/>
<path d="M91.8073 291.515L89.7552 291.895C87.8646 292.249 85.8594 291.983 85.276 291.306C84.6927 290.635 85.5052 289.218 87.0989 288.15L88.2396 287.379C89.8281 286.312 92.0364 286.661 93.1719 288.161C94.3073 289.661 93.6979 291.161 91.8073 291.515Z" fill="#F19B1D"/>
<path d="M114.172 250.165L106.932 254.733C105.146 255.863 104.417 258.326 105.297 260.233L108.323 266.774C109.208 268.681 109.739 270.759 109.515 271.41C109.292 272.061 108.245 273.493 107.177 274.608C106.114 275.727 104.552 275.076 103.693 273.154L100.542 266.134C99.6821 264.212 99.4426 261.019 100.01 258.993L102.713 249.368C103.281 247.342 104.875 245.925 106.265 246.201L108.792 246.701L113.625 247.498C115.713 247.842 115.958 249.035 114.172 250.165Z" fill="#FA6024"/>
<path d="M80.3541 286.363L80.177 287.394C79.8176 289.462 78.7447 291.077 77.7811 291.004C76.8176 290.926 76.1301 289.16 76.2499 287.066L76.3124 286.03C76.4322 283.936 77.5311 282.322 78.7655 282.426C79.9999 282.53 80.7082 284.295 80.3541 286.363Z" fill="#F4C90C"/>
<path d="M85.2343 275.911C84.4739 277.556 83.2499 279.635 82.4999 280.546C81.7499 281.457 80.1405 282.109 78.9062 282.004C77.6666 281.9 77.9426 280.671 79.5155 279.265L83.7603 275.473C85.3332 274.067 85.9947 274.26 85.2343 275.911Z" fill="#7F3F98"/>
<path d="M92.4739 274.613L92.4531 275.322C92.401 277.421 90.6406 279.046 88.526 278.947L87.9739 278.921C85.8542 278.827 84.7552 277.41 85.5156 275.759C86.276 274.113 88.1614 272.337 89.7292 271.796C91.2969 271.254 92.526 272.514 92.4739 274.613Z" fill="#98CA3B"/>
<path d="M82.2656 299.061L77.8489 301.191C75.9426 302.108 73.3854 303.832 72.1458 305.04C70.901 306.249 68.6718 306.847 67.1614 306.374C65.6562 305.9 65.8385 304.535 67.5676 303.321L74.2395 298.629C74.2395 298.629 75.526 297.733 77.1145 296.624C78.7031 295.514 81.2708 295.243 82.8541 296.009C84.4322 296.78 84.1718 298.144 82.2656 299.061Z" fill="#FA6024"/>
<path d="M76.1042 286.061L76.0469 287.098C75.9271 289.197 74.1615 290.759 72.1042 290.598C70.0469 290.436 69.5833 289.082 71.0625 287.582L73.6354 284.983C75.1198 283.483 76.224 283.968 76.1042 286.061Z" fill="#F7DC0F"/>
<path d="M73.1613 295.389L64.7707 299.571C63.0832 300.415 61.979 302.202 62.3019 303.566C62.6301 304.926 64.1405 305.16 65.6821 304.077L73.953 298.28C75.4946 297.202 76.6249 295.775 76.479 295.097C76.3332 294.415 74.8488 294.545 73.1613 295.389Z" fill="#4590D4"/>
<path d="M66.3385 293.942L64.8906 296.379C63.8177 298.186 64.4792 298.89 66.375 297.947L75.7969 293.249C77.6875 292.301 77.5104 291.4 75.3958 291.233L72.1094 290.973C69.9948 290.801 67.4115 292.134 66.3385 293.942Z" fill="#4590D4"/>
<path d="M90.8592 267.962C89.4165 267.223 86.9738 267.77 85.4113 269.186L83.104 271.275C81.5415 272.692 81.7446 273.551 83.5571 273.186C85.3696 272.827 88.1092 272.093 89.6769 271.551C91.2446 271.009 92.729 270.29 92.9946 269.942C93.2602 269.593 92.3071 268.707 90.8592 267.962Z" fill="#50BC5C"/>
<path d="M78.1979 278.254L78.4739 277.634C79.3281 275.712 81.4947 273.863 83.3072 273.498C85.1197 273.139 85.3124 273.988 83.7395 275.394L79.4947 279.186C77.9218 280.592 77.3385 280.176 78.1979 278.254Z" fill="#FFFF81"/>
<path d="M103.568 287.046L99.1927 289.275C97.3073 290.233 94.7657 289.671 93.5157 288.02C92.2657 286.363 91.5886 283.801 92.0052 282.291C92.4219 280.78 94.474 279.4 96.5834 279.207L99.5782 278.936C101.693 278.744 103.74 278.41 104.156 278.192C104.573 277.973 105.359 279.436 105.922 281.462L105.969 281.634C106.526 283.66 105.453 286.082 103.568 287.046Z" fill="#7F3F98"/>
<path d="M87.4529 143.733L108.041 139.707C110.12 139.301 112.344 140.587 113.01 142.582L118.094 157.785C118.76 159.78 117.594 161.243 115.479 161.056L93.1665 159.077C91.0571 158.889 88.7186 157.155 87.9425 155.202L85.0883 148.009C84.3175 146.051 85.3748 144.139 87.4529 143.733Z" fill="#FA8C14"/>
<path d="M121.167 124.571L114.594 135.264C113.489 137.056 113.135 140.129 113.802 142.123L118.885 157.326C119.552 159.321 121.094 159.556 122.328 157.847L127.661 150.488C128.896 148.78 129.474 145.748 128.948 143.712L124.114 125.009C123.594 122.972 122.271 122.78 121.167 124.571Z" fill="#0683C7"/>
<path d="M72.9634 138.978C73.4113 140.926 72.0519 142.457 69.9321 142.405L64.0311 142.265C61.9165 142.212 61.6926 141.327 63.5363 140.296L68.8176 137.332C70.6613 136.296 72.5207 137.035 72.9634 138.978Z" fill="#F4C90C"/>
<path d="M84.7969 160.045L74.6354 163.025C72.6042 163.623 71.8438 162.65 72.9427 160.853L80.8333 147.946C81.9323 146.155 83.4479 146.28 84.224 148.238L87.0729 155.431C87.849 157.384 86.8281 159.452 84.7969 160.045Z" fill="#98CA3B"/>
<path d="M133.318 150.525L138.276 154.311C139.953 155.592 140.088 157.827 138.578 159.301L134.698 163.087C133.187 164.561 130.344 165.191 128.349 164.494L124.094 163.009C122.094 162.306 121.474 160.358 122.713 158.655L128.042 151.29C129.276 149.587 131.641 149.244 133.318 150.525Z" fill="#F7DC0F"/>
<path d="M141.625 165.962L141.604 160.754C141.599 158.655 140.37 158.15 138.859 159.624L134.979 163.41C133.469 164.884 133.844 166.707 135.813 167.483L138.068 168.368C140.036 169.139 141.63 168.066 141.625 165.962Z" fill="#63BC49"/>
<path d="M68.6249 137.238L63.3385 140.202C61.4947 141.238 58.9166 140.759 57.578 139.129L56.3958 137.697C55.0572 136.066 55.6874 134.806 57.802 134.879L68.1301 135.233C70.2447 135.306 70.4687 136.207 68.6249 137.238Z" fill="#F4C90C"/>
<path d="M94.8177 94.9464C93.1407 93.9881 91.6198 93.2068 91.4167 93.1964C91.2188 93.186 90.3073 93.9881 89.3854 94.9828C88.4636 95.9828 89.4375 96.7745 91.5573 96.7537L94.0157 96.7276C96.1354 96.7016 96.4948 95.9099 94.8177 94.9464Z" fill="#159C1F"/>
<path d="M88.2967 103.994L94.7134 99.249C96.4165 97.9938 96.0727 96.999 93.9529 97.0199L91.4946 97.0459C89.3748 97.0667 87.2186 98.7334 86.6821 100.765L86.1925 102.588C85.6561 104.619 86.5936 105.249 88.2967 103.994Z" fill="#F4C90C"/>
<path d="M162.042 101.504L144.75 111.41C142.917 112.462 140.958 111.675 140.385 109.655L139.927 108.061C139.349 106.035 139.443 103.915 140.141 103.316C140.833 102.717 142.974 102.91 144.917 103.748L147.542 104.879C149.49 105.717 151.531 104.754 152.104 102.733L153.167 98.9932C153.74 96.9723 155.771 96.04 157.693 96.915L158.469 97.2692C160.391 98.1442 162.266 97.1807 162.646 95.113L162.812 94.2275C163.193 92.1598 163.844 92.1546 164.266 94.2119L164.604 95.8682C165.021 97.9307 163.875 100.452 162.042 101.504Z" fill="#0683C7"/>
<path d="M177.703 91.2748L169.318 97.0039C167.573 98.1966 165.818 97.4935 165.401 95.4362L165.349 95.2018C164.932 93.1393 166.291 91.2279 168.39 90.9206L177.068 89.6654C179.166 89.3581 179.448 90.0821 177.703 91.2748Z" fill="#FA6024"/>
<path d="M108.687 80.348C109.719 81.5563 108.906 83.0199 106.875 83.6188L105.005 84.1657C102.974 84.7646 100.203 84.973 98.8176 84.6344C97.427 84.2959 96.7134 83.3949 97.2187 82.624C97.7239 81.8532 99.7499 80.6553 101.75 79.9521L103.208 79.4365C105.203 78.7334 107.656 79.1396 108.687 80.348Z" fill="#672576"/>
<path d="M94.578 78.9574L94.8592 79.4939C95.8384 81.3584 96.479 83.1032 96.2915 83.3949C96.0988 83.6866 95.0675 83.8689 93.9842 83.8064C92.9061 83.7386 92.0259 82.0772 92.0259 80.0876C92.0259 78.1032 92.203 76.2855 92.4165 76.0355C92.63 75.7855 93.5988 77.0928 94.578 78.9574Z" fill="#3873BB"/>
<path d="M79.8176 110.941L76.4582 116.212C76.4582 116.212 75.927 117.025 75.2707 118.025C74.6145 119.025 72.4895 119.254 70.5207 118.535C68.552 117.816 68.4009 116.316 70.1822 115.181L78.6405 109.785C80.427 108.65 80.953 109.165 79.8176 110.941Z" fill="#F7DC0F"/>
<path d="M77.9999 130.254L87.9218 113.358C88.9843 111.546 88.3124 110.832 86.4166 111.775L80.1666 114.879C78.2708 115.816 76.203 117.379 75.5468 118.363C74.8905 119.348 74.5728 121.837 74.8385 123.921L75.5885 129.769C75.8541 131.853 76.9322 132.072 77.9999 130.254Z" fill="#672576"/>
<path d="M82.901 142.702C82.9531 141.968 81.7708 140.187 80.2604 138.713L78.7187 137.208C77.2083 135.739 76.0104 136.244 76.0416 138.343L76.1354 144.181C76.1666 146.28 77.6666 147.103 79.4791 146.015L79.5208 145.989C81.3333 144.9 82.8489 143.431 82.901 142.702Z" fill="#3873BB"/>
<path d="M97.3333 125.29L86.1927 138.108C84.8125 139.697 83.6458 141.582 83.5937 142.311C83.5417 143.04 85.1823 143.301 87.2604 142.894L107.849 138.868C109.927 138.462 110.589 136.769 109.328 135.082L102.125 125.467C100.859 123.78 98.7187 123.702 97.3333 125.29Z" fill="#FA6024"/>
<path d="M136.37 131.702L140.729 152.155C141.167 154.212 140.161 154.837 138.484 153.556L133.526 149.769C131.849 148.488 130.917 145.801 131.448 143.764L134.614 131.66C135.146 129.629 135.932 129.644 136.37 131.702Z" fill="#CD2918"/>
<path d="M139.354 108.498L139.807 110.097C140.385 112.118 140.859 114.509 140.87 115.436C140.88 116.363 139.734 115.847 138.318 114.285L135.724 111.425C134.307 109.863 134.312 107.759 135.734 106.717C137.156 105.681 138.776 106.477 139.354 108.498Z" fill="#98CA3B"/>
<path d="M138.271 132.536L140.198 121.437C140.562 119.364 139.703 116.421 138.286 114.859L135.693 112.004C134.271 110.442 133.359 110.864 133.651 112.942L135.609 126.999L136.812 132.562C137.255 134.614 137.906 134.603 138.271 132.536Z" fill="#50BC5C"/>
<path d="M126.833 122.816L131.964 125.686C133.813 126.717 134.875 129.202 134.344 131.233L131.182 143.337C130.651 145.374 129.797 145.368 129.271 143.337L124.443 124.634C123.917 122.598 124.984 121.785 126.833 122.816Z" fill="#159C1F"/>
<path d="M70.7394 122.671L67.1978 125.061C65.4426 126.244 65.2759 128.369 66.8228 129.806L69.4686 132.27C71.0155 133.707 72.953 134.171 73.8071 133.306C74.6561 132.441 75.1301 130.051 74.8644 127.968L74.3957 124.301C74.1249 122.218 72.4894 121.488 70.7394 122.671Z" fill="#CD2918"/>
<path d="M57.8125 134.582L68.1354 134.936C70.2552 135.009 70.7187 133.905 69.1771 132.467L66.5312 130.004C64.9844 128.566 62.3437 128.4 60.6302 129.639L57.0781 132.207C55.3646 133.446 55.6979 134.509 57.8125 134.582Z" fill="#7F3F98"/>
<path d="M57.0832 126.921L60.0311 126.931C62.1509 126.937 65.2811 125.968 67.0155 124.765L70.4478 122.39C72.1874 121.187 71.9999 119.645 70.0311 118.942C68.0624 118.239 64.9374 118.442 63.0467 119.4L58.2863 121.806C56.3957 122.76 54.5415 123.963 54.1353 124.499C53.7342 125.03 53.3697 125.786 53.3228 126.187C53.2811 126.582 54.9634 126.911 57.0832 126.921Z" fill="#159C1F"/>
<path d="M56.8541 132.119L60.4062 129.546C62.1197 128.311 61.7916 127.301 59.6718 127.296L56.8802 127.285C54.7604 127.28 53.2031 128.858 53.401 130.816C53.5937 132.77 55.1458 133.353 56.8541 132.119Z" fill="#CD2918"/>
<path d="M75.6509 133.384C75.7238 133.973 75.8124 136.155 75.8436 138.254L75.9374 144.087C75.9686 146.186 75.578 146.754 75.0624 145.358C74.5468 143.957 73.7447 141.17 73.2811 139.139C72.8124 137.103 73.1197 134.754 73.9739 133.889C74.8228 133.025 75.5728 132.801 75.6509 133.384Z" fill="#F4C90C"/>
<path d="M80.7811 147.692L77.7915 152.582C76.6978 154.379 75.8853 154.171 75.9842 152.119C76.0832 150.067 77.6353 147.52 79.4478 146.437L79.4894 146.411C81.3019 145.322 81.8801 145.9 80.7811 147.692Z" fill="#0683C7"/>
<path d="M79.2344 170.889C78.9531 172.368 80.3333 174.16 82.3177 174.899L87.401 176.79C89.3854 177.524 89.8646 176.847 88.4635 175.264L85.724 172.17C84.3229 170.592 82.4167 169.066 81.4635 168.764C80.5104 168.462 79.5104 169.415 79.2344 170.889Z" fill="#FA6024"/>
<path d="M89.6665 206.894L67.0572 196.113C65.1457 195.201 64.8228 195.655 66.3384 197.128L72.2186 202.852C73.729 204.321 76.6509 205.795 78.7395 206.144L89.3436 207.91C91.4322 208.259 91.578 207.806 89.6665 206.894Z" fill="#F7DC0F"/>
<path d="M62.1196 202.79L70.729 204.639C72.7967 205.082 73.2498 204.254 71.7394 202.78L65.8592 197.061C64.3488 195.587 62.2186 195.842 61.0988 197.624L60.3904 198.754C59.2759 200.54 60.0519 202.348 62.1196 202.79Z" fill="#E3DF01"/>
<path d="M119.771 219.093L130.906 212.712C132.745 211.66 134.172 212.509 134.094 214.608L133.677 226.488C133.599 228.587 132.005 231.051 130.109 231.988L126.672 233.691C124.776 234.629 122.51 233.848 121.615 231.947L118.073 224.441C117.177 222.54 117.937 220.145 119.771 219.093Z" fill="#7F3F98"/>
<path d="M133.922 202.451V206.566C133.922 208.597 132.484 211.071 130.703 212.087L119.922 218.264C118.146 219.285 115.542 218.931 114.109 217.477L103.51 206.722C102.073 205.269 102.13 202.967 103.635 201.587L111.151 194.675C112.651 193.295 114.948 193.431 116.281 194.977L120.875 200.332C122.203 201.884 124.818 202.509 126.713 201.727L130.49 200.175C132.385 199.399 133.922 200.415 133.922 202.451Z" fill="#159C1F"/>
<path d="M128.76 186.28L95.9166 179.306C93.8437 178.869 93.6301 177.624 95.4426 176.53L95.7655 176.332C97.5728 175.238 100.734 174.624 102.823 174.968L129.281 179.28C131.375 179.619 132.943 181.504 132.792 183.488C132.635 185.473 130.833 186.723 128.76 186.28Z" fill="#63BC49"/>
<path d="M132.448 170.733L131.375 175.28C130.89 177.327 131.276 179.108 132.239 179.27C133.203 179.426 135.312 178.478 136.958 177.15L138.489 175.916C140.135 174.587 141.489 172.785 141.521 171.89C141.552 170.994 139.979 169.64 138.01 168.869L136.896 168.431C134.922 167.655 132.932 168.686 132.448 170.733Z" fill="#159C1F"/>
<path d="M104.26 121.905L118.953 120.941C121.068 120.806 121.885 122.144 120.781 123.936L114.208 134.629C113.104 136.425 111.187 136.509 109.922 134.821L102.719 125.207C101.458 123.519 102.146 122.04 104.26 121.905Z" fill="#CD2918"/>
<path d="M133.37 112.717L134.807 123.009C135.099 125.092 133.833 125.941 131.99 124.91L126.854 122.04C125.01 121.009 124.604 118.858 125.953 117.238L130.406 111.884C131.755 110.264 133.083 110.639 133.37 112.717Z" fill="#F4C90C"/>
<path d="M144.724 100.024L153.911 94.5088L158.625 91.9723C160.489 90.9723 162.349 90.1806 162.776 90.2067C163.203 90.2275 163.239 91.9254 162.859 93.9879L162.693 94.8786C162.312 96.9463 160.437 97.9098 158.51 97.0348L157.739 96.6806C155.812 95.8056 153.786 96.7379 153.213 98.7588L152.151 102.498C151.573 104.519 149.536 105.483 147.588 104.644L144.963 103.514C143.021 102.675 142.911 101.113 144.724 100.024Z" fill="#50BC5C"/>
<path d="M152.099 91.7803C152.974 93.2335 152.214 95.296 150.401 96.3845L144.5 99.9314C142.688 101.02 142.224 100.525 143.464 98.822L148.271 92.2335C149.51 90.5303 151.229 90.3272 152.099 91.7803Z" fill="#1FB789"/>
<path d="M195.427 86.5452L193.807 87.7796C192.125 89.0608 189.281 90.9619 187.453 92.0244L185.286 93.29C183.458 94.3525 181.88 93.8004 181.76 92.0608C181.646 90.316 183.203 88.4462 185.245 87.8837L194.776 85.2483C196.812 84.6858 197.109 85.2639 195.427 86.5452Z" fill="#63BC49"/>
<path d="M169.989 98.2903L177.677 96.3945C179.734 95.884 181.302 94.0611 181.187 92.3215C181.068 90.5767 179.557 90.134 177.812 91.3267L169.427 97.0559C167.682 98.2486 167.932 98.8007 169.989 98.2903Z" fill="#3873BB"/>
<path d="M156.573 81.4206L160.005 85.1811C161.427 86.7383 162.927 88.0248 163.354 88.0456C163.781 88.0717 164.188 87.6915 164.266 87.1915C164.339 86.6915 164.339 85.5092 164.266 84.5456C164.188 83.5873 162.578 82.0717 160.667 81.1706L158.745 80.2644C156.833 79.3581 154.995 78.6186 154.641 78.6133C154.286 78.6029 155.151 79.8633 156.573 81.4206Z" fill="#4590D4"/>
<path d="M150.104 81.1497L156.479 84.9779C158.292 86.0664 158.609 85.6862 157.187 84.1289L155.995 82.8164C154.573 81.2591 153.094 79.8112 152.682 79.5872C152.276 79.3633 150.797 79.1758 149.385 79.1758C147.969 79.1758 148.292 80.0612 150.104 81.1497Z" fill="#672576"/>
<path d="M167.927 85.811L176.25 80.8371C178.068 79.7537 180.635 78.3735 181.995 77.7537C183.349 77.1287 183.281 77.8787 181.838 79.4152L178.26 83.2433C176.823 84.785 177.364 86.2121 179.469 86.4308L179.526 86.436C181.635 86.6496 182.802 87.2329 182.135 87.7329C181.469 88.2329 179.229 88.8839 177.135 89.186L168.453 90.4464C166.359 90.7485 164.594 90.6808 164.51 90.285C164.432 89.8944 164.427 89.1704 164.505 88.6756C164.578 88.1756 166.109 86.8944 167.927 85.811Z" fill="#F19B1D"/>
<path d="M195.917 77.6502L186.932 84.395C185.245 85.6659 182.167 86.5148 180.057 86.2961L180.005 86.2909C177.896 86.0773 176.62 85.4367 177.156 84.8638C177.693 84.2856 179.719 83.1763 181.677 82.3794L195.427 76.7961C197.385 75.9992 197.604 76.3846 195.917 77.6502Z" fill="#CD2918"/>
<path d="M94.7812 86.7491L94.7968 86.7647C96.2604 88.2856 98.2604 88.6033 99.2604 87.4835C100.26 86.3637 99.9427 85.1814 98.5572 84.8429C97.1718 84.5043 95.1666 84.1814 94.0833 84.1137C93.0052 84.0512 93.3125 85.2283 94.7812 86.7491Z" fill="#50BC5C"/>
<path d="M96.427 73.6445L97.1093 77.2018C97.5052 79.2643 97.5677 81.332 97.2552 81.8112C96.9375 82.2955 95.8906 81.1758 94.9114 79.3112L94.625 78.7747C93.6458 76.9101 93.0885 74.4726 93.375 73.3372C93.6666 72.1966 94.302 70.9674 94.8072 70.5872C95.3072 70.2122 96.0364 71.582 96.427 73.6445Z" fill="#4590D4"/>
<path d="M102.635 87.3373C103.484 88.2539 103.089 90.3164 101.755 91.9518L100.474 93.5143C99.1406 95.1445 96.6979 95.6914 95.0208 94.7331C93.3437 93.7748 92.0208 91.2956 92.0625 89.1914L92.0885 88.03C92.1302 85.9258 93.3489 85.457 94.8177 86.9727L94.8333 86.9935C96.3021 88.5091 98.2969 88.832 99.2969 87.7123C100.297 86.5873 101.792 86.4258 102.635 87.3373Z" fill="#FA6024"/>
<path d="M90.3905 93.3845C90.0988 93.697 89.4269 92.5407 88.8853 90.7959C88.3436 89.0511 87.6978 86.348 87.4478 84.7491C87.1925 83.1501 87.1925 81.9105 87.4478 81.9782C87.6978 82.0511 88.3644 83.7491 88.9321 85.7699L89.8853 89.1501C90.453 91.1761 90.6769 93.072 90.3905 93.3845Z" fill="#F19B1D"/>
<path d="M225.766 49.3216C226.484 48.1706 226.948 46.8893 226.802 46.4623C226.656 46.0352 225.484 46.7175 224.193 47.9883L221.849 50.2904L209.193 61.681C207.62 63.0925 207.521 64.2487 208.969 64.2539C210.411 64.2643 212.276 63.7435 213.125 63.0821C213.979 62.4258 215.818 60.6289 217.239 59.0716L221.323 54.5821C222.745 53.0248 224.021 51.681 224.177 51.5821C224.333 51.4883 225.042 50.4727 225.766 49.3216Z" fill="#FA8C14"/>
<mask id="mask2_372_268" style="mask-type:luminance" maskUnits="userSpaceOnUse" x="223" y="46" width="11" height="12">
<path d="M223.656 46.5713H234V57.238H223.656V46.5713Z" fill="white"/>
</mask>
<g mask="url(#mask2_372_268)">
<path d="M230.771 52.4202L231.088 51.8942C232.182 50.0921 232.495 48.0817 231.786 47.3994C231.078 46.7171 229.495 47.415 228.25 48.9619C227.005 50.5087 225.755 51.6442 225.463 51.5035C225.172 51.3629 224.818 51.3421 224.651 51.4202C224.484 51.5035 224.932 51.9827 225.62 52.4515C226.307 52.9202 227.213 54.4098 227.635 55.7796C228.057 57.1494 229.651 57.5244 231.198 56.6181C232.745 55.7119 234 54.6337 234 54.2119C234 53.7848 232.833 53.9462 231.396 54.5608C229.958 55.1806 229.677 54.2223 230.771 52.4202Z" fill="#FA8C14"/>
</g>
<path d="M208.109 70.7593L212.635 69.8687L219.901 68.4104C221.979 67.9937 223.776 67.4104 223.922 67.0979C224.068 66.7906 222.479 66.327 220.375 66.0614L215.302 65.4208C213.198 65.1552 210.234 66.0979 208.677 67.5249L207.161 68.9156C205.609 70.3479 206.031 71.1708 208.109 70.7593Z" fill="#0683C7"/>
<path d="M94.1353 109.54L108.047 107.28C110.141 106.941 110.771 108.004 109.458 109.655L99.7291 121.884L86.0832 137.577C84.6978 139.17 82.3541 139.264 80.8436 137.79L79.302 136.29C77.7916 134.816 77.4322 132.149 78.4947 130.337L88.4166 113.441C89.4843 111.623 92.0416 109.879 94.1353 109.54Z" fill="#9A39B2"/>
<path d="M129.865 111.675L125.411 117.03C124.062 118.649 121.255 120.077 119.141 120.212L104.453 121.175C102.339 121.316 101.687 120.087 103 118.441L110.354 109.196C111.667 107.55 114.437 106.431 116.536 106.702L128.5 108.248C130.599 108.519 131.214 110.056 129.865 111.675Z" fill="#4590D4"/>
<path d="M140.12 92.0608L140.026 99.0504C139.995 101.155 140.224 102.639 140.531 102.373C140.839 102.108 142.094 100.514 143.339 98.8108L148.141 92.2222C149.385 90.5243 148.677 88.9931 146.568 88.8108L143.995 88.5868C141.885 88.4045 140.151 89.9566 140.12 92.0608Z" fill="#F4C90C"/>
<path d="M80.7344 110.624L79.4219 112.681C78.2917 114.452 78.9063 115.129 80.8021 114.192L87.0573 111.088C88.9531 110.15 92.1459 108.937 94.1927 108.384L109.839 104.166C111.885 103.614 113.927 103.197 114.406 103.233C114.885 103.275 115.656 102.739 116.125 102.046C116.594 101.348 115.255 100.78 113.135 100.78H109.016C106.896 100.78 103.531 101.265 101.5 101.869L86.4584 106.322C84.4323 106.921 81.8646 108.848 80.7344 110.624Z" fill="#CD2918"/>
<path d="M101.406 98.7016L101.635 98.8109C103.536 99.7328 103.437 100.972 101.406 101.571L89.0624 105.228C87.0311 105.827 86.7655 105.301 88.4634 104.045L94.8853 99.3005C96.5832 98.0453 99.5051 97.7745 101.406 98.7016Z" fill="#ED7922"/>
<path d="M126.667 91.3325L102.51 95.8169C100.427 96.2075 100.208 95.645 102.026 94.5669L111.016 89.2284C112.833 88.1502 115.25 87.3065 116.411 87.3429C117.573 87.3794 120.172 87.8586 122.219 88.4106L126.734 89.6346C128.781 90.1867 128.75 90.9471 126.667 91.3325Z" fill="#98CA3B"/>
<path d="M113.594 83.0611L113.599 83.0872C113.849 85.1757 113.213 86.483 112.177 86.0142C111.146 85.5403 109.026 85.9413 107.448 86.8997C105.87 87.858 103.906 87.8944 103.062 86.9778C102.219 86.0611 103.177 84.8372 105.213 84.2382L107.078 83.6913C109.109 83.0924 110.109 81.8528 109.318 80.9205C108.521 79.9882 109.057 79.2434 110.51 79.259C111.963 79.2694 113.344 80.9726 113.594 83.0611Z" fill="#1FB789"/>
<path d="M139.844 92.1289L139.745 99.1237C139.719 101.223 139.38 103.197 138.995 103.53C138.604 103.863 137.463 102.645 136.437 100.806L135.583 99.2695C134.557 97.431 134.802 94.6133 136.13 92.9779L137.495 91.2956C138.818 89.6549 139.87 90.0299 139.844 92.1289Z" fill="#3873BB"/>
<path d="M122.391 85.1495L124.406 83.936C126.219 82.8474 128.286 81.9308 129.021 81.8891C129.755 81.8474 131.792 82.7381 133.568 83.8891L136.359 85.6912C138.135 86.8422 137.927 88.2641 135.901 88.8787L134.703 89.2381C132.677 89.8474 129.375 89.8943 127.328 89.3422L122.812 88.1183C120.766 87.5662 120.578 86.2381 122.391 85.1495Z" fill="#F19B1D"/>
<path d="M150.156 81.3682L156.531 85.1963C158.344 86.2849 160.318 87.7172 160.932 88.3943C161.552 89.0713 160.542 90.4307 158.677 91.4307L157.333 92.1547C155.474 93.1599 153.255 92.7901 152.38 91.337C151.505 89.8838 150.135 87.1338 149.318 85.1963L148.354 82.9047C147.536 80.9672 148.344 80.2797 150.156 81.3682Z" fill="#FA8C14"/>
<path d="M109.094 98.4988L117.568 94.2852C119.458 93.3425 119.307 92.8894 117.224 93.28L102.318 96.0457C100.234 96.4311 100.089 97.4936 101.995 98.4207L102.219 98.53C104.125 99.4519 107.203 99.4363 109.094 98.4988Z" fill="#E3DF01"/>
<path d="M140.739 84.6862C140.255 86.332 138.427 86.7383 136.651 85.5924L133.859 83.7852C132.083 82.6341 131.943 81.5508 133.547 81.3633C135.151 81.1706 137.604 81.1706 139.031 81.3633C140.458 81.5508 141.224 83.0404 140.739 84.6862Z" fill="#0683C7"/>
<path d="M146.578 88.3272C148.693 88.5147 147.615 81.5459 147.615 81.5459C145.974 80.2178 141.542 83.1449 141.062 84.7959C140.578 86.4418 146.578 88.3272 146.578 88.3272Z" fill="#98CA3B"/>
<path d="M135.281 99.4203L136.135 100.952C137.161 102.79 136.385 103.676 134.401 102.936L124.583 99.2484C122.604 98.5088 122.698 97.6547 124.792 97.3474L129.63 96.6443C131.724 96.337 134.255 97.5818 135.281 99.4203Z" fill="#159C1F"/>
<path d="M137.234 91.0404L135.87 92.7279C134.547 94.3633 131.818 95.2174 129.781 94.6341L125.531 93.4206C123.495 92.8372 123.531 92.0508 125.615 91.6654L127.323 91.3477C129.406 90.957 132.74 90.1497 134.771 89.5404L135.969 89.181C137.995 88.5716 138.562 89.4049 137.234 91.0404Z" fill="#159C1F"/>
<path d="M109.979 100.53H114.104C116.219 100.53 119.458 101.327 121.328 102.311L129.125 106.4C130.995 107.384 133.667 107.337 135.089 106.301C136.51 105.264 136.057 103.816 134.078 103.077L124.255 99.3892C122.276 98.6444 118.953 98.1704 116.844 98.3267L113.292 98.5923C111.177 98.7485 108.724 99.2433 107.802 99.7017C106.885 100.16 107.859 100.53 109.979 100.53Z" fill="#FA6024"/>
<path d="M125.141 93.613L129.391 94.8318C131.427 95.4151 131.38 96.1339 129.281 96.4412L120.651 97.6964L113.276 98.2433C111.161 98.4047 110.984 97.7641 112.875 96.8214L118.026 94.2641C119.917 93.3214 123.104 93.0297 125.141 93.613Z" fill="#63BC49"/>
<path d="M94.8384 108.645L108.75 106.39C110.844 106.051 114.239 105.994 116.344 106.265L128.307 107.811C130.406 108.082 130.594 107.509 128.719 106.525L120.927 102.436C119.057 101.452 117.156 101.218 116.687 101.916C116.219 102.614 115.448 103.15 114.974 103.108C114.495 103.072 112.448 103.489 110.401 104.041L94.7551 108.259C92.7082 108.811 92.7499 108.983 94.8384 108.645Z" fill="#E3DF01"/>
<path d="M182.526 79.0927L180.891 80.8427C179.453 82.3843 179.875 82.9885 181.833 82.1916L195.578 76.6083C197.542 75.8114 200.083 74.4521 201.255 73.5718C202.432 72.6916 201.708 72.3739 199.651 72.8583L188.87 75.4156C186.807 75.9052 183.969 77.551 182.526 79.0927Z" fill="#FA8C14"/>
<path d="M208.015 67.6033L206.489 69.0147C204.937 70.4418 202.01 71.9991 199.948 72.4887L189.166 75.046C187.104 75.5356 186.943 75.1137 188.797 74.1033L202.224 66.8064C204.083 65.8012 206.76 64.9887 208.208 64.9991C209.651 65.0095 209.568 66.1762 208.015 67.6033Z" fill="#FA8C14"/>
<path d="M225.328 52.7388C226.016 53.2127 226.922 54.7023 227.344 56.0669C227.766 57.4367 226.823 59.6763 225.24 61.0721L224.87 61.395C223.286 62.7908 220.401 63.4992 218.427 62.9731C216.453 62.4471 216.005 60.7596 217.422 59.2023L221.51 54.7127C222.932 53.1554 224.641 52.27 225.328 52.7388Z" fill="#ED7922"/>
<path d="M94.8489 175.978L94.5259 176.175C92.7186 177.269 90.1197 176.879 88.7186 175.3L85.9791 172.201C84.5832 170.623 85.0832 169.863 87.1041 170.504L94.4686 172.837C96.4843 173.478 96.6561 174.884 94.8489 175.978Z" fill="#1FB789"/>
<path d="M82.1874 175.811C80.203 175.072 77.5572 175.832 76.2759 177.504L66.0311 190.9C64.7499 192.572 65.2603 194.666 67.1666 195.577L89.7811 206.358C91.6874 207.27 94.6926 200.431 94.6926 200.431C95.0676 198.363 82.1874 175.811 82.1874 175.811Z" fill="#3873BB"/>
<path d="M133.125 193.337L132.891 191.447C132.62 189.291 130.641 187.155 128.495 186.697L95.802 179.754C93.9166 179.353 89.6874 177.379 88.302 179.244C86.6926 181.4 98.6718 203.155 102.021 200.145C102.114 200.056 102.245 200.27 102.338 200.181L109.937 193.197C111.573 191.692 114.094 191.843 115.542 193.525L120.141 198.89C121.516 200.489 124.213 201.134 126.172 200.332L129.927 198.791C131.958 197.957 133.401 195.504 133.125 193.337Z" fill="#0683C7"/>
<path d="M97.9739 68.2535C96.8646 69.0816 96.2864 71.4306 96.6823 73.4931L97.3594 77.0504C97.7552 79.1129 99.5156 79.8629 101.297 78.717L104.781 76.4775C106.562 75.3316 107.286 74.0556 106.401 73.6233C105.516 73.191 104.87 71.7118 104.958 70.3212C105.047 68.9358 103.969 67.5712 102.552 67.2795C101.13 66.9827 99.0833 67.4202 97.9739 68.2535Z" fill="#FFFF81"/>
<path d="M91.8332 78.9357C91.8332 80.3055 90.9582 81.4774 89.8801 81.5451C88.7967 81.618 87.7134 81.618 87.4634 81.5451C87.2082 81.4774 86.8645 80.8055 86.6874 80.0451C86.5103 79.2847 87.2082 78.2118 88.2447 77.6493C89.2811 77.0816 90.5051 76.5816 90.9738 76.5347C91.4478 76.4878 91.8332 77.5607 91.8332 78.9357Z" fill="#159C1F"/>
<path d="M107.469 76.3005C107.13 77.2171 105.234 78.5296 103.239 79.2328L101.781 79.7484C99.7811 80.4515 99.604 80.0974 101.38 78.9515L104.87 76.7119C106.646 75.5661 107.812 75.3838 107.469 76.3005Z" fill="#ED7922"/>
<path d="M116.062 82.1235L117.052 83.2016C118.479 84.7485 119.406 86.2381 119.12 86.5193C118.828 86.8006 117.656 87.0037 116.49 86.962C115.328 86.9256 114.182 85.2068 113.932 83.1235L113.927 83.0923C113.677 81.0037 114.63 80.5714 116.062 82.1235Z" fill="#E3DF01"/>
<path d="M79.6041 164.889C79.5051 166.504 77.8124 167.212 75.828 166.472L74.4009 165.936C72.4166 165.196 72.4582 164.113 74.4895 163.519L76.1093 163.045C78.1405 162.452 79.7082 163.275 79.6041 164.889Z" fill="#1FB789"/>
<path d="M84.6197 163.493L94.052 167.014C96.0364 167.754 99.2551 167.759 101.239 167.02L105.271 165.514C107.255 164.775 110.26 165.171 111.984 166.395L126.219 176.509C127.937 177.733 129.729 177.066 130.213 175.02L131.286 170.473C131.771 168.426 130.547 166.197 128.552 165.493L123.146 163.582C121.151 162.879 117.818 162.155 115.708 161.967L93.3957 159.988C91.2864 159.801 87.927 160.129 85.8957 160.728L84.7082 161.077C82.677 161.671 82.6353 162.754 84.6197 163.493Z" fill="#50BC5C"/>
<path d="M126.344 176.671L112.109 166.561C110.385 165.338 107.38 164.942 105.401 165.681L101.364 167.181C99.3801 167.921 97.7186 168.499 97.6509 168.478C97.5884 168.452 96.1874 169.14 94.5207 169.999C92.8488 170.858 93.1353 172.077 95.1561 172.718L95.2603 172.749C97.2759 173.39 100.609 174.186 102.703 174.525L125.677 178.27C127.766 178.614 128.068 177.895 126.344 176.671Z" fill="#F4C90C"/>
<path d="M80.0467 164.994C79.9478 166.608 81.4998 168.431 83.5207 169.072L86.9217 170.15C88.9373 170.791 91.9269 170.608 93.5936 169.749C95.2655 168.89 94.9998 167.582 93.0207 166.843L83.8228 163.411C81.8384 162.666 80.1509 163.379 80.0467 164.994Z" fill="#E3DF01"/>
<path d="M113.88 69.6239C114.219 70.3375 113.37 70.7541 111.989 70.551C110.609 70.3531 109.932 69.7958 110.479 69.3062C111.031 68.8166 111.875 68.4 112.37 68.3739C112.864 68.3479 113.542 68.9052 113.88 69.6239Z" fill="#F19B1D"/>
<path d="M119.432 71.4724C119.739 72.3162 118.797 72.5245 117.328 71.9516C115.854 71.3735 114.39 70.3266 114.052 69.6078C113.713 68.8943 113.427 67.5974 113.411 66.7068C113.396 65.8214 114.609 66.186 116.125 67.5297C117.646 68.8683 119.125 70.6339 119.432 71.4724Z" fill="#1FB789"/>
<path d="M120.536 75.8423C120.266 74.41 118.849 72.7798 117.38 72.2017C115.911 71.6288 114.891 71.5819 115.104 72.1027C115.312 72.6236 116.714 74.2382 118.224 75.7069L118.286 75.7694C119.802 77.2434 120.807 77.2746 120.536 75.8423Z" fill="#FFFF81"/>
<path d="M119.937 83.811C119.797 84.9777 118.521 84.6652 117.094 83.1131L116.104 82.0349C114.677 80.4881 115.01 79.7797 116.854 80.462C118.698 81.1495 120.078 82.6443 119.937 83.811Z" fill="#F4C90C"/>
<path d="M99.6352 65.962C99.6717 66.3318 98.4009 67.6131 96.7915 68.8214C95.1821 70.0297 93.6404 71.9308 93.354 73.0714C93.0623 74.212 92.6561 75.337 92.4425 75.587C92.2238 75.837 91.6665 76.0818 91.1977 76.1287C90.7238 76.1808 90.1821 75.9881 89.9842 75.7016C89.7863 75.4204 90.354 74.2485 91.255 73.0922C92.1509 71.9308 92.6873 70.4047 92.4477 69.686C92.2081 68.962 93.604 67.7276 95.5623 66.9256L96.0154 66.7433C97.9738 65.9412 99.5936 65.5922 99.6352 65.962Z" fill="#3873BB"/>
<path d="M104.859 63.8892C105.615 64.0038 106.318 64.7954 106.422 65.6704C106.526 66.5402 107.104 67.259 107.719 67.2746C108.328 67.2902 109.359 67.535 110.016 67.8215C110.672 68.1079 110.76 68.7329 110.208 69.2173C109.661 69.7069 108.26 70.6496 107.078 71.3319C105.901 72.0142 105.016 71.4361 105.104 70.0506C105.193 68.66 104.115 67.2954 102.698 67.0038C101.276 66.7121 100.094 66.1704 100.052 65.8006C100.016 65.4309 100.766 64.8059 101.734 64.41C102.703 64.0142 104.099 63.7798 104.859 63.8892Z" fill="#E3DF01"/>
<path d="M92.3124 69.7172C92.5467 70.4359 92.0155 71.962 91.1144 73.1234C90.2134 74.2797 90.0207 73.6964 90.6821 71.8162C91.3436 69.9307 92.0728 68.9932 92.3124 69.7172Z" fill="#98CA3B"/>
<path d="M59.8125 89.2119C60.7552 89.9567 60.1927 90.3526 58.5625 90.0974C56.9271 89.8422 56.1667 89.238 56.8594 88.7484C57.5521 88.2588 58.875 88.4672 59.8125 89.2119Z" fill="#3873BB"/>
<path d="M56.2135 79.2698C57.125 79.9261 58.4947 79.9261 59.276 79.2698C60.052 78.6188 61.0156 77.9417 61.4218 77.7646C61.8281 77.5875 61.8437 76.8167 61.4583 76.0407C61.0781 75.2646 60.1718 74.8532 59.4427 75.1188C58.7135 75.3844 57.3281 76.1552 56.3437 76.8427C55.3645 77.525 55.3072 78.6136 56.2135 79.2698Z" fill="#F7DC0F"/>
<path d="M64.1092 77.9054C64.5363 78.244 64.7551 79.145 64.5884 79.9158C64.427 80.6867 63.3124 81.6502 62.0988 82.0617C60.8853 82.4731 60.1093 81.7804 60.3697 80.5096C60.6249 79.2388 61.1665 78.0617 61.5728 77.8846C61.979 77.7075 62.5363 77.5044 62.8228 77.4263C63.104 77.3481 63.6822 77.5617 64.1092 77.9054Z" fill="#FA8C14"/>
<path d="M57.1509 86.0249C57.5884 87.0302 57.3852 88.2385 56.6925 88.7281C55.9998 89.2177 54.6509 90.9729 53.6717 92.6447C52.6977 94.3218 51.6456 94.5302 51.3227 93.1135C50.9998 91.6916 51.1873 89.1864 51.7394 87.5145C52.2915 85.8427 52.9425 84.2906 53.1925 84.0458C53.4425 83.801 54.2498 83.7333 54.9998 83.9052C55.7498 84.0718 56.7081 85.0197 57.1509 86.0249Z" fill="#F4C90C"/>
<path d="M68.4061 79.837C68.6665 80.8943 68.6249 82.2797 68.3072 82.9308C67.9895 83.5818 67.5936 83.4203 67.427 82.5766C67.2603 81.7381 67.1145 80.4256 67.0988 79.6495C67.0884 78.8735 67.2655 78.1703 67.4999 78.0818C67.7395 77.9881 68.1405 78.7745 68.4061 79.837Z" fill="#E3DF01"/>
<path d="M65.6771 72.5981C65.9218 72.7543 65.8646 74.0929 65.5521 75.5824C65.2343 77.0772 64.6354 78.0095 64.2031 77.671C63.776 77.3324 63.8333 75.9939 64.3333 74.6866C64.8333 73.3793 65.4375 72.4418 65.6771 72.5981Z" fill="#FA8C14"/>
<path d="M60.2655 80.6554C60.0051 81.9262 60.7811 82.6241 61.9947 82.2075C63.2082 81.796 62.9895 82.6762 61.5051 84.1762L60.8592 84.8221C59.3749 86.3221 57.8124 86.7231 57.3749 85.7179C56.9374 84.7127 56.8801 83.1866 57.2447 82.3116C57.6145 81.4366 58.5467 80.1971 59.3228 79.5408C60.104 78.8846 60.5259 79.3846 60.2655 80.6554Z" fill="#159C1F"/>
<path d="M70.9844 76.4776L81.8333 72.2693C83.8073 71.5037 85.1875 70.3839 84.9219 69.7693C84.6562 69.1599 82.7812 69.1026 80.7344 69.6443L71.026 72.2328C68.9791 72.7745 67.3385 74.2589 67.3646 75.5401C67.3906 76.8266 69.0104 77.2433 70.9844 76.4776Z" fill="#50BC5C"/>
<path d="M56.0572 79.4572C56.9687 80.1135 57.4062 81.353 57.0364 82.228C56.6666 83.1082 55.7604 83.6812 55.0156 83.5145C54.2656 83.3478 53.1458 82.3635 52.5104 81.3218C51.8749 80.2801 52.0468 79.176 52.8854 78.853C53.7239 78.5301 55.1458 78.801 56.0572 79.4572Z" fill="#FFFF8F"/>
<path d="M112.609 72.2335C111.625 72.8897 109.547 73.2804 107.974 73.0981C106.401 72.9158 106.083 72.2179 107.26 71.5408C108.443 70.8585 110.516 70.4731 111.901 70.671C113.281 70.8741 113.599 71.572 112.609 72.2335Z" fill="#4590D4"/>
<path d="M113.146 66.5609C113.167 67.4463 112.776 68.1911 112.281 68.2171C111.786 68.2431 110.854 68.0348 110.198 67.7484C109.542 67.4619 108.51 67.2223 107.901 67.2067C107.286 67.1859 106.708 66.4671 106.604 65.5973C106.5 64.7275 107.911 64.2275 109.766 64.4879C111.614 64.7431 113.13 65.6754 113.146 66.5609Z" fill="#63BC49"/>
<path d="M114.927 72.2016C115.141 72.7224 116.536 74.337 118.047 75.8058L118.115 75.8683C119.625 77.337 120.667 79.1704 120.437 79.962C120.213 80.7537 118.531 80.8422 116.687 80.1599C114.844 79.4777 112.172 78.9099 110.719 78.8943C109.266 78.8839 107.896 78.6495 107.661 78.3735C107.427 78.0974 107.516 77.1339 107.854 76.2172C108.198 75.3006 107.755 74.2068 106.87 73.7745C105.984 73.3422 106.547 73.1339 108.12 73.3162C109.693 73.4985 111.766 73.1079 112.755 72.4516C113.745 71.7902 114.713 71.6808 114.927 72.2016Z" fill="#F7DC0F"/>
<path d="M118.349 67.4986C118.156 66.2642 116.713 64.1392 115.125 62.7434L115.005 62.6392C113.422 61.2434 110.547 60.7642 108.588 61.5663L107.307 62.0924C105.349 62.8944 105.458 63.7851 107.557 64.0819L109.406 64.3424C111.505 64.6392 114.437 65.9622 115.953 67.3059C117.474 68.6445 118.542 68.733 118.349 67.4986Z" fill="#F4C90C"/>
<path d="M90.0885 68.8683L120.047 56.6027C122.005 55.8006 123.333 54.7381 123.016 54.2381C122.693 53.7329 120.844 53.962 118.88 54.7485L89.1302 66.6704C87.1666 67.4568 85.7916 68.5923 86.0572 69.2068C86.3229 69.8214 88.1302 69.6704 90.0885 68.8683Z" fill="#7F3F98"/>
<path d="M146.417 34.0298L125.865 44.3319C123.974 45.2798 122.443 44.6027 122.443 42.8215C122.443 41.035 123.885 38.6704 125.672 37.535L130.406 34.5194C132.193 33.384 135.318 32.1184 137.391 31.6913L139.484 31.259C141.562 30.8267 144.719 30.8892 146.542 31.3996C148.365 31.9048 148.307 33.0819 146.417 34.0298Z" fill="#CD2918"/>
<path d="M155.328 39.1445L138.26 57.806C136.838 59.3633 137.401 60.7227 139.516 60.8424L141.615 60.9622C143.729 61.082 146.917 60.3008 148.734 59.2227L151.781 57.4049C153.599 56.3216 156.005 54.0143 157.156 52.2539L157.484 51.7487C158.635 49.9883 159.51 46.8581 159.437 44.7591L159.406 43.9622C159.333 41.8633 158.969 39.306 158.588 38.2435C158.213 37.1862 156.755 37.5872 155.328 39.1445Z" fill="#F19B1D"/>
<path d="M146.958 35.0979L127.714 51.7333C126.12 53.1135 124.391 53.5458 123.854 52.7021C123.318 51.8531 122.786 50.0875 122.667 48.7489C122.547 47.4104 123.984 45.5614 125.875 44.6135L146.427 34.3114C148.318 33.3635 148.552 33.7125 146.958 35.0979Z" fill="#F4C90C"/>
<path d="M154.13 34.6136L153.573 34.3584C151.646 33.4782 148.792 33.8844 147.193 35.2698L127.953 51.9052C126.354 53.2854 126.12 55.4573 127.427 56.7542C128.739 58.0563 131.052 59.4209 132.599 59.8063C134.141 60.1917 136.552 59.2438 137.974 57.6865L155.042 39.025C156.463 37.4677 156.057 35.4938 154.13 34.6136Z" fill="#7F3F98"/>
<path d="M63.9635 75.4731C63.6198 76.3637 63.1146 77.145 62.8333 77.2231C62.5521 77.3012 62.0468 76.8064 61.7083 76.1241C61.3698 75.4366 61.875 74.6502 62.8333 74.3689C63.7968 74.0877 64.302 74.5825 63.9635 75.4731Z" fill="#98CA3B"/>
</svg>
