<svg width="250" height="190" viewBox="0 0 250 190" fill="none" xmlns="http://www.w3.org/2000/svg">
<path d="M102.469 68.0051C102.211 66.0468 100.38 64.5885 98.391 64.7655L97.5363 64.8437C95.0461 65.0676 91.7591 66.8541 90.2291 68.8124C88.6991 70.7708 89.4905 72.2655 91.9913 72.1353L99.309 71.7551C101.303 71.651 102.723 69.9635 102.469 68.0051Z" fill="#FFB326"/>
<path d="M87.475 66.5986C84.9426 67.2236 81.7348 69.5205 80.3367 71.7028C78.9438 73.8799 79.8196 74.9684 82.2782 74.1143L82.8375 73.9215C85.1958 73.0986 88.3772 70.8278 89.9072 68.8695C91.432 66.9111 90.6986 65.7965 88.277 66.4007L87.475 66.5986Z" fill="#0683C7"/>
<path d="M47.9054 74.2804C47.726 75.171 48.3275 75.895 49.2455 75.8898L71.7843 75.7648C74.7494 75.7492 78.4742 73.7075 80.0622 71.2231C81.2652 69.3429 80.7745 68.9002 78.9754 70.2335C77.1763 71.5669 73.8683 72.5825 71.6207 72.494L54.8538 71.796C53.461 71.7387 51.2134 71.9523 49.8522 72.2752C48.9606 72.4888 48.0848 73.3898 47.9054 74.2804Z" fill="#972B65"/>
<path d="M99.9737 61.5777C98.8974 60.1089 96.5338 59.1714 94.7294 59.4943L89.0156 60.5204C86.499 60.9683 86.3512 62.1766 88.6885 63.1975C91.031 64.2235 95.0249 64.8745 97.5731 64.6454L98.6125 64.5516C100.443 64.385 101.055 63.0464 99.9737 61.5777Z" fill="#0683C7"/>
<path d="M79.8882 61.4787C77.5509 61.5204 77.1025 62.7756 78.891 64.2652L78.9543 64.3172C81.0858 66.0933 85.0427 66.9995 87.7493 66.3277C90.44 65.661 90.5667 64.2079 88.0289 63.0985C85.8922 62.161 82.2254 61.4318 79.8882 61.4787Z" fill="#C10B59"/>
<path d="M95.0039 57.3588C96.5761 58.1609 96.4389 59.0723 94.6978 59.3848L86.1192 60.9213C85.1115 61.0984 83.4601 61.265 82.4366 61.2859C81.4183 61.3119 81.3392 60.9786 82.2572 60.5463L89.232 57.2702C90.8306 56.5202 93.4316 56.5619 95.0039 57.3588Z" fill="#0683C7"/>
<path d="M44.7399 73.5517C46.2435 73.1142 46.6603 71.7756 45.6737 70.5725C44.6819 69.3746 42.7456 68.9944 41.3686 69.7288C38.9258 71.0413 36.119 74.2184 35.1377 76.7913L35.0533 77.01C34.6892 77.9684 33.6604 79.1715 32.7741 79.6871C32.1304 80.0621 31.6292 80.9684 31.6503 81.7027C31.6714 82.4371 32.2148 82.734 32.8532 82.359C34.283 81.5309 36.1454 79.6975 36.9895 78.2913C37.9867 76.6298 40.3398 74.8225 42.2127 74.2809L44.7399 73.5517Z" fill="#E3FF01"/>
<path d="M39.6803 78.9628C40.6458 77.9576 41.0942 78.2232 40.6774 79.5461L39.4323 83.4784C38.7623 85.5982 38.1344 85.5201 38.0342 83.2961C37.9709 81.9159 38.7095 79.9628 39.6803 78.9628Z" fill="#872101"/>
<path d="M47.2619 74.5418C47.4413 73.6511 46.977 73.349 46.2225 73.8751C43.6479 75.6668 40.7672 79.5678 39.8281 82.5418L38.699 86.1303C38.488 86.7918 38.3455 87.8959 38.3772 88.5834C38.4036 89.2761 38.7993 89.4063 39.2477 88.8751C40.6881 87.1824 42.714 84.1824 43.7481 82.2188L46.1645 77.6251C46.5866 76.8178 47.0825 75.4324 47.2619 74.5418Z" fill="#FF0926"/>
<path d="M32.1357 83.5673C32.4787 83.6715 32.8427 84.0309 32.9482 84.3694L34.7631 90.1975C35.0902 91.2548 34.6471 91.5569 33.766 90.8694C32.8902 90.1767 32.0777 88.7132 31.9616 87.609L31.587 84.0205C31.5501 83.6663 31.7981 83.4632 32.1357 83.5673Z" fill="#F4C90C"/>
<path d="M79.2709 65.0569C77.0339 63.1923 73.0189 62.6194 70.3387 63.7808L62.1083 67.3589C56.8113 69.661 57.207 71.7392 62.9894 71.9787L71.7738 72.3433C74.0213 72.4371 77.3346 71.4214 79.1285 70.0881C80.9275 68.7496 80.9909 66.4892 79.2709 65.0569Z" fill="#E3FF01"/>
<path d="M47.9424 67.3955C46.0114 67.8069 45.4522 69.3851 46.7026 70.9007C47.4306 71.7861 48.9501 72.2965 50.0739 72.0257C51.1976 71.7601 52.9862 71.1663 54.0414 70.708L65.2158 65.8538C70.5128 63.5517 70.2174 62.6559 64.5616 63.859L47.9424 67.3955Z" fill="#88FB64"/>
<path d="M32.621 83.4011C32.104 83.25 32.0618 82.9011 32.526 82.6303L32.6105 82.5782C34.1669 81.6771 36.1981 79.6771 37.1161 78.1407C38.0394 76.6094 40.2131 74.9427 41.9436 74.4375L42.8036 74.1875C45.3677 73.448 45.6737 74.0834 43.4947 75.6042C42.3446 76.4011 40.6193 77.8698 39.6538 78.8698C38.6831 79.875 36.9578 81.3438 35.8077 82.1355L34.3673 83.1303C33.9242 83.4375 33.1381 83.5573 32.621 83.4011Z" fill="#0683C7"/>
<path d="M46.3965 126.594C44.6607 124.766 43.0146 125.313 42.7403 127.807L39.4112 157.953C39.2423 159.479 40.2817 160.26 41.7168 159.682C43.1571 159.109 44.8348 157.49 45.4574 156.083L45.5524 155.859C47.7577 150.849 49.5568 142.276 49.5568 136.813V134.474C49.5568 131.969 48.1376 128.422 46.3965 126.594Z" fill="#0683C7"/>
<path d="M28.6745 136.906C29.1969 132.448 29.8986 132.464 30.2362 136.938L31.3916 152.25C31.724 156.625 31.0382 156.74 29.8669 152.51C28.7009 148.281 28.1628 141.26 28.6745 136.906Z" fill="#FFB326"/>
<path d="M67.8538 172.516C65.6749 170.693 63.1793 171.401 62.3088 174.094C61.3222 177.146 63.0263 178.797 66.0917 177.766L66.9041 177.49C69.6107 176.578 70.038 174.344 67.8538 172.516Z" fill="#F51131"/>
<path d="M60.2248 167.583C58.3835 166.692 56.7479 167.619 56.5949 169.645C56.4314 171.76 54.838 174.447 53.0495 175.619L48.834 178.375C47.7683 179.072 47.5784 180.427 48.412 181.38C49.2456 182.338 50.9128 182.786 52.1209 182.38L53.25 182C57.075 180.703 61.2114 176.531 62.4407 172.718C63.0685 170.786 62.0713 168.473 60.2248 167.583Z" fill="#0683C7"/>
<path d="M62.9629 186.817C61.1796 187.171 61.1163 187.973 62.8257 188.593C64.5351 189.218 67.4211 189.692 69.2413 189.645L73.1296 189.551C74.57 189.515 75.3402 188.39 74.8443 187.057C74.3484 185.723 72.792 184.859 71.3833 185.14L62.9629 186.817Z" fill="#E3FF01"/>
<path d="M72.3067 180.379C72.0798 177.999 70.4496 177.385 68.6874 179.015L66.1971 181.312C62.6306 184.603 63.6278 186.52 68.4078 185.567C70.7767 185.093 72.5335 182.76 72.3067 180.379Z" fill="#0683C7"/>
<path d="M48.0268 181.598C48.8604 182.557 48.4964 183.4 47.2249 183.479L37.7124 184.051C36.8419 184.104 36.2773 183.453 36.4567 182.609C36.6361 181.765 37.4908 180.984 38.3613 180.874L44.2123 180.145C45.4786 179.989 47.1932 180.64 48.0268 181.598Z" fill="#CD2918"/>
<mask id="mask0_372_469" style="mask-type:luminance" maskUnits="userSpaceOnUse" x="35" y="184" width="20" height="6">
<path d="M35.6019 184.432H54.5109V189.999H35.6019V184.432Z" fill="white"/>
</mask>
<g mask="url(#mask0_372_469)">
<path d="M50.7226 188.333C55.2863 187.859 55.4129 188.499 51.0075 189.765L50.8756 189.801C46.8131 190.968 40.5453 190.114 36.9524 187.9C36.2718 187.484 35.8287 186.51 35.9658 185.729C36.0977 184.947 36.7519 184.671 37.4167 185.109C40.7564 187.296 46.7446 188.749 50.7226 188.333Z" fill="#4590FA"/>
</g>
<path d="M44.5868 183.77C47.3936 183.599 51.8043 184.354 54.3895 185.442C56.9747 186.536 56.8059 187.666 54.0097 187.958L47.8949 188.593C45.5101 188.843 41.9172 187.968 39.9176 186.656C37.9181 185.343 38.2399 184.151 40.6352 184.005L44.5868 183.77Z" fill="#FF5DC2"/>
<path d="M63.9495 183.161C68.1808 179.255 67.1625 177.572 61.6861 179.421L54.896 181.708C52.2317 182.609 52.1736 184.234 54.7588 185.328C57.344 186.416 61.1427 185.755 63.195 183.859L63.9495 183.161Z" fill="#DF131D"/>
<path d="M74.1902 159.697C75.2717 160.348 75.4669 161.645 74.6175 162.583L68.5502 169.26C67.5689 170.338 65.8542 170.452 64.741 169.51C64.3242 169.161 63.5803 168.692 63.0896 168.468C62.5937 168.249 62.4565 167.713 62.7836 167.286L69.4577 158.494C69.9589 157.838 70.9349 157.666 71.6313 158.114C72.3278 158.557 73.4779 159.27 74.1902 159.697Z" fill="#1FB7AF"/>
<path d="M42.5082 127.724C42.7773 125.271 41.0046 123.693 38.5671 124.224C36.7153 124.625 34.0931 126.037 32.7425 127.349C31.3866 128.667 30.4 131.276 30.5371 133.146L32.3046 156.547C32.4365 158.287 33.9665 159.932 35.7076 160.208C37.4433 160.484 39.0208 159.297 39.2108 157.563L42.5082 127.724Z" fill="#1FB7AF"/>
<path d="M127.435 20.6454C128.833 20.9006 130.221 22.2391 130.511 23.6193C130.806 24.9995 129.878 26.0881 128.458 26.0412L128.031 26.0256C125.82 25.9475 123.088 24.3485 121.958 22.4631C121.515 21.7183 120.56 21.5152 119.843 22.0048C119.125 22.4943 118.096 22.3329 117.564 21.6506C116.883 20.7756 116.683 19.2287 117.12 18.2131C117.717 16.8277 119.104 16.5464 120.207 17.5933C121.447 18.7704 123.842 19.9891 125.536 20.2964L127.435 20.6454Z" fill="#CD2918"/>
<path d="M107.006 48.3222C109.096 46.8326 112.815 46.2492 115.268 47.0253C118.434 48.0305 118.307 48.9836 114.989 49.1451L114.192 49.1815C112.467 49.2649 111.992 50.3794 113.147 51.6555C114.298 52.9315 113.849 53.7388 112.145 53.4472L107.908 52.718C106.4 52.4628 106.252 52.869 107.576 53.6242C108.906 54.3794 108.737 54.9211 107.212 54.8222L104.342 54.6347C101.963 54.4784 101.377 55.7388 103.039 57.4263C104.701 59.119 104.168 60.0461 101.852 59.4836L101.504 59.4003C99.7836 58.9836 97.0876 57.9836 95.5153 57.1867C93.9431 56.3847 93.9748 55.1399 95.5892 54.4211L98.9289 52.9367C101.277 51.8899 104.912 49.8169 107.006 48.3222Z" fill="#674FC2"/>
<path d="M118.571 107.781C120.323 109.046 119.99 110.286 117.832 110.536L108.077 111.65C106.653 111.812 104.606 111.182 103.524 110.249C102.448 109.312 102.706 108.296 104.104 107.984L111.528 106.333C113.649 105.859 116.814 106.51 118.571 107.781Z" fill="#F4C90C"/>
<path d="M121.536 117.859C121.441 119.661 119.911 120.807 118.133 120.406C116.355 120.005 114.208 118.375 113.353 116.781L113.253 116.588C111.781 113.838 113.137 111.296 116.26 110.937C119.379 110.583 121.8 112.833 121.637 115.937L121.536 117.859Z" fill="#B3057B"/>
<path d="M103.266 116.073C98.3908 119.156 99.1136 121.24 104.875 120.714L107.951 120.427C109.175 120.318 111.164 120.115 112.383 119.979C113.601 119.844 114.129 118.859 113.554 117.787C111.75 114.412 107.613 113.328 104.358 115.386L103.266 116.073Z" fill="#4590FA"/>
<path d="M107.787 124.5C106.569 126.729 103.509 128.859 100.981 129.234L96.539 129.901C94.091 130.27 92.5662 128.625 93.1519 126.239C93.7322 123.859 96.2277 121.724 98.6969 121.5L105.366 120.88C107.909 120.645 109.001 122.276 107.787 124.5Z" fill="#1FB7AF"/>
<path d="M107.571 111.994C108.927 111.838 109.096 112.307 107.945 113.031L99.868 118.135C96.7288 120.119 93.4367 124.677 92.5609 128.255C92.2707 129.437 91.1469 129.932 90.0706 129.348C88.989 128.77 88.6619 127.473 89.3478 126.463L99.6675 111.13C100.506 109.89 102.116 109.682 103.25 110.661C104.279 111.546 106.22 112.15 107.571 111.994Z" fill="#CD2918"/>
<path d="M118.724 120.833C120.133 121.151 121.051 122.557 120.755 123.958C120.465 125.359 119.315 127.25 118.197 128.161C117.02 129.12 114.82 129.739 113.311 129.531L113.005 129.489C109.154 128.963 107.513 125.76 109.359 122.375C109.94 121.307 111.406 120.328 112.62 120.198C113.839 120.062 115.807 120.172 116.994 120.443L118.724 120.833Z" fill="#B71F73"/>
<path d="M89.5325 130.067C88.4509 129.489 87.0528 129.869 86.4197 130.911L71.5046 155.416C71.0773 156.119 71.2988 157.057 71.9953 157.505C72.6917 157.947 73.6361 157.755 74.0951 157.072L90.2605 132.963C90.9411 131.947 90.614 130.651 89.5325 130.067Z" fill="#A2E546"/>
<path d="M101.636 133.614C103.662 131.198 105.155 131.781 104.954 134.922C104.754 138.057 102.786 142.479 100.58 144.745L83.3704 162.458C82.5368 163.312 81.0806 163.411 80.1362 162.677C79.1918 161.943 79.0494 160.594 79.8144 159.682L101.636 133.614Z" fill="#F3532D"/>
<path d="M75.045 156.025C74.185 157.307 74.5702 159.01 75.8944 159.812C77.224 160.614 79.118 160.301 80.1099 159.114L100.855 134.338C103.25 131.479 102.174 129.593 98.4649 130.15C94.7559 130.708 90.0181 133.692 87.9447 136.791L75.045 156.025Z" fill="#AF076F"/>
<path d="M125.361 105.406C131.149 105.396 131.402 106.901 125.926 108.755L125.873 108.771C123.815 109.469 120.703 109 118.946 107.729C117.194 106.464 117.537 105.422 119.705 105.417L125.361 105.406Z" fill="#0683C7"/>
<path d="M144.239 107.698C146.444 108.302 148.597 110.614 149.024 112.838C149.451 115.062 147.948 116.635 145.679 116.328L123.847 113.385C123.014 113.276 122.37 112.505 122.412 111.677C122.46 110.849 123.14 109.948 123.937 109.682L128.39 108.172C132.705 106.713 139.839 106.5 144.239 107.698Z" fill="#D51975"/>
<path d="M146.08 128.213C149.583 129.218 151.857 127.145 151.14 123.604C150.422 120.067 146.877 116.776 143.263 116.286L126.29 114C124.127 113.708 122.27 115.234 122.154 117.385C122.043 119.536 123.663 121.791 125.752 122.39L146.08 128.213Z" fill="#E3FF01"/>
<path d="M119.985 13.1352C119.051 14.4477 119.246 16.4321 120.418 17.5467C121.584 18.6561 123.847 19.8071 125.44 20.0988L129.593 20.8592C129.851 20.9061 130.268 20.8696 130.516 20.7811C130.759 20.6925 131.123 20.4738 131.318 20.3019L132.141 19.5623C134.462 17.4738 133.882 15.1144 130.848 14.3227C129.112 13.8696 126.533 12.604 125.119 11.5155C123.699 10.4269 121.7 10.7238 120.666 12.1769L119.985 13.1352Z" fill="#F13751"/>
<path d="M138.477 30.3334C139.506 29.4376 141.474 28.7553 142.846 28.823C144.218 28.8907 144.524 29.7136 143.532 30.6511L141.395 32.6615C140.261 33.7345 138.045 34.6042 136.473 34.5886C134.9 34.573 134.584 33.7188 135.76 32.6928L138.477 30.3334Z" fill="#E3FF01"/>
<path d="M168.751 33.5254C169.811 33.3171 171.325 33.7442 172.111 34.4786C172.898 35.2129 173.525 36.6921 173.504 37.7598C173.478 39.0046 172.433 40.0515 171.178 40.0879L166.055 40.2338C165.553 40.2442 165.216 39.8588 165.295 39.3744C165.379 38.8848 165.485 38.0827 165.532 37.5931L165.59 36.9942C165.743 35.4004 167.163 33.8379 168.751 33.5254Z" fill="#98CA3B"/>
<path d="M151.066 107.953C152.279 107.391 153.904 107.818 154.675 108.901L161.633 118.677C163.828 121.75 162.784 125.547 159.323 127.104C155.862 128.661 152.411 126.917 151.662 123.224L151.572 122.776C150.934 119.635 149.916 114.49 149.314 111.344C149.061 110.042 149.852 108.516 151.066 107.953Z" fill="#0683C7"/>
<path d="M173.488 130.421C176.047 132.567 180.131 132.447 182.558 130.155C183.349 129.405 183.645 128.27 183.312 127.234C182.98 126.197 182.241 126.135 181.154 125.973C178.4 125.572 176.242 125.03 174.691 123.692C173.135 122.353 172.992 113.088 170.998 116.504C168.45 120.874 169.547 127.119 173.436 130.379L173.488 130.421Z" fill="#FF5DC2"/>
<path d="M159.628 127.52C156.162 129.077 156.141 131.676 159.576 133.291L164.081 135.411C166.487 136.546 170.534 136.817 173.077 136.015C175.62 135.213 176.031 133.166 173.995 131.458L171.199 129.109C168.297 126.676 163.089 125.963 159.628 127.52Z" fill="#CD2918"/>
<path d="M164.398 100.801C167.516 99.1086 170.988 100.458 172.111 103.796C173.235 107.129 172.702 112.359 170.924 115.405C168.16 120.145 163.29 120.364 160.103 115.89L159.607 115.197C156.278 110.515 157.703 104.432 162.773 101.682L164.398 100.801Z" fill="#F4C90C"/>
<path d="M182.051 125.374C187.064 124.63 185.497 122.593 182.378 118.63L180.152 115.796C177.704 112.682 174.707 109.781 173.283 113.473C172.819 114.676 171.779 124.234 182.051 125.374Z" fill="#674FC2"/>
<path d="M196.629 139.218C197.927 140.984 197.225 142.051 195.067 141.583C192.909 141.114 191.759 142.416 192.508 144.473C193.284 146.598 192.519 147.114 190.809 145.614L182.959 138.744C180.442 136.546 180.374 132.869 182.8 130.578C185.233 128.286 188.831 128.609 190.804 131.291L196.629 139.218Z" fill="#F52D1D"/>
<path d="M235.834 150.135C235.95 151.068 235.285 151.651 234.362 151.422L226.237 149.448C225.963 149.38 225.514 149.26 225.24 149.188C224.966 149.115 224.771 148.823 224.807 148.542C225.003 147.016 226.401 146.078 227.91 146.464L233.956 148.005C234.879 148.24 235.723 149.198 235.834 150.135Z" fill="#98CA3B"/>
<path d="M197.093 145.609C195.7 147.234 196.281 148.193 198.386 147.734L199.979 147.39C205.635 146.166 214.82 146.406 220.402 147.922L222.528 148.5C223.415 148.739 224.238 148.198 224.354 147.291C224.47 146.39 223.858 145.396 222.993 145.088L217.991 143.312C214.097 141.927 207.571 141.344 203.488 142.015C201.367 142.37 198.486 143.984 197.093 145.609Z" fill="#FFB326"/>
<path d="M195.341 141.797C193.126 141.318 191.944 142.651 192.719 144.76L192.761 144.891C193.495 146.896 195.236 147.203 196.629 145.578C198.027 143.953 197.441 142.255 195.341 141.797Z" fill="#F4C90C"/>
<path d="M217.643 147.302C221.737 148.417 221.631 149.687 217.411 150.135L203.973 151.552C202.095 151.75 199.193 151.187 197.526 150.297C195.864 149.406 196.017 148.349 197.863 147.948L202.664 146.911C206.811 146.01 213.549 146.187 217.643 147.302Z" fill="#FF0926"/>
<path d="M173.636 136.348C171.157 137.13 170.861 138.994 172.977 140.499L187.765 150.994C189.49 152.213 190.772 151.505 190.619 149.411C190.466 147.312 189.037 144.463 187.449 143.072L181.687 138.031C179.741 136.322 176.116 135.567 173.636 136.348Z" fill="#0683C7"/>
<path d="M198.19 150.906C199.293 151.495 200.818 152.776 201.583 153.755C202.348 154.734 201.968 155.354 200.739 155.13L196.755 154.411C193.79 153.875 191.184 150.995 190.962 148.016C190.873 146.807 191.553 146.474 192.471 147.276C193.389 148.083 195.025 149.214 196.101 149.786L198.19 150.906Z" fill="#ED2D43"/>
<path d="M221.985 149.776C223.763 149.588 224.813 150.828 224.312 152.526C223.81 154.229 221.937 155.614 220.149 155.614L205.746 155.588C204.495 155.588 202.844 154.786 202.079 153.807C201.314 152.828 201.709 151.916 202.949 151.786L221.985 149.776Z" fill="#E3FF01"/>
<path d="M236.251 153.938C236.362 155.026 235.549 155.901 234.441 155.875L227.176 155.703C225.388 155.661 224.333 154.234 224.834 152.536C225.335 150.839 227.166 149.792 228.902 150.214L234.088 151.479C235.164 151.74 236.135 152.849 236.251 153.938Z" fill="#CD2918"/>
<path d="M231.234 158.947C232.463 159.4 234.135 158.937 234.942 157.916C235.75 156.89 235.338 156.025 234.024 155.999L224.512 155.775C224.164 155.765 223.605 155.76 223.256 155.76C222.913 155.76 222.898 155.859 223.219 155.979L231.234 158.947Z" fill="#1FB789"/>
<path d="M240.113 177.775C239.949 178.593 240.493 179.14 241.327 178.984C242.155 178.828 242.862 178.015 242.888 177.176L243.068 171.791C243.257 166.067 242.487 165.979 241.353 171.593L240.113 177.775Z" fill="#1FB7AF"/>
<path d="M244.16 148.161C245.975 148.01 247.462 149.359 247.462 151.161C247.462 152.963 246.001 154.151 244.212 153.802L238.04 152.588C237.106 152.406 236.251 151.489 236.135 150.557C236.024 149.619 236.71 148.791 237.655 148.708L244.16 148.161Z" fill="#1FB7AF"/>
<path d="M236.546 154.239C236.43 153.146 236.9 152.958 237.586 153.818C240.767 157.812 242.55 165.156 241.548 170.14L240.424 175.724C240.071 177.505 238.287 179.146 236.462 179.364C234.642 179.588 233.602 178.354 234.156 176.62L234.251 176.323C235.444 172.568 235.57 166.385 234.531 162.583C234.13 161.13 234.573 158.974 235.507 157.792C236.193 156.927 236.657 155.328 236.546 154.239Z" fill="#FF0926"/>
<mask id="mask1_372_469" style="mask-type:luminance" maskUnits="userSpaceOnUse" x="244" y="145" width="6" height="15">
<path d="M244.951 145.766H250V159.099H244.951V145.766Z" fill="white"/>
</mask>
<g mask="url(#mask1_372_469)">
<path d="M247.257 147.115C247.367 147.536 247.462 148.245 247.462 148.677V151.417C247.462 153.078 246.872 155.667 246.149 157.172C245.568 158.385 246.085 158.885 247.299 158.286C248.512 157.682 249.604 156.099 249.726 154.76L250.058 151.135C250.201 149.526 249.167 147.547 247.747 146.745C247.367 146.526 247.146 146.693 247.257 147.115Z" fill="#FF5DC2"/>
</g>
<path d="M246.191 146.541C240.546 147.812 240.651 148.458 246.412 147.973L246.66 147.953C247.098 147.916 247.367 147.536 247.257 147.114C247.146 146.692 246.697 146.427 246.27 146.526L246.191 146.541Z" fill="#F32739"/>
<path d="M241.907 153.349C238.847 152.745 237.923 154.24 239.854 156.667C241.791 159.094 243.289 163.604 243.189 166.693L243.147 167.99C242.957 173.714 243.363 173.74 244.044 168.057L244.761 162.089C244.94 160.599 245.621 158.266 246.275 156.906C246.929 155.552 246.244 154.198 244.751 153.906L241.907 153.349Z" fill="#CD2918"/>
<path d="M244.777 161.979C244.951 160.546 245.827 160.307 246.724 161.442C247.626 162.572 248.101 164.656 247.789 166.062L245.98 174.177C245.758 175.161 244.956 176.515 244.191 177.182C243.426 177.848 242.899 177.572 243.02 176.572L244.777 161.979Z" fill="#FF5DC2"/>
<path d="M236.098 168.318C235.913 167.672 235.533 167.641 235.249 168.25L230.78 177.734C230.421 178.5 230.806 179.271 231.64 179.448C232.473 179.625 233.36 179.115 233.618 178.307L236.056 170.656C236.256 170.016 236.277 168.964 236.098 168.318Z" fill="#637B45"/>
<path d="M122.159 87.6822C117.854 83.8593 116.218 85.026 118.524 90.276L119.948 93.5156C122.254 98.7656 128.706 104.302 134.288 105.818L136.072 106.302C141.653 107.818 142.693 105.922 138.388 102.099L122.159 87.6822Z" fill="#E3FF01"/>
<path d="M119.684 79.291L149.62 104.937C150.633 105.807 150.469 106.979 149.256 107.541C148.043 108.098 146.233 107.838 145.23 106.947L119.552 84.14C119.653 82.5254 119.674 80.9108 119.684 79.291Z" fill="#F4C90C"/>
<path d="M113.47 51.6349C112.319 50.3589 112.641 49.9422 114.187 50.7078L119.11 53.1401C121.515 54.3328 121.315 54.937 118.666 54.4839C116.962 54.1974 114.625 52.911 113.47 51.6349Z" fill="#FF0926"/>
<path d="M108.779 54.047C106.906 53.1095 106.859 53.1928 108.679 54.2293C109.513 54.7084 110.737 55.6616 111.396 56.3543C112.056 57.047 113.338 57.8751 114.245 58.1928C119.526 60.0522 119.753 59.5261 114.752 57.0261L108.779 54.047Z" fill="#E3FF01"/>
<path d="M103.915 56.5312C101.804 55.4322 101.435 55.9166 103.102 57.6093C104.764 59.302 108.004 61.2187 110.293 61.8645C114.968 63.1874 115.269 62.4374 110.969 60.2031L103.915 56.5312Z" fill="#B55309"/>
<path d="M101.609 59.7651C99.826 59.3328 99.2509 60.1818 100.332 61.6506C101.414 63.1193 103.561 65.1193 105.107 66.0933L107.16 67.3849C112.04 70.4631 113.042 69.3433 109.391 64.9006L108.943 64.3537C107.355 62.4214 104.057 60.3537 101.609 59.7651Z" fill="#E3FF01"/>
<path d="M109.074 74.2648C106.141 74.7283 103.429 72.7179 103.049 69.8013C102.664 66.8898 104.405 65.796 106.906 67.3742L110.098 69.3846C113.395 71.4627 112.931 73.6606 109.074 74.2648Z" fill="#E3FF01"/>
<path d="M117.986 54.4999C121.067 55.0259 125.689 56.8957 128.258 58.6509C129.894 59.7655 129.619 60.8905 127.651 61.1405C125.683 61.3957 122.629 60.8801 120.856 59.9999L114.989 57.0676C109.824 54.4894 110.262 53.1769 115.965 54.1509L117.986 54.4999Z" fill="#4590FA"/>
<path d="M137.317 49.218C135.19 51.1868 131.196 52.0201 128.448 51.067L126.686 50.4576C123.905 49.4941 119.331 47.9784 116.524 47.0878C113.717 46.2024 113.833 45.4836 116.783 45.4993L135.887 45.6034C138.804 45.6191 139.443 47.2441 137.317 49.218Z" fill="#F4C90C"/>
<path d="M148.929 31.5044C147.214 29.5305 146.497 29.9315 147.33 32.4003C148.159 34.8742 147.468 38.5357 145.79 40.5409L143.679 43.0722C142.651 44.3013 143.126 45.2544 144.74 45.1815C146.349 45.1138 148.528 44.0617 149.578 42.8482C152.095 39.9315 152.089 35.1555 149.567 32.244L148.929 31.5044Z" fill="#F4C90C"/>
<path d="M163.686 29.354C164.831 30.4686 164.477 31.13 162.9 30.8332L156.479 29.6144C150.797 28.5363 150.881 27.5571 156.664 27.4321L158.679 27.3905C160.288 27.3592 162.536 28.2394 163.686 29.354Z" fill="#FF5DC2"/>
<path d="M161.607 38.0678C163.517 38.2449 165.232 36.8386 165.411 34.948C165.59 33.0522 164.192 31.2136 162.309 30.8543L152.406 28.9793C148.945 28.323 147.99 29.9532 150.285 32.599C152.575 35.2501 157.323 37.6772 160.832 37.9949L161.607 38.0678Z" fill="#DF1F37"/>
<path d="M160.562 47.2024C157.513 48.8743 154.906 47.4264 154.775 43.9732C154.637 40.5253 157.37 37.9628 160.842 38.2805L161.77 38.3639C163.633 38.5357 164.899 40.166 164.583 41.9941C164.271 43.817 162.673 46.0462 161.037 46.942L160.562 47.2024Z" fill="#159C1F"/>
<path d="M154.463 51.6452C154.616 55.9837 151.498 61.0618 147.541 62.9316C143.584 64.8014 137.39 64.3118 133.782 61.8483L132.895 61.2389C128.131 57.9837 128.833 54.192 134.447 52.8066L134.747 52.7337C139.263 51.6191 145.447 47.8535 148.48 44.3587C151.514 40.8639 154.126 41.7702 154.284 46.3795L154.463 51.6452Z" fill="#FF5DC2"/>
<path d="M128.616 51.2652C131.207 52.161 131.149 53.4319 128.485 54.0881C125.826 54.7444 121.636 54.286 119.183 53.0725L116.012 51.4996C113.554 50.286 113.791 49.1819 116.535 49.0465C119.278 48.9162 123.641 49.5413 126.232 50.4371L128.616 51.2652Z" fill="#FF5DC2"/>
<path d="M144.56 45.5103C146.17 45.4426 146.623 46.3697 145.568 47.578C144.122 49.2239 141.184 51.0051 139.042 51.5364C136.209 52.2343 135.639 51.1874 137.77 49.2134L139.485 47.6249C140.667 46.5312 142.946 45.5832 144.56 45.5103Z" fill="#FA6024"/>
<path d="M148.739 129.218C150.739 129.791 151.145 131.426 149.636 132.848C148.127 134.27 145.22 135.135 143.168 134.77L119.373 130.505C117.869 130.234 117.606 129.229 118.782 128.27C119.901 127.359 121.051 125.468 121.346 124.067C121.636 122.666 123.013 121.843 124.401 122.244L148.739 129.218Z" fill="#0683C7"/>
<path d="M32.4892 63.8382C33.1593 63.6403 33.7344 64.0465 33.7555 64.7444L34.1934 78.2757C34.1986 78.458 34.072 78.6819 33.9137 78.7757C33.7502 78.8694 33.6025 78.7965 33.5761 78.6142L32.8005 73.0309C32.7636 72.7601 32.5051 72.5413 32.2307 72.5413C31.9564 72.5413 31.719 72.3173 31.7031 72.0465L31.3338 65.4684C31.2916 64.7757 31.8139 64.0413 32.4892 63.8382Z" fill="#4590FA"/>
<path d="M37.5751 71.5522C37.9761 71.3543 38.2874 70.823 38.261 70.3751L38.0236 66.3751C37.955 65.2397 36.9789 64.1095 35.8552 63.8647C34.7314 63.6199 33.845 64.3491 33.882 65.4897L34.0983 72.2762C34.2091 75.7293 35.3117 75.9116 36.5463 72.6772C36.7046 72.2605 37.1689 71.7553 37.5751 71.5522Z" fill="#1FB7AF"/>
<path d="M36.0927 82.1403C37.0476 81.4788 37.8706 81.8799 37.9234 83.0309L38.1925 88.9788C38.2189 89.5413 38.0922 90.4424 37.9128 90.9736C37.7335 91.5101 37.1215 91.9788 36.5517 92.0257C35.9502 92.0726 35.3962 91.6246 35.3224 91.0309L34.6207 85.4163C34.4782 84.2705 35.1377 82.7965 36.0927 82.1403Z" fill="#1FB7AF"/>
<path d="M48.0425 123.718C46.0904 121.604 42.1493 120.239 39.2845 120.682L35.28 121.307C34.6311 121.411 34.3409 121.963 34.6364 122.541C34.9265 123.125 35.6915 123.484 36.3299 123.343L38.625 122.843C41.2207 122.276 44.8347 123.38 46.6549 125.297C48.4751 127.208 49.9682 130.927 49.9682 133.557V139.224C49.9682 143.182 49.008 149.515 47.842 153.297C46.6708 157.078 46.9715 157.187 48.5068 153.536C50.2109 149.489 51.6038 142.588 51.6038 138.203V132.776C51.6038 129.906 49.9999 125.833 48.0425 123.718Z" fill="#FF5DC2"/>
<path d="M36.9737 92.5626C37.3378 92.5418 37.649 92.8126 37.6754 93.172L39.4851 118.943C39.5114 119.323 39.2213 119.682 38.8414 119.745C38.4563 119.807 38.1239 119.542 38.0975 119.162L36.367 93.2501C36.3406 92.896 36.615 92.5835 36.9737 92.5626Z" fill="#6D3113"/>
<path d="M37.6438 119.927C37.3853 119.964 37.1637 119.787 37.1479 119.526L35.4965 93.0938C35.4807 92.8699 35.6548 92.672 35.8764 92.6511C36.1032 92.6251 36.2984 92.7917 36.3143 93.0157L38.0817 119.391C38.0975 119.651 37.9023 119.891 37.6438 119.927Z" fill="#674FC2"/>
<path d="M34.4676 122.656C34.1774 122.072 33.5548 121.973 33.0906 122.426C30.3629 125.088 27.8463 130.353 27.4981 134.129L27.4559 134.541C26.9283 140.244 27.8357 149.406 29.4713 154.895L30.2838 157.614C30.8536 159.531 32.9376 161.406 34.9213 161.781C36.8998 162.161 40.0917 161.984 42.0122 161.385C43.959 160.781 46.0377 158.708 46.6339 156.775L46.7236 156.484C48.4171 151.01 47.9107 150.822 45.6051 156.077L45.4996 156.312C44.8506 157.786 43.0885 159.484 41.5848 160.083C40.0759 160.682 37.5329 160.968 35.929 160.713C33.8872 160.39 31.7768 158.51 31.2282 156.541L30.6795 154.541C29.1864 149.156 28.5005 140.208 29.1547 134.661C29.5346 131.395 31.7874 126.838 34.151 124.531C34.6206 124.077 34.763 123.234 34.4676 122.656Z" fill="#88FB64"/>
<path d="M121.23 23.3748C121.114 22.1925 120.407 21.9842 119.658 22.9113L117.912 25.0727C117.284 25.8488 117.395 27.0102 118.16 27.6561C118.925 28.3019 119.943 28.1144 120.428 27.2446C120.977 26.2446 121.341 24.505 121.23 23.3748Z" fill="#CB0D57"/>
<path d="M116.107 25.9268C115.96 26.1247 116.033 26.3227 116.281 26.3695C116.529 26.4164 116.862 26.2914 117.02 26.0987L119.99 22.4164C120.539 21.7445 120.397 21.5883 119.674 22.0779C118.956 22.5675 117.938 23.5362 117.41 24.2237L116.107 25.9268Z" fill="#E73775"/>
<path d="M130.521 21.0574C130.273 21.1459 130.115 21.4272 130.168 21.6824L130.4 22.7866C130.801 24.6824 129.529 26.1824 127.572 26.1147C125.662 26.047 123.304 24.6616 122.328 23.0366C121.732 22.0366 121.331 22.1668 121.441 23.323C121.557 24.4793 122.354 26.073 123.214 26.8647L123.905 27.5053C125.182 28.6772 127.625 29.3647 129.334 29.0314C131.044 28.698 132.167 27.0366 131.84 25.3439L131.059 21.3595C131.012 21.1043 130.769 20.9689 130.521 21.0574Z" fill="#FFB326"/>
<path d="M120.486 27.4576C120.017 28.3066 119.985 29.7076 120.413 30.5774C120.84 31.442 121.003 32.9211 120.777 33.8586C120.465 35.1451 120.945 35.4003 121.842 34.4211L123.33 32.8118C124.85 31.1607 124.739 28.5618 123.087 27.0409C122.222 26.2493 121.051 26.4368 120.486 27.4576Z" fill="#FF0926"/>
<path d="M119.025 37.6665C118.46 38.38 117.258 38.8905 116.35 38.8071C115.369 38.7134 114.519 37.8436 114.461 36.8696C114.292 34.1925 115.933 33.3175 118.102 34.9269L118.719 35.3852C119.447 35.9269 119.589 36.953 119.025 37.6665Z" fill="#4590FA"/>
<path d="M116.282 26.5726C116.034 26.5257 115.77 26.6871 115.696 26.9267L115.622 27.1663C114.836 29.734 115.97 33.1507 118.139 34.7601C119.204 35.5517 120.339 35.1507 120.65 33.8642C120.877 32.9267 120.713 31.4476 120.286 30.5778C119.859 29.7132 118.904 28.4892 118.16 27.859L117.078 26.9476C116.888 26.7861 116.53 26.6194 116.282 26.5726Z" fill="#CD2918"/>
<path d="M135.85 34.7805C134.431 34.7649 132.389 35.5097 131.318 36.4368C130.247 37.3638 128.21 38.218 126.796 38.3326L119.764 38.8951C118.978 38.9628 118.392 39.6503 118.455 40.4316C118.524 41.2076 119.215 41.7388 119.996 41.6086L128.131 40.2597C129.308 40.0618 131.228 39.7024 132.4 39.4576C133.566 39.2128 135.233 38.343 136.098 37.5305L136.715 36.942C137.96 35.7701 137.57 34.7961 135.85 34.7805Z" fill="#CD752B"/>
<path d="M145.542 40.2495C143.21 43.0359 138.314 45.3015 134.658 45.2807L115.474 45.1765C113.311 45.1661 113.142 44.4109 115.1 43.4995C117.057 42.588 120.402 41.5515 122.534 41.1974L128.205 40.2547C129.382 40.0568 131.307 39.6974 132.473 39.4526C133.645 39.2078 135.307 38.338 136.172 37.5203L142.382 31.6609C144.128 30.0151 146.18 30.5203 146.945 32.7859C147.71 35.0515 147.077 38.4057 145.542 40.2495Z" fill="#0683C7"/>
<path d="M136.552 26.9429C136.567 26.547 136.815 26.0054 137.116 25.745C140.978 22.3023 144.724 15.3179 145.442 10.2241L145.447 10.1825C145.668 8.5783 146.792 8.21371 147.937 9.36996C149.087 10.5262 149.9 12.797 149.741 14.4064C149.404 17.9585 147.415 23.2398 145.331 26.146L144.597 27.1616C144.086 27.8752 142.946 28.4273 142.065 28.3856C141.179 28.3439 139.744 28.1877 138.873 28.047L137.248 27.7762C136.858 27.7137 136.541 27.3387 136.552 26.9429Z" fill="#3873BB"/>
<mask id="mask2_372_469" style="mask-type:luminance" maskUnits="userSpaceOnUse" x="119" y="0" width="27" height="25">
<path d="M119.342 0H145.004V24.4323H119.342V0Z" fill="white"/>
</mask>
<g mask="url(#mask2_372_469)">
<path d="M131.956 14.4479C134.478 15.1042 136.483 17.7552 136.415 20.3334L136.393 20.9896C136.32 23.7604 137.955 24.5104 140.039 22.6563C142.118 20.8021 144.133 17.0417 144.518 14.3021L144.919 11.474C145.257 9.0469 144.497 5.34898 143.226 3.25523C143.009 2.90106 142.709 2.9271 142.55 3.3021C142.392 3.68231 142.007 3.77606 141.691 3.51564L138.636 0.984394C138.43 0.812519 138.256 0.890644 138.256 1.16148C138.256 1.4271 138.04 1.61981 137.77 1.59377L123.937 0.161477C122.776 0.0416854 122.576 0.52606 123.499 1.2396C124.422 1.95314 124.269 2.83856 123.161 3.21356L121.737 3.69273C119.4 4.47919 119.51 5.12502 121.974 5.12502C123.241 5.12502 123.926 6.08856 123.499 7.27085C123.072 8.44794 123.541 10.0417 124.538 10.8125C126.374 12.224 129.714 13.8594 131.956 14.4479Z" fill="#FFA348"/>
</g>
<path d="M105.097 54.8281C107.84 55.0104 111.634 56.7656 113.528 58.7344C116.44 61.7604 115.765 62.6458 112.029 60.7031L104.532 56.8073C102.1 55.5416 102.353 54.651 105.097 54.8281Z" fill="#FFB326"/>
<path d="M134.679 72.4628C140.461 72.2649 140.651 70.7753 135.106 69.1503L125.567 66.3586C122.101 65.343 116.419 63.7076 112.937 62.7232C109.46 61.7388 108.484 63.2076 110.763 65.9836C113.971 69.8847 120.745 72.9368 125.815 72.7649L134.679 72.4628Z" fill="#88FB64"/>
<path d="M156.653 76.6611C157.608 74.9996 157.191 74.6611 155.73 75.9059C154.268 77.1559 151.493 78.1976 149.567 78.2236L139.089 78.3694C135.217 78.4267 135.074 79.3955 138.778 80.5205C141.69 81.4111 146.55 81.8069 149.573 81.4007C152.174 81.0517 155.36 78.9163 156.653 76.6611Z" fill="#CD0F41"/>
<path d="M150.981 85.4893C153.366 84.4477 155.904 81.5622 156.627 79.0779L157.038 77.6508C157.666 75.4893 157.26 75.3174 156.136 77.2758C155.012 79.2341 152.248 81.0883 149.99 81.3904C146.624 81.8435 141.216 81.406 137.966 80.4164C134.594 79.3852 129.113 77.6091 125.778 76.4685C120.967 74.8227 120.798 75.2445 125.393 77.4008L142.366 85.3799C144.724 86.4893 148.602 86.5362 150.981 85.4893Z" fill="#1FB789"/>
<path d="M130.896 65.0204C127.261 63.26 121.162 60.7183 117.347 59.3746C114.973 58.5412 114.456 59.3329 116.192 61.1402C117.933 62.9423 121.331 64.9944 123.747 65.7027L135.212 69.0569C140.757 70.6819 141.047 69.9475 135.855 67.4267L130.896 65.0204Z" fill="#E3FF01"/>
<path d="M136.995 64.5729C138.72 65.7551 141.348 67.9218 142.835 69.3906C144.318 70.8593 143.991 71.3124 142.107 70.3958L127.757 63.4374C125.979 62.5729 126.127 61.6562 128.094 61.401C130.062 61.1458 133.006 61.8489 134.642 62.9635L136.995 64.5729Z" fill="#4590FA"/>
<path d="M150.427 62.0624C152.907 60.8905 155.081 62.1562 155.265 64.8697C155.445 67.5832 153.403 70.3176 150.728 70.9478L149.657 71.1978C147.61 71.677 144.729 70.8697 143.241 69.401C141.759 67.9322 142.097 65.9999 143.991 65.1041L150.427 62.0624Z" fill="#1FB7AF"/>
<path d="M138.493 75.338C134.689 77.0047 128.358 77.2599 124.428 75.9057C120.233 74.4682 120.428 73.1661 124.865 73.0151L137.855 72.5724C142.012 72.4317 142.302 73.6765 138.493 75.338Z" fill="#C30B11"/>
<path d="M156.964 71.7812C157.75 72.7396 157.624 74.1823 156.679 74.9844C154.701 76.6719 150.945 78.0833 148.333 78.1198L139.612 78.2448C135.454 78.3021 135.164 76.9896 138.968 75.3281C142.772 73.6666 149.193 71.5312 153.24 70.5833L153.329 70.5625C154.543 70.276 156.178 70.8229 156.964 71.7812Z" fill="#FF0926"/>
<path d="M165.343 89.9585C167.453 94.1772 165.654 99.4585 161.349 101.703C157.049 103.948 150.491 103.281 146.782 100.229L118.666 77.0939C118.323 76.8127 118.413 76.5262 118.856 76.4585C119.305 76.3908 120.006 76.4845 120.418 76.672L143.658 87.172C145.89 88.1772 149.562 88.2241 151.82 87.271C154.078 86.3231 156.484 83.6929 157.165 81.4377C157.977 78.7502 159.671 78.6199 160.932 81.1408L165.343 89.9585Z" fill="#FFA348"/>
<path d="M13.4694 115.796C13.5855 116.13 13.4219 116.531 13.1054 116.692L10.8051 117.828C10.4305 118.01 9.9451 117.875 9.72879 117.526C9.5072 117.177 9.64437 116.755 10.0242 116.588L12.6569 115.447C12.9893 115.302 13.3534 115.463 13.4694 115.796Z" fill="#0683C7"/>
<mask id="mask3_372_469" style="mask-type:luminance" maskUnits="userSpaceOnUse" x="0" y="103" width="13" height="13">
<path d="M0 103.099H12.6411V115.099H0V103.099Z" fill="white"/>
</mask>
<g mask="url(#mask3_372_469)">
<path d="M11.4858 104.083C11.4488 103.713 11.3169 103.698 11.2009 104.052C11.0848 104.401 10.6785 104.708 10.3092 104.734L9.9399 104.755C9.502 104.786 8.97968 105.125 8.7792 105.505C8.57343 105.89 8.05112 106.203 7.61322 106.203H7.20697C6.79017 106.203 6.36282 106.531 6.26258 106.932C6.16233 107.333 5.74026 107.682 5.32346 107.713L4.97525 107.734C4.569 107.76 4.14165 108.099 4.02558 108.479C3.90951 108.864 3.47688 109.192 3.07591 109.203L2.69605 109.218C2.36366 109.229 1.9838 109.484 1.84662 109.786C1.71472 110.088 1.33485 110.375 1.00775 110.427C0.0844589 110.578 4.36604e-05 111.067 0.812538 111.52L6.00933 114.422C6.58968 114.744 7.01176 114.474 6.94845 113.817C6.91152 113.406 7.15421 113.27 7.49187 113.52C7.82953 113.77 8.08277 113.635 8.05112 113.218V113.161C8.00891 112.609 8.36767 112.401 8.83723 112.698C9.31207 113 9.74997 112.797 9.81856 112.244L9.83438 112.114C9.89242 111.604 10.1509 111.552 10.4042 112C10.6574 112.453 10.9634 112.411 11.0848 111.911L11.1639 111.604C11.3011 111.036 11.6335 111 11.9078 111.515C12.1769 112.036 12.3457 111.984 12.2824 111.406L11.4858 104.083Z" fill="#FA8C14"/>
</g>
<path d="M12.9155 116.781C13.3376 116.573 13.8493 116.744 14.0551 117.166C14.2556 117.583 14.2978 118.276 14.1448 118.708C13.9918 119.14 13.5064 119.614 13.0685 119.76L12.8997 119.817C12.3193 120.01 11.4277 119.895 10.9159 119.567C10.6521 119.395 10.3672 119.01 10.2828 118.708C10.1984 118.406 10.3567 118.047 10.6416 117.911L12.9155 116.781Z" fill="#FF0926"/>
<path d="M164.878 41.8643C164.736 42.6716 165.295 43.3227 166.118 43.3123L171.299 43.2654C172.164 43.255 173.008 42.557 173.161 41.7081C173.32 40.8643 172.739 40.1925 171.869 40.2185L166.635 40.3643C165.807 40.3852 165.021 41.0623 164.878 41.8643Z" fill="#FF0926"/>
<path d="M172.307 44.432C172.016 45.031 171.225 45.5726 170.555 45.6299L163.512 46.2497C162.931 46.3018 162.873 46.1143 163.38 45.8383C163.86 45.5778 164.324 44.9268 164.414 44.3903C164.509 43.8591 165.026 43.4164 165.574 43.4112L171.615 43.3487C172.285 43.3435 172.597 43.8278 172.307 44.432Z" fill="#FF5DC2"/>
<path d="M196.17 31.7964C201.947 31.5048 201.984 31.9058 196.254 32.687L176 35.4527C174.929 35.5985 173.409 35.1193 172.618 34.385C171.832 33.6506 172.075 33.0048 173.151 32.9475L196.17 31.7964Z" fill="#F19B1D"/>
<path d="M204.274 28.8276C205.017 28.7859 205.883 29.3015 206.199 29.9682C206.516 30.6401 206.162 31.213 205.418 31.2546L173.858 32.8536C172.623 32.9161 172.423 32.364 173.409 31.6296C174.401 30.8953 176.221 30.2442 177.456 30.1817L204.274 28.8276Z" fill="#4590FA"/>
<path d="M207.882 32.4218C208.468 33.0207 208.267 33.6405 207.439 33.7916L176.205 39.5988C175.055 39.8124 174.132 39.0416 174.153 37.8801C174.179 36.7238 175.145 35.6509 176.3 35.4895L205.302 31.5363C206.136 31.4218 207.296 31.8176 207.882 32.4218Z" fill="#E3FF01"/>
<path d="M209.312 34.3954C209.513 34.8173 209.307 35.2652 208.853 35.3902L173.657 45.0413C173.009 45.2184 172.718 44.8694 173.009 44.2704C173.304 43.6663 173.642 42.6402 173.763 41.984C173.958 40.9475 174.971 39.9423 176.016 39.7496L208.099 33.7861C208.563 33.6975 209.112 33.9736 209.312 34.3954Z" fill="#E35701"/>
<path d="M208.384 27.13C207.212 27.9113 206.7 27.4946 207.239 26.2029C207.777 24.9113 209.117 23.1352 210.214 22.255L212.309 20.5779C212.668 20.2863 213.29 20.2342 213.696 20.4581C214.103 20.6769 214.219 21.1717 213.96 21.5519L213.802 21.7811C212.599 23.5311 210.161 25.9425 208.384 27.13Z" fill="#859D33"/>
<path d="M220.397 28.1979C221.668 29.4323 221.22 30.8438 219.394 31.3282L211.185 33.5104C210.737 33.6302 210.199 33.4271 209.998 33.0521C209.798 32.6823 209.36 32.1302 209.033 31.8334L208.442 31.2969C207.925 30.8281 207.244 29.9636 206.933 29.375C206.616 28.7865 206.864 28.0052 207.481 27.6459L211.343 25.3646C211.549 25.2448 211.913 25.1406 212.161 25.1302C212.404 25.125 212.805 25.1354 213.048 25.1563L213.744 25.2188C214.804 25.3125 216.44 25.7344 217.384 26.1615C218.329 26.5886 219.685 27.5052 220.397 28.1979Z" fill="#FFA348"/>
<path d="M229.26 31.682C229.376 31.7758 229.429 31.9268 229.398 32.0675C229.366 32.2133 229.26 32.3279 229.113 32.3695C229.113 32.3695 229.107 32.3695 229.107 32.3748C227.714 32.7758 225.826 32.1404 223.963 32.5623C222.228 32.9581 220.497 33.307 219.162 33.531L218.371 33.6664C214.103 34.3748 214.002 33.9373 218.139 32.6925C219.621 32.2445 221.642 31.7029 223.61 31.2133C225.171 30.8279 226.728 31.5831 227.926 31.3383C228.068 31.3123 228.2 31.2862 228.311 31.2602C228.538 31.2133 228.775 31.2758 228.954 31.4216L229.26 31.682Z" fill="#0683C7"/>
<path d="M221.22 28.625C220.819 27.9532 221.135 27.4375 221.927 27.4844L227.757 27.8438C228.189 27.8698 228.759 28.1667 229.028 28.5C229.292 28.8386 229.16 29.1459 228.733 29.1875L223.378 29.7136C222.592 29.7917 221.621 29.3021 221.22 28.625Z" fill="#E3FF01"/>
<path d="M221.104 25.718C220.898 25.0878 221.273 24.6243 221.937 24.6815L226.739 25.1138C227.308 25.1659 228.079 25.5565 228.448 25.9836C228.823 26.4107 228.659 26.7649 228.089 26.7701L222.697 26.843C222.032 26.8534 221.315 26.3482 221.104 25.718Z" fill="#4590D4"/>
<path d="M216.181 23.9845C215.559 23.2866 215.817 22.6824 216.762 22.6459L221.093 22.4845C221.71 22.4637 222.613 22.7449 223.103 23.1147C223.594 23.4845 223.504 23.8959 222.903 24.0314L218.999 24.8907C218.075 25.0939 216.809 24.6824 216.181 23.9845Z" fill="#1FB7AF"/>
<path d="M136.335 19.7445C136.393 17.7602 135.222 17.2289 133.74 18.5622C132.257 19.8956 131.355 22.5831 131.735 24.531L131.909 25.4372C132.241 27.13 131.118 28.7914 129.408 29.1247C127.699 29.4581 125.34 30.7706 124.164 32.0466L121.531 34.9112C120.914 35.5779 119.954 36.7081 119.389 37.4164C118.83 38.13 119.115 38.6508 120.022 38.5779C125.182 38.1612 132.59 35.057 136.483 31.6768L138.541 29.8956C139.364 29.182 139.153 28.4529 138.071 28.2758C136.995 28.0935 136.135 27.0622 136.167 25.9789L136.335 19.7445Z" fill="#98CA3B"/>
<path d="M78.6008 162.505C80.0939 163.666 80.2785 165.76 79.0176 167.166L73.7575 173.005C72.6179 174.271 70.613 174.411 69.3046 173.317C67.9962 172.224 67.859 170.302 69.0039 169.041L75.699 161.672C76.0367 161.297 76.6645 161.208 77.0972 161.469C77.5245 161.729 78.2051 162.198 78.6008 162.505Z" fill="#E3FF01"/>
<path d="M33.0906 83.7969C32.9165 83.7448 32.8163 83.8438 32.8691 84.0156L32.9588 84.2969C34.2883 88.5677 34.9214 88.4375 34.3674 84C34.3199 83.6094 34.0139 83.4792 33.6921 83.7031C33.5391 83.8073 33.27 83.849 33.0906 83.7969Z" fill="#0683C7"/>
<path d="M168.64 118.911C168.64 118.911 165.432 119.504 164.43 122.182C163.427 124.859 162.124 124.76 163.928 125.359C165.733 125.952 169.943 128.135 169.542 126.645C169.141 125.161 169.041 118.218 168.64 118.911Z" fill="#1FB789"/>
</svg>
