<svg width="234" height="330" viewBox="0 0 234 330" fill="none" xmlns="http://www.w3.org/2000/svg">
<g opacity="0.5">
<mask id="mask0_189_398" style="mask-type:luminance" maskUnits="userSpaceOnUse" x="0" y="0" width="234" height="330">
<path d="M234 0.202515H0V329.139H234V0.202515Z" fill="white"/>
</mask>
<g mask="url(#mask0_189_398)">
<mask id="mask1_189_398" style="mask-type:luminance" maskUnits="userSpaceOnUse" x="0" y="1" width="234" height="327">
<path d="M0.781189 1.50958H233.421V327.721H0.781189V1.50958Z" fill="white"/>
</mask>
<g mask="url(#mask1_189_398)">
<path d="M61.9861 1.59851L51.6869 11.7172L44.943 10.4821C44.943 10.4821 43.455 20.0026 44.0396 18.7731C44.6295 17.5491 47.8765 17.8371 47.8765 17.8371L24.3447 34.0978L11.9836 43.3027L5.2132 48.2097L4.90497 61.7068L0.786377 70.2968L4.62331 84.7022L12.5523 94.2006L18.1642 103.405L25.5033 111.674L29.3402 118.437L44.6348 162.899L44.3531 170.869C44.3531 170.869 44.3478 180.677 45.8199 180.982C47.2867 181.292 50.826 187.113 50.5284 188.951C50.2361 190.796 50.2202 204.304 50.2202 204.304L56.7089 217.48L60.5193 228.534L74.937 240.796C74.937 240.796 86.1184 244.767 87.2981 244.767C88.4779 244.767 92.3095 244.773 92.6018 246.003C92.8941 247.227 94.0686 254.271 94.0686 255.501C94.0686 256.725 97.0287 263.172 96.4388 264.706C95.8489 266.24 94.3768 275.439 94.3768 275.439L71.1267 279.117L52.2821 280.673L49.9385 284.024L47.005 283.409C47.005 283.409 48.7481 278.806 47.5683 279.117C46.3938 279.421 34.0434 277.605 32.8689 278.524C31.6891 279.443 25.2216 283.409 25.2216 283.409L24.3447 290.171L28.1551 303.048C28.1551 303.048 34.341 308.564 35.5208 308.254C36.6952 307.95 40.5162 308.254 40.5162 308.254C40.5162 308.254 40.8032 313.765 41.3878 315.609C41.9776 317.448 43.1681 321.751 45.2247 323.28C47.2867 324.814 61.7044 327.578 61.7044 327.578L74.0655 326.343C74.0655 326.343 77.3125 322.981 75.8405 321.751C74.3684 320.527 71.4137 317.459 71.4137 317.459L82.021 318.373C82.021 318.373 79.3586 322.05 81.7128 322.665C84.067 323.28 95.8489 326.957 95.8489 326.957L104.676 324.515L118.791 326.664C118.791 326.664 116.745 324.199 119.099 323.28C121.453 322.36 123.505 323.291 126.151 324.515C128.803 325.744 128.792 322.981 131.147 323.9C133.501 324.82 138.204 324.814 138.204 324.814C138.204 324.814 147.345 325.135 149.401 325.135C151.463 325.135 172.343 323.607 172.343 323.607L177.929 317.165L181.457 308.575L179.709 306.726L178.242 299.991L174.405 297.227L170.595 292.315L160.577 289.257L151.155 286.787C151.155 286.787 148.216 286.173 148.216 284.644C148.216 283.11 149.996 274.525 149.996 274.525L150.868 261.028L148.811 247.238L146.16 241.411L153.52 227.299C153.52 227.299 159.116 215.037 158.234 212.888C157.351 210.74 158.802 203.069 158.802 203.069L160.859 187.423C160.859 187.423 156.172 176.091 156.172 174.867C156.172 173.638 152.622 171.494 151.155 171.19C149.683 170.885 138.794 171.483 138.794 171.483C138.794 171.483 132.337 174.236 131.455 176.075C130.573 177.913 125.848 184.05 124.966 185.28C124.084 186.504 122.033 185.28 122.033 185.28L120.847 180.982L125.843 175.776C125.843 175.776 124.392 166.277 123.218 165.663C122.038 165.048 118.504 153.694 118.504 153.694L117.037 138.668L116.134 128.849C116.134 128.849 118.488 123.953 119.662 122.729C120.842 121.499 120.258 118.73 120.258 118.73L125.561 115.374L127.618 102.497L125.274 94.8209L122.622 90.2074L116.134 87.4714L108.486 86.8511H102.311L104.368 82.8524L104.963 79.1749L106.738 75.7965L108.8 69.9756L112.323 68.1479L113.2 65.3843C113.2 65.3843 110.267 60.1726 110.857 58.9431C111.446 57.7191 112.015 54.0361 112.015 54.0361L124.966 53.4158L114.975 45.446V40.8325L188.823 62.2994L208.236 66.5916H225.306C225.306 66.5916 230.019 64.1547 230.609 62.6206C231.199 61.0865 232.671 50.9733 232.671 50.9733L230.019 47.2737L112.015 20.6008L107.896 23.658L101.121 23.9792C101.121 23.9792 100.828 21.8247 101.121 20.6008C101.418 19.3712 96.1305 12.9245 96.1305 12.9245H92.0066L88.7649 8.95351L85.2362 12.3319L82.5843 9.86734L79.9591 7.42491L75.8405 5.57508L71.7219 4.66125L68.7565 1.89758L64.9461 2.51235L61.9861 1.60405V1.59851ZM62.8895 30.0991C64.0693 30.0991 65.2331 31.9489 65.2331 31.9489C65.2331 31.9489 63.7717 35.3274 62.8895 36.8615C62.0073 38.3901 63.4794 44.8368 63.4794 46.0608C63.4794 47.2903 61.4227 56.1794 61.4227 56.1794L64.9514 58.0016L67.2951 63.5344L66.6999 71.8254L60.2376 79.1749L53.4672 80.7035L42.8811 77.6463L33.7405 70.5904L26.4067 58.9431L29.3402 55.2656L39.921 46.0608C39.921 46.0608 49.6356 38.6892 50.8154 37.155C51.9898 35.6209 56.406 33.472 56.9959 32.2425C57.5805 31.0185 61.715 30.0991 62.8895 30.0991Z" fill="#FDAB0A" fill-opacity="0.45"/>
</g>
</g>
</g>
</svg>
