<svg width="298" height="203" viewBox="0 0 298 203" fill="none" xmlns="http://www.w3.org/2000/svg">
<g opacity="0.5">
<mask id="mask0_189_855" style="mask-type:luminance" maskUnits="userSpaceOnUse" x="1" y="0" width="296" height="203">
<path d="M296.223 75.1715L33.8018 0.0065918L1.77674 127.653L264.198 202.818L296.223 75.1715Z" fill="white"/>
</mask>
<g mask="url(#mask0_189_855)">
<mask id="mask1_189_855" style="mask-type:luminance" maskUnits="userSpaceOnUse" x="30" y="35" width="181" height="70">
<path d="M35.2836 35.8337L210.598 85.1097L205.627 104.567L30.3128 55.2907L35.2836 35.8337Z" fill="white"/>
</mask>
<g mask="url(#mask1_189_855)">
<mask id="mask2_189_855" style="mask-type:luminance" maskUnits="userSpaceOnUse" x="13" y="5" width="273" height="192">
<path d="M54.1494 5.97657L285.432 117.185L244.753 196.676L13.471 85.4634L54.1494 5.97657Z" fill="white"/>
</mask>
<g mask="url(#mask2_189_855)">
<mask id="mask3_189_855" style="mask-type:luminance" maskUnits="userSpaceOnUse" x="13" y="5" width="273" height="192">
<path d="M54.1221 5.98029L285.442 117.218L244.78 196.672L13.4613 85.4298L54.1221 5.98029Z" fill="white"/>
</mask>
<g mask="url(#mask3_189_855)">
<path d="M57.8948 59.2145C59.7883 59.5662 61.745 59.9356 63.7745 60.3255C68.1702 61.1728 73.1358 62.1939 79.4143 63.5569C84.5202 64.6807 90.5759 66.0398 96.7661 67.5857C101.992 68.8515 107.668 70.3298 115.167 72.3789C117.368 72.9932 119.575 73.627 121.781 74.2608L124.551 75.053C125.725 75.4101 126.905 75.7643 128.08 76.1171C130.01 76.6913 132.011 77.2945 133.961 77.9148C134.655 78.1325 135.349 78.3501 136.042 78.572C138.436 79.3264 140.909 80.1026 143.315 80.9325L147.929 82.4734C148.603 82.708 149.277 82.9427 149.941 83.1788C150.796 83.4779 151.656 83.7785 152.508 84.072L157.02 85.6655C158.517 86.2262 160 86.7785 161.482 87.3351C164.078 88.2771 166.642 89.2867 169.115 90.262L170.15 90.6747C172.315 91.5093 174.447 92.3973 176.511 93.2621C177.156 93.5292 177.8 93.8005 178.44 94.0662C180.883 95.0599 183.25 96.1228 185.535 97.1443L186.245 97.4613C186.32 97.4958 186.384 97.5275 186.46 97.5578C186.516 97.5826 186.572 97.6074 186.628 97.6322C186.851 97.7399 187.107 97.717 187.277 97.5797C191.735 94.065 196.916 91.4124 202.687 89.707C204.8 89.0773 206.988 88.5817 209.174 88.2346C209.428 88.1976 209.607 88.0085 209.613 87.78C209.616 87.5459 209.438 87.3244 209.195 87.2379C208.909 87.1349 208.62 87.0222 208.332 86.9052C207.891 86.7361 207.45 86.567 207.006 86.3923C206.228 86.0926 205.437 85.7888 204.632 85.4948L203.081 84.9458C202.321 84.6782 201.558 84.405 200.79 84.1304C199.482 83.6678 198.154 83.1998 196.803 82.7208C195.943 82.4203 195.065 82.1283 194.19 81.8461C193.686 81.6775 193.182 81.5131 192.678 81.3444L192.036 81.1278C189.458 80.2767 186.8 79.3939 184.079 78.593L182.325 78.0595C179.969 77.3384 177.532 76.59 175.06 75.9133L174.4 75.7234C171.575 74.9246 168.654 74.0901 165.721 73.3467C165.038 73.1682 164.35 72.9884 163.662 72.8085C162.764 72.5741 161.867 72.3356 160.954 72.0971L158.873 71.5843C157.961 71.364 157.044 71.1424 156.129 70.9124C154.511 70.5209 152.897 70.1349 151.26 69.7378C150.533 69.5695 149.808 69.4109 149.075 69.2454C148.174 69.0419 147.273 68.8384 146.374 68.6307C143.819 68.0345 141.208 67.4948 138.683 66.9698L136.522 66.5207C134.401 66.0642 132.242 65.6514 130.147 65.2522C128.986 65.0297 127.819 64.8057 126.651 64.572C123.3 63.9551 120.011 63.3602 116.865 62.8146C111.553 61.9265 104.588 60.7858 97.8207 59.8497C91.1982 58.8956 84.8295 58.1303 80.0212 57.5734C75.4504 57.0651 69.508 56.4242 64.0799 55.9503C44.5813 54.1717 31.3844 53.889 31.2496 53.8872C30.935 53.8756 30.6983 54.089 30.7007 54.3651C30.7046 54.5739 30.8477 54.7676 31.0528 54.8614C31.1176 54.8931 31.1904 54.9136 31.2654 54.9257C31.3717 54.9375 41.9466 56.253 57.8959 59.2103L57.8948 59.2145ZM186.736 96.5606L186.712 96.5496L185.989 96.2242C183.69 95.1945 181.312 94.133 178.856 93.131C178.216 92.8653 177.577 92.5954 176.927 92.3269C174.858 91.4608 172.718 90.5658 170.538 89.7229L169.503 89.3144C167.021 88.3322 164.447 87.3199 161.836 86.3738C160.363 85.8241 158.88 85.2718 157.37 84.7028L152.839 83.0997C151.983 82.8047 151.132 82.507 150.272 82.2064C149.604 81.969 148.935 81.7357 148.246 81.497L143.627 79.9547C141.207 79.1165 138.726 78.3333 136.326 77.5818C135.637 77.3655 134.943 77.1478 134.256 76.9231C132.288 76.2931 130.286 75.6942 128.345 75.1172C127.174 74.77 126.004 74.4185 124.817 74.0532L122.033 73.2569C119.815 72.6245 117.609 71.9907 115.404 71.3708C107.889 69.3218 102.198 67.8395 96.9629 66.5709C90.7581 65.0209 84.6927 63.6591 79.5722 62.5312C75.6011 61.6723 72.1491 60.9413 69.035 60.3142C70.8901 60.5106 72.7079 60.71 74.4195 60.8977C81.3623 61.6979 87.1235 62.437 92.5416 63.215C98.0821 63.9823 104.24 64.9412 111.916 66.2322C115.519 66.8612 118.779 67.4479 121.875 68.0246C122.975 68.2435 124.077 68.4539 125.179 68.6643C127.387 69.0865 129.675 69.5263 131.915 70.0071L133.858 70.4088C136.514 70.9566 139.257 71.529 141.932 72.1411C143.198 72.4428 144.468 72.7276 145.73 73.0055L146.911 73.2742C148.571 73.6823 150.224 74.0792 151.859 74.4664C153.062 74.7686 154.263 75.0609 155.463 75.3533L156.781 75.6784C157.59 75.8924 158.404 76.1078 159.219 76.3232C160.019 76.5344 160.824 76.7428 161.627 76.9639C162.038 77.0659 162.448 77.1722 162.862 77.284C165.732 78.032 168.576 78.8405 171.123 79.5657C172.904 80.0528 174.671 80.5764 176.4 81.103C176.973 81.2824 177.543 81.4561 178.113 81.6298C178.837 81.8515 179.566 82.0745 180.297 82.2933C183.016 83.0985 185.692 83.9769 188.273 84.8336L189.027 85.0816C189.651 85.2886 190.27 85.4942 190.889 85.6998C191.677 85.9574 192.459 86.2179 193.225 86.4784C194.589 86.97 195.94 87.4449 197.285 87.9268L197.729 88.0832C198.761 88.4455 199.779 88.8037 200.784 89.1676C195.568 90.88 190.842 93.3625 186.713 96.5678L186.736 96.5606Z" fill="#FDAB0A"/>
</g>
</g>
</g>
<mask id="mask4_189_855" style="mask-type:luminance" maskUnits="userSpaceOnUse" x="54" y="64" width="132" height="53">
<path d="M58.4137 64.9346L185.263 100.64L181.125 116.86L54.2756 81.1548L58.4137 64.9346Z" fill="white"/>
</mask>
<g mask="url(#mask4_189_855)">
<mask id="mask5_189_855" style="mask-type:luminance" maskUnits="userSpaceOnUse" x="13" y="5" width="273" height="192">
<path d="M54.1469 5.97708L285.433 117.188L244.755 196.676L13.4702 85.46L54.1469 5.97708Z" fill="white"/>
</mask>
<g mask="url(#mask5_189_855)">
<mask id="mask6_189_855" style="mask-type:luminance" maskUnits="userSpaceOnUse" x="13" y="5" width="273" height="192">
<path d="M54.1218 5.98051L285.442 117.219L244.78 196.672L13.4612 85.429L54.1218 5.98051Z" fill="white"/>
</mask>
<g mask="url(#mask6_189_855)">
<path d="M181.695 103.338C182.384 102.538 183.076 101.803 183.759 101.146C183.89 101.02 183.934 100.829 183.86 100.65C183.79 100.472 183.624 100.326 183.424 100.274C182.538 100.034 181.65 99.7976 180.75 99.5529C179.848 99.3125 178.946 99.072 178.044 98.8316C177.331 98.6445 176.619 98.4574 175.896 98.2676L174.531 97.9239C173.365 97.6362 172.191 97.3416 171.034 97.0609C168.497 96.4099 165.906 95.8112 163.403 95.2329C162.675 95.0642 161.943 94.8941 161.215 94.7253C159.206 94.2543 157.159 93.8088 155.183 93.3881C153.92 93.1137 152.657 92.8394 151.386 92.5581C148.274 91.9168 144.943 91.2363 141.625 90.5867C134.107 89.1561 128.076 88.0811 122.623 87.2053C115.959 86.1011 109.612 85.1994 104.835 84.5362C98.1239 83.6357 93.2132 83.0254 88.9065 82.558C69.3282 80.3335 56.2159 79.7671 56.0858 79.7666C55.7771 79.7519 55.527 79.957 55.5294 80.2333C55.5216 80.4479 55.6686 80.6474 55.8775 80.7469C55.9374 80.7773 56.0055 80.7965 56.0756 80.8072C57.2997 80.9893 68.5445 82.6921 84.847 86.1444C85.7931 86.3341 86.7555 86.5418 87.7373 86.7551L88.4719 86.9167C92.7732 87.8343 97.5797 88.9348 104.048 90.4808C109.154 91.7334 115.12 93.21 121.339 94.8979C126.524 96.2678 132.172 97.8672 139.651 100.086C142.141 100.837 144.687 101.635 147.152 102.402L148.991 102.969C150.03 103.307 151.063 103.643 152.103 103.977C154.153 104.635 156.269 105.321 158.332 106.033C159.184 106.327 160.038 106.613 160.886 106.901C163.105 107.653 165.391 108.428 167.62 109.245C168.384 109.514 169.151 109.794 169.92 110.064C170.687 110.344 171.451 110.617 172.205 110.884L175.846 112.248L176.046 111.812C176.18 111.529 176.322 111.262 176.467 110.977C177.902 108.21 179.655 105.641 181.688 103.327L181.695 103.338ZM175.174 110.902L172.57 109.925C171.802 109.65 171.033 109.375 170.27 109.101C169.502 108.826 168.739 108.553 167.974 108.283C165.742 107.46 163.441 106.681 161.222 105.93C160.374 105.642 159.52 105.356 158.673 105.063C156.592 104.342 154.465 103.657 152.416 102.994C151.376 102.661 150.342 102.329 149.294 101.984L147.447 101.41C144.986 100.644 142.433 99.8533 139.93 99.0941C132.432 96.8697 126.774 95.2676 121.58 93.8907C115.351 92.2001 109.377 90.7165 104.26 89.4654C100.683 88.6072 97.6163 87.8926 94.8603 87.2656C98.058 87.6511 101.688 88.1177 106.094 88.7078C110.87 89.3752 117.202 90.2728 123.855 91.3784C129.293 92.2501 135.315 93.3224 142.813 94.7517C146.126 95.4 149.452 96.079 152.544 96.7149C153.805 96.9976 155.064 97.2664 156.322 97.5394C158.301 97.9657 160.345 98.4056 162.346 98.8697C163.073 99.0384 163.806 99.2086 164.538 99.3787C167.036 99.9556 169.613 100.55 172.144 101.2C173.331 101.489 174.521 101.783 175.701 102.075L176.998 102.4C178.07 102.688 179.139 102.971 180.202 103.252C178.343 105.457 176.731 107.88 175.388 110.47C175.316 110.612 175.243 110.755 175.169 110.901L175.174 110.902Z" fill="#FDAB0A"/>
</g>
</g>
</g>
<mask id="mask7_189_855" style="mask-type:luminance" maskUnits="userSpaceOnUse" x="28" y="74" width="149" height="61">
<path d="M33.2377 74.6567L176.27 114.944L171.306 134.412L28.2742 94.1246L33.2377 74.6567Z" fill="white"/>
</mask>
<g mask="url(#mask7_189_855)">
<mask id="mask8_189_855" style="mask-type:luminance" maskUnits="userSpaceOnUse" x="13" y="5" width="273" height="192">
<path d="M54.1458 5.97726L285.434 117.19L244.756 196.675L13.4698 85.4584L54.1458 5.97726Z" fill="white"/>
</mask>
<g mask="url(#mask8_189_855)">
<mask id="mask9_189_855" style="mask-type:luminance" maskUnits="userSpaceOnUse" x="13" y="5" width="273" height="192">
<path d="M54.1217 5.98055L285.442 117.22L244.781 196.672L13.4612 85.4287L54.1217 5.98055Z" fill="white"/>
</mask>
<g mask="url(#mask9_189_855)">
<path d="M172.069 128.646C172.1 125.398 172.536 122.195 173.369 119.132C173.682 117.946 174.056 116.786 174.511 115.591C174.561 115.456 174.544 115.297 174.464 115.162C174.384 115.026 174.243 114.928 174.079 114.877L173.563 114.736C170.708 113.923 167.466 112.996 164.216 112.162C163.244 111.91 162.277 111.656 161.306 111.401L159.442 110.912C157.839 110.519 156.238 110.122 154.623 109.735C153.35 109.417 152.064 109.109 150.784 108.798L149.755 108.549C148.941 108.369 148.129 108.185 147.313 107.996C146.495 107.811 145.678 107.626 144.865 107.447C142.53 106.902 140.153 106.399 137.85 105.918C136.906 105.719 135.952 105.518 135.004 105.315C132.918 104.876 130.794 104.467 128.744 104.071C127.549 103.838 126.347 103.608 125.138 103.367L124.287 103.213C121.352 102.675 118.316 102.122 115.348 101.612C108.146 100.387 101.917 99.4091 96.3003 98.6264C89.9255 97.7115 83.7641 96.9606 78.4829 96.3312C73.2261 95.7493 67.6627 95.1443 62.5437 94.6961C43.0172 92.8953 29.8193 92.6199 29.6855 92.6138C29.3698 92.6062 29.1331 92.8196 29.1405 93.0973C29.1445 93.3062 29.2888 93.496 29.4929 93.5941C29.5577 93.6259 29.6306 93.6465 29.7056 93.6586C29.8373 93.6731 43.0136 95.3204 62.2293 99.0757C64.0558 99.4277 65.9288 99.8017 67.8542 100.195C67.8542 100.195 67.8747 100.196 67.8844 100.199L67.8893 100.2C70.9682 100.828 74.2344 101.518 77.866 102.306C83.0442 103.462 89.0811 104.824 95.2278 106.348C101.621 107.905 108.131 109.658 113.647 111.166C116.677 112.007 119.697 112.885 123.039 113.849C124.174 114.196 125.311 114.538 126.462 114.885C128.427 115.47 130.462 116.084 132.449 116.726C133.212 116.963 133.968 117.203 134.724 117.443C137.052 118.18 139.461 118.94 141.795 119.733L146.421 121.281C147.176 121.547 147.93 121.814 148.681 122.075C149.455 122.348 150.225 122.619 150.998 122.895L155.516 124.493C156.301 124.787 157.09 125.081 157.876 125.37C158.58 125.632 159.279 125.892 159.978 126.152C162.897 127.223 165.74 128.349 168.652 129.509C169.506 129.835 170.39 130.188 171.291 130.555C171.47 130.628 171.679 130.624 171.837 130.537C171.995 130.446 172.087 130.291 172.079 130.117C172.064 129.666 172.06 129.19 172.074 128.647L172.069 128.646ZM169.037 128.551C166.124 127.392 163.272 126.263 160.34 125.184C159.639 124.928 158.936 124.662 158.241 124.407C157.457 124.114 156.667 123.819 155.869 123.518L151.341 121.917C150.573 121.641 149.799 121.369 149.023 121.101C148.273 120.836 147.518 120.573 146.754 120.299L142.124 118.751C139.777 117.949 137.362 117.188 135.024 116.452C134.267 116.212 133.511 115.972 132.755 115.732C130.752 115.091 128.716 114.477 126.737 113.887C125.596 113.543 124.459 113.201 123.314 112.851C119.959 111.878 116.937 111.005 113.898 110.162C108.372 108.651 101.854 106.891 95.4458 105.33C89.2845 103.802 83.2426 102.438 78.0548 101.28L78.7445 101.352C84.0305 101.983 90.2076 102.734 96.5247 103.65C97.9021 103.844 99.3146 104.043 100.779 104.262C105.155 104.911 109.953 105.676 115.539 106.622C117.759 107.003 120.025 107.411 122.26 107.815C123.006 107.952 123.747 108.089 124.478 108.223L125.304 108.374C126.495 108.606 127.695 108.84 128.891 109.073C130.935 109.468 133.055 109.875 135.141 110.314C135.986 110.493 136.825 110.671 137.675 110.852C140.066 111.358 142.546 111.885 144.974 112.452L149.857 113.538L150.401 113.673C151.843 114.021 153.275 114.37 154.713 114.734C156.33 115.113 157.927 115.504 159.518 115.903C160.085 116.049 160.656 116.201 161.221 116.351C162.246 116.622 163.269 116.896 164.293 117.149C166.985 117.844 169.677 118.602 172.1 119.289C171.341 122.269 170.934 125.376 170.897 128.524C170.893 128.785 170.892 129.033 170.89 129.267C170.261 129.018 169.642 128.771 169.045 128.54L169.037 128.551Z" fill="#FDAB0A"/>
</g>
</g>
</g>
<mask id="mask10_189_855" style="mask-type:luminance" maskUnits="userSpaceOnUse" x="164" y="77" width="115" height="111">
<path d="M184.72 77.6147L278.903 104.75L258.374 187.037L164.191 159.901L184.72 77.6147Z" fill="white"/>
</mask>
<g mask="url(#mask10_189_855)">
<mask id="mask11_189_855" style="mask-type:luminance" maskUnits="userSpaceOnUse" x="13" y="5" width="273" height="192">
<path d="M54.1156 5.98151L285.444 117.229L244.786 196.672L13.4589 85.4203L54.1156 5.98151Z" fill="white"/>
</mask>
<g mask="url(#mask11_189_855)">
<mask id="mask12_189_855" style="mask-type:luminance" maskUnits="userSpaceOnUse" x="13" y="5" width="273" height="192">
<path d="M54.1157 5.9815L285.444 117.229L244.786 196.672L13.4589 85.4205L54.1157 5.9815Z" fill="white"/>
</mask>
<g mask="url(#mask12_189_855)">
<path d="M266.185 152.692C266.985 150.984 267.659 149.207 268.176 147.409C268.492 146.333 268.753 145.223 268.967 144.113C269.315 142.275 269.529 140.384 269.595 138.497C269.624 137.623 269.626 136.728 269.597 135.833C269.54 134.333 269.4 132.808 269.163 131.293C268.991 130.15 268.763 128.996 268.485 127.859C268.122 126.362 267.661 124.838 267.115 123.357C266.89 122.723 266.641 122.095 266.38 121.478C261.749 110.387 252.737 101.157 241.005 95.4934C216.941 83.8789 188.841 91.1356 178.365 111.67C175.766 116.755 174.431 122.255 174.396 128.024C174.396 128.571 174.402 129.115 174.425 129.654C174.457 130.559 174.522 131.478 174.62 132.393C174.673 132.877 174.729 133.348 174.801 133.819L174.888 134.395C174.986 134.993 175.095 135.59 175.216 136.18C175.549 137.797 175.985 139.42 176.52 141.007C176.802 141.856 177.126 142.73 177.483 143.614C177.942 144.748 178.456 145.87 179.005 146.956L179.225 147.382C179.831 148.558 180.502 149.725 181.216 150.845L181.312 151.006C182.658 153.116 184.198 155.163 185.894 157.09C186.722 158.027 187.592 158.944 188.47 159.808C192.661 163.918 197.55 167.334 203.008 169.968C226.007 181.069 252.96 174.975 264.367 156.101C264.818 155.348 265.253 154.573 265.653 153.793C265.838 153.428 266.019 153.062 266.19 152.694L266.185 152.692ZM181.397 113.66C191.226 94.3906 217.51 87.6032 240.092 98.5011C251.266 103.893 259.435 112.605 263.655 122.37C263.545 122.471 263.444 122.584 263.363 122.717C263.116 123.138 263.14 123.613 263.16 124.037C263.17 124.251 263.184 124.572 263.122 124.655C263.063 124.744 262.74 124.858 262.525 124.938C262.11 125.085 261.631 125.255 261.321 125.634C261.011 126.013 260.962 126.482 260.922 126.897C260.901 127.107 260.863 127.427 260.787 127.502C260.714 127.582 260.375 127.654 260.148 127.703C259.703 127.8 259.202 127.909 258.83 128.242C258.462 128.578 258.349 129.032 258.244 129.433C258.193 129.635 258.115 129.948 258.03 130.015C257.945 130.082 257.599 130.12 257.362 130.144C256.897 130.194 256.373 130.25 255.958 130.543C255.545 130.829 255.367 131.269 255.219 131.653C255.144 131.848 255.023 132.144 254.924 132.202C254.836 132.26 254.477 132.267 254.241 132.263C253.771 132.27 253.229 132.274 252.777 132.526C252.325 132.777 252.106 133.191 251.905 133.556C251.806 133.739 251.657 134.022 251.551 134.069C251.453 134.124 251.092 134.094 250.855 134.076C250.375 134.039 249.838 133.999 249.354 134.213C248.875 134.424 248.614 134.817 248.374 135.167C248.258 135.34 248.081 135.606 247.97 135.652C247.859 135.693 247.505 135.637 247.271 135.607C246.789 135.537 246.251 135.46 245.744 135.635C245.243 135.812 244.943 136.19 244.679 136.513C244.535 136.688 244.349 136.928 244.23 136.963C244.121 137 243.766 136.926 243.531 136.877C243.057 136.777 242.517 136.662 241.993 136.805C241.473 136.95 241.143 137.305 240.849 137.615C240.693 137.777 240.485 138.002 240.367 138.032C240.255 138.06 239.9 137.966 239.668 137.904C239.195 137.777 238.662 137.637 238.129 137.75C237.596 137.863 237.239 138.197 236.924 138.492C236.758 138.651 236.533 138.857 236.411 138.882C236.296 138.903 235.944 138.793 235.721 138.719C235.254 138.567 234.728 138.401 234.181 138.487C233.638 138.574 233.26 138.888 232.922 139.167C232.745 139.309 232.507 139.507 232.391 139.529C232.266 139.543 231.929 139.419 231.703 139.335C231.241 139.165 230.72 138.974 230.169 139.035C229.617 139.097 229.218 139.391 228.868 139.653C228.695 139.778 228.435 139.978 228.308 139.983C228.189 139.995 227.856 139.853 227.632 139.761C227.18 139.571 226.665 139.358 226.109 139.395C225.552 139.437 225.136 139.712 224.766 139.955C224.584 140.072 224.312 140.256 224.191 140.258C224.068 140.264 223.738 140.113 223.522 140.01C223.079 139.804 222.574 139.571 222.013 139.584C221.447 139.6 221.016 139.853 220.632 140.087C220.447 140.194 220.162 140.365 220.041 140.367C219.916 140.363 219.607 140.21 219.383 140.095C218.945 139.872 218.45 139.619 217.885 139.608C217.319 139.601 216.875 139.845 216.48 140.057C216.291 140.159 215.999 140.319 215.875 140.31C215.746 140.301 215.445 140.136 215.219 140.011C214.796 139.77 214.315 139.503 213.751 139.469C213.184 139.443 212.719 139.663 212.318 139.86C212.12 139.954 211.822 140.098 211.693 140.088C211.567 140.084 211.271 139.903 211.053 139.766C210.637 139.513 210.167 139.226 209.602 139.174C209.031 139.124 208.56 139.324 208.142 139.506C207.937 139.59 207.635 139.723 207.507 139.709C207.384 139.697 207.096 139.504 206.88 139.359C206.478 139.091 206.018 138.789 205.458 138.715C204.888 138.638 204.401 138.819 203.977 138.982C203.763 139.058 203.455 139.176 203.338 139.161C203.206 139.141 202.926 138.936 202.722 138.785C202.331 138.498 201.89 138.178 201.332 138.077C200.761 137.982 200.265 138.137 199.825 138.277C199.614 138.345 199.293 138.45 199.174 138.42C199.045 138.392 198.773 138.176 198.571 138.017C198.198 137.721 197.778 137.379 197.22 137.255C196.657 137.13 196.147 137.259 195.696 137.377C195.482 137.435 195.151 137.518 195.042 137.492C194.909 137.458 194.656 137.229 194.463 137.054C194.11 136.741 193.705 136.381 193.16 136.228C192.599 136.071 192.085 136.171 191.621 136.262C191.4 136.304 191.064 136.368 190.951 136.336C190.824 136.295 190.581 136.046 190.405 135.866C190.074 135.527 189.706 135.15 189.179 134.966C188.633 134.772 188.103 134.831 187.631 134.888C187.42 134.914 187.069 134.951 186.963 134.911C186.833 134.865 186.616 134.595 186.45 134.396C186.164 134.047 185.832 133.648 185.328 133.416C184.804 133.177 184.266 133.183 183.786 133.187C183.574 133.195 183.206 133.195 183.117 133.151C182.997 133.084 182.806 132.795 182.67 132.581C182.437 132.211 182.169 131.789 181.707 131.509C181.23 131.211 180.696 131.139 180.222 131.076C180.009 131.047 179.656 131.005 179.567 130.943C179.451 130.859 179.336 130.541 179.247 130.308C179.1 129.926 178.937 129.484 178.57 129.144C178.311 128.895 178 128.732 177.69 128.601C177.781 123.496 178.974 118.419 181.403 113.657L181.397 113.66ZM177.711 130.67C177.88 131.109 178.086 131.651 178.601 132.033C179.084 132.393 179.649 132.469 180.159 132.533C180.423 132.568 180.759 132.614 180.888 132.688C180.987 132.753 181.165 133.029 181.279 133.205C181.532 133.604 181.85 134.1 182.412 134.395C182.436 134.406 182.454 134.416 182.473 134.426C182.975 134.667 183.513 134.661 183.993 134.657C184.257 134.651 184.585 134.644 184.721 134.711C184.829 134.76 185.044 135.015 185.181 135.183C185.479 135.549 185.859 136.008 186.438 136.235C186.983 136.456 187.529 136.393 188.012 136.334C188.271 136.308 188.595 136.273 188.727 136.315C188.837 136.356 189.077 136.595 189.236 136.76C189.567 137.099 189.982 137.522 190.562 137.703C191.127 137.884 191.658 137.78 192.127 137.69C192.37 137.645 192.697 137.578 192.829 137.617C192.952 137.652 193.21 137.882 193.377 138.032C193.734 138.35 194.173 138.743 194.762 138.89C195.331 139.031 195.848 138.9 196.304 138.778C196.54 138.718 196.86 138.635 196.993 138.669C197.118 138.696 197.376 138.908 197.565 139.055C197.959 139.37 198.403 139.723 198.988 139.841C199.564 139.957 200.067 139.794 200.513 139.651C200.741 139.579 201.055 139.481 201.187 139.501C201.309 139.518 201.584 139.721 201.785 139.866C202.189 140.162 202.648 140.492 203.239 140.588C203.817 140.677 204.311 140.488 204.745 140.328C204.966 140.245 205.268 140.13 205.406 140.147C205.528 140.163 205.811 140.355 206.019 140.489C206.438 140.77 206.908 141.08 207.495 141.148C208.079 141.211 208.562 141.005 208.985 140.824C209.202 140.735 209.498 140.604 209.626 140.618C209.755 140.628 210.046 140.808 210.261 140.939C210.691 141.196 211.173 141.496 211.759 141.531C212.342 141.575 212.808 141.351 213.221 141.149C213.431 141.044 213.717 140.91 213.847 140.916C213.972 140.92 214.277 141.09 214.493 141.212C214.937 141.459 215.43 141.735 216.014 141.756C216.593 141.776 217.054 141.527 217.455 141.312C217.655 141.205 217.936 141.051 218.066 141.056C218.192 141.056 218.5 141.213 218.723 141.328C219.171 141.558 219.674 141.818 220.254 141.811C220.833 141.808 221.272 141.544 221.666 141.313C221.864 141.195 222.131 141.033 222.258 141.028C222.384 141.028 222.7 141.174 222.926 141.281C223.383 141.49 223.897 141.73 224.476 141.704C225.055 141.683 225.48 141.392 225.856 141.146C226.046 141.017 226.305 140.844 226.432 140.839C226.556 140.829 226.875 140.962 227.108 141.061C227.57 141.254 228.098 141.475 228.668 141.424C229.244 141.374 229.651 141.068 230.012 140.8C230.192 140.668 230.443 140.488 230.563 140.467C230.693 140.454 231.016 140.57 231.251 140.661C231.723 140.834 232.257 141.034 232.823 140.958C233.39 140.877 233.78 140.558 234.129 140.273C234.297 140.128 234.535 139.931 234.661 139.912C234.787 139.893 235.112 140 235.356 140.075C235.833 140.231 236.378 140.406 236.935 140.3C237.493 140.195 237.861 139.855 238.19 139.55C238.354 139.4 238.575 139.188 238.691 139.166C238.818 139.139 239.148 139.229 239.394 139.295C239.877 139.425 240.43 139.571 240.978 139.439C241.527 139.303 241.871 138.938 242.173 138.612C242.328 138.455 242.53 138.233 242.648 138.202C242.767 138.168 243.112 138.24 243.352 138.29C243.846 138.396 244.402 138.506 244.937 138.343C245.473 138.176 245.786 137.788 246.067 137.442C246.203 137.274 246.393 137.04 246.503 136.998C246.618 136.957 246.963 137.011 247.208 137.04C247.705 137.114 248.263 137.193 248.776 136.991C249.299 136.793 249.582 136.374 249.826 136.007C249.945 135.826 250.112 135.58 250.222 135.538C250.329 135.486 250.675 135.512 250.924 135.529C251.42 135.562 251.983 135.604 252.475 135.36C252.972 135.117 253.207 134.68 253.415 134.29C253.515 134.098 253.659 133.836 253.763 133.779C253.868 133.717 254.203 133.722 254.452 133.716C254.947 133.711 255.509 133.712 255.972 133.418C256.433 133.129 256.623 132.664 256.787 132.257C256.869 132.055 256.98 131.78 257.07 131.714C257.171 131.646 257.501 131.608 257.745 131.582C258.236 131.53 258.79 131.479 259.206 131.139C259.633 130.798 259.754 130.314 259.867 129.883C259.919 129.673 259.991 129.385 260.078 129.309C260.166 129.229 260.488 129.161 260.716 129.112C261.195 129.006 261.73 128.885 262.099 128.5C262.469 128.115 262.526 127.612 262.569 127.165C262.591 126.951 262.623 126.653 262.698 126.564C262.774 126.471 263.073 126.369 263.292 126.289C263.748 126.127 264.257 125.943 264.56 125.506C264.649 125.38 264.705 125.24 264.751 125.102C265.176 126.327 265.556 127.562 265.855 128.81C265.897 128.978 265.929 129.144 265.967 129.311L265.967 129.329C265.981 129.549 266.002 129.886 265.937 129.978C265.871 130.073 265.553 130.189 265.32 130.278C264.897 130.436 264.412 130.609 264.1 130.997C263.788 131.384 263.742 131.863 263.7 132.283C263.678 132.52 263.652 132.834 263.568 132.92C263.489 133.003 263.137 133.085 262.904 133.137C262.452 133.241 261.938 133.36 261.569 133.703C261.2 134.043 261.088 134.511 260.986 134.923C260.93 135.146 260.853 135.454 260.761 135.529C260.675 135.6 260.317 135.644 260.074 135.671C259.598 135.722 259.062 135.784 258.645 136.086C258.23 136.38 258.059 136.831 257.903 137.227C257.824 137.439 257.709 137.732 257.608 137.799C257.503 137.861 257.144 137.868 256.9 137.875C256.415 137.878 255.871 137.891 255.411 138.154C254.958 138.409 254.731 138.835 254.532 139.21C254.429 139.414 254.28 139.693 254.171 139.753C254.063 139.805 253.71 139.786 253.447 139.766C252.96 139.736 252.408 139.696 251.921 139.919C251.44 140.138 251.176 140.545 250.935 140.898C250.808 141.091 250.633 141.353 250.52 141.403C250.404 141.448 250.048 141.4 249.794 141.364C249.307 141.292 248.752 141.22 248.238 141.402C247.736 141.584 247.429 141.969 247.166 142.306C247.021 142.49 246.826 142.741 246.701 142.779C246.587 142.815 246.232 142.744 245.975 142.698C245.489 142.6 244.939 142.487 244.408 142.637C243.887 142.786 243.553 143.153 243.258 143.473C243.101 143.639 242.884 143.875 242.76 143.908C242.642 143.938 242.291 143.851 242.035 143.782C241.556 143.657 241.002 143.516 240.461 143.641C239.926 143.762 239.562 144.103 239.249 144.408C239.078 144.57 238.843 144.792 238.723 144.812C238.596 144.835 238.249 144.731 238.001 144.65C237.522 144.503 236.981 144.333 236.432 144.428C235.883 144.518 235.497 144.843 235.158 145.126C234.979 145.277 234.737 145.487 234.606 145.505C234.476 145.522 234.138 145.402 233.892 145.313C233.424 145.146 232.884 144.949 232.326 145.013C231.768 145.082 231.366 145.384 231.01 145.654C230.821 145.797 230.563 145.989 230.428 146.005C230.304 146.016 229.965 145.881 229.722 145.779C229.254 145.589 228.729 145.374 228.165 145.422C227.597 145.465 227.174 145.748 226.806 146C226.609 146.136 226.344 146.317 226.215 146.326C226.083 146.329 225.751 146.183 225.511 146.072C225.058 145.864 224.543 145.633 223.97 145.652C223.397 145.67 222.962 145.94 222.572 146.177C222.372 146.303 222.094 146.471 221.962 146.47C221.824 146.476 221.503 146.31 221.264 146.19C220.821 145.966 220.317 145.711 219.744 145.711C219.167 145.705 218.72 145.958 218.314 146.172C218.107 146.287 217.82 146.447 217.694 146.444C217.553 146.44 217.239 146.266 217.009 146.136C216.568 145.899 216.079 145.625 215.502 145.601C214.924 145.576 214.457 145.805 214.044 146.007C213.828 146.115 213.534 146.26 213.405 146.25C213.27 146.244 212.959 146.058 212.729 145.923C212.304 145.667 211.82 145.376 211.248 145.326C210.671 145.279 210.193 145.49 209.768 145.676C209.543 145.776 209.242 145.906 209.108 145.895C208.976 145.879 208.668 145.68 208.451 145.535C208.035 145.264 207.565 144.958 206.999 144.887C206.416 144.82 205.928 145.006 205.492 145.174C205.265 145.261 204.951 145.381 204.825 145.359C204.688 145.342 204.394 145.129 204.18 144.975C203.778 144.69 203.328 144.363 202.758 144.267C202.183 144.17 201.674 144.336 201.227 144.483C200.991 144.562 200.678 144.66 200.551 144.642C200.416 144.612 200.13 144.392 199.918 144.23C199.536 143.927 199.1 143.585 198.538 143.46C197.96 143.33 197.445 143.476 196.988 143.602C196.764 143.656 196.425 143.752 196.301 143.721C196.166 143.691 195.89 143.451 195.691 143.278C195.329 142.958 194.92 142.597 194.368 142.447C193.797 142.292 193.271 142.398 192.801 142.492C192.573 142.541 192.225 142.61 192.108 142.572C191.971 142.533 191.719 142.276 191.529 142.089C191.192 141.753 190.81 141.367 190.278 141.181C189.717 140.987 189.179 141.058 188.701 141.117C188.468 141.147 188.116 141.188 188 141.145C187.862 141.087 187.63 140.814 187.465 140.614C187.164 140.261 186.824 139.851 186.308 139.624C185.774 139.383 185.223 139.399 184.741 139.412C184.519 139.417 184.15 139.421 184.047 139.372C183.911 139.306 183.718 139.002 183.579 138.783C183.33 138.408 183.054 137.979 182.587 137.698C182.099 137.401 181.549 137.33 181.07 137.27C180.845 137.242 180.472 137.199 180.378 137.135C180.258 137.045 180.13 136.714 180.037 136.476C179.883 136.082 179.715 135.639 179.34 135.287C178.981 134.954 178.543 134.773 178.135 134.619C178.122 134.542 178.11 134.464 178.098 134.387C178.035 133.942 177.978 133.498 177.932 133.049C177.843 132.247 177.785 131.445 177.75 130.64L177.711 130.67ZM180.571 143.589C180.512 143.444 180.458 143.304 180.399 143.159L181.104 142.19C180.6 141.871 180.135 141.544 179.686 141.212C179.682 141.188 179.675 141.172 179.666 141.147C179.211 139.789 178.836 138.422 178.54 137.041C178.705 137.452 178.926 137.915 179.388 138.255C179.882 138.614 180.464 138.685 180.975 138.745C181.265 138.782 181.598 138.818 181.733 138.908C181.844 138.972 182.023 139.244 182.147 139.441C182.414 139.848 182.744 140.357 183.308 140.648L183.355 140.671C183.876 140.922 184.43 140.911 184.912 140.899C185.186 140.895 185.531 140.884 185.673 140.948L185.678 140.949C185.8 141.007 186.005 141.26 186.159 141.442C186.477 141.813 186.861 142.273 187.446 142.502C188.007 142.718 188.56 142.652 189.048 142.591C189.319 142.559 189.655 142.518 189.796 142.568C189.917 142.607 190.161 142.852 190.333 143.026C190.69 143.386 191.104 143.794 191.694 143.978C192.27 144.158 192.807 144.046 193.284 143.949C193.55 143.893 193.871 143.829 194.013 143.87C194.136 143.905 194.4 144.133 194.59 144.298C194.974 144.634 195.41 145.017 196.005 145.16C196.584 145.304 197.11 145.157 197.572 145.033C197.825 144.968 198.146 144.882 198.287 144.908C198.411 144.935 198.688 145.153 198.886 145.311C199.285 145.628 199.738 145.983 200.339 146.101C200.922 146.21 201.436 146.045 201.895 145.893C202.141 145.812 202.45 145.713 202.587 145.734C202.717 145.758 203.004 145.96 203.213 146.112C203.627 146.41 204.101 146.744 204.695 146.828C205.284 146.915 205.785 146.719 206.226 146.553C206.453 146.466 206.767 146.345 206.909 146.364C207.037 146.377 207.34 146.575 207.553 146.714C207.982 146.994 208.465 147.313 209.06 147.374C209.65 147.433 210.139 147.221 210.57 147.032C210.789 146.935 211.091 146.801 211.235 146.811C211.369 146.822 211.676 147.006 211.9 147.14C212.333 147.407 212.837 147.704 213.427 147.741C214.016 147.782 214.492 147.542 214.911 147.337C215.127 147.229 215.426 147.085 215.556 147.091C215.691 147.097 216.006 147.266 216.233 147.391C216.682 147.636 217.19 147.915 217.785 147.935C218.371 147.948 218.833 147.695 219.242 147.468C219.45 147.353 219.736 147.197 219.872 147.199C220.008 147.202 220.326 147.358 220.56 147.476C221.013 147.703 221.541 147.97 222.127 147.96C222.718 147.951 223.164 147.68 223.556 147.439C223.755 147.312 224.039 147.146 224.172 147.138C224.304 147.135 224.631 147.28 224.867 147.389C225.333 147.606 225.862 147.846 226.449 147.813C227.035 147.78 227.466 147.486 227.845 147.232C228.041 147.1 228.308 146.915 228.441 146.908C228.575 146.9 228.909 147.033 229.148 147.13C229.625 147.327 230.164 147.546 230.741 147.488C231.323 147.435 231.737 147.122 232.1 146.846C232.288 146.707 232.541 146.513 232.676 146.497C232.807 146.479 233.144 146.604 233.395 146.695C233.878 146.866 234.422 147.064 234.99 146.98C235.568 146.898 235.961 146.566 236.309 146.267C236.488 146.12 236.733 145.916 236.86 145.892C236.992 145.871 237.334 145.974 237.582 146.054C238.069 146.209 238.626 146.378 239.19 146.27C239.754 146.157 240.131 145.806 240.457 145.491C240.623 145.332 240.856 145.114 240.979 145.085C241.106 145.058 241.458 145.145 241.709 145.213C242.203 145.342 242.766 145.485 243.321 145.347C243.878 145.204 244.223 144.83 244.528 144.495C244.681 144.324 244.889 144.099 245.014 144.061C245.144 144.025 245.495 144.094 245.751 144.145C246.256 144.249 246.822 144.362 247.359 144.19C247.903 144.012 248.223 143.612 248.5 143.26C248.639 143.084 248.832 142.837 248.952 142.798C249.078 142.756 249.414 142.802 249.689 142.836C250.193 142.903 250.762 142.984 251.288 142.773C251.814 142.561 252.093 142.136 252.344 141.763C252.464 141.577 252.634 141.318 252.752 141.265C252.871 141.212 253.208 141.231 253.482 141.25C253.983 141.284 254.562 141.323 255.057 141.07C255.556 140.819 255.795 140.364 255.999 139.968C256.102 139.768 256.248 139.498 256.358 139.437C256.473 139.374 256.807 139.365 257.075 139.364C257.583 139.354 258.153 139.344 258.617 139.045C259.086 138.744 259.273 138.27 259.435 137.852C259.518 137.647 259.622 137.355 259.723 137.288C259.831 137.213 260.155 137.178 260.421 137.144C260.919 137.086 261.482 137.023 261.904 136.68C262.332 136.335 262.456 135.838 262.561 135.395C262.616 135.176 262.684 134.879 262.779 134.796C262.869 134.707 263.186 134.638 263.437 134.582C263.917 134.472 264.469 134.346 264.835 133.951C265.213 133.554 265.257 133.039 265.303 132.583C265.33 132.348 265.351 132.051 265.437 131.961C265.514 131.863 265.809 131.755 266.046 131.668C266.16 131.632 266.272 131.586 266.384 131.535C266.41 131.708 266.451 131.88 266.476 132.053C266.677 133.374 266.801 134.692 266.858 136.022C266.516 136.443 266.165 136.861 265.789 137.253L266.895 138.109C266.89 138.337 266.891 138.567 266.88 138.799C266.825 140.455 266.644 142.107 266.345 143.748C262.157 148.435 255.796 152.079 247.584 154.435C237.968 157.195 226.039 158.137 213.999 157.084C205.529 156.343 197.436 154.618 191.197 152.228C187.463 150.798 184.505 149.188 182.376 147.459C182.315 147.344 182.253 147.235 182.196 147.126C181.597 145.966 181.045 144.787 180.565 143.592L180.571 143.589ZM184.076 150.383C184.988 150.94 185.979 151.478 187.05 151.993C188.181 152.539 189.396 153.064 190.692 153.557C197.088 156.015 205.371 157.777 214.005 158.533C226.262 159.606 238.41 158.646 248.22 155.826C253.72 154.246 258.445 152.102 262.27 149.46C263.49 148.617 264.613 147.719 265.647 146.776C265.617 146.896 265.586 147.021 265.551 147.139C265.104 148.678 264.54 150.202 263.864 151.688C259.82 154.919 254.549 157.498 248.189 159.323C238.39 162.141 226.231 163.102 213.96 162.025C205.33 161.27 197.077 159.513 190.719 157.074C189.885 156.751 189.09 156.417 188.332 156.084C186.745 154.267 185.317 152.362 184.071 150.381L184.076 150.383ZM261.979 155.284C251.341 172.887 226.205 178.76 204.486 168.281C199.263 165.756 194.686 162.503 190.871 158.763C190.817 158.706 190.759 158.643 190.703 158.595C197.148 160.999 205.391 162.735 213.978 163.491C226.461 164.584 238.84 163.603 248.842 160.733C253.986 159.252 258.471 157.291 262.187 154.894C262.579 154.249 262.944 153.587 263.295 152.916C263.257 152.983 263.223 153.056 263.185 153.128C262.811 153.865 262.405 154.589 261.984 155.285L261.979 155.284Z" fill="#FDAB0A"/>
</g>
</g>
</g>
<mask id="mask13_189_855" style="mask-type:luminance" maskUnits="userSpaceOnUse" x="222" y="148" width="7" height="7">
<path d="M223.198 148.915L228.221 150.363L227.126 154.751L222.103 153.304L223.198 148.915Z" fill="white"/>
</mask>
<g mask="url(#mask13_189_855)">
<mask id="mask14_189_855" style="mask-type:luminance" maskUnits="userSpaceOnUse" x="13" y="5" width="273" height="192">
<path d="M54.1156 5.98139L285.444 117.229L244.786 196.672L13.4589 85.4202L54.1156 5.98139Z" fill="white"/>
</mask>
<g mask="url(#mask14_189_855)">
<mask id="mask15_189_855" style="mask-type:luminance" maskUnits="userSpaceOnUse" x="13" y="5" width="273" height="192">
<path d="M54.1156 5.98139L285.444 117.229L244.786 196.672L13.4589 85.4203L54.1156 5.98139Z" fill="white"/>
</mask>
<g mask="url(#mask15_189_855)">
<path d="M227.416 152.572L227.157 151.111C226.046 151.171 224.919 151.213 223.798 151.23L224.003 152.694C225.141 152.673 226.29 152.629 227.416 152.572Z" fill="#FDAB0A"/>
</g>
</g>
</g>
<mask id="mask16_189_855" style="mask-type:luminance" maskUnits="userSpaceOnUse" x="235" y="147" width="7" height="6">
<path d="M236.78 147.914L241.79 149.354L240.97 152.636L235.96 151.195L236.78 147.914Z" fill="white"/>
</mask>
<g mask="url(#mask16_189_855)">
<mask id="mask17_189_855" style="mask-type:luminance" maskUnits="userSpaceOnUse" x="13" y="5" width="273" height="192">
<path d="M54.1183 5.98106L285.443 117.225L244.784 196.671L13.4599 85.4228L54.1183 5.98106Z" fill="white"/>
</mask>
<g mask="url(#mask17_189_855)">
<mask id="mask18_189_855" style="mask-type:luminance" maskUnits="userSpaceOnUse" x="13" y="5" width="273" height="192">
<path d="M54.1165 5.98132L285.444 117.228L244.785 196.672L13.4594 85.421L54.1165 5.98132Z" fill="white"/>
</mask>
<g mask="url(#mask18_189_855)">
<path d="M240.791 150.709L240.288 149.276C239.228 149.489 238.141 149.68 237.048 149.851L237.482 151.287C238.597 151.113 239.711 150.916 240.788 150.703L240.791 150.709Z" fill="#FDAB0A"/>
</g>
</g>
</g>
<mask id="mask19_189_855" style="mask-type:luminance" maskUnits="userSpaceOnUse" x="248" y="144" width="7" height="6">
<path d="M249.682 144.339L254.693 145.78L253.873 149.061L248.862 147.62L249.682 144.339Z" fill="white"/>
</mask>
<g mask="url(#mask19_189_855)">
<mask id="mask20_189_855" style="mask-type:luminance" maskUnits="userSpaceOnUse" x="13" y="5" width="273" height="192">
<path d="M54.1183 5.98106L285.443 117.225L244.784 196.671L13.4599 85.4228L54.1183 5.98106Z" fill="white"/>
</mask>
<g mask="url(#mask20_189_855)">
<mask id="mask21_189_855" style="mask-type:luminance" maskUnits="userSpaceOnUse" x="13" y="5" width="273" height="192">
<path d="M54.1165 5.98132L285.444 117.228L244.785 196.672L13.4594 85.421L54.1165 5.98132Z" fill="white"/>
</mask>
<g mask="url(#mask21_189_855)">
<path d="M253.45 146.705L252.644 145.367C251.688 145.766 250.689 146.148 249.664 146.505L250.389 147.876C251.437 147.507 252.467 147.11 253.452 146.701L253.45 146.705Z" fill="#FDAB0A"/>
</g>
</g>
</g>
<mask id="mask22_189_855" style="mask-type:luminance" maskUnits="userSpaceOnUse" x="243" y="146" width="6" height="6">
<path d="M243.852 146.299L248.862 147.74L248.042 151.021L243.032 149.58L243.852 146.299Z" fill="white"/>
</mask>
<g mask="url(#mask22_189_855)">
<mask id="mask23_189_855" style="mask-type:luminance" maskUnits="userSpaceOnUse" x="13" y="5" width="273" height="192">
<path d="M54.1183 5.98106L285.443 117.225L244.784 196.671L13.4599 85.4228L54.1183 5.98106Z" fill="white"/>
</mask>
<g mask="url(#mask23_189_855)">
<mask id="mask24_189_855" style="mask-type:luminance" maskUnits="userSpaceOnUse" x="13" y="5" width="273" height="192">
<path d="M54.1165 5.98132L285.444 117.228L244.785 196.672L13.4594 85.421L54.1165 5.98132Z" fill="white"/>
</mask>
<g mask="url(#mask24_189_855)">
<path d="M247.249 149.018L246.6 147.62C245.586 147.915 244.532 148.204 243.465 148.46L244.036 149.877C245.126 149.613 246.206 149.323 247.248 149.022L247.249 149.018Z" fill="#FDAB0A"/>
</g>
</g>
</g>
<mask id="mask25_189_855" style="mask-type:luminance" maskUnits="userSpaceOnUse" x="228" y="148" width="8" height="7">
<path d="M229.982 148.415L235.005 149.862L233.91 154.25L228.887 152.803L229.982 148.415Z" fill="white"/>
</mask>
<g mask="url(#mask25_189_855)">
<mask id="mask26_189_855" style="mask-type:luminance" maskUnits="userSpaceOnUse" x="13" y="5" width="273" height="192">
<path d="M54.1156 5.98139L285.444 117.229L244.786 196.672L13.4589 85.4202L54.1156 5.98139Z" fill="white"/>
</mask>
<g mask="url(#mask26_189_855)">
<mask id="mask27_189_855" style="mask-type:luminance" maskUnits="userSpaceOnUse" x="13" y="5" width="273" height="192">
<path d="M54.1156 5.98139L285.444 117.229L244.786 196.672L13.4589 85.4203L54.1156 5.98139Z" fill="white"/>
</mask>
<g mask="url(#mask27_189_855)">
<path d="M234.162 151.877L233.785 150.426C232.693 150.556 231.578 150.671 230.463 150.767L230.783 152.219C231.918 152.124 233.05 152.005 234.157 151.875L234.162 151.877Z" fill="#FDAB0A"/>
</g>
</g>
</g>
<mask id="mask28_189_855" style="mask-type:luminance" maskUnits="userSpaceOnUse" x="182" y="143" width="7" height="6">
<path d="M183.274 143.778L188.284 145.219L187.464 148.501L182.454 147.06L183.274 143.778Z" fill="white"/>
</mask>
<g mask="url(#mask28_189_855)">
<mask id="mask29_189_855" style="mask-type:luminance" maskUnits="userSpaceOnUse" x="13" y="5" width="273" height="192">
<path d="M54.1183 5.98106L285.443 117.225L244.784 196.671L13.4599 85.4228L54.1183 5.98106Z" fill="white"/>
</mask>
<g mask="url(#mask29_189_855)">
<mask id="mask30_189_855" style="mask-type:luminance" maskUnits="userSpaceOnUse" x="13" y="5" width="273" height="192">
<path d="M54.1165 5.98132L285.444 117.228L244.785 196.672L13.4594 85.421L54.1165 5.98132Z" fill="white"/>
</mask>
<g mask="url(#mask30_189_855)">
<path d="M186.694 147.297L187.228 145.98C186.136 145.533 185.096 145.066 184.126 144.587L183.456 145.842C183.615 145.92 183.773 145.997 183.933 146.07C184.802 146.489 185.731 146.897 186.696 147.288L186.694 147.297Z" fill="#FDAB0A"/>
</g>
</g>
</g>
<mask id="mask31_189_855" style="mask-type:luminance" maskUnits="userSpaceOnUse" x="188" y="146" width="7" height="5">
<path d="M189.21 146.618L194.206 148.049L193.659 150.227L188.663 148.797L189.21 146.618Z" fill="white"/>
</mask>
<g mask="url(#mask31_189_855)">
<mask id="mask32_189_855" style="mask-type:luminance" maskUnits="userSpaceOnUse" x="13" y="5" width="273" height="192">
<path d="M54.1236 5.98036L285.441 117.219L244.779 196.672L13.4618 85.4292L54.1236 5.98036Z" fill="white"/>
</mask>
<g mask="url(#mask32_189_855)">
<mask id="mask33_189_855" style="mask-type:luminance" maskUnits="userSpaceOnUse" x="13" y="5" width="273" height="192">
<path d="M54.118 5.98112L285.443 117.226L244.784 196.671L13.4598 85.4223L54.118 5.98112Z" fill="white"/>
</mask>
<g mask="url(#mask33_189_855)">
<path d="M193.308 149.498L193.65 148.114C192.527 147.797 191.429 147.46 190.378 147.105L189.955 148.46C191.025 148.821 192.155 149.172 193.308 149.498Z" fill="#FDAB0A"/>
</g>
</g>
</g>
<mask id="mask34_189_855" style="mask-type:luminance" maskUnits="userSpaceOnUse" x="196" y="147" width="5" height="5">
<path d="M196.936 147.577L200.703 148.662L199.882 151.953L196.115 150.868L196.936 147.577Z" fill="white"/>
</mask>
<g mask="url(#mask34_189_855)">
<mask id="mask35_189_855" style="mask-type:luminance" maskUnits="userSpaceOnUse" x="13" y="5" width="273" height="192">
<path d="M54.1156 5.98139L285.444 117.229L244.786 196.672L13.4589 85.4202L54.1156 5.98139Z" fill="white"/>
</mask>
<g mask="url(#mask35_189_855)">
<mask id="mask36_189_855" style="mask-type:luminance" maskUnits="userSpaceOnUse" x="13" y="5" width="273" height="192">
<path d="M54.1156 5.98139L285.444 117.229L244.786 196.672L13.4589 85.4203L54.1156 5.98139Z" fill="white"/>
</mask>
<g mask="url(#mask36_189_855)">
<path d="M200.079 151.044L200.273 149.622C199.142 149.398 198.011 149.151 196.929 148.896L196.67 150.304C197.776 150.566 198.932 150.82 200.084 151.045L200.079 151.044Z" fill="#FDAB0A"/>
</g>
</g>
</g>
<mask id="mask37_189_855" style="mask-type:luminance" maskUnits="userSpaceOnUse" x="202" y="149" width="7" height="4">
<path d="M203.158 149.303L208.154 150.734L207.607 152.912L202.612 151.482L203.158 149.303Z" fill="white"/>
</mask>
<g mask="url(#mask37_189_855)">
<mask id="mask38_189_855" style="mask-type:luminance" maskUnits="userSpaceOnUse" x="13" y="5" width="273" height="192">
<path d="M54.1236 5.98036L285.441 117.219L244.779 196.672L13.4618 85.4292L54.1236 5.98036Z" fill="white"/>
</mask>
<g mask="url(#mask38_189_855)">
<mask id="mask39_189_855" style="mask-type:luminance" maskUnits="userSpaceOnUse" x="13" y="5" width="273" height="192">
<path d="M54.118 5.98112L285.443 117.226L244.784 196.671L13.4598 85.4223L54.118 5.98112Z" fill="white"/>
</mask>
<g mask="url(#mask39_189_855)">
<path d="M206.911 152.076L206.979 150.634C205.843 150.487 204.707 150.32 203.6 150.14L203.472 151.573C204.599 151.755 205.751 151.921 206.906 152.075L206.911 152.076Z" fill="#FDAB0A"/>
</g>
</g>
</g>
<mask id="mask40_189_855" style="mask-type:luminance" maskUnits="userSpaceOnUse" x="209" y="149" width="6" height="5">
<path d="M209.655 149.916L214.651 151.347L214.104 153.525L209.109 152.095L209.655 149.916Z" fill="white"/>
</mask>
<g mask="url(#mask40_189_855)">
<mask id="mask41_189_855" style="mask-type:luminance" maskUnits="userSpaceOnUse" x="13" y="5" width="273" height="192">
<path d="M54.1236 5.98036L285.441 117.219L244.779 196.672L13.4618 85.4292L54.1236 5.98036Z" fill="white"/>
</mask>
<g mask="url(#mask41_189_855)">
<mask id="mask42_189_855" style="mask-type:luminance" maskUnits="userSpaceOnUse" x="13" y="5" width="273" height="192">
<path d="M54.118 5.98112L285.443 117.226L244.784 196.671L13.4598 85.4223L54.118 5.98112Z" fill="white"/>
</mask>
<g mask="url(#mask42_189_855)">
<path d="M213.77 152.66L213.725 151.207C212.597 151.13 211.458 151.031 210.333 150.923L210.321 152.373C211.461 152.486 212.616 152.58 213.765 152.658L213.77 152.66Z" fill="#FDAB0A"/>
</g>
</g>
</g>
<mask id="mask43_189_855" style="mask-type:luminance" maskUnits="userSpaceOnUse" x="215" y="149" width="7" height="6">
<path d="M216.426 149.416L221.436 150.857L220.616 154.138L215.606 152.697L216.426 149.416Z" fill="white"/>
</mask>
<g mask="url(#mask43_189_855)">
<mask id="mask44_189_855" style="mask-type:luminance" maskUnits="userSpaceOnUse" x="13" y="5" width="273" height="192">
<path d="M54.1183 5.98106L285.443 117.225L244.784 196.671L13.4599 85.4228L54.1183 5.98106Z" fill="white"/>
</mask>
<g mask="url(#mask44_189_855)">
<mask id="mask45_189_855" style="mask-type:luminance" maskUnits="userSpaceOnUse" x="13" y="5" width="273" height="192">
<path d="M54.1165 5.98132L285.444 117.228L244.785 196.672L13.4594 85.421L54.1165 5.98132Z" fill="white"/>
</mask>
<g mask="url(#mask45_189_855)">
<path d="M220.611 152.827L220.463 151.366C219.344 151.356 218.208 151.331 217.081 151.286L217.179 152.741C218.321 152.786 219.477 152.812 220.611 152.827Z" fill="#FDAB0A"/>
</g>
</g>
</g>
<mask id="mask46_189_855" style="mask-type:luminance" maskUnits="userSpaceOnUse" x="259" y="137" width="7" height="7">
<path d="M260.664 137.846L265.687 139.293L264.592 143.682L259.569 142.235L260.664 137.846Z" fill="white"/>
</mask>
<g mask="url(#mask46_189_855)">
<mask id="mask47_189_855" style="mask-type:luminance" maskUnits="userSpaceOnUse" x="13" y="5" width="273" height="192">
<path d="M54.1157 5.98139L285.444 117.229L244.786 196.672L13.4589 85.4202L54.1157 5.98139Z" fill="white"/>
</mask>
<g mask="url(#mask47_189_855)">
<mask id="mask48_189_855" style="mask-type:luminance" maskUnits="userSpaceOnUse" x="13" y="5" width="273" height="192">
<path d="M54.1157 5.98138L285.444 117.228L244.786 196.672L13.4589 85.4203L54.1157 5.98138Z" fill="white"/>
</mask>
<g mask="url(#mask48_189_855)">
<path d="M264.428 139.859L263.23 138.75C262.489 139.401 261.683 140.034 260.844 140.634L261.938 141.819C262.816 141.194 263.655 140.533 264.434 139.856L264.428 139.859Z" fill="#FDAB0A"/>
</g>
</g>
</g>
<mask id="mask49_189_855" style="mask-type:luminance" maskUnits="userSpaceOnUse" x="254" y="141" width="7" height="7">
<path d="M255.788 141.265L260.811 142.712L259.716 147.101L254.693 145.654L255.788 141.265Z" fill="white"/>
</mask>
<g mask="url(#mask49_189_855)">
<mask id="mask50_189_855" style="mask-type:luminance" maskUnits="userSpaceOnUse" x="13" y="5" width="273" height="192">
<path d="M54.1159 5.98137L285.444 117.228L244.786 196.671L13.459 85.4203L54.1159 5.98137Z" fill="white"/>
</mask>
<g mask="url(#mask50_189_855)">
<mask id="mask51_189_855" style="mask-type:luminance" maskUnits="userSpaceOnUse" x="13" y="5" width="273" height="192">
<path d="M54.1159 5.98137L285.444 117.228L244.786 196.672L13.459 85.4204L54.1159 5.98137Z" fill="white"/>
</mask>
<g mask="url(#mask51_189_855)">
<path d="M259.245 143.69L258.252 142.443C257.376 142.958 256.457 143.461 255.513 143.933L256.414 145.236C257.392 144.751 258.349 144.227 259.25 143.691L259.245 143.69Z" fill="#FDAB0A"/>
</g>
</g>
</g>
</g>
</g>
</svg>
