<svg width="256" height="136" viewBox="0 0 256 136" fill="none" xmlns="http://www.w3.org/2000/svg">
<g opacity="0.2">
<mask id="mask0_189_1088" style="mask-type:luminance" maskUnits="userSpaceOnUse" x="0" y="0" width="256" height="136">
<path d="M256 0.168823H0V135.064H256V0.168823Z" fill="white"/>
</mask>
<g mask="url(#mask0_189_1088)">
<mask id="mask1_189_1088" style="mask-type:luminance" maskUnits="userSpaceOnUse" x="0" y="0" width="256" height="135">
<path d="M0 0.605759H256V134.567H0V0.605759Z" fill="white"/>
</mask>
<g mask="url(#mask1_189_1088)">
<path d="M104.068 132.626C104.703 130.994 105.347 130.643 113.883 127.237C116.347 126.256 118.36 124.65 118.36 123.668C118.36 122.687 119.432 121.372 120.743 120.747C122.342 119.984 123.856 114.809 125.347 105.033C127.536 90.6344 129.95 84.1912 133.153 84.1912C134.059 84.1912 136.784 82.6062 139.207 80.6698C141.631 78.7334 145.108 76.8227 146.937 76.4243C159.685 73.6226 143.252 49.5464 126.104 45.8964C123.635 45.3738 121.622 44.5169 121.622 43.99C121.622 43.4674 117.036 42.255 111.437 41.3039C105.838 40.3486 97.2207 38.5236 92.2928 37.2513C87.3649 35.9746 80.3964 34.8051 76.8153 34.6466C65.3964 34.1496 55.2522 32.1019 58.5856 30.9709C60.2117 30.4182 61.0495 29.2873 60.4504 28.4562C59.6892 27.4066 61.7522 27.2395 67.2703 27.9035C74.7477 28.8032 75.0045 28.7303 71.9279 26.5969C68.7838 24.4206 68.8378 24.3735 73.554 25.2432C76.2432 25.7401 79.5991 26.9996 81.0135 28.0449C82.5721 29.1973 87.4459 29.947 93.3694 29.947C98.7522 29.947 103.64 30.3583 104.23 30.8638C105.495 31.9476 134.473 31.9562 135.739 30.8724C137.441 29.4244 134.405 27.1624 130.761 27.1624C125.977 27.1624 122.811 19.4083 124.973 12.978C126.135 9.52081 125.86 8.26559 123.617 6.77475C120.973 5.0183 120.995 4.78697 123.968 2.82488C128.045 0.134521 131.396 0.155941 131.396 2.87201C131.396 4.55134 132.068 4.70128 134.55 3.56602C143.081 -0.328153 152.041 9.80783 149.027 19.9438C147.955 23.551 146.608 25.4059 145.459 24.8619C144.446 24.3821 144.806 25.0718 146.261 26.3956C148.288 28.2377 149.617 28.4604 151.964 27.3552C160.689 23.2297 167.874 21.1348 168.428 22.5571C168.797 23.5038 172.171 22.7713 177.432 20.6036C187.234 16.568 195.577 16.855 202.437 21.4604C207.014 24.5363 212.856 25.2003 217.45 23.1697C222.568 20.9077 237.563 20.3508 235.473 22.5014C234.113 23.9023 234.135 24.3821 235.568 24.3821C236.626 24.3821 237 25.0675 236.392 25.9029C235.788 26.7426 233.5 27.1324 231.315 26.7768C228.419 26.3056 227.572 26.6483 228.194 28.0363C228.667 29.0859 228.342 29.947 227.477 29.947C226.608 29.947 225.896 29.3215 225.896 28.5547C225.896 26.4941 221.694 26.8711 219.5 29.1288C218.198 30.4697 218.135 31.3736 219.302 31.9905C220.239 32.4874 221.009 33.4599 221.009 34.1582C221.009 35.7947 216.455 34.3253 210.977 30.9152C207.851 28.9745 204.901 28.4005 200.387 28.8674C196.941 29.223 192.518 28.9017 190.554 28.152C187.55 27.0082 186.131 27.5565 181.595 31.6006C178.631 34.2482 174.919 36.8143 173.351 37.3069C169.689 38.4593 169.689 43.6559 173.351 48.047C180.419 56.5165 181.707 64.8532 182.14 67.415C182.766 71.125 183.392 70.0069 186.167 73.0657C186.914 73.8925 193.257 77.1355 199.198 82.1049C205.14 87.0787 210.293 91.1485 210.649 91.1485C214.293 91.1485 225.541 100.068 229.554 106.143C232.288 110.277 236.216 114.175 238.342 114.869C240.459 115.555 242.189 116.921 242.189 117.906C242.189 118.892 244.153 120.94 246.55 122.46C255.595 128.197 257.351 130.514 254.167 132.506C250.396 134.858 246.297 134.73 243.82 132.181C242.703 131.033 240.784 130.094 239.545 130.094C238.311 130.094 237.302 128.993 237.302 127.648C237.302 126.299 235.892 124.448 234.167 123.527C232.441 122.606 230.793 120.421 230.5 118.673C230.167 116.668 227.86 114.591 224.27 113.066C221.131 111.729 216 108.46 212.865 105.796C209.725 103.131 206.014 100.068 204.613 98.9925C201.748 96.7863 188.05 90.613 186.793 90.96C186.347 91.0842 183.167 89.6148 179.725 87.6913C171.459 83.0731 168.694 83.2573 157.405 89.2078C152.176 91.9625 146.932 93.9245 145.757 93.5647C141.604 92.3009 138.207 95.304 137.099 101.212C136.486 104.476 134.176 110.474 131.959 114.544C129.297 119.436 128.459 122.503 129.477 123.587C136.748 131.307 133.667 134.267 118.356 134.267C107.622 134.267 103.608 133.804 104.068 132.626ZM7.97746 21.9744C-7.84236 20.7578 3.5135 16.0368 22.2612 16.0368C42.5856 16.0368 50.8558 20.5436 33.4009 22.0987C23.4054 22.9898 21.045 22.9812 7.97746 21.9744Z" fill="#FFF1B8"/>
</g>
</g>
</g>
</svg>
