<svg width="874" height="134" viewBox="0 0 874 134" fill="none" xmlns="http://www.w3.org/2000/svg">
<g filter="url(#filter0_d_11_21)">
<mask id="path-1-outside-1_11_21" maskUnits="userSpaceOnUse" x="3" y="-1" width="868" height="128" fill="black">
<rect fill="white" x="3" y="-1" width="868" height="128"/>
<path d="M4.05 124V19H33.75V124H4.05ZM16.35 87.25V63.4H90.45V87.25H16.35ZM18.45 44.65V19H96.3V44.65H18.45ZM147.795 125.35C138.195 125.35 129.945 123.6 123.045 120.1C116.145 116.6 110.845 111.75 107.145 105.55C103.445 99.35 101.595 92.2 101.595 84.1C101.595 75.9 103.495 68.7 107.295 62.5C111.095 56.2 116.445 51.3 123.345 47.8C130.345 44.2 138.495 42.4 147.795 42.4C153.295 42.4 158.345 43 162.945 44.2C167.545 45.3 171.595 46.85 175.095 48.85C178.595 50.75 181.395 52.8 183.495 55C185.695 57.1 187.095 59.1 187.695 61L180.945 62.2V44.05H208.245V124H180.345V101.5L185.895 104.05C185.595 106.55 184.395 109.05 182.295 111.55C180.195 114.05 177.445 116.35 174.045 118.45C170.645 120.55 166.695 122.25 162.195 123.55C157.795 124.75 152.995 125.35 147.795 125.35ZM155.145 102.4C160.545 102.4 165.145 101.65 168.945 100.15C172.845 98.65 175.845 96.5 177.945 93.7C180.045 90.9 181.095 87.7 181.095 84.1C181.095 80.3 180.045 77.05 177.945 74.35C175.845 71.55 172.845 69.4 168.945 67.9C165.145 66.3 160.545 65.5 155.145 65.5C149.845 65.5 145.245 66.3 141.345 67.9C137.445 69.4 134.445 71.55 132.345 74.35C130.245 77.05 129.195 80.3 129.195 84.1C129.195 87.7 130.245 90.9 132.345 93.7C134.445 96.5 137.445 98.65 141.345 100.15C145.245 101.65 149.845 102.4 155.145 102.4ZM281.814 125.5C271.114 125.5 261.664 123.7 253.464 120.1C245.364 116.5 239.014 111.55 234.414 105.25C229.814 98.95 227.514 91.85 227.514 83.95C227.514 75.85 229.764 68.7 234.264 62.5C238.864 56.3 245.064 51.4 252.864 47.8C260.764 44.2 269.664 42.4 279.564 42.4C288.864 42.4 297.414 43.5 305.214 45.7C313.114 47.8 320.014 50.95 325.914 55.15L310.614 75.25C308.314 73.55 305.614 72.05 302.514 70.75C299.414 69.35 296.164 68.25 292.764 67.45C289.364 66.65 285.864 66.25 282.264 66.25C276.764 66.25 272.064 67 268.164 68.5C264.364 70 261.464 72.05 259.464 74.65C257.464 77.25 256.464 80.3 256.464 83.8C256.464 87.3 257.464 90.4 259.464 93.1C261.564 95.7 264.514 97.75 268.314 99.25C272.114 100.75 276.664 101.5 281.964 101.5C286.764 101.5 290.964 101.15 294.564 100.45C298.164 99.75 301.264 98.95 303.864 98.05C306.564 97.05 308.914 96.1 310.914 95.2L325.764 114.85C319.764 117.95 313.164 120.5 305.964 122.5C298.764 124.5 290.714 125.5 281.814 125.5ZM345.612 124V44.05H373.512V124H345.612ZM359.562 27.4C354.562 27.4 350.612 26.25 347.712 23.95C344.912 21.55 343.512 18.2 343.512 13.9C343.512 9.89999 344.962 6.64999 347.862 4.15C350.762 1.54999 354.662 0.249993 359.562 0.249993C364.662 0.249993 368.612 1.44999 371.412 3.84999C374.312 6.14999 375.762 9.49999 375.762 13.9C375.762 17.9 374.312 21.15 371.412 23.65C368.512 26.15 364.562 27.4 359.562 27.4ZM406.847 124V13H434.747V124H406.847ZM467.838 124V44.05H495.738V124H467.838ZM481.788 27.4C476.788 27.4 472.838 26.25 469.938 23.95C467.138 21.55 465.738 18.2 465.738 13.9C465.738 9.89999 467.188 6.64999 470.088 4.15C472.988 1.54999 476.888 0.249993 481.788 0.249993C486.888 0.249993 490.838 1.44999 493.638 3.84999C496.538 6.14999 497.988 9.49999 497.988 13.9C497.988 17.9 496.538 21.15 493.638 23.65C490.738 26.15 486.788 27.4 481.788 27.4ZM537.323 124V19.3H565.223V124H537.323ZM515.123 67.75V44.05H591.173V67.75H515.123ZM615.553 124V44.05H643.453V124H615.553ZM629.503 27.4C624.503 27.4 620.553 26.25 617.653 23.95C614.853 21.55 613.453 18.2 613.453 13.9C613.453 9.89999 614.903 6.64999 617.803 4.15C620.703 1.54999 624.603 0.249993 629.503 0.249993C634.603 0.249993 638.553 1.44999 641.353 3.84999C644.253 6.14999 645.703 9.49999 645.703 13.9C645.703 17.9 644.253 21.15 641.353 23.65C638.453 26.15 634.503 27.4 629.503 27.4ZM718.788 125.5C707.388 125.5 697.438 123.75 688.938 120.25C680.538 116.65 674.038 111.7 669.438 105.4C664.838 99.1 662.538 92 662.538 84.1C662.538 77.7 663.938 71.95 666.738 66.85C669.538 61.65 673.338 57.25 678.138 53.65C683.038 50.05 688.638 47.3 694.938 45.4C701.338 43.4 708.038 42.4 715.038 42.4C722.338 42.4 729.038 43.4 735.138 45.4C741.338 47.3 746.738 50.1 751.338 53.8C755.938 57.4 759.488 61.7 761.988 66.7C764.588 71.7 765.788 77.3 765.588 83.5L765.438 90.4H681.438L677.988 74.2H743.088L740.388 78.85V76C740.188 73.6 738.888 71.5 736.488 69.7C734.188 67.9 731.188 66.5 727.488 65.5C723.888 64.4 719.938 63.85 715.638 63.85C710.738 63.85 706.188 64.5 701.988 65.8C697.888 67 694.538 68.95 691.938 71.65C689.438 74.25 688.188 77.65 688.188 81.85C688.188 85.75 689.588 89.3 692.388 92.5C695.188 95.7 699.238 98.25 704.538 100.15C709.838 102.05 716.138 103 723.438 103C730.738 103 736.588 102.3 740.988 100.9C745.388 99.4 748.538 98.2 750.438 97.3L762.288 114.4C758.188 116.8 753.788 118.85 749.088 120.55C744.488 122.25 739.638 123.5 734.538 124.3C729.538 125.1 724.288 125.5 718.788 125.5ZM823.588 125.5C812.788 125.5 803.038 124.2 794.338 121.6C785.638 119 778.638 115.15 773.338 110.05L789.838 95.2C793.538 98.3 798.438 100.85 804.538 102.85C810.638 104.85 817.738 105.85 825.838 105.85C827.738 105.85 829.588 105.75 831.388 105.55C833.288 105.35 834.988 105.05 836.488 104.65C837.988 104.15 839.138 103.55 839.938 102.85C840.838 102.15 841.288 101.25 841.288 100.15C841.288 98.75 840.038 97.7 837.538 97C835.138 96.3 832.138 95.75 828.538 95.35C825.038 94.95 821.788 94.6 818.788 94.3C811.788 93.4 805.688 92.45 800.488 91.45C795.288 90.45 790.838 88.9 787.138 86.8C783.838 84.8 781.188 82.3 779.188 79.3C777.288 76.2 776.338 72.45 776.338 68.05C776.338 63.95 777.538 60.3 779.938 57.1C782.438 53.9 785.738 51.2 789.838 49C794.038 46.8 798.838 45.15 804.238 44.05C809.738 42.95 815.488 42.4 821.488 42.4C827.088 42.4 832.738 42.8 838.438 43.6C844.138 44.4 849.588 45.65 854.788 47.35C859.988 49.05 864.638 51.35 868.738 54.25L855.088 71.05C852.488 69.45 849.188 67.95 845.188 66.55C841.288 65.05 836.938 63.85 832.138 62.95C827.438 61.95 822.488 61.45 817.288 61.45C815.488 61.45 813.738 61.55 812.038 61.75C810.338 61.85 808.788 62.1 807.388 62.5C806.088 62.9 805.038 63.4 804.238 64C803.438 64.6 803.038 65.3 803.038 66.1C803.038 66.7 803.238 67.25 803.638 67.75C804.038 68.25 804.538 68.7 805.138 69.1C806.938 70.1 809.638 70.85 813.238 71.35C816.938 71.85 820.888 72.4 825.088 73C834.588 74.3 842.338 75.85 848.338 77.65C854.338 79.45 858.938 81.55 862.138 83.95C864.738 85.85 866.538 88.05 867.538 90.55C868.638 92.95 869.188 95.7 869.188 98.8C869.188 104.1 867.338 108.75 863.638 112.75C859.938 116.65 854.688 119.75 847.888 122.05C841.088 124.35 832.988 125.5 823.588 125.5Z"/>
</mask>
<path d="M4.05 124V19H33.75V124H4.05ZM16.35 87.25V63.4H90.45V87.25H16.35ZM18.45 44.65V19H96.3V44.65H18.45ZM147.795 125.35C138.195 125.35 129.945 123.6 123.045 120.1C116.145 116.6 110.845 111.75 107.145 105.55C103.445 99.35 101.595 92.2 101.595 84.1C101.595 75.9 103.495 68.7 107.295 62.5C111.095 56.2 116.445 51.3 123.345 47.8C130.345 44.2 138.495 42.4 147.795 42.4C153.295 42.4 158.345 43 162.945 44.2C167.545 45.3 171.595 46.85 175.095 48.85C178.595 50.75 181.395 52.8 183.495 55C185.695 57.1 187.095 59.1 187.695 61L180.945 62.2V44.05H208.245V124H180.345V101.5L185.895 104.05C185.595 106.55 184.395 109.05 182.295 111.55C180.195 114.05 177.445 116.35 174.045 118.45C170.645 120.55 166.695 122.25 162.195 123.55C157.795 124.75 152.995 125.35 147.795 125.35ZM155.145 102.4C160.545 102.4 165.145 101.65 168.945 100.15C172.845 98.65 175.845 96.5 177.945 93.7C180.045 90.9 181.095 87.7 181.095 84.1C181.095 80.3 180.045 77.05 177.945 74.35C175.845 71.55 172.845 69.4 168.945 67.9C165.145 66.3 160.545 65.5 155.145 65.5C149.845 65.5 145.245 66.3 141.345 67.9C137.445 69.4 134.445 71.55 132.345 74.35C130.245 77.05 129.195 80.3 129.195 84.1C129.195 87.7 130.245 90.9 132.345 93.7C134.445 96.5 137.445 98.65 141.345 100.15C145.245 101.65 149.845 102.4 155.145 102.4ZM281.814 125.5C271.114 125.5 261.664 123.7 253.464 120.1C245.364 116.5 239.014 111.55 234.414 105.25C229.814 98.95 227.514 91.85 227.514 83.95C227.514 75.85 229.764 68.7 234.264 62.5C238.864 56.3 245.064 51.4 252.864 47.8C260.764 44.2 269.664 42.4 279.564 42.4C288.864 42.4 297.414 43.5 305.214 45.7C313.114 47.8 320.014 50.95 325.914 55.15L310.614 75.25C308.314 73.55 305.614 72.05 302.514 70.75C299.414 69.35 296.164 68.25 292.764 67.45C289.364 66.65 285.864 66.25 282.264 66.25C276.764 66.25 272.064 67 268.164 68.5C264.364 70 261.464 72.05 259.464 74.65C257.464 77.25 256.464 80.3 256.464 83.8C256.464 87.3 257.464 90.4 259.464 93.1C261.564 95.7 264.514 97.75 268.314 99.25C272.114 100.75 276.664 101.5 281.964 101.5C286.764 101.5 290.964 101.15 294.564 100.45C298.164 99.75 301.264 98.95 303.864 98.05C306.564 97.05 308.914 96.1 310.914 95.2L325.764 114.85C319.764 117.95 313.164 120.5 305.964 122.5C298.764 124.5 290.714 125.5 281.814 125.5ZM345.612 124V44.05H373.512V124H345.612ZM359.562 27.4C354.562 27.4 350.612 26.25 347.712 23.95C344.912 21.55 343.512 18.2 343.512 13.9C343.512 9.89999 344.962 6.64999 347.862 4.15C350.762 1.54999 354.662 0.249993 359.562 0.249993C364.662 0.249993 368.612 1.44999 371.412 3.84999C374.312 6.14999 375.762 9.49999 375.762 13.9C375.762 17.9 374.312 21.15 371.412 23.65C368.512 26.15 364.562 27.4 359.562 27.4ZM406.847 124V13H434.747V124H406.847ZM467.838 124V44.05H495.738V124H467.838ZM481.788 27.4C476.788 27.4 472.838 26.25 469.938 23.95C467.138 21.55 465.738 18.2 465.738 13.9C465.738 9.89999 467.188 6.64999 470.088 4.15C472.988 1.54999 476.888 0.249993 481.788 0.249993C486.888 0.249993 490.838 1.44999 493.638 3.84999C496.538 6.14999 497.988 9.49999 497.988 13.9C497.988 17.9 496.538 21.15 493.638 23.65C490.738 26.15 486.788 27.4 481.788 27.4ZM537.323 124V19.3H565.223V124H537.323ZM515.123 67.75V44.05H591.173V67.75H515.123ZM615.553 124V44.05H643.453V124H615.553ZM629.503 27.4C624.503 27.4 620.553 26.25 617.653 23.95C614.853 21.55 613.453 18.2 613.453 13.9C613.453 9.89999 614.903 6.64999 617.803 4.15C620.703 1.54999 624.603 0.249993 629.503 0.249993C634.603 0.249993 638.553 1.44999 641.353 3.84999C644.253 6.14999 645.703 9.49999 645.703 13.9C645.703 17.9 644.253 21.15 641.353 23.65C638.453 26.15 634.503 27.4 629.503 27.4ZM718.788 125.5C707.388 125.5 697.438 123.75 688.938 120.25C680.538 116.65 674.038 111.7 669.438 105.4C664.838 99.1 662.538 92 662.538 84.1C662.538 77.7 663.938 71.95 666.738 66.85C669.538 61.65 673.338 57.25 678.138 53.65C683.038 50.05 688.638 47.3 694.938 45.4C701.338 43.4 708.038 42.4 715.038 42.4C722.338 42.4 729.038 43.4 735.138 45.4C741.338 47.3 746.738 50.1 751.338 53.8C755.938 57.4 759.488 61.7 761.988 66.7C764.588 71.7 765.788 77.3 765.588 83.5L765.438 90.4H681.438L677.988 74.2H743.088L740.388 78.85V76C740.188 73.6 738.888 71.5 736.488 69.7C734.188 67.9 731.188 66.5 727.488 65.5C723.888 64.4 719.938 63.85 715.638 63.85C710.738 63.85 706.188 64.5 701.988 65.8C697.888 67 694.538 68.95 691.938 71.65C689.438 74.25 688.188 77.65 688.188 81.85C688.188 85.75 689.588 89.3 692.388 92.5C695.188 95.7 699.238 98.25 704.538 100.15C709.838 102.05 716.138 103 723.438 103C730.738 103 736.588 102.3 740.988 100.9C745.388 99.4 748.538 98.2 750.438 97.3L762.288 114.4C758.188 116.8 753.788 118.85 749.088 120.55C744.488 122.25 739.638 123.5 734.538 124.3C729.538 125.1 724.288 125.5 718.788 125.5ZM823.588 125.5C812.788 125.5 803.038 124.2 794.338 121.6C785.638 119 778.638 115.15 773.338 110.05L789.838 95.2C793.538 98.3 798.438 100.85 804.538 102.85C810.638 104.85 817.738 105.85 825.838 105.85C827.738 105.85 829.588 105.75 831.388 105.55C833.288 105.35 834.988 105.05 836.488 104.65C837.988 104.15 839.138 103.55 839.938 102.85C840.838 102.15 841.288 101.25 841.288 100.15C841.288 98.75 840.038 97.7 837.538 97C835.138 96.3 832.138 95.75 828.538 95.35C825.038 94.95 821.788 94.6 818.788 94.3C811.788 93.4 805.688 92.45 800.488 91.45C795.288 90.45 790.838 88.9 787.138 86.8C783.838 84.8 781.188 82.3 779.188 79.3C777.288 76.2 776.338 72.45 776.338 68.05C776.338 63.95 777.538 60.3 779.938 57.1C782.438 53.9 785.738 51.2 789.838 49C794.038 46.8 798.838 45.15 804.238 44.05C809.738 42.95 815.488 42.4 821.488 42.4C827.088 42.4 832.738 42.8 838.438 43.6C844.138 44.4 849.588 45.65 854.788 47.35C859.988 49.05 864.638 51.35 868.738 54.25L855.088 71.05C852.488 69.45 849.188 67.95 845.188 66.55C841.288 65.05 836.938 63.85 832.138 62.95C827.438 61.95 822.488 61.45 817.288 61.45C815.488 61.45 813.738 61.55 812.038 61.75C810.338 61.85 808.788 62.1 807.388 62.5C806.088 62.9 805.038 63.4 804.238 64C803.438 64.6 803.038 65.3 803.038 66.1C803.038 66.7 803.238 67.25 803.638 67.75C804.038 68.25 804.538 68.7 805.138 69.1C806.938 70.1 809.638 70.85 813.238 71.35C816.938 71.85 820.888 72.4 825.088 73C834.588 74.3 842.338 75.85 848.338 77.65C854.338 79.45 858.938 81.55 862.138 83.95C864.738 85.85 866.538 88.05 867.538 90.55C868.638 92.95 869.188 95.7 869.188 98.8C869.188 104.1 867.338 108.75 863.638 112.75C859.938 116.65 854.688 119.75 847.888 122.05C841.088 124.35 832.988 125.5 823.588 125.5Z" fill="#EBEBEB"/>
<path d="M4.05 124H3.05V125H4.05V124ZM4.05 19V18H3.05V19H4.05ZM33.75 19H34.75V18H33.75V19ZM33.75 124V125H34.75V124H33.75ZM16.35 87.25H15.35V88.25H16.35V87.25ZM16.35 63.4V62.4H15.35V63.4H16.35ZM90.45 63.4H91.45V62.4H90.45V63.4ZM90.45 87.25V88.25H91.45V87.25H90.45ZM18.45 44.65H17.45V45.65H18.45V44.65ZM18.45 19V18H17.45V19H18.45ZM96.3 19H97.3V18H96.3V19ZM96.3 44.65V45.65H97.3V44.65H96.3ZM5.05 124V19H3.05V124H5.05ZM4.05 20H33.75V18H4.05V20ZM32.75 19V124H34.75V19H32.75ZM33.75 123H4.05V125H33.75V123ZM17.35 87.25V63.4H15.35V87.25H17.35ZM16.35 64.4H90.45V62.4H16.35V64.4ZM89.45 63.4V87.25H91.45V63.4H89.45ZM90.45 86.25H16.35V88.25H90.45V86.25ZM19.45 44.65V19H17.45V44.65H19.45ZM18.45 20H96.3V18H18.45V20ZM95.3 19V44.65H97.3V19H95.3ZM96.3 43.65H18.45V45.65H96.3V43.65ZM123.045 120.1L122.592 120.992L122.592 120.992L123.045 120.1ZM107.295 62.5L108.147 63.0226L108.151 63.0165L107.295 62.5ZM123.345 47.8L123.797 48.6918L123.802 48.6893L123.345 47.8ZM162.945 44.2L162.692 45.1676L162.702 45.1702L162.712 45.1726L162.945 44.2ZM175.095 48.85L174.598 49.7182L174.608 49.7236L174.617 49.7288L175.095 48.85ZM183.495 55L182.771 55.6905L182.787 55.7073L182.804 55.7234L183.495 55ZM187.695 61L187.87 61.9846L188.991 61.7852L188.648 60.6989L187.695 61ZM180.945 62.2H179.945V63.3935L181.12 63.1846L180.945 62.2ZM180.945 44.05V43.05H179.945V44.05H180.945ZM208.245 44.05H209.245V43.05H208.245V44.05ZM208.245 124V125H209.245V124H208.245ZM180.345 124H179.345V125H180.345V124ZM180.345 101.5L180.762 100.591L179.345 99.94V101.5H180.345ZM185.895 104.05L186.887 104.169L186.974 103.446L186.312 103.141L185.895 104.05ZM182.295 111.55L181.529 110.907L181.529 110.907L182.295 111.55ZM174.045 118.45L173.519 117.599L173.519 117.599L174.045 118.45ZM162.195 123.55L162.458 124.515L162.465 124.513L162.472 124.511L162.195 123.55ZM168.945 100.15L168.586 99.2166L168.577 99.2198L168.945 100.15ZM177.945 93.7L178.745 94.3L178.745 94.3L177.945 93.7ZM177.945 74.35L177.145 74.95L177.15 74.957L177.155 74.9639L177.945 74.35ZM168.945 67.9L168.556 68.8216L168.571 68.8277L168.586 68.8333L168.945 67.9ZM141.345 67.9L141.704 68.8333L141.714 68.8294L141.724 68.8252L141.345 67.9ZM132.345 74.35L133.134 74.9639L133.139 74.957L133.145 74.95L132.345 74.35ZM147.795 124.35C138.315 124.35 130.227 122.622 123.497 119.208L122.592 120.992C129.662 124.578 138.074 126.35 147.795 126.35V124.35ZM123.497 119.208C116.753 115.787 111.599 111.064 108.003 105.038L106.286 106.062C110.09 112.436 115.536 117.413 122.592 120.992L123.497 119.208ZM108.003 105.038C104.407 99.0108 102.595 92.0421 102.595 84.1H100.595C100.595 92.3579 102.482 99.6892 106.286 106.062L108.003 105.038ZM102.595 84.1C102.595 76.0603 104.455 69.0459 108.147 63.0226L106.442 61.9774C102.534 68.3541 100.595 75.7397 100.595 84.1H102.595ZM108.151 63.0165C111.849 56.8854 117.055 52.1116 123.797 48.6918L122.892 46.9082C115.834 50.4884 110.34 55.5146 106.438 61.9835L108.151 63.0165ZM123.802 48.6893C130.637 45.1741 138.625 43.4 147.795 43.4V41.4C138.364 41.4 130.052 43.2258 122.887 46.9107L123.802 48.6893ZM147.795 43.4C153.222 43.4 158.186 43.9922 162.692 45.1676L163.197 43.2324C158.503 42.0078 153.367 41.4 147.795 41.4V43.4ZM162.712 45.1726C167.235 46.2542 171.194 47.7727 174.598 49.7182L175.591 47.9817C171.995 45.9273 167.854 44.3458 163.177 43.2274L162.712 45.1726ZM174.617 49.7288C178.053 51.5937 180.761 53.5848 182.771 55.6905L184.218 54.3095C182.028 52.0152 179.136 49.9063 175.572 47.9711L174.617 49.7288ZM182.804 55.7234C184.941 57.7631 186.212 59.6246 186.741 61.3011L188.648 60.6989C187.978 58.5754 186.448 56.4369 184.185 54.2766L182.804 55.7234ZM187.52 60.0154L180.77 61.2154L181.12 63.1846L187.87 61.9846L187.52 60.0154ZM181.945 62.2V44.05H179.945V62.2H181.945ZM180.945 45.05H208.245V43.05H180.945V45.05ZM207.245 44.05V124H209.245V44.05H207.245ZM208.245 123H180.345V125H208.245V123ZM181.345 124V101.5H179.345V124H181.345ZM179.927 102.409L185.477 104.959L186.312 103.141L180.762 100.591L179.927 102.409ZM184.902 103.931C184.631 106.188 183.54 108.512 181.529 110.907L183.06 112.193C185.249 109.588 186.558 106.912 186.887 104.169L184.902 103.931ZM181.529 110.907C179.511 113.309 176.848 115.543 173.519 117.599L174.57 119.301C178.041 117.157 180.878 114.791 183.06 112.193L181.529 110.907ZM173.519 117.599C170.208 119.644 166.344 121.31 161.917 122.589L162.472 124.511C167.045 123.19 171.081 121.456 174.57 119.301L173.519 117.599ZM161.931 122.585C157.628 123.759 152.918 124.35 147.795 124.35V126.35C153.071 126.35 157.961 125.741 162.458 124.515L161.931 122.585ZM155.145 103.4C160.632 103.4 165.364 102.639 169.312 101.08L168.577 99.2198C164.925 100.661 160.457 101.4 155.145 101.4V103.4ZM169.304 101.083C173.345 99.5291 176.512 97.2773 178.745 94.3L177.145 93.1C175.178 95.7227 172.344 97.7709 168.586 99.2167L169.304 101.083ZM178.745 94.3C180.978 91.3217 182.095 87.9097 182.095 84.1H180.095C180.095 87.4903 179.111 90.4783 177.145 93.1L178.745 94.3ZM182.095 84.1C182.095 80.1037 180.986 76.6311 178.734 73.7361L177.155 74.9639C179.103 77.4689 180.095 80.4963 180.095 84.1H182.095ZM178.745 73.75C176.512 70.7727 173.345 68.5209 169.304 66.9667L168.586 68.8333C172.344 70.2791 175.178 72.3273 177.145 74.95L178.745 73.75ZM169.333 66.9784C165.378 65.3133 160.639 64.5 155.145 64.5V66.5C160.451 66.5 164.911 67.2867 168.556 68.8216L169.333 66.9784ZM155.145 64.5C149.747 64.5 145.012 65.3145 140.965 66.9748L141.724 68.8252C145.477 67.2855 149.942 66.5 155.145 66.5V64.5ZM140.986 66.9667C136.944 68.5209 133.778 70.7727 131.545 73.75L133.145 74.95C135.112 72.3273 137.945 70.2791 141.704 68.8333L140.986 66.9667ZM131.555 73.7361C129.303 76.6311 128.195 80.1037 128.195 84.1H130.195C130.195 80.4963 131.186 77.4689 133.134 74.9639L131.555 73.7361ZM128.195 84.1C128.195 87.9097 129.311 91.3217 131.545 94.3L133.145 93.1C131.178 90.4783 130.195 87.4903 130.195 84.1H128.195ZM131.545 94.3C133.778 97.2773 136.944 99.5291 140.986 101.083L141.704 99.2167C137.945 97.7709 135.112 95.7227 133.145 93.1L131.545 94.3ZM140.986 101.083C145.026 102.637 149.753 103.4 155.145 103.4V101.4C149.936 101.4 145.463 100.663 141.704 99.2167L140.986 101.083ZM253.464 120.1L253.058 121.014L253.062 121.016L253.464 120.1ZM234.414 105.25L233.606 105.84L233.606 105.84L234.414 105.25ZM234.264 62.5L233.461 61.9041L233.454 61.9126L234.264 62.5ZM252.864 47.8L252.449 46.89L252.445 46.892L252.864 47.8ZM305.214 45.7L304.942 46.6624L304.949 46.6645L304.957 46.6664L305.214 45.7ZM325.914 55.15L326.709 55.7557L327.335 54.9341L326.494 54.3353L325.914 55.15ZM310.614 75.25L310.019 76.0542L310.812 76.6402L311.409 75.8557L310.614 75.25ZM302.514 70.75L302.102 71.6614L302.114 71.6669L302.127 71.6722L302.514 70.75ZM292.764 67.45L292.535 68.4234L292.535 68.4234L292.764 67.45ZM268.164 68.5L267.805 67.5666L267.797 67.5698L268.164 68.5ZM259.464 74.65L260.256 75.2597L260.256 75.2597L259.464 74.65ZM259.464 93.1L258.66 93.6952L258.673 93.712L258.686 93.7283L259.464 93.1ZM268.314 99.25L267.947 100.18L267.947 100.18L268.314 99.25ZM303.864 98.05L304.191 98.995L304.201 98.9915L304.211 98.9877L303.864 98.05ZM310.914 95.2L311.711 94.5971L311.231 93.9608L310.503 94.2881L310.914 95.2ZM325.764 114.85L326.223 115.738L327.277 115.194L326.561 114.247L325.764 114.85ZM305.964 122.5L306.231 123.464L306.231 123.464L305.964 122.5ZM281.814 124.5C271.226 124.5 261.917 122.719 253.866 119.184L253.062 121.016C261.411 124.681 271.002 126.5 281.814 126.5V124.5ZM253.87 119.186C245.908 115.647 239.705 110.801 235.221 104.66L233.606 105.84C238.323 112.299 244.82 117.353 253.058 121.014L253.87 119.186ZM235.221 104.66C230.748 98.5338 228.514 91.6409 228.514 83.95H226.514C226.514 92.0591 228.879 99.3662 233.606 105.84L235.221 104.66ZM228.514 83.95C228.514 76.0482 230.704 69.1065 235.073 63.0874L233.454 61.9126C228.823 68.2935 226.514 75.6518 226.514 83.95H228.514ZM235.067 63.0958C239.556 57.0451 245.617 52.2458 253.283 48.708L252.445 46.892C244.51 50.5542 238.171 55.5549 233.461 61.9041L235.067 63.0958ZM253.278 48.71C261.031 45.1771 269.787 43.4 279.564 43.4V41.4C269.541 41.4 260.496 43.2229 252.449 46.89L253.278 48.71ZM279.564 43.4C288.785 43.4 297.242 44.4907 304.942 46.6624L305.485 44.7375C297.585 42.5093 288.942 41.4 279.564 41.4V43.4ZM304.957 46.6664C312.756 48.7396 319.543 51.8426 325.334 55.9647L326.494 54.3353C320.484 50.0574 313.472 46.8604 305.471 44.7336L304.957 46.6664ZM325.118 54.5443L309.818 74.6443L311.409 75.8557L326.709 55.7557L325.118 54.5443ZM311.208 74.4458C308.834 72.6909 306.062 71.1535 302.9 69.8278L302.127 71.6722C305.166 72.9465 307.794 74.4091 310.019 76.0542L311.208 74.4458ZM302.925 69.8386C299.765 68.4114 296.454 67.2909 292.993 66.4766L292.535 68.4234C295.874 69.2091 299.062 70.2886 302.102 71.6614L302.925 69.8386ZM292.993 66.4766C289.515 65.6584 285.938 65.25 282.264 65.25V67.25C285.789 67.25 289.212 67.6416 292.535 68.4234L292.993 66.4766ZM282.264 65.25C276.678 65.25 271.849 66.0111 267.805 67.5667L268.523 69.4333C272.278 67.9889 276.85 67.25 282.264 67.25V65.25ZM267.797 67.5698C263.869 69.1201 260.805 71.2657 258.671 74.0403L260.256 75.2597C262.122 72.8343 264.858 70.8799 268.531 69.4302L267.797 67.5698ZM258.671 74.0403C256.527 76.8272 255.464 80.0952 255.464 83.8H257.464C257.464 80.5048 258.4 77.6728 260.256 75.2597L258.671 74.0403ZM255.464 83.8C255.464 87.5048 256.527 90.8155 258.66 93.6952L260.267 92.5048C258.4 89.9845 257.464 87.0952 257.464 83.8H255.464ZM258.686 93.7283C260.916 96.4896 264.021 98.6307 267.947 100.18L268.681 98.3198C265.006 96.8693 262.211 94.9104 260.242 92.4717L258.686 93.7283ZM267.947 100.18C271.892 101.738 276.574 102.5 281.964 102.5V100.5C276.754 100.5 272.335 99.7622 268.681 98.3198L267.947 100.18ZM281.964 102.5C286.809 102.5 291.076 102.147 294.755 101.432L294.373 99.4684C290.851 100.153 286.718 100.5 281.964 100.5V102.5ZM294.755 101.432C298.387 100.725 301.534 99.9145 304.191 98.995L303.537 97.105C300.993 97.9855 297.941 98.7746 294.373 99.4684L294.755 101.432ZM304.211 98.9877C306.926 97.9821 309.298 97.0236 311.324 96.1119L310.503 94.2881C308.529 95.1764 306.201 96.1179 303.516 97.1123L304.211 98.9877ZM310.116 95.8029L324.966 115.453L326.561 114.247L311.711 94.5971L310.116 95.8029ZM325.305 113.962C319.372 117.027 312.837 119.553 305.696 121.536L306.231 123.464C313.491 121.447 320.156 118.873 326.223 115.738L325.305 113.962ZM305.696 121.536C298.598 123.508 290.64 124.5 281.814 124.5V126.5C290.787 126.5 298.929 125.492 306.231 123.464L305.696 121.536ZM345.612 124H344.612V125H345.612V124ZM345.612 44.05V43.05H344.612V44.05H345.612ZM373.512 44.05H374.512V43.05H373.512V44.05ZM373.512 124V125H374.512V124H373.512ZM347.712 23.95L347.061 24.7092L347.075 24.7216L347.09 24.7335L347.712 23.95ZM347.862 4.15L348.515 4.90741L348.522 4.90106L348.529 4.89457L347.862 4.15ZM371.412 3.84999L370.761 4.60925L370.775 4.62165L370.79 4.63349L371.412 3.84999ZM371.412 23.65L370.759 22.8926L370.759 22.8926L371.412 23.65ZM346.612 124V44.05H344.612V124H346.612ZM345.612 45.05H373.512V43.05H345.612V45.05ZM372.512 44.05V124H374.512V44.05H372.512ZM373.512 123H345.612V125H373.512V123ZM359.562 26.4C354.709 26.4 351.003 25.2841 348.333 23.1665L347.09 24.7335C350.22 27.2159 354.415 28.4 359.562 28.4V26.4ZM348.363 23.1907C345.822 21.0131 344.512 17.9617 344.512 13.9H342.512C342.512 18.4382 344.002 22.0869 347.061 24.7092L348.363 23.1907ZM344.512 13.9C344.512 10.1761 345.846 7.20795 348.515 4.90741L347.209 3.39259C344.077 6.09204 342.512 9.62391 342.512 13.9H344.512ZM348.529 4.89457C351.202 2.49829 354.842 1.24999 359.562 1.24999V-0.750007C354.481 -0.750007 350.321 0.601695 347.194 3.40543L348.529 4.89457ZM359.562 1.24999C364.514 1.24999 368.201 2.41509 370.761 4.60925L372.063 3.09073C369.022 0.48489 364.809 -0.750007 359.562 -0.750007V1.24999ZM370.79 4.63349C373.405 6.70714 374.762 9.74094 374.762 13.9H376.762C376.762 9.25904 375.219 5.59284 372.033 3.06649L370.79 4.63349ZM374.762 13.9C374.762 17.6239 373.427 20.592 370.759 22.8926L372.065 24.4074C375.196 21.708 376.762 18.1761 376.762 13.9H374.762ZM370.759 22.8926C368.09 25.1934 364.397 26.4 359.562 26.4V28.4C364.727 28.4 368.934 27.1066 372.065 24.4074L370.759 22.8926ZM406.847 124H405.847V125H406.847V124ZM406.847 13V12H405.847V13H406.847ZM434.747 13H435.747V12H434.747V13ZM434.747 124V125H435.747V124H434.747ZM407.847 124V13H405.847V124H407.847ZM406.847 14H434.747V12H406.847V14ZM433.747 13V124H435.747V13H433.747ZM434.747 123H406.847V125H434.747V123ZM467.838 124H466.838V125H467.838V124ZM467.838 44.05V43.05H466.838V44.05H467.838ZM495.738 44.05H496.738V43.05H495.738V44.05ZM495.738 124V125H496.738V124H495.738ZM469.938 23.95L469.287 24.7092L469.302 24.7216L469.317 24.7335L469.938 23.95ZM470.088 4.15L470.741 4.90741L470.749 4.90106L470.756 4.89457L470.088 4.15ZM493.638 3.84999L492.987 4.60925L493.002 4.62165L493.017 4.63349L493.638 3.84999ZM493.638 23.65L492.985 22.8926L492.985 22.8926L493.638 23.65ZM468.838 124V44.05H466.838V124H468.838ZM467.838 45.05H495.738V43.05H467.838V45.05ZM494.738 44.05V124H496.738V44.05H494.738ZM495.738 123H467.838V125H495.738V123ZM481.788 26.4C476.935 26.4 473.23 25.2841 470.56 23.1665L469.317 24.7335C472.447 27.2159 476.641 28.4 481.788 28.4V26.4ZM470.589 23.1907C468.048 21.0131 466.738 17.9617 466.738 13.9H464.738C464.738 18.4382 466.228 22.0869 469.287 24.7092L470.589 23.1907ZM466.738 13.9C466.738 10.1761 468.073 7.20795 470.741 4.90741L469.435 3.39259C466.304 6.09204 464.738 9.62391 464.738 13.9H466.738ZM470.756 4.89457C473.429 2.49829 477.069 1.24999 481.788 1.24999V-0.750007C476.708 -0.750007 472.548 0.601695 469.421 3.40543L470.756 4.89457ZM481.788 1.24999C486.741 1.24999 490.428 2.41509 492.987 4.60925L494.289 3.09073C491.249 0.48489 487.036 -0.750007 481.788 -0.750007V1.24999ZM493.017 4.63349C495.631 6.70714 496.988 9.74094 496.988 13.9H498.988C498.988 9.25904 497.445 5.59284 494.26 3.06649L493.017 4.63349ZM496.988 13.9C496.988 17.6239 495.654 20.592 492.985 22.8926L494.291 24.4074C497.423 21.708 498.988 18.1761 498.988 13.9H496.988ZM492.985 22.8926C490.316 25.1934 486.623 26.4 481.788 26.4V28.4C486.953 28.4 491.16 27.1066 494.291 24.4074L492.985 22.8926ZM537.323 124H536.323V125H537.323V124ZM537.323 19.3V18.3H536.323V19.3H537.323ZM565.223 19.3H566.223V18.3H565.223V19.3ZM565.223 124V125H566.223V124H565.223ZM515.123 67.75H514.123V68.75H515.123V67.75ZM515.123 44.05V43.05H514.123V44.05H515.123ZM591.173 44.05H592.173V43.05H591.173V44.05ZM591.173 67.75V68.75H592.173V67.75H591.173ZM538.323 124V19.3H536.323V124H538.323ZM537.323 20.3H565.223V18.3H537.323V20.3ZM564.223 19.3V124H566.223V19.3H564.223ZM565.223 123H537.323V125H565.223V123ZM516.123 67.75V44.05H514.123V67.75H516.123ZM515.123 45.05H591.173V43.05H515.123V45.05ZM590.173 44.05V67.75H592.173V44.05H590.173ZM591.173 66.75H515.123V68.75H591.173V66.75ZM615.553 124H614.553V125H615.553V124ZM615.553 44.05V43.05H614.553V44.05H615.553ZM643.453 44.05H644.453V43.05H643.453V44.05ZM643.453 124V125H644.453V124H643.453ZM617.653 23.95L617.002 24.7092L617.017 24.7216L617.032 24.7335L617.653 23.95ZM617.803 4.15L618.456 4.90741L618.463 4.90106L618.471 4.89457L617.803 4.15ZM641.353 3.84999L640.702 4.60925L640.717 4.62165L640.732 4.63349L641.353 3.84999ZM641.353 23.65L640.7 22.8926L640.7 22.8926L641.353 23.65ZM616.553 124V44.05H614.553V124H616.553ZM615.553 45.05H643.453V43.05H615.553V45.05ZM642.453 44.05V124H644.453V44.05H642.453ZM643.453 123H615.553V125H643.453V123ZM629.503 26.4C624.65 26.4 620.945 25.2841 618.275 23.1665L617.032 24.7335C620.162 27.2159 624.356 28.4 629.503 28.4V26.4ZM618.304 23.1907C615.763 21.0131 614.453 17.9617 614.453 13.9H612.453C612.453 18.4382 613.943 22.0869 617.002 24.7092L618.304 23.1907ZM614.453 13.9C614.453 10.1761 615.787 7.20795 618.456 4.90741L617.15 3.39259C614.019 6.09204 612.453 9.62391 612.453 13.9H614.453ZM618.471 4.89457C621.143 2.49829 624.784 1.24999 629.503 1.24999V-0.750007C624.423 -0.750007 620.263 0.601695 617.136 3.40543L618.471 4.89457ZM629.503 1.24999C634.456 1.24999 638.142 2.41509 640.702 4.60925L642.004 3.09073C638.964 0.48489 634.751 -0.750007 629.503 -0.750007V1.24999ZM640.732 4.63349C643.346 6.70714 644.703 9.74094 644.703 13.9H646.703C646.703 9.25904 645.16 5.59284 641.975 3.06649L640.732 4.63349ZM644.703 13.9C644.703 17.6239 643.369 20.592 640.7 22.8926L642.006 24.4074C645.137 21.708 646.703 18.1761 646.703 13.9H644.703ZM640.7 22.8926C638.031 25.1934 634.338 26.4 629.503 26.4V28.4C634.668 28.4 638.875 27.1066 642.006 24.4074L640.7 22.8926ZM688.938 120.25L688.544 121.169L688.551 121.172L688.558 121.175L688.938 120.25ZM666.738 66.85L667.615 67.3313L667.619 67.3241L666.738 66.85ZM678.138 53.65L677.546 52.8441L677.538 52.85L678.138 53.65ZM694.938 45.4L695.227 46.3574L695.237 46.3545L694.938 45.4ZM735.138 45.4L734.827 46.3502L734.836 46.3533L734.845 46.3561L735.138 45.4ZM751.338 53.8L750.711 54.5793L750.722 54.5875L751.338 53.8ZM761.988 66.7L761.094 67.1472L761.097 67.1543L761.101 67.1613L761.988 66.7ZM765.588 83.5L764.589 83.4678L764.589 83.4783L765.588 83.5ZM765.438 90.4V91.4H766.417L766.438 90.4217L765.438 90.4ZM681.438 90.4L680.46 90.6083L680.629 91.4H681.438V90.4ZM677.988 74.2V73.2H676.753L677.01 74.4083L677.988 74.2ZM743.088 74.2L743.953 74.7021L744.825 73.2H743.088V74.2ZM740.388 78.85H739.388V82.5637L741.253 79.3521L740.388 78.85ZM740.388 76H741.388V75.9584L741.385 75.9169L740.388 76ZM736.488 69.7L735.872 70.4875L735.88 70.4938L735.888 70.5L736.488 69.7ZM727.488 65.5L727.196 66.4563L727.212 66.4611L727.227 66.4654L727.488 65.5ZM701.988 65.8L702.269 66.7597L702.277 66.7576L702.284 66.7553L701.988 65.8ZM691.938 71.65L691.218 70.9564L691.217 70.9569L691.938 71.65ZM704.538 100.15L704.876 99.2087L704.876 99.2087L704.538 100.15ZM740.988 100.9L741.291 101.853L741.301 101.85L741.311 101.847L740.988 100.9ZM750.438 97.3L751.26 96.7304L750.777 96.0331L750.01 96.3963L750.438 97.3ZM762.288 114.4L762.793 115.263L763.725 114.718L763.11 113.83L762.288 114.4ZM749.088 120.55L748.748 119.61L748.742 119.612L749.088 120.55ZM734.538 124.3L734.383 123.312L734.38 123.313L734.538 124.3ZM718.788 124.5C707.489 124.5 697.673 122.765 689.319 119.325L688.558 121.175C697.204 124.735 707.288 126.5 718.788 126.5V124.5ZM689.332 119.331C681.069 115.789 674.723 110.942 670.246 104.81L668.631 105.99C673.353 112.458 680.008 117.511 688.544 121.169L689.332 119.331ZM670.246 104.81C665.773 98.6838 663.538 91.7909 663.538 84.1H661.538C661.538 92.2091 663.904 99.5162 668.631 105.99L670.246 104.81ZM663.538 84.1C663.538 77.851 664.904 72.2694 667.615 67.3313L665.862 66.3687C662.973 71.6306 661.538 77.549 661.538 84.1H663.538ZM667.619 67.3241C670.349 62.2539 674.052 57.9644 678.738 54.45L677.538 52.85C672.624 56.5356 668.728 61.0461 665.858 66.3759L667.619 67.3241ZM678.73 54.4559C683.531 50.9286 689.027 48.2272 695.227 46.3574L694.65 44.4426C688.25 46.3728 682.545 49.1714 677.546 52.8441L678.73 54.4559ZM695.237 46.3545C701.536 44.386 708.135 43.4 715.038 43.4V41.4C707.942 41.4 701.141 42.414 694.64 44.4455L695.237 46.3545ZM715.038 43.4C722.247 43.4 728.84 44.3874 734.827 46.3502L735.45 44.4498C729.237 42.4126 722.43 41.4 715.038 41.4V43.4ZM734.845 46.3561C740.936 48.2226 746.22 50.9663 750.712 54.5792L751.965 53.0208C747.257 49.2337 741.741 46.3774 735.431 44.4439L734.845 46.3561ZM750.722 54.5875C755.211 58.1003 758.663 62.2858 761.094 67.1472L762.883 66.2528C760.313 61.1142 756.666 56.6997 751.955 53.0125L750.722 54.5875ZM761.101 67.1613C763.614 71.9942 764.784 77.4215 764.589 83.4678L766.588 83.5322C766.793 77.1785 765.562 71.4058 762.876 66.2386L761.101 67.1613ZM764.589 83.4783L764.439 90.3783L766.438 90.4217L766.588 83.5217L764.589 83.4783ZM765.438 89.4H681.438V91.4H765.438V89.4ZM682.416 90.1917L678.966 73.9917L677.01 74.4083L680.46 90.6083L682.416 90.1917ZM677.988 75.2H743.088V73.2H677.988V75.2ZM742.223 73.6979L739.523 78.3479L741.253 79.3521L743.953 74.7021L742.223 73.6979ZM741.388 78.85V76H739.388V78.85H741.388ZM741.385 75.9169C741.155 73.1647 739.656 70.826 737.088 68.9L735.888 70.5C738.12 72.174 739.221 74.0353 739.392 76.083L741.385 75.9169ZM737.105 68.9125C734.672 67.0086 731.54 65.5592 727.749 64.5346L727.227 66.4654C730.837 67.4408 733.705 68.7914 735.872 70.4875L737.105 68.9125ZM727.781 64.5436C724.073 63.4109 720.023 62.85 715.638 62.85V64.85C719.853 64.85 723.703 65.3891 727.196 66.4563L727.781 64.5436ZM715.638 62.85C710.649 62.85 705.999 63.5119 701.693 64.8447L702.284 66.7553C706.378 65.4881 710.827 64.85 715.638 64.85V62.85ZM701.707 64.8403C697.464 66.0822 693.955 68.1142 691.218 70.9564L692.659 72.3436C695.122 69.7858 698.313 67.9178 702.269 66.7597L701.707 64.8403ZM691.217 70.9569C688.509 73.7737 687.188 77.4372 687.188 81.85H689.188C689.188 77.8628 690.368 74.7263 692.659 72.3431L691.217 70.9569ZM687.188 81.85C687.188 86.0148 688.692 89.794 691.636 93.1585L693.141 91.8415C690.485 88.806 689.188 85.4852 689.188 81.85H687.188ZM691.636 93.1585C694.578 96.5214 698.791 99.1519 704.201 101.091L704.876 99.2087C699.686 97.3481 695.798 94.8786 693.141 91.8415L691.636 93.1585ZM704.201 101.091C709.636 103.04 716.056 104 723.438 104V102C716.221 102 710.041 101.06 704.876 99.2087L704.201 101.091ZM723.438 104C730.789 104 736.754 103.297 741.291 101.853L740.685 99.9471C736.423 101.303 730.688 102 723.438 102V104ZM741.311 101.847C745.715 100.345 748.911 99.1299 750.866 98.2037L750.01 96.3963C748.166 97.27 745.062 98.4547 740.666 99.9535L741.311 101.847ZM749.616 97.8696L761.466 114.97L763.11 113.83L751.26 96.7304L749.616 97.8696ZM761.783 113.537C757.738 115.905 753.394 117.929 748.748 119.61L749.428 121.49C754.183 119.771 758.638 117.695 762.793 115.263L761.783 113.537ZM748.742 119.612C744.207 121.288 739.421 122.522 734.383 123.312L734.693 125.288C739.855 124.478 744.77 123.212 749.435 121.488L748.742 119.612ZM734.38 123.313C729.437 124.104 724.24 124.5 718.788 124.5V126.5C724.337 126.5 729.64 126.096 734.696 125.287L734.38 123.313ZM794.338 121.6L794.624 120.642L794.624 120.642L794.338 121.6ZM773.338 110.05L772.669 109.307L771.87 110.026L772.645 110.771L773.338 110.05ZM789.838 95.2L790.48 94.4335L789.814 93.8757L789.169 94.4567L789.838 95.2ZM804.538 102.85L804.226 103.8L804.226 103.8L804.538 102.85ZM831.388 105.55L831.283 104.555L831.277 104.556L831.388 105.55ZM836.488 104.65L836.746 105.616L836.775 105.608L836.804 105.599L836.488 104.65ZM839.938 102.85L839.324 102.061L839.301 102.078L839.279 102.097L839.938 102.85ZM837.538 97L837.258 97.9601L837.268 97.963L837.538 97ZM828.538 95.35L828.424 96.3435L828.427 96.3439L828.538 95.35ZM818.788 94.3L818.66 95.2918L818.674 95.2936L818.688 95.295L818.788 94.3ZM800.488 91.45L800.299 92.432L800.299 92.432L800.488 91.45ZM787.138 86.8L786.62 87.6552L786.632 87.6626L786.644 87.6697L787.138 86.8ZM779.188 79.3L778.335 79.8226L778.345 79.8388L778.356 79.8547L779.188 79.3ZM779.938 57.1L779.15 56.4844L779.144 56.4921L779.138 56.5L779.938 57.1ZM789.838 49L789.374 48.1141L789.365 48.1188L789.838 49ZM804.238 44.05L804.042 43.0694L804.038 43.0701L804.238 44.05ZM838.438 43.6L838.577 42.6097L838.577 42.6097L838.438 43.6ZM854.788 47.35L855.099 46.3995L855.099 46.3995L854.788 47.35ZM868.738 54.25L869.514 54.8806L870.188 54.0509L869.315 53.4336L868.738 54.25ZM855.088 71.05L854.564 71.9017L855.311 72.3614L855.864 71.6806L855.088 71.05ZM845.188 66.55L844.829 67.4833L844.843 67.4888L844.858 67.4939L845.188 66.55ZM832.138 62.95L831.93 63.9281L831.942 63.9306L831.954 63.9329L832.138 62.95ZM812.038 61.75L812.097 62.7483L812.126 62.7466L812.155 62.7431L812.038 61.75ZM807.388 62.5L807.113 61.5385L807.103 61.5412L807.094 61.5442L807.388 62.5ZM804.238 64L804.838 64.8L804.838 64.8L804.238 64ZM803.638 67.75L804.419 67.1253L804.419 67.1253L803.638 67.75ZM805.138 69.1L804.583 69.932L804.617 69.9545L804.652 69.9742L805.138 69.1ZM813.238 71.35L813.1 72.3405L813.104 72.341L813.238 71.35ZM825.088 73L824.946 73.99L824.952 73.9908L825.088 73ZM862.138 83.95L861.538 84.7501L861.548 84.7574L862.138 83.95ZM867.538 90.55L866.609 90.9214L866.619 90.9443L866.629 90.9667L867.538 90.55ZM863.638 112.75L864.363 113.438L864.372 113.429L863.638 112.75ZM847.888 122.05L848.208 122.997L847.888 122.05ZM823.588 124.5C812.867 124.5 803.216 123.209 794.624 120.642L794.052 122.558C802.86 125.191 812.709 126.5 823.588 126.5V124.5ZM794.624 120.642C786.042 118.077 779.193 114.296 774.031 109.329L772.645 110.771C778.083 116.004 785.234 119.923 794.052 122.558L794.624 120.642ZM774.007 110.793L790.507 95.9433L789.169 94.4567L772.669 109.307L774.007 110.793ZM789.196 95.9665C793.02 99.1703 798.043 101.773 804.226 103.8L804.849 101.9C798.833 99.9271 794.056 97.4297 790.48 94.4335L789.196 95.9665ZM804.226 103.8C810.449 105.841 817.658 106.85 825.838 106.85V104.85C817.817 104.85 810.827 103.859 804.849 101.9L804.226 103.8ZM825.838 106.85C827.773 106.85 829.66 106.748 831.498 106.544L831.277 104.556C829.516 104.752 827.703 104.85 825.838 104.85V106.85ZM831.493 106.545C833.433 106.34 835.185 106.032 836.746 105.616L836.23 103.684C834.79 104.068 833.143 104.36 831.283 104.555L831.493 106.545ZM836.804 105.599C838.374 105.075 839.66 104.422 840.596 103.603L839.279 102.097C838.616 102.678 837.601 103.225 836.172 103.701L836.804 105.599ZM840.552 103.639C841.685 102.758 842.288 101.571 842.288 100.15H840.288C840.288 100.929 839.991 101.542 839.324 102.061L840.552 103.639ZM842.288 100.15C842.288 99.1041 841.803 98.2267 840.994 97.5468C840.214 96.8919 839.123 96.4053 837.808 96.037L837.268 97.963C838.453 98.2947 839.237 98.683 839.707 99.0782C840.148 99.4483 840.288 99.7959 840.288 100.15H842.288ZM837.818 96.04C835.344 95.3184 832.283 94.7599 828.648 94.3561L828.427 96.3439C831.993 96.7401 834.932 97.2816 837.258 97.96L837.818 96.04ZM828.651 94.3565C825.148 93.956 821.893 93.6055 818.887 93.305L818.688 95.295C821.683 95.5945 824.928 95.944 828.424 96.3435L828.651 94.3565ZM818.915 93.3082C811.93 92.41 805.851 91.463 800.677 90.468L800.299 92.432C805.525 93.437 811.646 94.39 818.66 95.2918L818.915 93.3082ZM800.677 90.468C795.559 89.4837 791.217 87.9652 787.631 85.9303L786.644 87.6697C790.459 89.8348 795.017 91.4162 800.299 92.432L800.677 90.468ZM787.656 85.9448C784.473 84.0153 781.933 81.6149 780.02 78.7453L778.356 79.8547C780.443 82.9851 783.203 85.5847 786.62 87.6552L787.656 85.9448ZM780.04 78.7774C778.255 75.8649 777.338 72.3045 777.338 68.05H775.338C775.338 72.5955 776.32 76.5351 778.335 79.8226L780.04 78.7774ZM777.338 68.05C777.338 64.1605 778.471 60.7223 780.738 57.7L779.138 56.5C776.605 59.8777 775.338 63.7394 775.338 68.05H777.338ZM780.726 57.7156C783.129 54.6399 786.315 52.025 790.311 49.8812L789.365 48.1188C785.16 50.375 781.747 53.1601 779.15 56.4844L780.726 57.7156ZM790.302 49.8858C794.406 47.7358 799.115 46.1141 804.437 45.0299L804.038 43.0701C798.561 44.1859 793.669 45.8641 789.374 48.1142L790.302 49.8858ZM804.434 45.0306C809.865 43.9444 815.549 43.4 821.488 43.4V41.4C815.427 41.4 809.611 41.9556 804.042 43.0694L804.434 45.0306ZM821.488 43.4C827.04 43.4 832.644 43.7966 838.299 44.5903L838.577 42.6097C832.832 41.8034 827.136 41.4 821.488 41.4V43.4ZM838.299 44.5903C843.944 45.3825 849.336 46.6197 854.477 48.3005L855.099 46.3995C849.84 44.6803 844.332 43.4175 838.577 42.6097L838.299 44.5903ZM854.477 48.3005C859.59 49.9722 864.149 52.2291 868.16 55.0664L869.315 53.4336C865.127 50.4709 860.385 48.1278 855.099 46.3995L854.477 48.3005ZM867.962 53.6194L854.312 70.4194L855.864 71.6806L869.514 54.8806L867.962 53.6194ZM855.612 70.1983C852.933 68.5494 849.562 67.0214 845.518 65.6061L844.858 67.4939C848.814 68.8786 852.043 70.3506 854.564 71.9017L855.612 70.1983ZM845.547 65.6167C841.582 64.0916 837.172 62.8765 832.322 61.9671L831.954 63.9329C836.704 64.8235 840.994 66.0084 844.829 67.4833L845.547 65.6167ZM832.346 61.9719C827.572 60.9562 822.552 60.45 817.288 60.45V62.45C822.424 62.45 827.304 62.9438 831.93 63.9281L832.346 61.9719ZM817.288 60.45C815.451 60.45 813.662 60.5521 811.921 60.7568L812.155 62.7431C813.814 62.5479 815.525 62.45 817.288 62.45V60.45ZM811.979 60.7517C810.218 60.8553 808.594 61.1153 807.113 61.5385L807.663 63.4615C808.982 63.0847 810.458 62.8447 812.097 62.7483L811.979 60.7517ZM807.094 61.5442C805.721 61.9667 804.557 62.5109 803.638 63.2L804.838 64.8C805.519 64.2891 806.455 63.8333 807.682 63.4558L807.094 61.5442ZM803.638 63.2C802.656 63.9365 802.038 64.9071 802.038 66.1H804.038C804.038 65.6929 804.22 65.2635 804.838 64.8L803.638 63.2ZM802.038 66.1C802.038 66.9429 802.325 67.7102 802.857 68.3747L804.419 67.1253C804.15 66.7898 804.038 66.4571 804.038 66.1H802.038ZM802.857 68.3747C803.329 68.9645 803.908 69.4821 804.583 69.932L805.693 68.2679C805.168 67.9179 804.747 67.5355 804.419 67.1253L802.857 68.3747ZM804.652 69.9742C806.613 71.0634 809.457 71.8345 813.1 72.3405L813.375 70.3595C809.819 69.8655 807.263 69.1366 805.624 68.2258L804.652 69.9742ZM813.104 72.341C816.801 72.8406 820.749 73.3903 824.946 73.9899L825.229 72.01C821.027 71.4097 817.075 70.8594 813.372 70.359L813.104 72.341ZM824.952 73.9908C834.425 75.287 842.119 76.8283 848.051 78.6078L848.625 76.6922C842.557 74.8717 834.751 73.313 825.223 72.0092L824.952 73.9908ZM848.051 78.6078C853.994 80.391 858.47 82.4489 861.538 84.75L862.738 83.15C859.406 80.6511 854.681 78.509 848.625 76.6922L848.051 78.6078ZM861.548 84.7574C864.026 86.5686 865.692 88.6271 866.609 90.9214L868.466 90.1786C867.384 87.4729 865.449 85.1314 862.728 83.1426L861.548 84.7574ZM866.629 90.9667C867.659 93.2151 868.188 95.819 868.188 98.8H870.188C870.188 95.581 869.616 92.6849 868.447 90.1333L866.629 90.9667ZM868.188 98.8C868.188 103.841 866.438 108.25 862.904 112.071L864.372 113.429C868.238 109.25 870.188 104.359 870.188 98.8H868.188ZM862.912 112.062C859.356 115.811 854.263 118.838 847.567 121.103L848.208 122.997C855.113 120.662 860.52 117.489 864.363 113.438L862.912 112.062ZM847.567 121.103C840.897 123.359 832.911 124.5 823.588 124.5V126.5C833.065 126.5 841.279 125.341 848.208 122.997L847.567 121.103Z" fill="black" mask="url(#path-1-outside-1_11_21)"/>
</g>
<defs>
<filter id="filter0_d_11_21" x="0.0499878" y="0.249992" width="873.138" height="133.25" filterUnits="userSpaceOnUse" color-interpolation-filters="sRGB">
<feFlood flood-opacity="0" result="BackgroundImageFix"/>
<feColorMatrix in="SourceAlpha" type="matrix" values="0 0 0 0 0 0 0 0 0 0 0 0 0 0 0 0 0 0 127 0" result="hardAlpha"/>
<feOffset dy="4"/>
<feGaussianBlur stdDeviation="2"/>
<feComposite in2="hardAlpha" operator="out"/>
<feColorMatrix type="matrix" values="0 0 0 0 0 0 0 0 0 0 0 0 0 0 0 0 0 0 0.25 0"/>
<feBlend mode="normal" in2="BackgroundImageFix" result="effect1_dropShadow_11_21"/>
<feBlend mode="normal" in="SourceGraphic" in2="effect1_dropShadow_11_21" result="shape"/>
</filter>
</defs>
</svg>
