<svg width="310" height="56" viewBox="0 0 310 56" fill="none" xmlns="http://www.w3.org/2000/svg">
<g opacity="0.4">
<mask id="mask0_189_1103" style="mask-type:luminance" maskUnits="userSpaceOnUse" x="0" y="0" width="310" height="56">
<path d="M309.333 0H0V56H309.333V0Z" fill="white"/>
</mask>
<g mask="url(#mask0_189_1103)">
<mask id="mask1_189_1103" style="mask-type:luminance" maskUnits="userSpaceOnUse" x="1" y="0" width="151" height="56">
<path d="M1.06775 0.541687H152V55.5417H1.06775V0.541687Z" fill="white"/>
</mask>
<g mask="url(#mask1_189_1103)">
<path d="M136.76 36.4948C136.693 34.5469 136.318 28.9323 134.292 23.8698C131.781 17.5885 119.052 10.6771 118.51 10.3854C118.198 10.2188 117.823 10.224 117.51 10.3906C117.203 10.5625 117 10.875 116.974 11.2292C116.943 11.6354 116.26 21.3177 120.974 27.3021C122.885 29.724 125.604 31.9636 128.156 33.7761C126.177 33.2969 124.198 32.9063 122.219 32.5938C122.135 32.5729 122.047 32.5573 121.958 32.5521C121.953 32.5521 121.943 32.5521 121.938 32.5521C116.948 31.7865 111.932 31.5 106.865 31.4792C106.516 29.0625 105.135 22.6771 100.01 17.849C93.8126 12.0156 83.2605 8.77605 82.8126 8.64063C82.474 8.54167 82.1146 8.61459 81.8438 8.83855C81.573 9.06772 81.4323 9.41147 81.474 9.76042C81.5157 10.151 82.6094 19.3802 89.1094 25.0417C92.5053 27.9896 96.8438 30.1615 100.229 31.5729C96.7084 31.6823 93.1563 31.8646 89.573 32.0521C88.5521 32.1042 87.5313 32.1563 86.5053 32.2083C86.3907 32.2083 86.1094 32.2188 85.6667 32.25C83.6303 32.349 81.5782 32.4375 79.5105 32.5104C78.599 30.4427 75.5261 24.1094 70.2865 19.5729C64.0938 14.2135 54.4323 11.4323 54.0261 11.3177C53.6876 11.224 53.3178 11.3021 53.0469 11.5417C52.7813 11.776 52.6563 12.1354 52.7084 12.4844C52.7761 12.9167 54.4219 23.1354 61.1407 28.1406C63.9011 30.1927 67.3438 31.651 70.448 32.6563C66.5001 32.6302 62.4896 32.4635 58.4063 32.0729C54.4115 31.6927 50.4219 30.9688 46.4584 29.9375C46.6251 27.4844 46.8646 20.5469 44.7709 14.5313C42.1876 7.10938 32.474 1.14584 32.0573 0.895841C31.7553 0.708341 31.3751 0.692715 31.0573 0.848966C30.7344 1.01042 30.5157 1.32292 30.4792 1.67709C30.4376 2.07813 29.474 11.5938 33.2605 18.9948C35.1876 22.7604 38.0678 25.9115 40.4636 28.1302C36.6928 26.8281 32.9532 25.2344 29.2553 23.349C28.5053 21.6354 25.0209 14.2031 19.2032 9.13542C12.6251 3.40105 2.54693 3.22917 2.11984 3.22397C1.82818 3.20834 1.52609 3.34897 1.32297 3.57813C1.12505 3.81251 1.0313 4.1198 1.07818 4.41667C1.14589 4.90626 2.88547 16.4167 10.9063 20.9115C17.7865 24.7656 24.6355 25.1979 27.3334 25.1979C27.7344 25.1979 28.0313 25.1875 28.2344 25.1771C33.3438 27.7917 38.5417 29.8542 43.7917 31.375C40.6355 31.4896 37.3126 31.8281 34.4792 32.5677C26.0782 34.7708 20.9948 42.2969 20.7813 42.6146C20.6042 42.8854 20.5573 43.224 20.6615 43.5313C20.7657 43.8385 21.0053 44.0781 21.3126 44.1823C21.5417 44.2604 25.2396 45.4948 30.7865 45.4948C33.4271 45.4948 36.4896 45.2135 39.7917 44.3958C48.7813 42.1615 54.4011 35.7136 55.8542 33.8698C56.6407 33.9688 57.4219 34.0833 58.2084 34.1563C64.2292 34.7292 70.073 34.8177 75.7813 34.7031C73.6146 35.6198 71.3126 36.8594 69.0626 38.5677C60.8178 44.8386 59.2344 52.6458 59.1719 52.9792C59.1094 53.2969 59.198 53.6302 59.4167 53.875C59.6198 54.099 59.9011 54.224 60.198 54.224C60.224 54.224 60.2553 54.224 60.2813 54.2188C60.7553 54.1823 71.9323 53.2292 77.9323 48.151C83.6303 43.3229 86.5209 36.4323 87.3282 34.2604C88.1094 34.2188 88.9011 34.1823 89.6823 34.1406C97.5157 33.7344 105.193 33.3333 112.76 33.7396C109.865 34.4896 106.635 35.7083 103.609 37.6979C95.349 43.1198 92.5001 53.6667 92.3855 54.1094C92.2969 54.4479 92.3803 54.8073 92.6094 55.0677C92.8126 55.2969 93.0938 55.4219 93.3959 55.4219C93.4376 55.4219 93.4844 55.4219 93.5313 55.4167C94.0001 55.3542 105.042 53.8385 111.74 48.6406C117.406 44.2396 121.339 37.0729 122.51 34.7761C131.75 36.3125 140.875 39.5833 150.005 46.0833C150.188 46.2135 150.401 46.2813 150.609 46.2813C150.932 46.2813 151.255 46.125 151.458 45.8385C151.792 45.3698 151.682 44.7135 151.214 44.3802C146.391 40.9427 141.578 38.3906 136.76 36.4948ZM42.7969 15.224C43.9896 18.6406 44.3646 22.4635 44.448 25.4479C41.7969 17.7188 37.0521 9.51042 34.2396 4.97917C37.2084 7.28126 41.3542 11.0729 42.7969 15.224ZM35.1251 18.0365C32.698 13.2969 32.3959 7.41667 32.4428 4.22397C35.2969 8.69793 41.7605 19.4479 44.2657 28.6198C41.9063 26.7396 37.6042 22.8854 35.1251 18.0365ZM26.5105 22.4479C15.0157 16.125 7.07297 8.62501 3.97922 5.44793C7.09901 5.77084 13.448 6.89063 17.8334 10.7135C22.073 14.4063 25.0678 19.599 26.5105 22.4479ZM3.74484 6.80209C7.15109 10.2135 14.6407 17.0677 25.2136 23.0052C22.0573 22.7656 16.9688 21.9115 11.9271 19.0833C7.02088 16.3333 4.71359 10.3073 3.74484 6.80209ZM35.0105 34.5938C39.5313 33.4115 45.5417 33.3333 49.8334 33.4792C39.3855 36.0886 29.1094 39.7708 24.2917 41.5833C26.3438 39.2969 30.0938 35.8854 35.0105 34.5938ZM39.2917 42.3646C32.8282 43.9688 27.2709 43.3542 24.2969 42.7708C29.349 40.8594 41.4532 36.4948 53.1146 33.8438C50.8855 36.2761 46.0782 40.6823 39.2917 42.3646ZM77.0573 32.2031C69.0157 28.2552 59.9584 18.599 56.0886 14.2083C59.3594 15.3906 64.9792 17.7448 68.9219 21.1563C73.0313 24.7188 75.7865 29.6146 77.0573 32.2031ZM55.5157 15.2552C58.9948 19.1979 66.0782 26.724 73.1771 31.2813C69.7709 30.3385 65.5365 28.8021 62.3855 26.4583C58.5053 23.5677 56.474 18.5156 55.5157 15.2552ZM70.323 40.2396C74.4688 37.0886 78.8803 35.6094 82.0573 34.9167C75.1667 39.0729 66.2969 46.849 62.1407 50.625C63.2605 47.9635 65.6146 43.8229 70.323 40.2396ZM76.5834 46.5573C72.6719 49.8698 66.0105 51.2865 62.4792 51.8333C66.8646 47.8438 77.8646 38.1458 84.9428 34.5886C83.8073 37.2865 81.1198 42.7083 76.5834 46.5573ZM132.354 24.6458C133.516 27.5521 134.099 30.724 134.391 33.1511C131.026 27.1771 124.823 19.0104 121.219 14.4271C125.12 16.8906 130.901 21.0208 132.354 24.6458ZM122.615 26C119.63 22.2136 119.089 16.4948 119.026 13.4531C122.412 17.7083 130.833 28.5521 134.208 35.1615C131.245 33.4375 125.698 29.9115 122.615 26ZM104.662 31.0104C104.609 30.9948 104.547 30.974 104.495 30.9531C97.9011 26.4115 88.7969 16.1615 84.8698 11.5781C88.3751 12.901 94.5626 15.5938 98.5782 19.3698C102.724 23.2708 104.177 28.4479 104.662 31.0104ZM84.1563 12.4635C87.5834 16.474 94.6407 24.4271 100.807 29.5365C97.599 28.1823 93.5678 26.1406 90.4792 23.4583C86.7396 20.2031 84.9584 15.4896 84.1563 12.4635ZM104.755 39.4479C109.026 36.6458 113.854 35.474 117.297 34.9844C108.365 39.4479 99.7553 47.2656 95.5886 51.349C97.0313 47.9271 99.9011 42.6406 104.755 39.4479ZM110.458 46.9896C105.979 50.4635 99.1303 52.2135 95.5782 52.9323C99.599 48.9063 109.875 39.2761 120.057 34.9375C118.484 37.7917 115.026 43.4479 110.458 46.9896Z" fill="black"/>
</g>
<mask id="mask2_189_1103" style="mask-type:luminance" maskUnits="userSpaceOnUse" x="157" y="0" width="151" height="56">
<path d="M157.333 0.541687H308V55.5417H157.333V0.541687Z" fill="white"/>
</mask>
<g mask="url(#mask2_189_1103)">
<path d="M307.729 3.57814C307.526 3.34897 307.255 3.21355 306.932 3.22397C306.505 3.22918 296.427 3.40105 289.854 9.13022C284.031 14.2031 280.552 21.6302 279.797 23.349C276.104 25.2344 272.359 26.8229 268.589 28.125C270.984 25.9115 273.865 22.7604 275.792 18.9948C279.578 11.5938 278.615 2.07814 278.573 1.6771C278.537 1.32293 278.318 1.01043 278 0.848972C277.677 0.692721 277.302 0.708347 276.995 0.890639C276.583 1.14064 266.87 7.10939 264.287 14.5313C262.193 20.5469 262.427 27.4844 262.594 29.9375C258.63 30.9688 254.641 31.6927 250.646 32.0729C246.563 32.4636 242.552 32.6302 238.604 32.6563C241.714 31.6511 245.156 30.1927 247.912 28.1354C254.636 23.1354 256.276 12.9167 256.344 12.4844C256.396 12.1302 256.271 11.7761 256.005 11.5417C255.74 11.3021 255.365 11.2188 255.026 11.3177C254.62 11.4323 244.958 14.2136 238.771 19.5729C233.531 24.1094 230.458 30.4375 229.542 32.5104C227.469 32.4375 225.412 32.349 223.37 32.25C222.948 32.2188 222.672 32.2083 222.552 32.2083C221.526 32.1563 220.5 32.1042 219.479 32.0521C215.896 31.8646 212.344 31.6823 208.823 31.5729C212.208 30.1615 216.547 27.9896 219.938 25.0365C226.443 19.3802 227.537 10.1511 227.578 9.76043C227.615 9.41147 227.479 9.06251 227.208 8.83855C226.938 8.6146 226.573 8.54168 226.24 8.64064C225.792 8.77606 215.235 12.0156 209.042 17.8438C203.917 22.6719 202.537 29.0625 202.188 31.4792C197.12 31.5 192.104 31.7865 187.115 32.5521C187.109 32.5521 187.099 32.5521 187.094 32.5521C187.005 32.5573 186.917 32.5729 186.833 32.5938C184.849 32.9063 182.87 33.2969 180.896 33.7761C183.448 31.9636 186.167 29.724 188.078 27.3021C192.792 21.3177 192.11 11.6354 192.078 11.2292C192.052 10.875 191.849 10.5573 191.542 10.3906C191.235 10.224 190.86 10.2188 190.547 10.3854C190.005 10.6771 177.271 17.5886 174.761 23.8698C172.734 28.9323 172.359 34.5469 172.292 36.4948C167.474 38.3906 162.662 40.9427 157.839 44.3802C157.365 44.7188 157.255 45.3698 157.594 45.8438C157.797 46.1302 158.115 46.2813 158.443 46.2813C158.651 46.2813 158.865 46.2188 159.047 46.0886C168.177 39.5834 177.302 36.3125 186.542 34.7813C187.708 37.0729 191.646 44.2448 197.313 48.6459C204.011 53.8386 215.057 55.3542 215.521 55.4167C215.568 55.4219 215.615 55.4271 215.662 55.4271C215.958 55.4271 216.245 55.2969 216.443 55.0729C216.672 54.8073 216.761 54.4479 216.672 54.1146C216.552 53.6667 213.708 43.125 205.443 37.6979C202.417 35.7136 199.182 34.4896 196.287 33.7396C203.86 33.3386 211.531 33.7344 219.375 34.1406C220.156 34.1823 220.943 34.224 221.729 34.2604C222.537 36.4323 225.422 43.3281 231.125 48.1563C237.12 53.2344 248.302 54.1823 248.776 54.224C248.802 54.224 248.828 54.224 248.859 54.224C249.151 54.224 249.438 54.099 249.636 53.875C249.854 53.6354 249.943 53.3021 249.886 52.9792C249.818 52.6511 248.235 44.8438 239.99 38.5729C237.74 36.8594 235.443 35.6198 233.271 34.7083C238.985 34.8229 244.823 34.7344 250.844 34.1615C251.63 34.0833 252.417 33.974 253.203 33.875C254.656 35.7136 260.271 42.1667 269.261 44.3959C272.563 45.2188 275.625 45.4948 278.266 45.4948C283.813 45.4948 287.516 44.2656 287.74 44.1875C288.047 44.0834 288.287 43.8386 288.391 43.5313C288.495 43.224 288.453 42.8854 288.271 42.6146C288.057 42.2969 282.974 34.7708 274.573 32.5729C271.74 31.8281 268.417 31.4948 265.261 31.375C270.511 29.8542 275.708 27.7917 280.818 25.1823C281.026 25.1875 281.318 25.1979 281.719 25.1979C284.417 25.1979 291.266 24.7708 298.146 20.9115C306.167 16.4167 307.906 4.90626 307.974 4.42189C308.021 4.1146 307.927 3.80731 307.729 3.57814ZM218.573 23.4583C215.49 26.1406 211.458 28.1771 208.25 29.5365C214.417 24.4219 221.469 16.4688 224.901 12.4636C224.094 15.4896 222.313 20.2031 218.573 23.4583ZM210.474 19.3698C214.49 15.5938 220.677 12.9011 224.182 11.5781C220.255 16.1615 211.156 26.4115 204.563 30.9531C204.505 30.974 204.448 30.9948 204.391 31.0104C204.88 28.4479 206.333 23.2708 210.474 19.3698ZM186.438 26C183.36 29.9115 177.813 33.4375 174.844 35.1615C178.219 28.5521 186.646 17.7083 190.031 13.4531C189.969 16.4948 189.427 22.2136 186.438 26ZM176.703 24.6458C178.151 21.0208 183.932 16.8906 187.839 14.4271C184.229 19.0104 178.026 27.1771 174.662 33.1511C174.958 30.724 175.542 27.5521 176.703 24.6458ZM189 34.9375C199.182 39.2813 209.458 48.9115 213.479 52.9323C209.927 52.2188 203.078 50.474 198.594 46.9896C194.037 43.4531 190.568 37.7969 189 34.9375ZM213.464 51.349C209.297 47.2656 200.688 39.4479 191.761 34.9896C195.203 35.474 200.026 36.6458 204.297 39.4479C209.156 42.6406 212.021 47.9271 213.464 51.349ZM246.667 26.4583C243.516 28.8021 239.281 30.3386 235.875 31.2813C242.979 26.724 250.063 19.1927 253.542 15.25C252.589 18.5052 250.557 23.5573 246.667 26.4583ZM240.136 21.1563C244.078 17.7448 249.698 15.3906 252.964 14.2083C249.099 18.5938 240.042 28.2552 232 32.2031C233.271 29.6146 236.021 24.7188 240.136 21.1563ZM224.115 34.5886C231.193 38.1458 242.193 47.8438 246.578 51.8334C243.047 51.2865 236.386 49.8698 232.474 46.5521C227.932 42.7084 225.25 37.2865 224.115 34.5886ZM246.901 50.6146C242.74 46.8334 233.87 39.0573 226.979 34.9115C230.156 35.599 234.568 37.0781 238.729 40.2396C243.412 43.8021 245.776 47.9479 246.901 50.6146ZM291.224 10.7136C295.609 6.89064 301.953 5.77085 305.078 5.44793C301.984 8.62501 294.047 16.1198 282.547 22.4479C283.99 19.599 286.979 14.4063 291.224 10.7136ZM273.932 18.0365C271.453 22.8854 267.146 26.7396 264.792 28.6198C267.292 19.4479 273.761 8.69793 276.609 4.22397C276.656 7.41668 276.359 13.2969 273.932 18.0365ZM274.818 4.97918C272.005 9.51043 267.255 17.724 264.604 25.4531C264.688 22.4688 265.068 18.6458 266.261 15.2188C267.703 11.0729 271.844 7.28126 274.818 4.97918ZM269.766 42.3646C262.979 40.6771 258.172 36.2761 255.938 33.8438C267.599 36.4948 279.703 40.8594 284.755 42.7708C281.781 43.3542 276.224 43.9688 269.766 42.3646ZM284.766 41.5833C279.943 39.7708 269.667 36.0886 259.219 33.4792C263.516 33.3333 269.521 33.4115 274.042 34.5938C278.958 35.8854 282.708 39.2969 284.766 41.5833ZM297.13 19.0833C292.104 21.9011 287.011 22.7552 283.849 23.0052C294.417 17.0625 301.906 10.2136 305.307 6.8021C304.344 10.3073 302.037 16.3333 297.13 19.0833Z" fill="black"/>
</g>
</g>
</g>
</svg>
