<svg width="303" height="305" viewBox="0 0 303 305" fill="none" xmlns="http://www.w3.org/2000/svg">
<g opacity="0.6">
<mask id="mask0_189_658" style="mask-type:luminance" maskUnits="userSpaceOnUse" x="-2" y="0" width="305" height="305">
<path d="M303 0H-2V305H303V0Z" fill="white"/>
</mask>
<g mask="url(#mask0_189_658)">
<mask id="mask1_189_658" style="mask-type:luminance" maskUnits="userSpaceOnUse" x="-1" y="2" width="303" height="302">
<path d="M-0.685303 2.54132H301.937V303.942H-0.685303V2.54132Z" fill="white"/>
</mask>
<g mask="url(#mask1_189_658)">
<path d="M178.714 292.109C179.356 291.501 180.116 291.542 180.83 291.46C182.545 291.25 184.265 291.148 185.991 291.148C196.837 291.184 207.688 291.148 218.533 291.235C226.606 291.301 234.669 291.613 242.731 291.976C249.366 292.273 255.996 292.605 262.631 292.973C271.176 293.439 279.727 293.94 288.277 294.482C292.416 294.758 296.529 294.952 300.622 295.423C301.064 295.469 301.557 295.366 301.906 295.847C300.874 296.364 299.749 296.292 298.686 296.353C296.586 296.466 294.486 296.486 292.38 296.497C280.985 296.589 269.594 296.389 258.184 296.103C243.353 295.735 228.517 295.32 213.681 295.111C204.93 294.988 196.21 294.369 187.506 293.5C184.948 293.301 182.416 292.943 179.905 292.426C179.52 292.329 179.114 292.217 178.714 292.109ZM281.981 281.249C280.892 281.601 279.773 281.806 278.628 281.857C273.009 282.317 267.386 282.522 261.748 282.691C252.334 282.962 242.916 282.598 233.498 282.506C218.492 282.368 203.482 281.985 188.471 282.189C184.542 282.169 180.675 282.639 176.87 283.601C173.922 284.368 171.334 285.784 169.105 287.86C167.796 289.072 166.492 290.345 165.244 291.644C162.871 294.078 159.918 295.704 156.986 297.345C155.81 297.954 154.562 298.307 153.242 298.409C150.325 298.726 147.444 298.521 144.6 297.8C143.331 297.478 142.135 296.977 141.015 296.292C140.265 295.827 139.48 295.438 138.653 295.116C138.283 294.932 137.888 294.83 137.472 294.809C137.056 294.784 136.65 294.845 136.26 294.988C135.869 295.131 135.52 295.341 135.217 295.627C134.909 295.908 134.678 296.241 134.508 296.619C134.077 297.407 133.836 298.245 133.769 299.135C133.707 300.025 133.836 300.889 134.149 301.727C134.231 301.963 134.344 302.188 134.452 302.423C134.57 302.602 134.616 302.801 134.596 303.016C134.575 303.236 134.488 303.42 134.339 303.573C134.2 303.717 134.031 303.803 133.841 303.839C133.646 303.87 133.456 303.844 133.281 303.757C129.856 302.264 126.949 300.188 125.85 296.415C124.556 291.966 127.396 287.257 132.079 285.856C133.261 285.488 134.467 285.395 135.695 285.585C136.46 285.707 136.778 285.431 137.086 284.746C137.544 283.739 138.144 282.823 138.889 282C139.634 281.177 140.486 280.487 141.446 279.929C142.407 279.372 143.429 278.973 144.512 278.728C145.596 278.487 146.695 278.416 147.804 278.513C148.605 278.579 149.37 278.794 150.089 279.152C150.562 279.377 150.926 279.715 151.183 280.165C151.281 280.272 151.301 280.39 151.245 280.522C151.188 280.655 151.091 280.722 150.947 280.727C150.582 280.799 150.197 280.804 149.822 280.84C149.324 280.88 148.831 280.978 148.359 281.131C147.881 281.289 147.429 281.499 147.003 281.765C146.577 282.031 146.186 282.343 145.837 282.701C145.488 283.064 145.19 283.458 144.938 283.892C144.682 284.322 144.487 284.777 144.348 285.257C144.204 285.738 144.122 286.229 144.101 286.73C144.081 287.226 144.117 287.722 144.219 288.213C144.317 288.704 144.471 289.174 144.687 289.629C145.945 292.462 148.353 293.935 151.25 294.62C154.639 295.423 157.751 294.579 160.632 292.759C161.654 292.104 162.594 291.353 163.457 290.504C164.509 289.476 165.577 288.469 166.584 287.395C170.251 283.524 174.831 281.438 180.018 280.609C183.849 280.037 187.706 279.766 191.578 279.791C203.79 279.74 216.048 279.888 228.28 280.119C240.954 280.338 253.623 280.553 266.272 280.773C270.349 280.84 274.432 280.773 278.489 280.84C279.675 280.758 280.841 280.896 281.981 281.249ZM84.3359 286.771C84.0278 286.837 83.9405 287.047 83.8224 287.216C81.1212 291.015 77.3929 292.263 72.8943 291.562C69.9209 291.092 67.1632 289.926 64.4055 288.796C63.3374 288.397 62.3206 287.896 61.35 287.303C61.1189 287.144 60.821 287.057 60.667 286.612C61.2884 286.572 61.8995 286.623 62.5003 286.776C65.0783 287.385 67.5946 288.213 70.1931 288.719C71.4718 288.985 72.7608 289.149 74.0652 289.21C78.4662 289.369 81.7477 286.812 82.6772 282.522C83.3756 279.249 82.4666 276.37 80.3919 273.85C79.3238 272.525 78.0399 271.457 76.5404 270.649C75.0409 269.841 73.4438 269.355 71.744 269.191C70.4139 269.028 69.1506 269.242 67.9489 269.831C65.9307 270.828 65.5045 272.561 66.7678 274.397C66.963 274.668 67.1786 274.923 67.4149 275.164C67.6049 275.368 67.9695 275.496 67.7846 275.864C67.5946 276.227 67.2865 276.135 66.9938 276.161C66.2491 276.181 65.5867 275.956 65.0115 275.486C64.5185 275.113 64.118 274.657 63.8098 274.126C63.5017 273.594 63.3117 273.021 63.2347 272.413C63.1576 271.804 63.1987 271.201 63.3682 270.608C63.5325 270.015 63.8098 269.478 64.1898 268.997C65.0372 267.959 66.0899 267.223 67.3584 266.788C69.7309 265.883 72.124 265.822 74.5376 266.614C80.0787 268.327 83.9816 271.758 85.6095 277.475C85.6608 277.659 85.7327 277.848 85.8046 278.043C86.3079 277.956 86.4876 277.526 86.7803 277.25C89.5894 274.535 92.8863 272.955 96.8508 273.088C98.3093 273.108 99.6753 273.476 100.949 274.197C101.663 274.571 102.269 275.077 102.762 275.711C103.26 276.35 103.599 277.061 103.778 277.843C103.886 278.349 103.902 278.861 103.82 279.372C103.742 279.883 103.568 280.364 103.311 280.814C103.049 281.264 102.715 281.653 102.315 281.98C101.909 282.302 101.462 282.547 100.964 282.706C100.636 282.859 100.302 282.895 99.9474 282.813C99.5982 282.731 99.3107 282.547 99.0847 282.271C99.2388 281.857 99.5828 281.924 99.8499 281.821C100.04 281.75 100.225 281.663 100.399 281.55C100.569 281.438 100.728 281.305 100.867 281.157C101.01 281.008 101.129 280.845 101.231 280.666C101.334 280.487 101.411 280.297 101.468 280.103C101.524 279.904 101.56 279.704 101.565 279.5C101.575 279.295 101.56 279.091 101.519 278.886C101.478 278.687 101.411 278.492 101.324 278.308C101.236 278.124 101.129 277.95 101 277.787C100.194 276.79 99.1463 276.232 97.8625 276.11C96.8457 275.997 95.8289 276.023 94.8223 276.197C93.8107 276.37 92.8452 276.682 91.926 277.132C91.0068 277.582 90.1697 278.15 89.4097 278.84C88.6548 279.53 88.0128 280.308 87.4839 281.182C86.9344 282.108 86.6879 283.11 86.7444 284.184C86.7649 284.485 86.8163 284.777 86.8985 285.063C86.9806 285.355 87.0936 285.631 87.2323 285.891C87.3709 286.157 87.5404 286.403 87.7304 286.633C87.9255 286.863 88.1361 287.073 88.3723 287.257C88.6085 287.446 88.8602 287.604 89.1272 287.737C89.3994 287.87 89.6767 287.973 89.9694 288.049C90.2621 288.126 90.5548 288.167 90.8527 288.182C91.1557 288.198 91.4535 288.182 91.7514 288.131C92.2649 288.116 92.6295 287.87 92.8504 287.41C93.0506 286.904 92.7631 286.531 92.4395 286.193C91.9209 285.764 91.4484 285.288 91.0273 284.761C90.7654 284.322 90.8938 284.051 91.3816 283.969C92.7682 283.713 95.1356 285.124 95.5567 286.454C95.6645 286.843 95.7005 287.236 95.6697 287.635C95.6337 288.039 95.531 288.417 95.3564 288.781C95.1818 289.149 94.9507 289.466 94.6631 289.747C94.3704 290.028 94.0366 290.248 93.6669 290.407C92.8966 290.759 92.0903 290.954 91.243 290.984C90.3957 291.015 89.574 290.882 88.7831 290.58C86.8471 289.962 85.6865 288.934 84.3359 286.771ZM53.7702 257.011C53.7804 256.679 53.8575 256.357 53.9961 256.05C54.1297 255.743 54.3197 255.472 54.561 255.237C54.8024 255.002 55.0797 254.823 55.393 254.69C55.7011 254.562 56.0246 254.496 56.3635 254.491C56.646 254.496 56.9233 254.557 57.1801 254.675C57.442 254.792 57.6731 254.951 57.8682 255.16C58.0634 255.365 58.2123 255.6 58.315 255.866C58.4177 256.132 58.4639 256.408 58.4588 256.689C58.4434 257.027 58.3663 257.349 58.2277 257.651C58.089 257.957 57.899 258.228 57.6577 258.464C57.4163 258.699 57.139 258.878 56.8309 259.011C56.5176 259.139 56.1941 259.205 55.8551 259.215C55.5676 259.21 55.2954 259.149 55.0335 259.036C54.7716 258.919 54.5405 258.76 54.3453 258.55C54.1502 258.346 54.0013 258.106 53.8986 257.84C53.801 257.574 53.7548 257.298 53.7702 257.011ZM49.0456 247.286C49.0251 247.623 48.9429 247.94 48.794 248.247C48.6451 248.549 48.4499 248.815 48.1983 249.04C47.9467 249.27 47.6642 249.439 47.3458 249.556C47.0274 249.674 46.6988 249.725 46.3598 249.715C46.0723 249.72 45.7949 249.658 45.533 249.546C45.2711 249.428 45.04 249.265 44.8449 249.055C44.6549 248.84 44.5111 248.6 44.4187 248.329C44.3314 248.053 44.3006 247.777 44.3262 247.49C44.3468 247.163 44.4238 246.851 44.5676 246.555C44.7062 246.263 44.8963 246.002 45.1376 245.777C45.379 245.558 45.6512 245.389 45.9593 245.271C46.2623 245.154 46.5807 245.097 46.9093 245.102C47.202 245.097 47.4845 245.148 47.7567 245.266C48.0288 245.379 48.2651 245.537 48.4705 245.752C48.6708 245.961 48.8248 246.207 48.9224 246.483C49.0251 246.759 49.0662 247.04 49.0456 247.332V247.286ZM72.504 231.082C72.2267 230.995 72.047 231.204 71.8313 231.307C69.4125 232.519 66.8756 233.367 64.2155 233.863C61.2473 234.472 58.2482 234.886 55.3108 235.633C51.372 236.527 47.7361 238.107 44.4084 240.383C42.9962 241.329 41.7996 242.495 40.8136 243.875C39.8071 245.368 39.8225 245.506 40.9369 246.867C43.2478 249.643 43.2119 253.928 40.8547 256.306C38.4103 258.801 34.6409 258.131 33.126 254.731C32.8795 254.179 32.8179 253.606 32.9462 253.013C33.0079 252.706 33.1619 252.445 33.5163 252.445C33.8706 252.445 33.9117 252.696 33.9836 252.946C34.2095 253.647 34.6152 254.225 35.2058 254.669C36.8697 256.045 38.78 255.513 39.4784 253.458C39.6222 253.003 39.6941 252.542 39.6993 252.067C39.7095 251.591 39.6428 251.131 39.5093 250.676C39.3809 250.221 39.1806 249.791 38.9238 249.398C38.6619 248.999 38.3538 248.646 37.9892 248.344C37.6194 248.043 37.2137 247.807 36.767 247.639C36.3202 247.47 35.858 247.373 35.3804 247.352C34.9028 247.337 34.4355 247.393 33.9785 247.526C33.5163 247.659 33.0952 247.859 32.6997 248.13C31.5494 248.902 30.6918 249.914 30.1167 251.172C29.4028 252.645 29.0331 254.204 29.0177 255.84C29.0023 257.477 29.3361 259.041 30.0191 260.534C30.6097 261.951 31.5956 262.999 32.9771 263.684C33.506 263.986 34.0709 264.098 34.6769 264.022C36.0583 263.853 37.2548 263.296 38.2768 262.355C38.6106 262.084 38.8417 261.746 38.9649 261.332C39.576 258.397 41.4093 256.239 43.5662 254.296C45.4509 252.619 47.4896 251.141 49.6722 249.863C52.738 248.027 55.7011 246.038 58.5563 243.891C58.8234 243.691 59.1058 243.512 59.3985 243.343C59.491 243.282 59.5886 243.262 59.6964 243.282C59.8042 243.303 59.8864 243.364 59.948 243.456C60.1021 243.64 60.3691 243.788 60.2099 244.059C60.097 244.274 59.9634 244.479 59.8196 244.668C57.2109 248.022 54.977 251.612 52.7174 255.196C51.4284 257.272 49.9135 259.174 48.1726 260.892C46.5498 262.616 44.5881 263.776 42.2926 264.38C41.7945 264.508 41.3734 264.763 41.0345 265.152C40.3258 265.99 39.8379 266.941 39.576 268.005C39.4168 268.491 39.3706 268.987 39.4425 269.488C39.5195 269.994 39.6993 270.454 39.992 270.874C40.7623 272.142 41.8407 273.037 43.2273 273.563C44.6241 274.141 46.0774 274.427 47.5923 274.422C49.1021 274.412 50.5554 274.115 51.9471 273.527C53.231 273.006 54.2889 272.193 55.1208 271.094C55.6395 270.475 55.963 269.769 56.0965 268.977C56.23 268.184 56.1479 267.412 55.8603 266.66C55.5727 265.909 55.1156 265.285 54.484 264.784C53.8523 264.277 53.1385 263.971 52.3374 263.853C51.1563 263.577 50.0778 263.797 49.097 264.508C48.8351 264.676 48.6194 264.891 48.4448 265.147C48.2702 265.397 48.1521 265.678 48.0905 265.98C48.0288 266.282 48.0288 266.584 48.0853 266.89C48.1469 267.192 48.2651 267.468 48.4345 267.724C48.907 268.568 49.5951 269.156 50.4989 269.488C50.7763 269.585 51.1409 269.595 51.0792 269.999C51.0433 270.173 50.956 270.311 50.8122 270.419C50.6735 270.521 50.5195 270.572 50.3398 270.567C50.0881 270.587 49.8365 270.587 49.5849 270.567C48.9789 270.454 48.4191 270.234 47.9004 269.907C47.3818 269.58 46.9453 269.166 46.5858 268.67C46.2315 268.169 45.9798 267.622 45.836 267.028C45.6922 266.43 45.6666 265.832 45.7539 265.229C45.949 264.277 46.3701 263.449 47.0326 262.743C47.6899 262.033 48.4859 261.547 49.4205 261.281C50.0676 261.051 50.7352 260.913 51.4233 260.867C52.1063 260.821 52.7893 260.867 53.4621 261.01C54.1348 261.153 54.7716 261.388 55.3776 261.711C55.9887 262.033 56.5381 262.432 57.0363 262.907C57.8271 263.618 57.8579 263.638 58.7772 263.183C60.1688 262.442 61.3449 261.45 62.3052 260.197C64.4209 257.548 65.9872 254.608 67.0092 251.376C68.0106 248.176 68.7655 244.913 69.2739 241.6C69.885 238.077 70.7015 234.625 72.4527 231.455C72.5502 231.353 72.5656 231.235 72.504 231.112V231.082ZM26.9789 282.598H28.3039C39.5709 282.552 50.8379 282.823 62.11 282.941C63.2039 282.941 64.2977 282.977 65.3864 283.048C66.1926 283.079 66.9784 282.982 67.7538 282.762C69.4331 282.327 70.6039 281.397 70.9685 279.617C71.4923 277.061 73.4489 276.514 75.4055 276.78C76.8177 276.923 78.0708 277.444 79.1697 278.344C81.0031 279.919 80.8747 282.179 78.913 283.575C77.3929 284.552 75.7342 285.063 73.9265 285.114C71.5283 285.309 69.1301 285.293 66.737 285.068C59.0904 284.398 51.4695 284.68 43.7973 284.777C36.2688 284.869 28.7352 284.853 21.2017 284.889C20.7395 284.889 20.2773 284.92 19.8202 284.966C19.6302 284.986 19.4454 284.966 19.2605 284.905C19.0807 284.843 18.9215 284.746 18.7778 284.618C18.6391 284.485 18.5364 284.332 18.4645 284.153C18.3926 283.979 18.3567 283.795 18.3669 283.601C18.5569 280.676 18.4183 277.746 18.4542 274.816C18.5569 266.067 18.5518 257.318 18.7829 248.569C18.901 243.993 18.3515 239.447 18.1718 234.896C17.9972 232.421 18.1256 229.962 18.5723 227.518C18.788 226.388 19.2553 225.375 19.9743 224.475C21.3198 222.87 23.3893 222.737 24.8221 224.25C25.5616 224.997 26.0957 225.871 26.4141 226.868C26.7376 227.865 26.8197 228.883 26.6554 229.921C26.5065 230.555 26.2035 231.107 25.7516 231.583C25.2997 232.058 24.7553 232.386 24.1288 232.565C21.6844 232.917 20.5803 234.595 20.4057 237.647C20.3235 239.064 20.4365 240.49 20.4673 241.901C20.6727 252.957 20.8216 264.012 20.8576 275.067C20.8576 275.522 20.8576 275.972 20.8576 276.534C21.3506 276.33 21.4687 275.931 21.6484 275.655C23.1993 273.246 25.2124 271.329 27.6979 269.897C29.2334 268.936 30.9126 268.465 32.7254 268.481C34.3328 268.547 34.9182 269.089 34.9953 270.705C35.0312 271.85 34.8309 272.95 34.3842 274.008C33.09 277.286 30.7791 279.709 27.8982 281.663C27.5952 281.878 27.2922 282.103 26.9944 282.317C26.9481 282.363 26.9738 282.425 26.9789 282.598ZM36.7464 266.849C36.0275 266.916 35.3085 266.941 34.5896 266.936C33.393 266.855 32.2735 266.532 31.2259 265.96C30.1783 265.387 29.3001 264.62 28.5915 263.659C27.3281 262.028 26.563 260.192 26.3062 258.152C25.7978 254.68 26.2703 251.376 28.2525 248.421C29.6545 246.335 31.4929 244.775 34.0606 244.341C34.7179 244.233 35.5191 244.392 36.0121 244.059C36.4999 243.732 36.5051 242.96 36.7978 242.418C37.3986 241.4 38.1432 240.495 39.0265 239.708C42.3799 236.527 46.2982 234.334 50.7711 233.137C55.9733 231.578 61.2678 230.422 66.6446 229.67C69.7823 229.205 72.6324 228.039 75.195 226.173C76.9307 225.002 78.6151 223.739 80.3355 222.558C80.7206 222.287 81.1879 221.719 81.6296 222.179C82.0763 222.64 81.4601 223.013 81.2187 223.396C80.3046 224.7 79.3854 226.019 78.4405 227.282C75.729 230.78 74.1422 234.727 73.68 239.125C73.1049 244.346 71.6105 249.377 70.0698 254.368C68.8579 258.239 66.8192 261.624 63.9639 264.518C62.793 265.73 61.5605 266.87 59.8607 267.315C59.7118 267.335 59.5937 267.402 59.5013 267.519C59.4088 267.637 59.3677 267.77 59.3831 267.923C59.3061 272.658 56.3327 275.169 52.2963 276.636C50.5965 277.255 48.8402 277.521 47.0274 277.429C45.2146 277.337 43.4943 276.897 41.8664 276.11C39.0779 274.821 37.2137 272.725 36.6488 269.621C36.4999 268.69 36.5205 267.76 36.7259 266.839L36.7464 266.849ZM25.4332 217.925L26.5835 218.263C32.5251 220.006 37.1932 226.019 37.3832 232.176C37.4551 234.549 36.9467 236.768 35.3393 238.593C35.0466 238.977 34.7077 239.299 34.3174 239.575C33.9271 239.846 33.5009 240.056 33.0438 240.194C32.5868 240.337 32.1194 240.408 31.6419 240.403C31.1643 240.398 30.7021 240.327 30.245 240.178C29.1461 239.851 28.309 239.191 27.7236 238.215C27.4206 237.744 27.2665 237.228 27.2665 236.671C27.2665 236.333 27.3025 235.939 27.6465 235.796C27.9855 235.658 28.119 236.047 28.3244 236.236C28.499 236.415 28.6839 236.589 28.879 236.747C30.738 238.169 32.6227 237.739 33.6601 235.653C34.1736 234.569 34.3944 233.429 34.3174 232.237C34.1479 227.073 29.9626 222.041 24.8786 220.998C23.5023 220.681 22.126 220.686 20.7497 221.003C19.3735 221.325 18.141 221.934 17.0471 222.824C14.767 224.649 13.9967 227.139 14.1919 229.987C14.4127 232.278 14.8389 234.538 15.4757 236.752C15.8968 238.378 16.4566 239.958 16.739 241.615C16.8674 242.04 16.8674 242.459 16.739 242.878C16.2717 242.709 16.1279 242.27 15.943 241.953C13.9967 238.041 12.1891 234.047 11.7064 229.676C11.578 228.765 11.5728 227.86 11.6961 226.95C11.8193 226.04 12.0607 225.166 12.4202 224.322C12.7848 223.478 13.2572 222.701 13.8324 221.985C14.4076 221.269 15.0752 220.645 15.8198 220.114C16.1074 219.889 16.4822 219.751 16.7031 219.377L15.8455 218.845C15.2395 218.462 14.7003 217.997 14.233 217.455C13.7605 216.913 13.3805 216.314 13.0878 215.665C12.7899 215.01 12.5948 214.33 12.4972 213.62C12.4048 212.909 12.4099 212.203 12.5229 211.498C12.6769 210.255 13.2675 209.284 14.31 208.578C14.6643 208.327 15.0597 208.164 15.4911 208.087C15.9225 208.005 16.3539 208.021 16.775 208.133C17.2012 208.24 17.5812 208.435 17.9202 208.711C18.2591 208.987 18.5261 209.319 18.7161 209.713C19.1835 210.485 19.4248 211.324 19.4351 212.224C19.4351 212.802 19.1116 212.96 18.6134 212.658C18.1512 212.3 17.7301 211.891 17.3604 211.441C16.9958 211.094 16.626 210.674 16.0611 210.833C15.4911 210.991 15.3268 211.595 15.2498 212.142C15.2087 212.474 15.2087 212.807 15.2446 213.144C15.2806 213.476 15.3576 213.799 15.4706 214.116C15.5887 214.433 15.7376 214.734 15.9174 215.016C16.1022 215.297 16.3179 215.552 16.5644 215.788C16.8058 216.018 17.0728 216.217 17.3655 216.391C17.6582 216.56 17.9612 216.693 18.2848 216.795C18.6083 216.892 18.937 216.954 19.2759 216.974C19.6097 217 19.9486 216.979 20.2773 216.923C21.1246 216.795 21.9001 216.488 22.5985 216.002C25.8183 213.686 27.5746 210.613 27.4257 206.594C27.4052 205.52 27.0971 204.533 26.4962 203.638C25.8389 202.698 24.971 202.043 23.7437 202.207C23.1788 202.263 22.6858 202.483 22.2698 202.866C21.8538 203.25 21.5971 203.72 21.4995 204.278C21.4584 204.395 21.4019 204.508 21.33 204.605C20.9962 204.426 20.7703 204.16 20.6573 203.802C20.5392 203.444 20.5597 203.091 20.7189 202.754C20.986 201.951 21.4533 201.297 22.1209 200.775C22.7833 200.259 23.5382 199.967 24.3856 199.901C25.3099 199.839 26.183 200.023 27.0098 200.453C27.8314 200.877 28.4887 201.486 28.9715 202.278C30.2091 204.124 30.6867 206.154 30.394 208.358C30.2348 209.979 29.7931 211.523 29.0793 212.986C28.3604 214.453 27.4103 215.747 26.2292 216.872C25.9673 217.133 25.7105 217.404 25.4435 217.68C25.3921 217.746 25.4075 217.807 25.4075 217.91L25.4332 217.925ZM139.151 259.225C140.563 258.213 142.201 257.937 143.911 257.814C148.698 257.477 153.396 257.968 158.013 259.282L158.249 259.358C158.783 259.548 159.323 259.762 159.256 260.453C159.189 261.148 158.645 261.261 158.039 261.337C156.74 261.496 155.44 261.511 154.146 261.7C149.987 262.304 146.227 263.868 142.869 266.389C139.68 268.746 137.03 271.661 134.144 274.555C134.74 274.586 135.31 274.468 135.844 274.202C141.914 272.408 147.958 272.264 153.982 274.305C155.805 274.888 157.469 275.762 158.984 276.928C160.802 278.334 162.024 280.144 162.645 282.353C164.027 287.221 159.882 292.447 154.156 291.828C153.001 291.726 151.943 291.353 150.983 290.703C150.531 290.422 150.146 290.069 149.832 289.634C149.519 289.205 149.303 288.729 149.175 288.213C149.052 287.696 149.026 287.175 149.108 286.648C149.191 286.122 149.365 285.631 149.637 285.176C150.13 284.276 150.782 283.524 151.604 282.91C152.431 282.302 153.345 281.888 154.346 281.678C154.824 281.545 155.302 281.52 155.789 281.617C156.272 281.709 156.709 281.908 157.094 282.215C157.484 282.491 157.741 282.854 157.869 283.309C157.998 283.769 157.967 284.214 157.772 284.649C157.345 285.421 156.555 285.595 155.445 285.171C155.142 285.053 154.829 284.992 154.501 284.981C154.177 284.971 153.859 285.017 153.545 285.114C153.232 285.211 152.95 285.355 152.688 285.549C152.426 285.743 152.205 285.978 152.02 286.244C151.358 287.16 151.517 288.008 152.523 288.556C153.186 288.908 153.895 289.092 154.649 289.113C155.399 289.128 156.118 288.975 156.796 288.653C157.376 288.428 157.895 288.095 158.347 287.666C158.804 287.236 159.158 286.74 159.415 286.173C159.672 285.605 159.816 285.007 159.836 284.388C159.862 283.764 159.769 283.161 159.559 282.573C158.866 280.681 157.633 279.249 155.856 278.283C153.14 276.749 150.228 275.869 147.116 275.639C140.738 275.031 134.868 276.616 129.358 279.766C127.15 281.064 125.039 282.517 123.036 284.112C121.002 285.641 118.989 287.226 116.879 288.678C114.239 290.529 111.369 291.889 108.262 292.759C108.005 292.825 107.65 292.8 107.486 293.204L112.801 293.413L118.979 293.659C119.21 293.659 119.539 293.659 119.508 294.006C119.508 294.247 119.215 294.267 119.01 294.277C117.788 294.334 116.566 294.39 115.343 294.431C101.18 294.881 87.0063 295.07 72.8327 295.198C52.8612 295.382 32.8846 295.545 12.908 295.684C11.9015 295.684 10.8898 295.684 9.85762 295.684C8.3889 295.622 7.73671 294.947 7.69562 293.469C7.66481 292.467 7.69562 291.465 7.69562 290.432C7.74184 266.19 8.01915 241.937 8.30673 217.7C8.39404 209.534 8.59945 201.373 8.76892 193.207C8.82541 190.569 8.93838 187.935 9.02569 185.302C9.02569 185.051 9.05136 184.806 9.10272 184.561C9.14893 184.433 9.2311 184.351 9.35948 184.315C9.44679 184.305 9.52895 184.325 9.59571 184.382C9.66247 184.443 9.69842 184.515 9.69842 184.602C9.7395 184.929 9.74464 185.271 9.76004 185.599L10.0887 195.524C10.0887 195.764 10.0887 196.014 10.1298 196.27C10.5817 196.27 10.479 195.948 10.5252 195.754C11.4444 192.502 12.8926 189.495 14.8646 186.744C16.4001 184.535 18.0691 182.439 19.7483 180.327C22.3982 177.09 24.4986 173.531 26.0494 169.65C28.3244 163.662 28.6993 157.588 26.6914 151.447C26.224 149.954 25.5308 148.573 24.6167 147.305C23.5639 145.781 22.1414 144.789 20.3389 144.334C19.9024 144.206 19.4505 144.15 18.9934 144.165C18.5364 144.176 18.0896 144.257 17.6582 144.4C17.2269 144.549 16.8212 144.758 16.4566 145.029C16.0868 145.295 15.7633 145.612 15.4911 145.98C15.1779 146.338 14.916 146.732 14.7157 147.162C14.5154 147.596 14.3819 148.046 14.3151 148.517C14.2484 148.987 14.2484 149.463 14.3203 149.933C14.3921 150.404 14.5308 150.854 14.7362 151.283C15.2857 152.531 16.3641 152.699 17.3707 151.779C17.8585 151.385 18.1718 150.884 18.3156 150.281C18.4645 149.672 18.408 149.084 18.1564 148.517C17.7661 147.484 17.9356 146.691 18.6288 146.272C19.0345 146.047 19.4608 145.98 19.9127 146.073C20.3646 146.159 20.7343 146.384 21.0168 146.748C21.6895 147.428 21.9463 148.235 21.7819 149.176C21.633 150.347 21.2068 151.406 20.5032 152.357C19.7946 153.303 18.9061 154.019 17.8226 154.504C15.7325 155.486 13.5499 154.658 12.3637 152.546C11.9477 151.764 11.6755 150.93 11.542 150.056C11.4136 149.176 11.429 148.307 11.5985 147.433C11.7628 146.563 12.071 145.745 12.5126 144.978C12.9594 144.206 13.5243 143.536 14.197 142.959C14.6951 142.514 15.2446 142.151 15.8455 141.854C16.4412 141.563 17.0728 141.358 17.725 141.235C18.3823 141.118 19.0448 141.087 19.7073 141.148C20.3749 141.21 21.0168 141.358 21.6433 141.598C22.9066 142.043 24.0466 142.698 25.0634 143.567C26.0854 144.436 26.9122 145.454 27.549 146.63C29.1872 149.565 30.1475 152.705 30.4248 156.049C30.8613 160.415 30.3683 164.67 28.9407 168.817C28.8585 169.047 28.7969 169.287 28.7147 169.589C29.1101 169.589 29.2539 169.343 29.4388 169.159C31.3646 167.288 33.3109 165.437 35.1134 163.437C36.7926 161.653 38.1843 159.669 39.2884 157.491C40.3977 155.307 41.1731 153.016 41.6199 150.613C41.8458 149.376 41.9845 148.128 42.0307 146.875C42.0513 146.456 42.0975 146.042 42.1694 145.628C42.1848 145.408 42.2669 145.219 42.421 145.06C42.5699 144.896 42.7548 144.799 42.9705 144.769C43.52 144.702 43.8127 145.06 44.0027 145.52C44.1003 145.75 44.1824 145.991 44.2441 146.236C45.6049 151.043 46.0466 155.931 45.5536 160.901C45.4457 162.348 44.9887 163.673 44.1824 164.879C45.2968 165.309 46.3496 165.856 47.3458 166.521C48.4602 167.226 49.3948 168.116 50.1446 169.2C50.5246 169.717 50.7557 170.294 50.8482 170.928C50.9509 171.915 50.463 172.468 49.4821 172.437C49.0662 172.401 48.6605 172.324 48.2599 172.207C46.9607 171.869 45.646 171.598 44.3211 171.353C40.8599 170.821 37.5321 171.261 34.3328 172.677C28.9407 174.83 24.4369 178.164 20.8114 182.679C19.4556 184.387 18.1102 186.105 16.7801 187.833C13.7194 191.914 11.8861 196.485 11.2852 201.542C10.6793 205.776 10.4122 210.035 10.4841 214.31C10.8898 239.81 11.1569 265.31 11.2801 290.816C11.2801 292.176 11.1877 292.12 12.7077 292.135C28.6839 292.252 44.6652 292.38 60.6516 292.503C70.9891 292.605 81.3317 292.815 91.6744 292.927C96.2808 292.958 100.826 292.488 105.324 291.516C109.037 290.729 112.421 289.22 115.487 286.991C117.906 285.309 120.217 283.498 122.43 281.56C127.386 277.061 130.98 271.687 132.444 265.065C133.096 262.13 132.696 259.236 131.982 256.362C131.823 255.718 131.617 255.073 131.499 254.419C131.258 253.135 131.925 252.481 133.22 252.726C134.185 252.957 135.017 253.427 135.705 254.143C136.927 255.324 137.893 256.684 138.601 258.223C138.725 258.591 138.904 258.924 139.151 259.225ZM22.3109 22.7748C22.5882 24.7434 22.6909 26.7172 22.619 28.7063C22.5266 44.9922 23.1377 61.2679 23.3739 77.5539C23.5537 89.4373 23.7591 101.326 23.6564 113.214C23.7077 117.54 23.2969 121.825 22.4341 126.069C21.9976 128.15 21.2684 130.124 20.2465 131.996C19.2245 133.862 17.951 135.544 16.4309 137.042C14.9108 138.546 13.3805 140.013 11.9374 141.619C10.2222 143.49 9.12326 145.674 8.64567 148.164C8.31187 149.749 8.34268 151.329 8.7381 152.899C9.13353 154.474 9.85248 155.88 10.9001 157.117C11.5266 157.93 12.2969 158.57 13.211 159.035C14.1251 159.5 15.0957 159.746 16.1228 159.776C16.8725 159.827 17.612 159.735 18.331 159.51C19.0499 159.285 19.7073 158.938 20.2978 158.467C20.8833 157.997 21.3711 157.434 21.746 156.785C22.126 156.136 22.3725 155.435 22.4906 154.694C22.5574 154.32 22.5831 153.947 22.6498 153.574C22.7166 153.206 22.5009 152.822 22.9579 152.73C23.3123 152.659 23.5691 152.965 23.8053 153.211C24.4986 154.044 24.8734 155 24.9197 156.084C25.0121 157.179 24.9453 158.263 24.7091 159.331C24.4677 160.405 24.0775 161.418 23.5331 162.369C22.9888 163.325 22.316 164.174 21.5098 164.925C20.7035 165.672 19.8048 166.286 18.8137 166.761C17.7507 167.242 17.7507 167.242 17.8431 168.351C17.8996 168.919 17.8996 169.486 17.8483 170.054C17.7918 170.627 17.6891 171.184 17.5299 171.731C17.3707 172.283 17.1652 172.81 16.9085 173.321C16.6466 173.833 16.3436 174.313 15.9944 174.769C15.6452 175.219 15.26 175.638 14.8287 176.016C14.4024 176.4 13.9454 176.737 13.4524 177.034C12.9594 177.325 12.4458 177.571 11.9066 177.77C11.3726 177.969 10.8179 178.118 10.253 178.21C9.17461 178.384 8.10645 178.338 7.04343 178.077C5.98555 177.816 5.0201 177.356 4.14708 176.707C2.11861 175.188 0.608811 173.265 -0.372045 170.934C-0.592866 170.468 -0.752062 169.972 -0.300149 169.543C0.151763 169.108 0.634488 169.333 1.10694 169.543C1.89779 169.906 2.72972 170.095 3.60787 170.11C4.48088 170.126 5.31795 169.967 6.1242 169.635C8.26052 168.812 8.9846 167.068 8.08591 164.987C7.87023 164.445 7.61346 163.918 7.31047 163.417C5.3693 160.456 4.86603 157.133 4.76333 153.691C4.71711 150.393 5.58499 147.356 7.36183 144.574C9.34921 141.445 11.7063 138.628 14.4435 136.122C15.9738 134.665 17.2423 133.008 18.2437 131.152C19.2451 129.291 19.9332 127.322 20.303 125.246C20.7241 122.981 20.9911 120.695 21.1092 118.394C21.5509 110.571 21.2581 102.742 21.176 94.9137C21.0373 81.2662 20.8268 67.6238 20.6419 53.9712C20.5341 46.4802 20.7908 38.9892 21.1708 31.5084C21.2427 28.8699 21.479 26.2467 21.8744 23.6389C21.9206 23.3577 21.8692 23.0356 22.3109 22.7748ZM7.61859 2.526C7.9832 3.84524 8.16808 5.19005 8.18349 6.5553C8.66107 13.2742 9.10272 19.9983 9.50841 26.7274C9.80626 31.4879 10.0476 36.2535 10.3147 41.014C10.8231 49.9573 11.2596 58.9056 11.6242 67.859C12.0196 77.4874 12.2045 87.1107 12.1172 96.7442C12.0504 104.189 12.3791 111.644 12.2148 119.095C12.1685 120.987 11.9374 122.853 11.732 124.724C11.7218 124.99 11.6242 125.215 11.4239 125.399C11.0747 125.22 11.085 124.868 11.0079 124.561C10.0887 120.716 9.8987 116.783 9.48787 112.867C8.13213 100.027 8.23997 87.1158 7.94212 74.2354C7.56724 57.8165 7.05884 41.3975 6.84315 25.0144C6.76099 18.6023 6.7045 12.2004 6.98694 5.79853C6.95613 4.66337 7.16668 3.57423 7.61859 2.526Z" fill="#FFC764"/>
</g>
</g>
</g>
</svg>
