<svg width="305" height="305" viewBox="0 0 305 305" fill="none" xmlns="http://www.w3.org/2000/svg">
<g opacity="0.6">
<mask id="mask0_189_674" style="mask-type:luminance" maskUnits="userSpaceOnUse" x="0" y="0" width="305" height="305">
<path d="M305 0H0V305H305V0Z" fill="white"/>
</mask>
<g mask="url(#mask0_189_674)">
<mask id="mask1_189_674" style="mask-type:luminance" maskUnits="userSpaceOnUse" x="1" y="1" width="303" height="303">
<path d="M1.05273 1.05273H303.752V303.752H1.05273V1.05273Z" fill="white"/>
</mask>
<g mask="url(#mask1_189_674)">
<path d="M124.348 12.9411C123.706 13.5522 122.946 13.5111 122.232 13.5984C120.517 13.8039 118.797 13.9066 117.066 13.9066C106.215 13.8706 95.3588 13.9066 84.5077 13.8244C76.4298 13.7525 68.3621 13.4392 60.2893 13.0746C53.6544 12.7768 47.0195 12.443 40.3846 12.0732C31.8291 11.6059 23.2736 11.1027 14.718 10.5583C10.5789 10.2759 6.46035 10.0807 2.36746 9.61339C1.92582 9.56204 1.43282 9.66475 1.08362 9.18202C2.11583 8.66335 3.24047 8.74038 4.3035 8.67876C6.40386 8.56064 8.50423 8.54524 10.6149 8.52983C22.0154 8.43739 33.4108 8.64281 44.8319 8.92525C59.6731 9.30014 74.5143 9.7161 89.3607 9.92152C98.1165 10.0448 106.847 10.6713 115.551 11.5443C118.108 11.7446 120.645 12.104 123.157 12.6227C123.542 12.7203 123.947 12.8333 124.348 12.9411ZM21.0191 23.8538C22.113 23.4994 23.2273 23.294 24.3725 23.2427C29.9958 22.7805 35.6241 22.5802 41.2628 22.4056C50.6862 22.1334 60.1096 22.498 69.5279 22.5905C84.5488 22.7291 99.5646 23.1143 114.586 22.9089C118.514 22.9294 122.386 22.457 126.197 21.4915C129.144 20.7212 131.733 19.2936 133.961 17.2137C135.276 15.9915 136.575 14.7128 137.828 13.4084C140.201 10.964 143.159 9.33095 146.091 7.68249C147.267 7.06625 148.515 6.71191 149.835 6.61434C152.757 6.29081 155.638 6.49622 158.483 7.22545C159.756 7.54898 160.948 8.05224 162.067 8.74038C162.822 9.20257 163.608 9.59799 164.435 9.91638C164.81 10.1013 165.2 10.204 165.616 10.2296C166.037 10.2502 166.437 10.1937 166.828 10.0499C167.223 9.90611 167.567 9.69556 167.875 9.40798C168.178 9.12553 168.415 8.79173 168.584 8.40658C169.01 7.62087 169.257 6.77867 169.318 5.87998C169.385 4.98642 169.257 4.11855 168.944 3.27635C168.856 3.03498 168.748 2.80903 168.635 2.57794C168.517 2.3982 168.471 2.19792 168.492 1.9771C168.517 1.76141 168.599 1.57654 168.754 1.41734C168.892 1.27869 169.056 1.18625 169.252 1.15544C169.447 1.11949 169.632 1.14517 169.811 1.23247C173.237 2.73713 176.148 4.82209 177.247 8.61713C178.542 13.0849 175.702 17.8197 171.013 19.2217C169.832 19.5966 168.625 19.689 167.398 19.499C166.627 19.3757 166.309 19.653 166.006 20.3412C165.544 21.3529 164.943 22.2721 164.198 23.0989C163.454 23.9257 162.601 24.6189 161.641 25.1787C160.681 25.7436 159.654 26.1442 158.57 26.3855C157.486 26.632 156.388 26.7039 155.278 26.6063C154.477 26.5344 153.712 26.3239 152.988 25.9644C152.521 25.7333 152.156 25.3944 151.894 24.9425C151.797 24.8346 151.776 24.7165 151.832 24.583C151.889 24.4546 151.992 24.3827 152.135 24.3827C152.5 24.3057 152.885 24.3006 153.26 24.2646C153.758 24.2287 154.246 24.1311 154.724 23.9719C155.201 23.8127 155.653 23.6021 156.079 23.3351C156.506 23.0681 156.896 22.7548 157.245 22.3953C157.594 22.0307 157.892 21.6353 158.149 21.1988C158.401 20.7674 158.596 20.3052 158.74 19.8225C158.878 19.3449 158.96 18.8519 158.981 18.3487C159.007 17.8454 158.965 17.3473 158.868 16.8543C158.765 16.3613 158.611 15.8888 158.395 15.4369C157.137 12.5868 154.729 11.1078 151.827 10.4196C148.438 9.61339 145.326 10.4607 142.445 12.2889C141.418 12.9462 140.478 13.7011 139.615 14.5536C138.563 15.5858 137.495 16.6026 136.483 17.6759C132.821 21.5685 128.235 23.6638 123.044 24.4957C119.207 25.0709 115.351 25.3482 111.474 25.3225C99.2565 25.3687 86.9933 25.2249 74.7557 24.9938C62.0662 24.773 49.3972 24.5522 36.7334 24.3314C32.661 24.2646 28.5733 24.3314 24.5163 24.2646C23.3249 24.3468 22.1592 24.2081 21.0191 23.8538ZM218.782 18.3076C219.096 18.2408 219.183 18.0251 219.296 17.8608C222.002 14.0401 225.73 12.7871 230.234 13.4906C233.208 13.9631 235.965 15.1339 238.728 16.274C239.796 16.6745 240.813 17.1727 241.784 17.7684C242.015 17.9276 242.313 18.02 242.467 18.4668C241.845 18.5079 241.234 18.4514 240.633 18.3024C238.055 17.6913 235.539 16.8594 232.935 16.3459C231.657 16.0788 230.368 15.9145 229.063 15.858C224.657 15.6988 221.376 18.2665 220.446 22.5802C219.743 25.8668 220.652 28.7529 222.731 31.2898C223.8 32.625 225.083 33.6932 226.583 34.5045C228.082 35.3211 229.685 35.8089 231.385 35.9733C232.715 36.1376 233.983 35.9219 235.185 35.3313C237.198 34.3299 237.629 32.589 236.361 30.7403C236.166 30.4681 235.95 30.2114 235.714 29.97C235.524 29.7646 235.159 29.6362 235.349 29.2665C235.539 28.9018 235.842 28.9943 236.135 28.9686C236.884 28.9481 237.547 29.174 238.122 29.6465C238.615 30.0214 239.016 30.4784 239.324 31.0125C239.632 31.5466 239.822 32.1217 239.899 32.738C239.976 33.3491 239.935 33.9551 239.765 34.5456C239.601 35.1413 239.324 35.6805 238.944 36.1684C238.096 37.2109 237.039 37.9504 235.77 38.3869C233.398 39.2958 231.004 39.3575 228.591 38.5615C223.045 36.8411 219.137 33.3953 217.514 27.6488C217.457 27.4588 217.385 27.2688 217.319 27.0737C216.81 27.1661 216.631 27.5923 216.338 27.8748C213.529 30.6017 210.232 32.1885 206.262 32.055C204.804 32.0344 203.438 31.6647 202.164 30.9406C201.445 30.5657 200.839 30.0573 200.346 29.4205C199.853 28.7786 199.514 28.0648 199.33 27.2791C199.222 26.7655 199.206 26.2571 199.288 25.7385C199.371 25.2249 199.54 24.7422 199.797 24.2903C200.059 23.8384 200.393 23.4532 200.798 23.1246C201.199 22.7959 201.651 22.5494 202.144 22.3902C202.472 22.2361 202.811 22.2053 203.16 22.2824C203.515 22.3645 203.802 22.5494 204.028 22.8267C203.874 23.2427 203.525 23.1759 203.263 23.2786C203.068 23.3505 202.888 23.4378 202.714 23.5508C202.539 23.6638 202.385 23.7973 202.241 23.9462C202.103 24.1003 201.979 24.2646 201.877 24.4443C201.779 24.6189 201.697 24.809 201.64 25.0092C201.584 25.2044 201.553 25.4098 201.543 25.6152C201.538 25.8206 201.553 26.026 201.594 26.2263C201.635 26.4266 201.697 26.6217 201.784 26.8118C201.872 26.9966 201.979 27.1712 202.108 27.3304C202.919 28.337 203.967 28.8967 205.251 29.02C206.267 29.1329 207.284 29.1073 208.296 28.9327C209.302 28.7581 210.268 28.4448 211.192 27.9929C212.111 27.541 212.949 26.971 213.703 26.2777C214.463 25.5844 215.105 24.7987 215.639 23.9205C216.184 22.991 216.43 21.9845 216.374 20.9061C216.353 20.6031 216.302 20.3104 216.22 20.0228C216.138 19.7301 216.025 19.4528 215.886 19.1857C215.747 18.9238 215.578 18.6722 215.388 18.4411C215.198 18.21 214.982 18.0046 214.746 17.8146C214.51 17.6297 214.258 17.4705 213.991 17.337C213.719 17.2035 213.442 17.0956 213.149 17.0186C212.856 16.9467 212.563 16.9005 212.26 16.8851C211.963 16.8748 211.665 16.8902 211.367 16.9364C210.853 16.957 210.484 17.1983 210.268 17.6657C210.062 18.1741 210.35 18.5438 210.674 18.8879C211.197 19.3192 211.665 19.7968 212.086 20.3258C212.348 20.7674 212.219 21.0396 211.731 21.1218C210.345 21.3785 207.983 19.9612 207.562 18.626C207.449 18.2357 207.413 17.8403 207.443 17.4346C207.479 17.034 207.582 16.6489 207.757 16.2842C207.931 15.9196 208.162 15.5961 208.455 15.3137C208.743 15.0363 209.076 14.8155 209.446 14.6512C210.217 14.2969 211.028 14.1017 211.875 14.0709C212.723 14.0401 213.544 14.1736 214.335 14.4766C216.271 15.098 217.432 16.1302 218.782 18.3076ZM249.374 48.2108C249.358 48.5498 249.281 48.8682 249.143 49.1763C249.009 49.4844 248.819 49.7566 248.578 49.9928C248.336 50.229 248.059 50.4139 247.746 50.5423C247.438 50.6707 247.114 50.7426 246.775 50.7477C246.488 50.7375 246.215 50.6758 245.954 50.5577C245.697 50.4447 245.466 50.2804 245.271 50.075C245.075 49.8644 244.921 49.6282 244.824 49.3612C244.721 49.0941 244.67 48.822 244.68 48.5344C244.695 48.1954 244.772 47.877 244.911 47.5689C245.05 47.2608 245.24 46.9886 245.481 46.7524C245.722 46.5162 246 46.3313 246.308 46.2029C246.621 46.0745 246.945 46.0026 247.284 45.9975C247.566 46.0026 247.843 46.0643 248.105 46.1772C248.367 46.2954 248.598 46.4546 248.793 46.6651C248.989 46.8705 249.137 47.1119 249.24 47.3789C249.338 47.646 249.384 47.9233 249.374 48.2108ZM254.093 57.9886C254.119 57.6497 254.201 57.3261 254.35 57.0231C254.494 56.715 254.694 56.448 254.946 56.222C255.197 55.9961 255.48 55.8215 255.798 55.7034C256.116 55.5852 256.445 55.5339 256.784 55.5442C257.072 55.539 257.349 55.6007 257.611 55.7136C257.878 55.8317 258.104 55.9961 258.299 56.2066C258.494 56.4223 258.633 56.6637 258.725 56.9358C258.818 57.2132 258.848 57.4905 258.818 57.778C258.797 58.1067 258.72 58.42 258.581 58.7178C258.438 59.0157 258.248 59.2776 258.006 59.4984C257.77 59.7244 257.493 59.8938 257.185 60.0119C256.882 60.13 256.563 60.1865 256.235 60.1814C255.937 60.1865 255.654 60.13 255.387 60.0171C255.115 59.9041 254.874 59.7398 254.673 59.5292C254.468 59.3135 254.319 59.0722 254.216 58.7948C254.119 58.5175 254.078 58.23 254.093 57.9372V57.9886ZM230.624 74.2729C230.902 74.355 231.082 74.1496 231.297 74.0469C233.716 72.8298 236.258 71.9722 238.918 71.4741C241.886 70.863 244.885 70.447 247.828 69.6921C251.767 68.7986 255.403 67.2066 258.741 64.9213C260.148 63.9713 261.349 62.8004 262.33 61.4139C263.342 59.9092 263.327 59.7706 262.207 58.4097C259.901 55.6161 259.937 51.3075 262.294 48.9195C264.739 46.4135 268.508 47.0862 270.023 50.5012C270.275 51.0558 270.336 51.6361 270.208 52.2318C270.146 52.5348 269.987 52.7967 269.633 52.7967C269.278 52.7967 269.242 52.5502 269.171 52.2986C268.945 51.5899 268.534 51.0148 267.948 50.5628C266.279 49.1814 264.364 49.7206 263.671 51.7851C263.527 52.237 263.45 52.7043 263.445 53.1819C263.439 53.6543 263.506 54.1217 263.635 54.5787C263.768 55.0358 263.963 55.4671 264.225 55.8626C264.482 56.2631 264.795 56.6175 265.16 56.9256C265.53 57.2286 265.94 57.4648 266.382 57.6343C266.829 57.8037 267.291 57.8962 267.769 57.9167C268.246 57.9372 268.714 57.8808 269.176 57.7472C269.633 57.6137 270.059 57.4083 270.454 57.1361C271.605 56.3658 272.462 55.3439 273.038 54.0806C273.751 52.6016 274.121 51.0353 274.136 49.3868C274.157 47.7435 273.818 46.1721 273.135 44.6726C272.544 43.2501 271.559 42.1973 270.177 41.5092C269.648 41.2011 269.078 41.0881 268.472 41.1651C267.096 41.3397 265.894 41.8943 264.872 42.8392C264.533 43.1114 264.307 43.4555 264.184 43.8715C263.573 46.8192 261.74 48.9863 259.583 50.9429C257.693 52.6273 255.654 54.1114 253.472 55.3952C250.401 57.2388 247.438 59.2416 244.582 61.3985C244.31 61.5936 244.028 61.7785 243.74 61.948C243.648 62.0096 243.55 62.0301 243.437 62.0096C243.329 61.9839 243.247 61.9274 243.186 61.835C243.037 61.645 242.764 61.5012 242.924 61.2239C243.042 61.0133 243.17 60.8079 243.314 60.6128C245.928 57.2491 248.162 53.6338 250.421 50.039C251.71 47.9489 253.225 46.0386 254.966 44.3131C256.594 42.5825 258.556 41.4116 260.851 40.8056C261.355 40.6773 261.776 40.4205 262.109 40.0302C262.823 39.188 263.306 38.2328 263.573 37.1647C263.732 36.6768 263.778 36.1787 263.701 35.6703C263.63 35.167 263.45 34.6997 263.157 34.2786C262.387 33.0101 261.308 32.1063 259.917 31.5774C258.52 30.9971 257.066 30.7095 255.552 30.7146C254.037 30.7249 252.583 31.0228 251.192 31.6133C249.908 32.1371 248.85 32.9537 248.013 34.0578C247.499 34.6791 247.176 35.3878 247.042 36.1838C246.909 36.9849 246.986 37.7604 247.278 38.5153C247.566 39.2702 248.023 39.8967 248.655 40.4051C249.286 40.9084 250 41.2216 250.801 41.3346C251.982 41.6119 253.066 41.3911 254.047 40.6773C254.304 40.5078 254.524 40.2972 254.699 40.0405C254.874 39.7837 254.992 39.5013 255.053 39.1983C255.115 38.8953 255.115 38.5923 255.053 38.2842C254.997 37.9812 254.879 37.7039 254.704 37.442C254.237 36.5998 253.549 36.0092 252.64 35.6703C252.368 35.5727 251.998 35.5676 252.06 35.1567C252.101 34.9873 252.188 34.8486 252.327 34.7408C252.465 34.6329 252.624 34.5816 252.799 34.5918C253.051 34.5713 253.302 34.5713 253.559 34.5918C254.16 34.6997 254.725 34.9205 255.243 35.2543C255.762 35.583 256.199 35.9989 256.558 36.4971C256.912 37.0003 257.164 37.5498 257.308 38.1455C257.452 38.7464 257.477 39.3472 257.39 39.9532C257.195 40.9084 256.774 41.7403 256.111 42.4541C255.454 43.1679 254.658 43.6558 253.723 43.9228C253.076 44.1539 252.409 44.2926 251.721 44.3388C251.032 44.385 250.355 44.3336 249.682 44.1899C249.009 44.0461 248.367 43.815 247.756 43.4914C247.15 43.1679 246.601 42.7674 246.102 42.2898C245.306 41.5759 245.276 41.5503 244.362 42.0073C242.965 42.7519 241.789 43.7533 240.828 45.0064C238.713 47.6716 237.146 50.6296 236.124 53.8752C235.123 57.095 234.368 60.3663 233.86 63.6991C233.249 67.2374 232.427 70.7089 230.676 73.8928C230.578 73.9956 230.563 74.1137 230.624 74.2421V74.2729ZM276.175 22.498H274.85C263.578 22.5494 252.306 22.2721 241.024 22.154C239.93 22.154 238.836 22.118 237.742 22.0461C236.941 22.0153 236.15 22.1129 235.38 22.3337C233.701 22.7754 232.525 23.71 232.16 25.492C231.636 28.0648 229.68 28.6143 227.723 28.3472C226.306 28.2034 225.053 27.6796 223.954 26.7758C222.12 25.1941 222.249 22.9191 224.21 21.5172C225.73 20.5363 227.394 20.0177 229.202 19.9714C231.6 19.7763 233.998 19.7917 236.391 20.0177C244.043 20.6904 251.669 20.4079 259.352 20.3104C266.885 20.2179 274.419 20.2333 281.958 20.1974C282.42 20.1974 282.882 20.1666 283.339 20.1204C283.529 20.0998 283.714 20.1204 283.899 20.182C284.079 20.2436 284.243 20.3412 284.382 20.4696C284.52 20.6031 284.628 20.7572 284.7 20.9369C284.772 21.1115 284.803 21.2964 284.792 21.4915C284.602 24.4289 284.746 27.3766 284.705 30.3192C284.602 39.111 284.607 47.9027 284.376 56.6996C284.263 61.2906 284.813 65.8611 284.988 70.4316C285.167 72.9223 285.034 75.3975 284.592 77.8522C284.371 78.982 283.904 80.0039 283.185 80.9078C281.84 82.5203 279.77 82.6538 278.332 81.1337C277.593 80.3839 277.064 79.5058 276.74 78.5044C276.417 77.4979 276.34 76.4759 276.499 75.4386C276.653 74.7967 276.951 74.2421 277.408 73.7645C277.86 73.292 278.399 72.9633 279.03 72.7785C281.475 72.4241 282.579 70.7397 282.754 67.6739C282.836 66.2463 282.723 64.8135 282.692 63.3961C282.487 52.2883 282.338 41.1754 282.302 30.0676C282.302 29.6105 282.302 29.1586 282.302 28.5886C281.809 28.7991 281.691 29.1997 281.511 29.477C279.96 31.8958 277.942 33.8215 275.456 35.2646C273.921 36.23 272.242 36.7025 270.429 36.6871C268.821 36.6203 268.236 36.076 268.154 34.4481C268.118 33.2977 268.323 32.1936 268.765 31.1306C270.059 27.8388 272.375 25.3995 275.256 23.4378C275.559 23.2273 275.867 23.0013 276.16 22.7805C276.206 22.7394 276.185 22.6778 276.175 22.498ZM266.403 38.3253C267.122 38.2585 267.841 38.2328 268.565 38.238C269.756 38.3201 270.881 38.6437 271.928 39.2188C272.976 39.7991 273.854 40.5694 274.563 41.5297C275.831 43.1679 276.591 45.0166 276.848 47.0657C277.356 50.5577 276.884 53.8752 274.902 56.8434C273.5 58.9386 271.661 60.5101 269.088 60.9466C268.436 61.0544 267.63 60.8952 267.142 61.2239C266.649 61.5577 266.644 62.3331 266.351 62.8775C265.75 63.8994 265.006 64.8084 264.122 65.5992C260.764 68.7986 256.846 70.9965 252.373 72.2033C247.165 73.7696 241.871 74.9302 236.484 75.6902C233.346 76.1575 230.496 77.3284 227.928 79.2028C226.198 80.3788 224.508 81.6473 222.788 82.8387C222.403 83.1057 221.935 83.6809 221.489 83.2135C221.047 82.7514 221.663 82.3765 221.905 81.9965C222.819 80.6818 223.738 79.3517 224.688 78.0884C227.399 74.5707 228.986 70.6062 229.448 66.1846C230.018 60.9363 231.518 55.8831 233.059 50.871C234.276 46.9784 236.309 43.5787 239.17 40.6721C240.341 39.4499 241.573 38.3047 243.273 37.8579C243.422 37.8374 243.545 37.7706 243.637 37.6525C243.73 37.5344 243.766 37.3958 243.75 37.2468C243.828 32.4863 246.806 29.9649 250.842 28.491C252.547 27.8696 254.304 27.6026 256.116 27.695C257.929 27.7823 259.65 28.224 261.283 29.02C264.071 30.3141 265.935 32.4196 266.5 35.5368C266.654 36.4765 266.629 37.406 266.423 38.3355L266.403 38.3253ZM277.721 87.4913L276.576 87.1524C270.629 85.3961 265.956 79.3569 265.766 73.1688C265.694 70.7859 266.207 68.5572 267.815 66.7187C268.102 66.3387 268.441 66.01 268.837 65.7379C269.227 65.4606 269.648 65.2551 270.105 65.1114C270.562 64.9676 271.03 64.9008 271.507 64.9008C271.985 64.9059 272.452 64.983 272.909 65.1319C274.008 65.4606 274.845 66.1179 275.431 67.1039C275.734 67.5763 275.888 68.095 275.888 68.6548C275.888 68.9937 275.852 69.3891 275.513 69.5278C275.169 69.6716 275.035 69.2761 274.835 69.0913C274.655 68.9064 274.47 68.7369 274.275 68.5777C272.411 67.145 270.531 67.5815 269.494 69.6767C268.975 70.7654 268.76 71.9106 268.832 73.1071C269.006 78.299 273.192 83.3573 278.281 84.3998C279.657 84.7182 281.033 84.7182 282.41 84.3947C283.786 84.0712 285.018 83.4652 286.112 82.5665C288.397 80.7332 289.168 78.2322 288.973 75.3718C288.752 73.066 288.32 70.7962 287.689 68.5675C287.268 66.9396 286.703 65.3476 286.425 63.6837C286.292 63.2575 286.292 62.8364 286.425 62.4153C286.888 62.5796 287.037 63.0264 287.216 63.3448C289.168 67.2733 290.975 71.2892 291.458 75.68C291.586 76.594 291.592 77.5081 291.468 78.4222C291.345 79.3363 291.104 80.2145 290.744 81.0618C290.38 81.9092 289.907 82.6949 289.332 83.4138C288.752 84.1276 288.089 84.7593 287.34 85.2934C287.052 85.5193 286.682 85.6528 286.461 86.0329L287.314 86.5669C287.92 86.9521 288.459 87.4194 288.931 87.9638C289.399 88.5081 289.784 89.1089 290.077 89.7611C290.375 90.4185 290.57 91.1015 290.667 91.8153C290.76 92.5291 290.755 93.2429 290.642 93.9516C290.487 95.1995 289.892 96.1752 288.854 96.8839C288.495 97.1355 288.1 97.2999 287.668 97.3769C287.237 97.4591 286.811 97.4437 286.384 97.3307C285.963 97.2228 285.578 97.0277 285.239 96.7504C284.9 96.4731 284.638 96.1341 284.443 95.7439C283.976 94.9633 283.734 94.1262 283.724 93.2172C283.724 92.6369 284.048 92.4778 284.546 92.7859C285.013 93.1453 285.429 93.551 285.799 94.0081C286.169 94.3573 286.533 94.7784 287.103 94.6192C287.668 94.46 287.838 93.854 287.915 93.3046C287.956 92.9707 287.956 92.6318 287.92 92.298C287.879 91.9642 287.802 91.6356 287.689 91.3172C287.576 90.9988 287.427 90.7009 287.242 90.4133C287.057 90.1309 286.847 89.8741 286.6 89.6379C286.354 89.4068 286.086 89.2065 285.799 89.0319C285.506 88.8624 285.198 88.7289 284.875 88.6262C284.551 88.5287 284.222 88.467 283.883 88.4465C283.55 88.4208 283.216 88.4414 282.882 88.4927C282.035 88.6262 281.259 88.9343 280.556 89.4222C277.336 91.7537 275.579 94.84 275.734 98.8764C275.749 99.96 276.057 100.946 276.658 101.845C277.32 102.795 278.188 103.452 279.416 103.288C279.981 103.231 280.468 103.01 280.884 102.625C281.3 102.235 281.562 101.763 281.66 101.203C281.701 101.085 281.757 100.977 281.829 100.874C282.163 101.054 282.389 101.326 282.502 101.685C282.62 102.045 282.6 102.394 282.44 102.738C282.173 103.539 281.706 104.202 281.038 104.726C280.371 105.244 279.616 105.537 278.774 105.604C277.844 105.665 276.971 105.481 276.144 105.049C275.323 104.618 274.671 104.007 274.188 103.216C272.945 101.357 272.467 99.3181 272.76 97.1047C272.919 95.4768 273.361 93.9259 274.075 92.4521C274.794 90.9834 275.744 89.679 276.93 88.5492C277.192 88.2873 277.449 88.01 277.711 87.7378C277.767 87.671 277.747 87.6094 277.747 87.5067L277.721 87.4913ZM163.937 45.9872C162.519 47.0092 160.881 47.2813 159.171 47.4046C154.385 47.7435 149.681 47.2505 145.064 45.9307L144.828 45.8537C144.294 45.6637 143.749 45.448 143.816 44.7496C143.883 44.0563 144.427 43.9382 145.038 43.8663C146.332 43.7071 147.637 43.6866 148.931 43.5017C153.096 42.8906 156.855 41.3243 160.219 38.7874C163.408 36.42 166.057 33.4929 168.949 30.5811C168.348 30.5503 167.783 30.6684 167.244 30.9355C161.169 32.738 155.119 32.8869 149.095 30.8328C147.272 30.2473 145.603 29.3692 144.093 28.1983C142.276 26.7809 141.053 24.963 140.427 22.7445C139.045 17.8557 143.195 12.6022 148.921 13.2236C150.076 13.3263 151.134 13.7011 152.094 14.3533C152.551 14.6358 152.937 14.9953 153.245 15.4266C153.558 15.858 153.779 16.3356 153.907 16.8543C154.03 17.3729 154.056 17.8967 153.974 18.4257C153.892 18.9546 153.717 19.4476 153.44 19.9098C152.952 20.8136 152.295 21.5685 151.473 22.1848C150.651 22.7959 149.737 23.2119 148.731 23.4224C148.253 23.5611 147.776 23.5816 147.288 23.484C146.805 23.3916 146.368 23.1913 145.978 22.8832C145.593 22.611 145.331 22.2413 145.208 21.7842C145.079 21.322 145.11 20.8753 145.3 20.4388C145.732 19.6633 146.522 19.4887 147.632 19.915C147.935 20.0331 148.248 20.0947 148.577 20.105C148.905 20.1152 149.224 20.069 149.532 19.9714C149.845 19.8739 150.133 19.7249 150.395 19.5298C150.651 19.3347 150.877 19.1036 151.057 18.8314C151.725 17.9173 151.565 17.0597 150.559 16.5102C149.891 16.1559 149.183 15.971 148.428 15.9556C147.678 15.935 146.959 16.0891 146.281 16.4126C145.696 16.6437 145.182 16.9724 144.725 17.4038C144.273 17.8351 143.919 18.3384 143.662 18.9084C143.4 19.4784 143.262 20.0741 143.236 20.7007C143.21 21.3272 143.308 21.9332 143.518 22.5237C144.206 24.4289 145.444 25.8668 147.221 26.8374C149.938 28.3729 152.849 29.2613 155.966 29.4924C162.35 30.1035 168.219 28.5116 173.735 25.3482C175.948 24.0387 178.054 22.5802 180.062 20.978C182.1 19.4425 184.108 17.8505 186.224 16.3869C188.858 14.5279 191.734 13.1619 194.846 12.2889C195.098 12.2222 195.457 12.2478 195.622 11.8421L190.302 11.6265L184.119 11.3851C183.887 11.3851 183.559 11.3851 183.59 11.0359C183.59 10.7894 183.882 10.774 184.088 10.7586C185.31 10.7072 186.532 10.6507 187.754 10.6097C201.933 10.1577 216.112 9.96774 230.296 9.83935C250.278 9.64934 270.264 9.49015 290.256 9.35149C291.263 9.35149 292.28 9.35149 293.312 9.35149C294.776 9.40798 295.433 10.091 295.474 11.5751C295.505 12.5816 295.474 13.5882 295.474 14.6307C295.423 38.9877 295.15 63.3602 294.863 87.7173C294.77 95.9236 294.57 104.125 294.396 112.331C294.344 114.981 294.226 117.631 294.139 120.276C294.144 120.527 294.118 120.774 294.062 121.02C294.021 121.149 293.933 121.231 293.805 121.267C293.718 121.277 293.641 121.256 293.574 121.195C293.502 121.138 293.471 121.066 293.471 120.979C293.425 120.645 293.42 120.306 293.41 119.978L293.076 110.005C293.076 109.758 293.076 109.507 293.035 109.25C292.583 109.25 292.685 109.573 292.639 109.769C291.72 113.04 290.272 116.059 288.3 118.827C286.759 121.046 285.09 123.151 283.411 125.272C280.761 128.528 278.661 132.102 277.105 136C274.835 142.019 274.455 148.125 276.463 154.297C276.935 155.797 277.623 157.183 278.543 158.457C279.595 159.987 281.018 160.984 282.82 161.446C283.262 161.569 283.709 161.626 284.166 161.615C284.623 161.605 285.07 161.523 285.501 161.374C285.938 161.225 286.338 161.02 286.708 160.747C287.078 160.475 287.396 160.157 287.668 159.787C287.987 159.433 288.248 159.037 288.449 158.601C288.649 158.164 288.783 157.712 288.849 157.24C288.916 156.767 288.916 156.29 288.844 155.817C288.772 155.345 288.634 154.893 288.428 154.462C287.879 153.209 286.795 153.039 285.789 153.958C285.306 154.359 284.988 154.857 284.844 155.468C284.7 156.079 284.751 156.67 285.008 157.24C285.398 158.282 285.229 159.073 284.53 159.494C284.125 159.72 283.699 159.787 283.247 159.7C282.795 159.607 282.425 159.381 282.143 159.022C281.47 158.334 281.213 157.522 281.377 156.577C281.526 155.401 281.953 154.333 282.656 153.383C283.365 152.428 284.258 151.709 285.337 151.221C287.432 150.24 289.614 151.072 290.801 153.188C291.217 153.979 291.489 154.811 291.622 155.694C291.751 156.577 291.735 157.456 291.571 158.329C291.402 159.207 291.093 160.028 290.652 160.799C290.205 161.569 289.64 162.247 288.967 162.827C288.469 163.269 287.92 163.639 287.319 163.936C286.718 164.229 286.092 164.435 285.434 164.558C284.777 164.676 284.115 164.707 283.452 164.645C282.784 164.584 282.143 164.435 281.516 164.193C280.253 163.746 279.113 163.089 278.091 162.216C277.074 161.343 276.247 160.316 275.61 159.135C273.967 156.187 273.007 153.034 272.729 149.67C272.288 145.285 272.786 141.007 274.214 136.837C274.296 136.606 274.357 136.37 274.439 136.062C274.044 136.062 273.9 136.313 273.715 136.498C271.79 138.378 269.843 140.237 268.041 142.245C266.362 144.037 264.965 146.029 263.855 148.222C262.751 150.415 261.971 152.721 261.524 155.134C261.298 156.377 261.165 157.63 261.113 158.894C261.098 159.309 261.052 159.731 260.975 160.141C260.959 160.362 260.877 160.552 260.728 160.717C260.579 160.876 260.394 160.973 260.173 161.004C259.624 161.071 259.331 160.711 259.141 160.254C259.044 160.018 258.967 159.777 258.905 159.53C257.539 154.703 257.102 149.788 257.59 144.797C257.698 143.344 258.155 142.008 258.967 140.796C257.847 140.365 256.794 139.816 255.798 139.148C254.684 138.439 253.749 137.541 252.994 136.452C252.619 135.933 252.383 135.353 252.291 134.721C252.188 133.73 252.676 133.176 253.662 133.201C254.078 133.237 254.483 133.319 254.884 133.437C256.183 133.771 257.498 134.049 258.823 134.29C262.289 134.829 265.617 134.382 268.821 132.96C274.214 130.798 278.722 127.444 282.348 122.91C283.704 121.195 285.049 119.469 286.379 117.734C289.445 113.63 291.278 109.039 291.879 103.955C292.485 99.6981 292.752 95.4203 292.68 91.122C292.275 65.4965 292.008 39.871 291.884 14.2455C291.884 12.8744 291.977 12.9308 290.457 12.9154C274.47 12.7973 258.484 12.6689 242.487 12.5457C232.139 12.443 221.792 12.2324 211.439 12.1195C206.837 12.0886 202.282 12.5611 197.784 13.5368C194.071 14.3277 190.682 15.8426 187.616 18.0868C185.197 19.7763 182.881 21.5942 180.668 23.5457C175.707 28.0648 172.112 33.4672 170.648 40.1226C169.991 43.0652 170.397 45.9718 171.111 48.863C171.27 49.5101 171.47 50.1572 171.593 50.8196C171.835 52.1086 171.167 52.7608 169.873 52.5194C168.902 52.2883 168.076 51.8107 167.382 51.0969C166.16 49.9107 165.2 48.5446 164.486 46.9938C164.363 46.624 164.183 46.2902 163.937 45.9872ZM280.843 283.601C280.571 281.624 280.468 279.636 280.54 277.644C280.633 261.272 280.022 244.916 279.78 228.555C279.606 216.61 279.395 204.665 279.503 192.715C279.452 188.371 279.857 184.062 280.725 179.8C281.162 177.71 281.891 175.722 282.913 173.843C283.94 171.968 285.208 170.273 286.728 168.774C288.248 167.264 289.784 165.785 291.227 164.173C292.947 162.288 294.041 160.1 294.519 157.594C294.853 156.002 294.822 154.415 294.426 152.834C294.031 151.257 293.312 149.845 292.264 148.597C291.638 147.781 290.868 147.139 289.953 146.671C289.039 146.204 288.069 145.952 287.042 145.927C286.287 145.875 285.547 145.968 284.828 146.194C284.109 146.42 283.452 146.769 282.861 147.241C282.276 147.714 281.788 148.279 281.413 148.931C281.033 149.588 280.787 150.287 280.669 151.031C280.602 151.406 280.576 151.786 280.509 152.156C280.443 152.531 280.658 152.916 280.196 153.008C279.842 153.08 279.585 152.767 279.354 152.526C278.656 151.689 278.286 150.723 278.234 149.634C278.142 148.535 278.214 147.447 278.45 146.373C278.686 145.295 279.077 144.278 279.621 143.318C280.171 142.363 280.843 141.505 281.65 140.755C282.456 140 283.354 139.384 284.346 138.907C285.409 138.424 285.409 138.424 285.316 137.31C285.265 136.74 285.265 136.169 285.316 135.594C285.368 135.024 285.475 134.465 285.629 133.91C285.789 133.36 285.999 132.826 286.256 132.313C286.513 131.799 286.816 131.317 287.165 130.86C287.514 130.408 287.904 129.987 288.331 129.601C288.762 129.221 289.219 128.882 289.712 128.585C290.205 128.287 290.719 128.04 291.258 127.84C291.797 127.645 292.346 127.496 292.911 127.398C293.99 127.229 295.063 127.275 296.121 127.537C297.184 127.799 298.149 128.256 299.022 128.913C301.056 130.438 302.561 132.369 303.547 134.711C303.762 135.184 303.922 135.676 303.47 136.113C303.018 136.544 302.535 136.318 302.068 136.113C301.272 135.748 300.44 135.553 299.567 135.538C298.689 135.522 297.852 135.682 297.045 136.021C294.904 136.847 294.185 138.599 295.084 140.689C295.294 141.238 295.556 141.762 295.859 142.265C297.8 145.239 298.304 148.582 298.406 152.043C298.452 155.355 297.585 158.406 295.803 161.199C293.82 164.347 291.458 167.177 288.721 169.693C287.191 171.157 285.922 172.826 284.921 174.695C283.914 176.559 283.226 178.536 282.856 180.626C282.435 182.901 282.168 185.197 282.05 187.513C281.608 195.375 281.901 203.237 281.983 211.11C282.122 224.821 282.333 238.533 282.517 252.249C282.625 259.778 282.368 267.306 281.988 274.825C281.917 277.474 281.68 280.114 281.285 282.733C281.239 283.015 281.29 283.339 280.843 283.601ZM295.546 303.947C295.186 302.622 294.996 301.277 294.986 299.906C294.508 293.148 294.067 286.389 293.656 279.631C293.358 274.845 293.122 270.054 292.85 265.273C292.341 256.286 291.905 247.294 291.54 238.292C291.145 228.622 290.96 218.947 291.047 209.272C291.119 201.784 290.785 194.292 290.95 186.809C290.996 184.909 291.227 183.035 291.432 181.15C291.443 180.883 291.545 180.657 291.741 180.472C292.09 180.652 292.085 181.006 292.156 181.315C293.076 185.176 293.266 189.131 293.677 193.064C295.032 205.969 294.93 218.941 295.222 231.888C295.602 248.388 296.111 264.888 296.321 281.352C296.409 287.791 296.465 294.226 296.183 300.661C296.213 301.806 296.003 302.9 295.546 303.947Z" fill="#FFF1B8"/>
</g>
</g>
</g>
</svg>
