<svg width="450" height="437" viewBox="0 0 450 437" fill="none" xmlns="http://www.w3.org/2000/svg">
<g opacity="0.6">
<mask id="mask0_612_199" style="mask-type:luminance" maskUnits="userSpaceOnUse" x="44" y="43" width="355" height="283">
<path d="M335.989 325.652L44.1294 183.074L106.268 43.4948L398.128 186.074L335.989 325.652Z" fill="white"/>
</mask>
<g mask="url(#mask0_612_199)">
<mask id="mask1_612_199" style="mask-type:luminance" maskUnits="userSpaceOnUse" x="82" y="42" width="342" height="313">
<path d="M82.3125 58.7961L413.039 42.6028L423.845 337.93L93.1183 354.124L82.3125 58.7961Z" fill="white"/>
</mask>
<g mask="url(#mask1_612_199)">
<mask id="mask2_612_199" style="mask-type:luminance" maskUnits="userSpaceOnUse" x="82" y="42" width="342" height="313">
<path d="M82.3104 58.7946L413.038 42.6053L423.847 337.932L93.1193 354.121L82.3104 58.7946Z" fill="white"/>
</mask>
<g mask="url(#mask2_612_199)">
<mask id="mask3_612_199" style="mask-type:luminance" maskUnits="userSpaceOnUse" x="82" y="42" width="342" height="313">
<path d="M82.3101 58.7946L413.038 42.6055L423.847 337.932L93.1193 354.121L82.3101 58.7946Z" fill="white"/>
</mask>
<g mask="url(#mask3_612_199)">
<path fill-rule="evenodd" clip-rule="evenodd" d="M131.072 95.8507L92.3103 76.0317L93.0965 97.7199L93.8871 119.41L112.482 107.632L131.072 95.8507ZM247.37 155.303L265.969 143.526L284.564 131.748L285.352 153.431L286.14 175.126L304.733 163.341L323.332 151.564L324.118 173.252L324.908 194.943L305.523 185.031L286.14 175.126L247.37 155.303ZM171.417 159.046L190.011 147.267L208.608 135.484L209.399 157.174L210.183 178.867L210.976 200.553L211.762 222.241L192.374 212.334L172.994 202.425L173.78 224.113L174.57 245.803L155.185 235.891L135.798 225.984L154.399 214.203L172.994 202.425L191.584 190.644L210.183 178.867L190.798 168.955L171.417 159.046ZM172.588 136.952L153.207 127.043L133.82 117.136L135.392 160.512L136.183 182.203L136.971 203.886L117.588 193.981L98.2073 184.072L116.802 172.293L135.392 160.512L153.993 148.731L172.588 136.952ZM365.244 258.133L345.866 248.231L326.481 238.319L327.267 260.007L328.057 281.698L346.652 269.919L365.244 258.133Z" fill="#34568D"/>
</g>
</g>
</g>
</g>
<mask id="mask4_612_199" style="mask-type:luminance" maskUnits="userSpaceOnUse" x="116" y="47" width="331" height="329">
<path d="M351.121 375.83L116.329 260.944L211.401 47.0484L446.193 161.935L351.121 375.83Z" fill="white"/>
</mask>
<g mask="url(#mask4_612_199)">
<mask id="mask5_612_199" style="mask-type:luminance" maskUnits="userSpaceOnUse" x="82" y="42" width="342" height="313">
<path d="M82.3115 58.7959L413.038 42.6036L423.845 337.931L93.1184 354.123L82.3115 58.7959Z" fill="white"/>
</mask>
<g mask="url(#mask5_612_199)">
<mask id="mask6_612_199" style="mask-type:luminance" maskUnits="userSpaceOnUse" x="82" y="42" width="342" height="313">
<path d="M82.31 58.7947L413.037 42.6053L423.847 337.932L93.1192 354.121L82.31 58.7947Z" fill="white"/>
</mask>
<g mask="url(#mask6_612_199)">
<mask id="mask7_612_199" style="mask-type:luminance" maskUnits="userSpaceOnUse" x="82" y="42" width="342" height="313">
<path d="M82.31 58.7946L413.038 42.6054L423.847 337.932L93.1194 354.121L82.31 58.7946Z" fill="white"/>
</mask>
<g mask="url(#mask7_612_199)">
<path fill-rule="evenodd" clip-rule="evenodd" d="M388.379 139.614L368.927 129.652L349.469 119.693L350.265 141.48L351.067 163.266L388.379 139.614ZM195.439 83.5763L214.091 71.7482L232.747 59.9223L233.543 81.71L234.343 103.5L195.439 83.5763ZM274.845 166.996L255.391 157.039L235.934 147.075L236.735 168.865L237.53 190.653L256.186 178.827L274.845 166.996ZM201.814 257.883L220.47 246.057L239.124 234.235L239.922 256.018L240.722 277.808L242.313 321.384L260.969 309.558L279.632 297.729L260.174 287.77L221.27 267.847L201.814 257.883ZM345.243 239.372L325.789 229.415L306.337 219.453L307.135 241.236L307.928 263.029L326.587 251.198L345.243 239.372ZM419.251 222.204L399.8 212.242L380.346 202.285L381.937 245.86L400.598 234.036L419.251 222.204ZM374.992 170.199L393.651 158.368L412.311 146.545L413.903 190.12L394.446 180.156L374.992 170.199Z" fill="#1F3669"/>
</g>
</g>
</g>
</g>
<mask id="mask8_612_199" style="mask-type:luminance" maskUnits="userSpaceOnUse" x="50" y="35" width="354" height="331">
<path d="M314.446 365.538L50.3215 236.331L139.396 35.979L403.52 165.186L314.446 365.538Z" fill="white"/>
</mask>
<g mask="url(#mask8_612_199)">
<mask id="mask9_612_199" style="mask-type:luminance" maskUnits="userSpaceOnUse" x="82" y="42" width="342" height="313">
<path d="M82.3118 58.7957L413.039 42.6033L423.845 337.931L93.1186 354.123L82.3118 58.7957Z" fill="white"/>
</mask>
<g mask="url(#mask9_612_199)">
<mask id="mask10_612_199" style="mask-type:luminance" maskUnits="userSpaceOnUse" x="82" y="42" width="342" height="313">
<path d="M82.3103 58.7945L413.038 42.6052L423.847 337.932L93.1195 354.121L82.3103 58.7945Z" fill="white"/>
</mask>
<g mask="url(#mask10_612_199)">
<mask id="mask11_612_199" style="mask-type:luminance" maskUnits="userSpaceOnUse" x="82" y="42" width="342" height="313">
<path d="M82.3104 58.7944L413.038 42.6054L423.847 337.932L93.1198 354.121L82.3104 58.7944Z" fill="white"/>
</mask>
<g mask="url(#mask11_612_199)">
<path fill-rule="evenodd" clip-rule="evenodd" d="M125.053 175.759L105.621 165.816L86.1862 155.865L86.98 177.626L87.7783 199.388L106.415 187.576L125.053 175.759ZM242.725 115.774L223.293 105.831L203.863 95.8827L204.659 117.638L205.452 139.399L224.087 127.591L242.725 115.774ZM185.319 181.451L146.458 161.555L147.257 183.317L148.05 205.078L166.687 193.265L185.319 181.451ZM208.634 226.449L227.271 214.637L245.909 202.82L246.707 224.583L247.501 246.343L228.067 236.393L208.634 226.449ZM211.819 313.495L230.45 301.68L249.093 289.866L249.887 311.626L250.683 333.393L231.249 323.443L211.819 313.495ZM325.228 286.134L305.798 276.185L286.361 266.24L305.004 254.425L323.636 242.611L304.206 232.662L284.774 222.719L287.155 288L287.953 309.762L306.596 297.948L325.228 286.134ZM316.013 164.539L334.65 152.726L353.281 140.912L354.08 162.675L354.873 184.435L316.013 164.539ZM401.921 166.971L382.485 157.025L363.055 147.077L363.848 168.837L364.647 190.6L383.283 178.788L401.921 166.971Z" fill="#A8C4D4"/>
</g>
</g>
</g>
</g>
<mask id="mask12_612_199" style="mask-type:luminance" maskUnits="userSpaceOnUse" x="6" y="2" width="436" height="432">
<path d="M317.544 433.618L6.41821 281.382L130.484 2.25973L441.61 154.495L317.544 433.618Z" fill="white"/>
</mask>
<g mask="url(#mask12_612_199)">
<mask id="mask13_612_199" style="mask-type:luminance" maskUnits="userSpaceOnUse" x="82" y="42" width="342" height="313">
<path d="M82.3117 58.7957L413.038 42.6034L423.845 337.931L93.1186 354.123L82.3117 58.7957Z" fill="white"/>
</mask>
<g mask="url(#mask13_612_199)">
<mask id="mask14_612_199" style="mask-type:luminance" maskUnits="userSpaceOnUse" x="82" y="42" width="342" height="313">
<path d="M82.3102 58.7945L413.038 42.6051L423.847 337.932L93.1195 354.121L82.3102 58.7945Z" fill="white"/>
</mask>
<g mask="url(#mask14_612_199)">
<mask id="mask15_612_199" style="mask-type:luminance" maskUnits="userSpaceOnUse" x="82" y="42" width="342" height="313">
<path d="M82.3102 58.7944L413.038 42.6053L423.847 337.932L93.1197 354.121L82.3102 58.7944Z" fill="white"/>
</mask>
<g mask="url(#mask15_612_199)">
<path fill-rule="evenodd" clip-rule="evenodd" d="M258.117 186.434L238.667 176.472L219.211 166.509L220.005 188.3L220.807 210.084L258.117 186.434ZM140.492 90.1958L101.59 70.2734L102.386 92.0599L103.186 113.849L121.837 102.021L140.492 90.1958ZM338.015 226.907L356.67 215.082L375.328 203.252L376.123 225.038L376.923 246.827L357.466 236.868L338.015 226.907ZM145.279 220.921L125.824 210.958L106.373 200.997L107.171 222.79L107.969 244.572L145.279 220.921ZM148.466 308.069L109.564 288.147L111.156 331.72L148.466 308.069ZM300.963 130.581L281.51 120.624L262.055 110.661L280.715 98.8378L299.365 87.0103L279.915 77.0491L260.459 67.0857L261.259 88.8744L262.851 132.447L263.651 154.236L282.308 142.406L300.963 130.581ZM185.778 284.414L204.431 272.593L223.093 260.766L241.748 248.94L260.401 237.108L261.199 258.902L261.997 280.683L242.544 270.727L223.093 260.766L223.889 282.552L224.689 304.341L225.486 326.123L226.28 347.914L206.825 337.95L187.374 327.989L206.027 316.169L224.689 304.341L185.778 284.414ZM263.588 324.256L282.248 312.433L300.903 300.608L301.7 322.39L302.498 344.183L263.588 324.256ZM334.422 286.329L353.079 274.499L371.734 262.674L372.532 284.467L373.33 306.249L353.879 296.288L334.422 286.329Z" fill="#071740"/>
</g>
</g>
</g>
</g>
<mask id="mask16_612_199" style="mask-type:luminance" maskUnits="userSpaceOnUse" x="42" y="33" width="330" height="327">
<path d="M277.317 359.457L42.5416 244.58L136.533 33.1179L371.308 147.995L277.317 359.457Z" fill="white"/>
</mask>
<g mask="url(#mask16_612_199)">
<mask id="mask17_612_199" style="mask-type:luminance" maskUnits="userSpaceOnUse" x="82" y="42" width="342" height="313">
<path d="M82.3118 58.7957L413.039 42.6034L423.845 337.931L93.1187 354.123L82.3118 58.7957Z" fill="white"/>
</mask>
<g mask="url(#mask17_612_199)">
<mask id="mask18_612_199" style="mask-type:luminance" maskUnits="userSpaceOnUse" x="82" y="42" width="342" height="313">
<path d="M82.3104 58.7945L413.038 42.6051L423.847 337.932L93.1196 354.121L82.3104 58.7945Z" fill="white"/>
</mask>
<g mask="url(#mask18_612_199)">
<mask id="mask19_612_199" style="mask-type:luminance" maskUnits="userSpaceOnUse" x="82" y="42" width="342" height="313">
<path d="M82.3104 58.7944L413.038 42.6053L423.847 337.932L93.1198 354.121L82.3104 58.7944Z" fill="white"/>
</mask>
<g mask="url(#mask19_612_199)">
<path fill-rule="evenodd" clip-rule="evenodd" d="M334.487 134.475L315.036 124.514L295.578 114.555L296.378 136.344L297.174 158.131L315.836 146.303L334.487 134.475ZM141.548 78.4435L178.859 54.7926L179.655 76.5794L180.452 98.3614L160.999 88.4048L141.548 78.4435ZM256.676 94.6328L237.219 84.674L217.768 74.7127L218.563 96.4995L219.363 118.288L220.954 161.862L239.61 150.036L258.272 138.208L238.814 128.25L219.363 118.288L238.014 106.461L256.676 94.6328ZM90.0521 137.855L108.707 126.03L127.365 114.2L128.165 135.989L128.961 157.775L109.503 147.817L90.0521 137.855ZM110.614 276.4L129.271 264.57L147.931 252.746L148.727 274.533L149.524 296.315L130.069 286.363L110.614 276.4ZM224.146 249.013L204.695 239.052L185.237 229.093L186.035 250.875L186.833 272.669L205.491 260.839L224.146 249.013ZM293.685 213.319L274.234 203.357L254.781 193.401L255.576 215.188L256.376 236.976L275.032 225.151L293.685 213.319ZM298.769 201.707L317.427 189.877L336.082 178.051L336.878 199.838L337.676 221.632L318.225 211.67L298.769 201.707Z" fill="#6690B8"/>
</g>
</g>
</g>
</g>
</g>
</svg>
