<svg width="299" height="312" viewBox="0 0 299 312" fill="none" xmlns="http://www.w3.org/2000/svg">
<g opacity="0.5">
<mask id="mask0_189_557" style="mask-type:luminance" maskUnits="userSpaceOnUse" x="0" y="0" width="301" height="312">
<path d="M300.67 0.849487H0V311.51H300.67V0.849487Z" fill="white"/>
</mask>
<g mask="url(#mask0_189_557)">
<mask id="mask1_189_557" style="mask-type:luminance" maskUnits="userSpaceOnUse" x="149" y="156" width="151" height="156">
<path d="M149.673 156.18H299.345V311.37H149.673V156.18Z" fill="white"/>
</mask>
<g mask="url(#mask1_189_557)">
<path d="M199.7 208.071V156.421H149.931V208.071C149.931 236.599 172.211 259.721 199.7 259.721L149.931 311.37H199.7L249.468 259.721V233.898C263.21 233.898 274.35 245.459 274.35 259.721H249.468V311.37H299.237V259.721H274.35C288.092 259.721 299.237 248.16 299.237 233.898C285.49 233.898 274.35 222.332 274.35 208.071C260.608 208.071 249.468 219.632 249.468 233.898V208.071H199.7ZM160.279 197.326V167.166H189.347V197.326H160.279ZM239.115 218.815V248.976H210.048V218.815H239.115Z" fill="#F77F00"/>
</g>
<path d="M249.468 104.772V101.673C249.468 74.8579 228.519 53.122 202.685 53.122H199.7V56.2202C199.7 83.0357 220.644 104.772 246.478 104.772C220.644 104.772 199.7 126.508 199.7 153.323V156.421H202.685C228.519 156.421 249.468 134.685 249.468 107.87V104.772C249.468 133.3 271.747 156.421 299.237 156.421C271.747 156.421 249.468 179.548 249.468 208.071C276.953 208.071 299.237 184.95 299.237 156.421C299.237 127.898 276.953 104.772 249.468 104.772Z" fill="#F77F00"/>
<path d="M274.35 156.421C260.608 156.421 249.468 144.861 249.468 130.599C249.468 144.861 238.324 156.421 224.582 156.421C238.324 156.421 249.468 167.982 249.468 182.249C249.468 167.982 260.608 156.421 274.35 156.421Z" fill="#F77F00"/>
<mask id="mask2_189_557" style="mask-type:luminance" maskUnits="userSpaceOnUse" x="249" y="1" width="51" height="105">
<path d="M249.013 1.28979H299.345V105.319H249.013V1.28979Z" fill="white"/>
</mask>
<g mask="url(#mask2_189_557)">
<path d="M249.468 53.122H274.35C260.608 53.122 249.468 64.6826 249.468 78.9495C249.468 93.211 260.608 104.772 274.35 104.772C288.092 104.772 299.237 93.211 299.237 78.9495C299.237 64.6826 288.092 53.122 274.35 53.122H299.237V1.47235L249.468 53.122Z" fill="#F77F00"/>
</g>
<mask id="mask3_189_557" style="mask-type:luminance" maskUnits="userSpaceOnUse" x="0" y="207" width="201" height="105">
<path d="M0.626068 207.04H200.005V311.37H0.626068V207.04Z" fill="white"/>
</mask>
<g mask="url(#mask3_189_557)">
<path d="M199.7 259.72H100.163C127.647 259.72 149.931 236.599 149.931 208.071C122.442 208.071 100.163 231.197 100.163 259.72V311.37C100.163 282.847 77.8787 259.72 50.3945 259.72H0.626068V311.37H149.931C149.931 282.847 172.211 259.72 199.7 259.72ZM10.974 300.626V270.465H40.0414V300.626H10.974Z" fill="#F77F00"/>
</g>
<path d="M249.468 78.9495C249.468 78.1011 249.505 77.2581 249.587 76.4151C249.665 75.5721 249.784 74.7398 249.944 73.9075C250.105 73.0806 250.301 72.2591 250.539 71.4536C250.772 70.6428 251.046 69.8481 251.362 69.0642C251.672 68.2856 252.019 67.5178 252.402 66.7714C252.79 66.0304 253.209 65.3055 253.659 64.6021C254.115 63.8987 254.596 63.2168 255.113 62.567C255.631 61.912 256.179 61.2837 256.753 60.6877C257.333 60.0863 257.933 59.5225 258.564 58.9856C259.195 58.4486 259.847 57.9439 260.525 57.4767C261.203 57.0042 261.901 56.5693 262.621 56.1719C263.34 55.7746 264.075 55.4148 264.83 55.0873C265.58 54.7651 266.346 54.4805 267.127 54.2335C267.908 53.9919 268.695 53.7825 269.497 53.6214C270.294 53.4549 271.101 53.3314 271.913 53.2455C272.72 53.165 273.538 53.122 274.35 53.122C275.168 53.122 275.98 53.165 276.787 53.2455C277.599 53.3314 278.406 53.4549 279.203 53.6214C280.005 53.7825 280.792 53.9919 281.573 54.2335C282.354 54.4805 283.12 54.7651 283.875 55.0873C284.626 55.4148 285.36 55.7746 286.079 56.1719C286.799 56.5693 287.497 57.0042 288.175 57.4767C288.853 57.9439 289.505 58.4486 290.136 58.9856C290.767 59.5225 291.372 60.0863 291.947 60.6877C292.521 61.2837 293.069 61.912 293.587 62.567C294.104 63.2168 294.591 63.8987 295.041 64.6021C295.496 65.3055 295.91 66.0304 296.298 66.7714C296.681 67.5178 297.028 68.2856 297.338 69.0642C297.654 69.8481 297.928 70.6428 298.161 71.4536C298.399 72.2591 298.595 73.0806 298.756 73.9075C298.916 74.7398 299.035 75.5721 299.113 76.4151C299.195 77.2581 299.237 78.1011 299.237 78.9495C299.237 79.7925 299.195 80.6355 299.113 81.4786C299.035 82.3216 298.916 83.1539 298.756 83.9861C298.595 84.8131 298.399 85.6346 298.161 86.4454C297.928 87.2508 297.654 88.0509 297.338 88.8295C297.028 89.6134 296.681 90.3759 296.298 91.1223C295.91 91.8686 295.496 92.5935 295.041 93.2969C294.591 94.0003 294.104 94.6769 293.587 95.332C293.069 95.9871 292.521 96.6099 291.947 97.206C291.372 97.8073 290.767 98.3765 290.136 98.9081C289.505 99.4451 288.853 99.9498 288.175 100.422C287.497 100.889 286.799 101.324 286.079 101.722C285.36 102.119 284.626 102.484 283.875 102.806C283.12 103.129 282.354 103.413 281.573 103.66C280.792 103.907 280.005 104.111 279.203 104.278C278.406 104.439 277.599 104.568 276.787 104.648C275.98 104.729 275.168 104.772 274.35 104.772C273.538 104.772 272.72 104.729 271.913 104.648C271.101 104.568 270.294 104.439 269.497 104.278C268.695 104.111 267.908 103.907 267.127 103.66C266.346 103.413 265.58 103.129 264.83 102.806C264.075 102.484 263.34 102.119 262.621 101.722C261.901 101.324 261.203 100.889 260.525 100.422C259.847 99.9498 259.195 99.4451 258.564 98.9081C257.933 98.3765 257.333 97.8073 256.753 97.206C256.179 96.6099 255.631 95.9871 255.113 95.332C254.596 94.6769 254.115 94.0003 253.659 93.2969C253.209 92.5935 252.79 91.8686 252.402 91.1223C252.019 90.3759 251.672 89.6134 251.362 88.8295C251.046 88.0509 250.772 87.2508 250.539 86.4454C250.301 85.6346 250.105 84.8131 249.944 83.9861C249.784 83.1539 249.665 82.3216 249.587 81.4786C249.505 80.6355 249.468 79.7925 249.468 78.9495Z" fill="#6690B8"/>
<path d="M249.468 233.898C249.468 219.632 260.608 208.071 274.35 208.071C274.35 222.332 285.49 233.898 299.237 233.898C299.237 248.16 288.092 259.721 274.35 259.721C274.35 245.459 263.21 233.898 249.468 233.898Z" fill="#FFDE59"/>
<mask id="mask4_189_557" style="mask-type:luminance" maskUnits="userSpaceOnUse" x="99" y="259" width="52" height="53">
<path d="M99.3403 259.275H150.997V311.37H99.3403V259.275Z" fill="white"/>
</mask>
<g mask="url(#mask4_189_557)">
<path d="M100.163 311.37V259.72H149.931V311.37H100.163Z" fill="#6690B8"/>
</g>
<path d="M100.163 259.721C100.163 258.029 100.241 256.343 100.401 254.657C100.561 252.976 100.799 251.306 101.115 249.647C101.436 247.988 101.829 246.345 102.305 244.729C102.776 243.107 103.324 241.518 103.95 239.955C104.571 238.393 105.27 236.868 106.035 235.375C106.806 233.882 107.645 232.433 108.55 231.026C109.455 229.619 110.423 228.26 111.458 226.956C112.493 225.645 113.584 224.394 114.738 223.197C115.892 222.005 117.097 220.867 118.355 219.798C119.617 218.724 120.926 217.715 122.282 216.775C123.632 215.835 125.029 214.965 126.467 214.171C127.906 213.371 129.375 212.651 130.886 212.001C132.392 211.357 133.923 210.788 135.481 210.294C137.043 209.805 138.621 209.392 140.22 209.064C141.819 208.731 143.428 208.484 145.052 208.318C146.672 208.157 148.302 208.071 149.931 208.071C149.931 209.762 149.849 211.448 149.688 213.134C149.528 214.815 149.29 216.49 148.974 218.15C148.653 219.809 148.26 221.446 147.784 223.063C147.313 224.684 146.765 226.274 146.139 227.836C145.518 229.399 144.82 230.929 144.054 232.416C143.283 233.909 142.445 235.359 141.539 236.766C140.634 238.173 139.666 239.531 138.631 240.836C137.597 242.146 136.505 243.397 135.351 244.595C134.197 245.792 132.992 246.925 131.735 247.999C130.472 249.073 129.168 250.077 127.813 251.017C126.457 251.956 125.06 252.826 123.622 253.621C122.183 254.421 120.714 255.14 119.208 255.79C117.703 256.434 116.166 257.004 114.609 257.498C113.046 257.986 111.468 258.4 109.869 258.727C108.271 259.06 106.661 259.307 105.037 259.474C103.417 259.64 101.793 259.721 100.163 259.721Z" fill="#FFCC00"/>
<path d="M149.931 208.071H199.7V156.421H149.931V208.071ZM189.347 167.166V197.326H160.279V167.166H189.347Z" fill="#FFDE59"/>
<mask id="mask5_189_557" style="mask-type:luminance" maskUnits="userSpaceOnUse" x="0" y="259" width="52" height="53">
<path d="M0.626068 259.275H51.657V311.37H0.626068V259.275Z" fill="white"/>
</mask>
<g mask="url(#mask5_189_557)">
<path d="M0.626068 311.37H50.3945V259.72H0.626068V311.37ZM40.0414 270.465V300.626H10.974V270.465H40.0414Z" fill="#FFDE59"/>
</g>
<path d="M199.7 259.721H249.468V208.071H199.7V259.721ZM239.115 218.815V248.976H210.048V218.815H239.115Z" fill="#FFCC00"/>
<path d="M249.468 104.772C251.098 104.772 252.723 104.858 254.342 105.019C255.967 105.185 257.576 105.432 259.175 105.765C260.774 106.093 262.352 106.506 263.914 106.995C265.471 107.489 267.008 108.058 268.514 108.702C270.019 109.352 271.489 110.071 272.927 110.871C274.366 111.666 275.763 112.536 277.118 113.476C278.474 114.415 279.778 115.425 281.04 116.499C282.297 117.567 283.503 118.706 284.657 119.898C285.81 121.095 286.902 122.346 287.937 123.656C288.972 124.961 289.939 126.32 290.845 127.726C291.75 129.133 292.588 130.583 293.359 132.076C294.125 133.568 294.823 135.093 295.444 136.656C296.07 138.218 296.619 139.808 297.09 141.429C297.566 143.046 297.959 144.689 298.28 146.348C298.595 148.007 298.833 149.677 298.994 151.358C299.154 153.044 299.237 154.73 299.237 156.421C297.607 156.421 295.977 156.341 294.358 156.174C292.733 156.008 291.124 155.761 289.525 155.428C287.927 155.1 286.348 154.687 284.786 154.198C283.229 153.704 281.697 153.135 280.191 152.491C278.681 151.841 277.211 151.122 275.773 150.321C274.335 149.527 272.938 148.657 271.587 147.717C270.232 146.778 268.923 145.773 267.66 144.7C266.403 143.626 265.197 142.493 264.043 141.295C262.89 140.098 261.798 138.847 260.763 137.537C259.728 136.232 258.761 134.873 257.855 133.466C256.95 132.06 256.112 130.61 255.341 129.117C254.575 127.63 253.877 126.099 253.256 124.537C252.63 122.974 252.081 121.385 251.61 119.763C251.134 118.147 250.741 116.509 250.42 114.85C250.105 113.191 249.867 111.516 249.706 109.835C249.546 108.149 249.468 106.463 249.468 104.772Z" fill="#FFCC00"/>
<path d="M199.7 156.421V153.323C199.7 151.734 199.772 150.144 199.922 148.566C200.072 146.982 200.3 145.408 200.595 143.851C200.895 142.294 201.268 140.753 201.713 139.228C202.158 137.708 202.675 136.21 203.26 134.744C203.844 133.273 204.501 131.839 205.221 130.438C205.945 129.037 206.731 127.673 207.58 126.352C208.434 125.026 209.344 123.753 210.317 122.523C211.29 121.294 212.314 120.118 213.401 118.99C214.482 117.868 215.615 116.799 216.8 115.795C217.985 114.786 219.216 113.835 220.489 112.955C221.762 112.069 223.076 111.253 224.426 110.506C225.777 109.755 227.163 109.078 228.576 108.466C229.994 107.859 231.432 107.322 232.901 106.86C234.366 106.404 235.85 106.017 237.351 105.706C238.857 105.394 240.367 105.164 241.894 105.008C243.42 104.852 244.946 104.772 246.478 104.772H249.468V107.87C249.468 109.459 249.391 111.049 249.241 112.633C249.091 114.211 248.868 115.785 248.568 117.342C248.268 118.904 247.895 120.445 247.451 121.965C247.006 123.484 246.493 124.983 245.903 126.448C245.319 127.92 244.667 129.353 243.943 130.76C243.218 132.162 242.432 133.52 241.583 134.846C240.73 136.167 239.819 137.44 238.846 138.67C237.873 139.899 236.849 141.075 235.762 142.203C234.681 143.325 233.548 144.393 232.363 145.403C231.178 146.412 229.947 147.357 228.674 148.238C227.401 149.124 226.087 149.94 224.737 150.687C223.386 151.438 222 152.12 220.587 152.727C219.17 153.334 217.731 153.871 216.262 154.332C214.798 154.794 213.313 155.181 211.812 155.487C210.307 155.798 208.796 156.035 207.269 156.19C205.743 156.346 204.217 156.421 202.685 156.421H199.7Z" fill="#FFDE59"/>
<path d="M224.582 156.421C238.324 156.421 249.468 167.982 249.468 182.249C249.468 167.982 260.608 156.421 274.35 156.421C260.608 156.421 249.468 144.861 249.468 130.599C249.468 144.861 238.324 156.421 224.582 156.421Z" fill="#FFCC00"/>
<mask id="mask6_189_557" style="mask-type:luminance" maskUnits="userSpaceOnUse" x="99" y="259" width="52" height="53">
<path d="M99.3403 259.275H150.997V311.37H99.3403V259.275Z" fill="white"/>
</mask>
<g mask="url(#mask6_189_557)">
<path d="M100.163 285.548C113.905 285.548 125.045 297.109 125.045 311.37C125.045 297.109 136.184 285.548 149.931 285.548C136.184 285.548 125.045 273.982 125.045 259.72C125.045 273.982 113.905 285.548 100.163 285.548Z" fill="#FFCC00"/>
</g>
<mask id="mask7_189_557" style="mask-type:luminance" maskUnits="userSpaceOnUse" x="249" y="1" width="51" height="54">
<path d="M249.013 1.28979H299.345V54.459H249.013V1.28979Z" fill="white"/>
</mask>
<g mask="url(#mask7_189_557)">
<path d="M249.468 53.122H299.237V1.47235L249.468 53.122Z" fill="#FFDE59"/>
</g>
<mask id="mask8_189_557" style="mask-type:luminance" maskUnits="userSpaceOnUse" x="149" y="259" width="52" height="53">
<path d="M149.673 259.275H200.005V311.37H149.673V259.275Z" fill="white"/>
</mask>
<g mask="url(#mask8_189_557)">
<path d="M149.931 311.37V259.72H199.7C172.211 259.72 149.931 282.847 149.931 311.37Z" fill="#FFCC00"/>
<path d="M199.7 259.72V311.37H149.931L199.7 259.72Z" fill="#FFCC00"/>
</g>
<mask id="mask9_189_557" style="mask-type:luminance" maskUnits="userSpaceOnUse" x="198" y="259" width="53" height="53">
<path d="M198.681 259.275H250.338V311.37H198.681V259.275Z" fill="white"/>
</mask>
<g mask="url(#mask9_189_557)">
<path d="M199.7 259.72V311.37L249.468 259.72H199.7Z" fill="#6690B8"/>
</g>
</g>
</g>
</svg>
