<svg width="200" height="37" viewBox="0 0 200 37" fill="none" xmlns="http://www.w3.org/2000/svg">
<mask id="mask0_769_187" style="mask-type:luminance" maskUnits="userSpaceOnUse" x="0" y="0" width="200" height="37">
<path d="M199.778 0H0V36.2963H199.778V0Z" fill="white"/>
</mask>
<g mask="url(#mask0_769_187)">
<mask id="mask1_769_187" style="mask-type:luminance" maskUnits="userSpaceOnUse" x="0" y="0" width="99" height="36">
<path d="M0.689453 0.351074H98.1666V35.9992H0.689453V0.351074Z" fill="white"/>
</mask>
<g mask="url(#mask1_769_187)">
<path d="M88.3243 23.6543C88.2806 22.3917 88.0384 18.7527 86.7299 15.4714C85.1086 11.4002 76.8877 6.92058 76.5378 6.73153C76.336 6.62351 76.0938 6.62688 75.892 6.73491C75.6936 6.84631 75.5624 7.04886 75.5456 7.27841C75.5254 7.54172 75.0847 13.8173 78.1289 17.696C79.3634 19.2658 81.1192 20.7174 82.7674 21.8921C81.4892 21.5816 80.211 21.3284 78.9328 21.1258C78.879 21.1123 78.8218 21.1022 78.7646 21.0988C78.7613 21.0988 78.7545 21.0988 78.7512 21.0988C75.5287 20.6026 72.2895 20.4169 69.0166 20.4034C68.7912 18.8371 67.8998 14.6984 64.5899 11.569C60.5871 7.78815 53.7722 5.68842 53.4829 5.60065C53.2643 5.53651 53.0322 5.58377 52.8573 5.72893C52.6824 5.87746 52.5916 6.10026 52.6185 6.32644C52.6454 6.57962 53.3518 12.5615 57.5497 16.231C59.7428 18.1416 62.5448 19.5493 64.7312 20.4642C62.4573 20.5351 60.1633 20.6532 57.849 20.7747C57.1898 20.8085 56.5305 20.8423 55.8678 20.876C55.7938 20.876 55.6122 20.8828 55.3263 20.903C54.011 20.9672 52.6857 21.0246 51.3503 21.0718C50.7617 19.7316 48.7771 15.6267 45.3932 12.6864C41.3937 9.21273 35.1541 7.41006 34.8917 7.3358C34.673 7.27503 34.4342 7.32567 34.2593 7.48095C34.0878 7.63286 34.007 7.86579 34.0407 8.09197C34.0844 8.37216 35.1473 14.9954 39.4865 18.2395C41.2693 19.5696 43.4927 20.5148 45.4975 21.1663C42.9478 21.1495 40.3577 21.0414 37.7206 20.7882C35.1406 20.5418 32.564 20.0726 30.0042 19.4042C30.1118 17.8142 30.2666 13.3177 28.9144 9.41865C27.246 4.60817 20.9726 0.742914 20.7035 0.580877C20.5084 0.459349 20.2629 0.449222 20.0577 0.550495C19.8492 0.655144 19.7079 0.857691 19.6843 1.08724C19.6574 1.34718 19.0351 7.51471 21.4806 12.3117C22.7251 14.7524 24.5853 16.7947 26.1326 18.2328C23.6972 17.3888 21.2821 16.3559 18.8939 15.1338C18.4095 14.0232 16.1592 9.20597 12.4019 5.92135C8.15351 2.20462 1.64472 2.09322 1.3689 2.08985C1.18053 2.07972 0.985437 2.17087 0.854252 2.3194C0.726431 2.47131 0.665884 2.67048 0.696158 2.8629C0.739886 3.18022 1.86337 10.6407 7.04349 13.554C11.487 16.052 15.9102 16.3322 17.6526 16.3322C17.9117 16.3322 18.1034 16.3255 18.2346 16.3187C21.5344 18.0134 24.8914 19.3502 28.282 20.3359C26.2436 20.4102 24.0975 20.6296 22.2677 21.1089C16.842 22.5369 13.559 27.4149 13.4211 27.6208C13.3067 27.7963 13.2765 28.0158 13.3437 28.2149C13.411 28.4141 13.5657 28.5694 13.7642 28.6369C13.9122 28.6875 16.3004 29.4876 19.8828 29.4876C21.5882 29.4876 23.5661 29.3053 25.6987 28.7753C31.5044 27.3271 35.1339 23.1479 36.0724 21.9529C36.5803 22.017 37.0848 22.0913 37.5928 22.1386C41.4812 22.5099 45.2553 22.5673 48.9419 22.493C47.5426 23.0871 46.0559 23.8906 44.6027 24.9978C39.278 29.0623 38.2554 34.1225 38.215 34.3386C38.1747 34.5445 38.2319 34.7606 38.3731 34.9192C38.5043 35.0644 38.686 35.1454 38.8777 35.1454C38.8945 35.1454 38.9147 35.1454 38.9315 35.142C39.2376 35.1184 46.4561 34.5006 50.3311 31.2093C54.011 28.0799 55.8779 23.6138 56.3993 22.2061C56.9038 22.1791 57.4151 22.1554 57.9197 22.1284C62.9787 21.8651 67.9368 21.6052 72.8243 21.8685C70.9541 22.3546 68.8686 23.1445 66.9143 24.4341C61.5794 27.9483 59.7395 34.7842 59.6655 35.0711C59.6083 35.2906 59.6621 35.5235 59.8101 35.6923C59.9413 35.8408 60.1229 35.9218 60.318 35.9218C60.3449 35.9218 60.3752 35.9218 60.4055 35.9185C60.7082 35.8779 67.8393 34.8956 72.165 31.5266C75.8247 28.674 78.3643 24.029 79.1212 22.5403C85.0884 23.5361 90.9816 25.6561 96.8782 29.8691C96.996 29.9535 97.1339 29.9974 97.2684 29.9974C97.477 29.9974 97.6855 29.8961 97.8167 29.7104C98.032 29.4066 97.9614 28.9812 97.6586 28.7652C94.5438 26.5372 91.4357 24.8831 88.3243 23.6543ZM27.6395 9.86763C28.4098 12.0821 28.652 14.5599 28.7058 16.4943C26.9937 11.4846 23.9293 6.1644 22.1129 3.22748C24.0303 4.71957 26.7078 7.17714 27.6395 9.86763ZM22.6848 11.6905C21.1173 8.61859 20.9222 4.80734 20.9525 2.738C22.7958 5.63778 26.9701 12.6054 28.5881 18.5501C27.0643 17.3315 24.2859 14.8334 22.6848 11.6905ZM17.1212 14.5498C9.69746 10.4516 4.56779 5.59052 2.56975 3.5313C4.58461 3.7406 8.68498 4.46639 11.5172 6.94421C14.2553 9.33763 16.1894 12.7033 17.1212 14.5498ZM2.41838 4.409C4.61825 6.62013 9.45527 11.0626 16.2836 14.911C14.2452 14.7557 10.9589 14.2021 7.70278 12.3691C4.53416 10.5867 3.04403 6.6809 2.41838 4.409ZM22.6108 22.4221C25.5305 21.6558 29.4122 21.6052 32.1839 21.6997C25.4363 23.391 18.7997 25.7776 15.6882 26.9524C17.0135 25.4704 19.4354 23.2593 22.6108 22.4221ZM25.3757 27.4588C21.2014 28.4985 17.6123 28.1002 15.6916 27.7221C18.9544 26.4832 26.7717 23.6543 34.303 21.936C32.8634 23.5125 29.7587 26.3684 25.3757 27.4588ZM49.766 20.8726C44.5725 18.3138 38.723 12.0551 36.2237 9.20935C38.3361 9.97565 41.9656 11.5015 44.5119 13.7126C47.1659 16.0217 48.9453 19.1949 49.766 20.8726ZM35.8537 9.88788C38.1007 12.4433 42.6753 17.3213 47.2601 20.2751C45.0602 19.6641 42.3255 18.6683 40.2905 17.1492C37.7845 15.2756 36.4726 12.0011 35.8537 9.88788ZM45.4168 26.0815C48.0943 24.0391 50.9433 23.0804 52.9952 22.6314C48.545 25.3253 42.8166 30.3653 40.1324 32.8127C40.8556 31.0877 42.376 28.404 45.4168 26.0815ZM49.4599 30.1763C46.9338 32.3233 42.6316 33.2415 40.351 33.5959C43.1832 31.0101 50.2874 24.7244 54.8587 22.4187C54.1254 24.1674 52.3897 27.6816 49.4599 30.1763ZM85.4786 15.9744C86.2287 17.8581 86.6055 19.9139 86.7938 21.487C84.6209 17.615 80.6147 12.3218 78.287 9.35113C80.8064 10.9479 84.5401 13.6249 85.4786 15.9744ZM79.1885 16.8521C77.261 14.3979 76.9112 10.6913 76.8709 8.71986C79.0573 11.4779 84.4964 18.5062 86.6761 22.7901C84.7621 21.6727 81.1798 19.3873 79.1885 16.8521ZM67.5937 20.0996C67.5601 20.0895 67.5197 20.076 67.4861 20.0625C63.2276 17.1188 57.3479 10.4753 54.8116 7.50458C57.0754 8.36203 61.0715 10.1073 63.6649 12.5547C66.3424 15.0832 67.2809 18.4387 67.5937 20.0996ZM54.3508 8.07847C56.5641 10.6778 61.1219 15.8326 65.1046 19.1442C63.0325 18.2665 60.429 16.9432 58.4343 15.2047C56.0192 13.0949 54.8688 10.0398 54.3508 8.07847ZM67.6543 25.5683C70.4125 23.7522 73.5307 22.9926 75.7541 22.6753C69.9853 25.5683 64.4251 30.6354 61.7341 33.282C62.6659 31.0641 64.5193 27.6377 67.6543 25.5683ZM71.3375 30.4565C68.4447 32.7081 64.0215 33.8424 61.7274 34.3082C64.3242 31.6987 70.9608 25.4569 77.5369 22.6449C76.521 24.4948 74.2875 28.1609 71.3375 30.4565Z" fill="white" fill-opacity="0.5"/>
</g>
<mask id="mask2_769_187" style="mask-type:luminance" maskUnits="userSpaceOnUse" x="101" y="0" width="98" height="36">
<path d="M101.611 0.351074H198.917V35.9992H101.611V0.351074Z" fill="white"/>
</mask>
<g mask="url(#mask2_769_187)">
<path d="M198.742 2.31948C198.611 2.17094 198.436 2.08317 198.227 2.08992C197.952 2.0933 191.443 2.2047 187.198 5.91805C183.437 9.20605 181.19 14.0199 180.702 15.1339C178.318 16.3559 175.899 17.3855 173.464 18.2295C175.011 16.7948 176.871 14.7524 178.116 12.3118C180.561 7.51479 179.939 1.34725 179.912 1.08732C179.888 0.857767 179.747 0.65522 179.542 0.550572C179.333 0.449298 179.091 0.459426 178.893 0.577578C178.627 0.739615 172.354 4.60825 170.685 9.41873C169.333 13.3177 169.484 17.8143 169.592 19.4043C167.032 20.0727 164.456 20.5419 161.876 20.7883C159.239 21.0415 156.649 21.1495 154.099 21.1664C156.107 20.5149 158.33 19.5697 160.11 18.2362C164.452 14.9955 165.512 8.37223 165.556 8.09205C165.589 7.86249 165.509 7.63294 165.337 7.48103C165.165 7.32575 164.923 7.27173 164.705 7.33587C164.442 7.41014 158.203 9.2128 154.206 12.6865C150.823 15.6268 148.838 19.7283 148.246 21.0719C146.907 21.0246 145.579 20.9672 144.26 20.9031C143.987 20.8828 143.809 20.8761 143.732 20.8761C143.069 20.8423 142.407 20.8086 141.747 20.7748C139.433 20.6533 137.139 20.5351 134.865 20.4642C137.052 19.5494 139.853 18.1417 142.043 16.2277C146.245 12.5616 146.951 6.5797 146.978 6.32652C147.001 6.10034 146.914 5.87416 146.739 5.729C146.564 5.58385 146.329 5.53659 146.113 5.60073C145.824 5.6885 139.006 7.78823 135.006 11.5657C131.696 14.6951 130.805 18.8371 130.58 20.4035C127.307 20.417 124.068 20.6027 120.845 21.0989C120.842 21.0989 120.835 21.0989 120.832 21.0989C120.774 21.1023 120.717 21.1124 120.663 21.1259C119.382 21.3284 118.104 21.5816 116.829 21.8922C118.477 20.7174 120.233 19.2659 121.467 17.6961C124.512 13.8174 124.071 7.54179 124.051 7.27848C124.034 7.04893 123.903 6.84301 123.704 6.73499C123.506 6.62696 123.264 6.62358 123.062 6.73161C122.712 6.92065 114.488 11.4003 112.866 15.4715C111.558 18.7527 111.316 22.3918 111.272 23.6544C108.161 24.8831 105.052 26.5373 101.938 28.7653C101.632 28.9847 101.561 29.4067 101.78 29.7139C101.911 29.8995 102.116 29.9974 102.328 29.9974C102.462 29.9974 102.6 29.9569 102.718 29.8725C108.615 25.6562 114.508 23.5362 120.475 22.5437C121.229 24.0291 123.772 28.6775 127.431 31.53C131.757 34.8957 138.891 35.878 139.191 35.9185C139.221 35.9219 139.251 35.9253 139.282 35.9253C139.473 35.9253 139.658 35.8409 139.786 35.6957C139.934 35.5236 139.991 35.2906 139.934 35.0746C139.857 34.7843 138.02 27.9517 132.682 24.4342C130.728 23.148 128.639 22.3547 126.769 21.8686C131.659 21.6086 136.614 21.8652 141.68 22.1285C142.185 22.1555 142.692 22.1825 143.2 22.2061C143.722 23.6138 145.585 28.0834 149.269 31.2127C153.14 34.5041 160.362 35.1185 160.668 35.1455C160.685 35.1455 160.702 35.1455 160.722 35.1455C160.91 35.1455 161.095 35.0645 161.223 34.9193C161.364 34.764 161.422 34.548 161.385 34.3387C161.341 34.126 160.318 29.0657 154.994 25.0013C153.54 23.8907 152.057 23.0872 150.654 22.4965C154.344 22.5707 158.115 22.5133 162.004 22.142C162.511 22.0914 163.019 22.0205 163.527 21.9563C164.466 23.148 168.092 27.3306 173.898 28.7754C176.03 29.3088 178.008 29.4877 179.714 29.4877C183.296 29.4877 185.687 28.691 185.832 28.6404C186.031 28.5729 186.185 28.4142 186.253 28.215C186.32 28.0159 186.293 27.7964 186.175 27.6209C186.037 27.415 182.754 22.537 177.329 21.1124C175.499 20.6297 173.353 20.4136 171.314 20.336C174.705 19.3502 178.062 18.0134 181.362 16.3222C181.496 16.3256 181.685 16.3323 181.944 16.3323C183.686 16.3323 188.109 16.0555 192.553 13.554C197.733 10.6408 198.856 3.1803 198.9 2.86635C198.93 2.66718 198.87 2.46801 198.742 2.31948ZM141.162 15.2048C139.171 16.9433 136.567 18.2632 134.495 19.1443C138.478 15.8293 143.032 10.6745 145.249 8.07854C144.728 10.0399 143.577 13.0949 141.162 15.2048ZM135.931 12.5548C138.525 10.1074 142.521 8.36211 144.785 7.50466C142.248 10.4753 136.372 17.1189 132.114 20.0625C132.077 20.076 132.04 20.0895 132.003 20.0997C132.319 18.4388 133.257 15.0833 135.931 12.5548ZM120.408 16.8522C118.42 19.3874 114.838 21.6728 112.92 22.7902C115.1 18.5063 120.542 11.4779 122.729 8.71994C122.688 10.6914 122.339 14.398 120.408 16.8522ZM114.121 15.9745C115.056 13.6249 118.79 10.9479 121.313 9.35121C118.982 12.3219 114.975 17.6151 112.802 21.4871C112.994 19.914 113.371 17.8582 114.121 15.9745ZM122.063 22.645C128.639 25.4604 135.275 31.7022 137.872 34.3083C135.578 33.8458 131.155 32.7149 128.259 30.4565C125.316 28.1644 123.075 24.4983 122.063 22.645ZM137.862 33.2821C135.171 30.6355 129.611 25.5684 123.846 22.6788C126.069 22.9927 129.184 23.7522 131.942 25.5684C135.08 27.6378 136.93 31.0642 137.862 33.2821ZM159.306 17.1492C157.271 18.6683 154.536 19.6642 152.336 20.2752C156.924 17.3214 161.499 12.44 163.746 9.88458C163.13 11.9944 161.819 15.2689 159.306 17.1492ZM155.088 13.7127C157.634 11.5016 161.264 9.97573 163.373 9.20943C160.877 12.0518 155.027 18.3139 149.834 20.8727C150.654 19.195 152.43 16.0217 155.088 13.7127ZM144.741 22.4188C149.312 24.7245 156.416 31.0102 159.249 33.596C156.968 33.2415 152.666 32.3233 150.14 30.173C147.207 27.6817 145.474 24.1675 144.741 22.4188ZM159.457 32.8061C156.77 30.3553 151.041 25.3152 146.591 22.6281C148.643 23.0737 151.492 24.0324 154.18 26.0815C157.204 28.3906 158.731 31.0777 159.457 32.8061ZM188.082 6.94428C190.915 4.46647 195.012 3.74068 197.03 3.53138C195.032 5.5906 189.906 10.4483 182.478 14.5499C183.41 12.7033 185.341 9.33771 188.082 6.94428ZM176.915 11.6906C175.314 14.8335 172.532 17.3315 171.012 18.5502C172.626 12.6055 176.804 5.63786 178.644 2.73807C178.674 4.80742 178.482 8.61867 176.915 11.6906ZM177.487 3.22756C175.67 6.16448 172.603 11.4881 170.89 16.4977C170.944 14.5634 171.19 12.0856 171.96 9.86433C172.892 7.17721 175.566 4.71965 177.487 3.22756ZM174.224 27.4588C169.841 26.3651 166.736 23.5126 165.293 21.9361C172.825 23.6544 180.642 26.4832 183.905 27.7222C181.984 28.1002 178.395 28.4986 174.224 27.4588ZM183.911 26.9525C180.797 25.7777 174.16 23.391 167.412 21.6998C170.187 21.6053 174.066 21.6559 176.986 22.4222C180.161 23.2594 182.583 25.4705 183.911 26.9525ZM191.897 12.3691C188.651 14.1954 185.361 14.7491 183.319 14.9111C190.144 11.0593 194.981 6.62021 197.178 4.40908C196.556 6.68097 195.066 10.5867 191.897 12.3691Z" fill="white" fill-opacity="0.5"/>
</g>
</g>
</svg>
