<svg width="167" height="159" viewBox="0 0 167 159" fill="none" xmlns="http://www.w3.org/2000/svg">
<g opacity="0.5">
<mask id="mask0_702_178" style="mask-type:luminance" maskUnits="userSpaceOnUse" x="0" y="0" width="83" height="80">
<path d="M82.843 79.7266L0 79.7266L0 0.299309L82.843 0.299309L82.843 79.7266Z" fill="white"/>
</mask>
<g mask="url(#mask0_702_178)">
<path d="M55.1531 53.1685V79.603H82.6997V53.1685C82.6997 38.5675 70.3683 26.734 55.1531 26.734L82.6997 0.299438H55.1531L27.6066 26.734V39.9499C20.0004 39.9499 13.8347 34.0331 13.8347 26.734H27.6066L27.6066 0.299438L0.0600128 0.299438V26.734H13.8347C6.22857 26.734 0.0600128 32.6507 0.0600128 39.9499C7.66904 39.9499 13.8347 45.8694 13.8347 53.1685C21.4409 53.1685 27.6066 47.2517 27.6066 39.9499V53.1685L55.1531 53.1685ZM76.9722 58.6676V74.104H60.8835V58.6676H76.9722ZM33.337 47.6694V32.233L49.4256 32.233V47.6694H33.337Z" fill="#F77F00"/>
</g>
<path d="M27.6068 106.038V107.623C27.6068 121.348 39.2021 132.472 53.5009 132.472H55.1533V130.886C55.1533 117.162 43.5608 106.038 29.262 106.038C43.5608 106.038 55.1533 94.9131 55.1533 81.1888V79.6031H53.5009C39.2021 79.6031 27.6068 90.7276 27.6068 104.452V106.038C27.6068 91.4367 15.2754 79.6031 0.0601883 79.6031C15.2754 79.6031 27.6068 67.7668 27.6068 53.1686C12.3944 53.1686 0.0601883 65.0021 0.0601883 79.6031C0.0601883 94.2013 12.3944 106.038 27.6068 106.038Z" fill="#F77F00"/>
<path d="M13.8348 79.603C21.4409 79.603 27.6066 85.5197 27.6066 92.8188C27.6066 85.5197 33.7752 79.603 41.3813 79.603C33.7752 79.603 27.6066 73.6862 27.6066 66.3843C27.6066 73.6862 21.4409 79.603 13.8348 79.603Z" fill="#F77F00"/>
<mask id="mask1_702_178" style="mask-type:luminance" maskUnits="userSpaceOnUse" x="0" y="105" width="28" height="54">
<path d="M27.8588 159H4.76837e-05L4.76837e-05 105.757H27.8588L27.8588 159Z" fill="white"/>
</mask>
<g mask="url(#mask1_702_178)">
<path d="M27.6068 132.472H13.835C21.4411 132.472 27.6068 126.555 27.6068 119.254C27.6068 111.954 21.4411 106.038 13.835 106.038C6.2288 106.038 0.0602455 111.954 0.0602455 119.254C0.0602455 126.555 6.2288 132.472 13.835 132.472H0.0602455L0.0602455 158.907L27.6068 132.472Z" fill="#F77F00"/>
</g>
<mask id="mask2_702_178" style="mask-type:luminance" maskUnits="userSpaceOnUse" x="54" y="0" width="112" height="54">
<path d="M165.34 53.6963L54.9844 53.6963L54.9844 0.29958L165.34 0.29958V53.6963Z" fill="white"/>
</mask>
<g mask="url(#mask2_702_178)">
<path d="M55.1533 26.7344L110.246 26.7344C95.0341 26.7344 82.6999 38.568 82.6999 53.1689C97.9151 53.1689 110.246 41.3326 110.246 26.7344V0.299885C110.246 14.8981 122.581 26.7344 137.793 26.7344L165.34 26.7344V0.299885L82.6999 0.299885C82.6999 14.8981 70.3685 26.7344 55.1533 26.7344ZM159.612 5.79895V21.2354L143.523 21.2354V5.79895H159.612Z" fill="#F77F00"/>
</g>
<path d="M27.6067 119.254C27.6067 119.688 27.5866 120.119 27.5408 120.551C27.4979 120.982 27.432 121.408 27.3432 121.834C27.2544 122.257 27.1456 122.678 27.0139 123.09C26.885 123.505 26.7332 123.912 26.5586 124.313C26.3867 124.711 26.1949 125.104 25.9829 125.486C25.7682 125.866 25.5362 126.237 25.287 126.597C25.035 126.957 24.7687 127.306 24.4823 127.638C24.1959 127.973 23.8924 128.295 23.5745 128.6C23.2538 128.908 22.9216 129.196 22.5722 129.471C22.2228 129.746 21.862 130.004 21.4868 130.243C21.1117 130.485 20.7251 130.708 20.327 130.911C19.9289 131.115 19.5223 131.299 19.1042 131.466C18.6889 131.631 18.2651 131.777 17.8327 131.903C17.4002 132.027 16.9649 132.134 16.5211 132.217C16.08 132.302 15.6333 132.365 15.1837 132.409C14.7369 132.45 14.2844 132.472 13.8348 132.472C13.3824 132.472 12.9328 132.45 12.486 132.409C12.0364 132.365 11.5896 132.302 11.1486 132.217C10.7047 132.134 10.2694 132.027 9.83702 131.903C9.40459 131.777 8.98075 131.631 8.56264 131.466C8.1474 131.299 7.74074 131.115 7.34268 130.911C6.94462 130.708 6.55801 130.485 6.18286 130.243C5.8077 130.004 5.44687 129.746 5.09749 129.471C4.74811 129.196 4.41305 128.908 4.09517 128.6C3.77729 128.295 3.47373 127.973 3.18736 127.638C2.90098 127.306 2.63178 126.957 2.38264 126.597C2.13062 126.237 1.90153 125.866 1.68674 125.486C1.47482 125.104 1.28295 124.711 1.11112 124.313C0.936436 123.912 0.784655 123.505 0.655787 123.09C0.524054 122.678 0.41523 122.257 0.326452 121.834C0.237677 121.408 0.17181 120.982 0.128853 120.551C0.0830326 120.119 0.0601234 119.688 0.0601234 119.254C0.0601234 118.822 0.0830326 118.391 0.128853 117.959C0.17181 117.528 0.237677 117.102 0.326452 116.676C0.41523 116.253 0.524054 115.832 0.655787 115.417C0.784655 115.005 0.936436 114.595 1.11112 114.197C1.28295 113.796 1.47482 113.405 1.68674 113.023C1.90153 112.641 2.13062 112.27 2.38264 111.91C2.63178 111.55 2.90098 111.204 3.18736 110.869C3.47373 110.534 3.77729 110.215 4.09517 109.91C4.41305 109.602 4.74811 109.311 5.09749 109.039C5.44687 108.764 5.8077 108.505 6.18286 108.264C6.55801 108.025 6.94462 107.802 7.34268 107.599C7.74074 107.395 8.1474 107.208 8.56264 107.043C8.98075 106.879 9.40459 106.733 9.83702 106.607C10.2694 106.48 10.7047 106.376 11.1486 106.29C11.5896 106.208 12.0364 106.142 12.486 106.101C12.9328 106.06 13.3824 106.038 13.8348 106.038C14.2844 106.038 14.7369 106.06 15.1837 106.101C15.6333 106.142 16.08 106.208 16.5211 106.29C16.9649 106.376 17.4002 106.48 17.8327 106.607C18.2651 106.733 18.6889 106.879 19.1042 107.043C19.5223 107.208 19.9289 107.395 20.327 107.599C20.7251 107.802 21.1117 108.025 21.4868 108.264C21.862 108.505 22.2228 108.764 22.5722 109.039C22.9216 109.311 23.2538 109.602 23.5745 109.91C23.8924 110.215 24.1959 110.534 24.4823 110.869C24.7687 111.204 25.035 111.55 25.287 111.91C25.5362 112.27 25.7682 112.641 25.9829 113.023C26.1949 113.405 26.3867 113.796 26.5586 114.197C26.7332 114.595 26.885 115.005 27.0139 115.417C27.1456 115.832 27.2544 116.253 27.3432 116.676C27.432 117.102 27.4979 117.528 27.5408 117.959C27.5866 118.391 27.6067 118.822 27.6067 119.254Z" fill="#6690B8"/>
<path d="M27.6067 39.9498C27.6067 47.2517 21.441 53.1685 13.8348 53.1685C13.8348 45.8693 7.66915 39.9498 0.0601234 39.9498C0.0601234 32.6507 6.22868 26.7339 13.8348 26.7339C13.8348 34.033 20.0005 39.9498 27.6067 39.9498Z" fill="#FFDE59"/>
<mask id="mask3_702_178" style="mask-type:luminance" maskUnits="userSpaceOnUse" x="82" y="0" width="29" height="27">
<path d="M110.702 26.9622L82.1098 26.9622V0.29953L110.702 0.29953V26.9622Z" fill="white"/>
</mask>
<g mask="url(#mask3_702_178)">
<path d="M110.246 0.299601V26.7341L82.6998 26.7341V0.299601L110.246 0.299601Z" fill="#6690B8"/>
</g>
<path d="M110.246 26.7339C110.246 27.5996 110.203 28.4625 110.115 29.3254C110.026 30.1856 109.894 31.0403 109.719 31.8895C109.542 32.7387 109.324 33.5796 109.061 34.4068C108.8 35.2367 108.497 36.0502 108.15 36.8499C107.806 37.6496 107.42 38.4301 106.996 39.1941C106.569 39.9581 106.105 40.7001 105.604 41.4201C105.103 42.1401 104.567 42.8354 103.995 43.5032C103.422 44.1737 102.818 44.8141 102.179 45.4269C101.54 46.037 100.873 46.6196 100.177 47.1665C99.4786 47.7161 98.754 48.2328 98.0037 48.7137C97.2563 49.1946 96.4831 49.6398 95.687 50.0465C94.8908 50.456 94.0775 50.8243 93.2413 51.1568C92.4079 51.4866 91.5603 51.7779 90.6983 52.0307C89.8334 52.2808 88.96 52.4924 88.0751 52.66C87.1902 52.8304 86.2995 52.9568 85.4003 53.042C84.5039 53.1245 83.6019 53.1685 82.6998 53.1685C82.6998 52.3028 82.7456 51.4399 82.8344 50.5769C82.9231 49.7168 83.0549 48.8593 83.2296 48.0102C83.4071 47.161 83.6248 46.3228 83.8882 45.4956C84.1488 44.6657 84.4524 43.8522 84.7989 43.0525C85.1426 42.2528 85.5292 41.4696 85.953 40.7083C86.3797 39.9443 86.8436 39.2023 87.3448 38.4823C87.846 37.7623 88.3815 37.067 88.9542 36.3992C89.527 35.7286 90.1312 35.0883 90.7699 34.4755C91.4085 33.8626 92.0757 33.2828 92.7716 32.7332C93.4704 32.1835 94.1921 31.6696 94.9424 31.1887C95.6927 30.7078 96.4659 30.2626 97.262 29.8558C98.0581 29.4464 98.8715 29.0781 99.7048 28.7456C100.538 28.4158 101.389 28.1245 102.251 27.8717C103.116 27.6216 103.989 27.41 104.874 27.2423C105.759 27.0719 106.649 26.9455 107.549 26.8603C108.445 26.7751 109.344 26.7339 110.246 26.7339Z" fill="#FFCC00"/>
<path d="M82.6997 53.1685H55.1531V79.603H82.6997V53.1685ZM60.8835 74.104V58.6676H76.9722V74.104H60.8835Z" fill="#FFDE59"/>
<mask id="mask4_702_178" style="mask-type:luminance" maskUnits="userSpaceOnUse" x="137" y="0" width="29" height="27">
<path d="M165.34 26.9622L137.094 26.9622V0.29953L165.34 0.29953V26.9622Z" fill="white"/>
</mask>
<g mask="url(#mask4_702_178)">
<path d="M165.34 0.299601L137.793 0.299601V26.7341L165.34 26.7341V0.299601ZM143.523 21.2351V5.79866L159.612 5.79866V21.2351L143.523 21.2351Z" fill="#FFDE59"/>
</g>
<path d="M55.1533 26.7339L27.6068 26.7339L27.6068 53.1685H55.1533L55.1533 26.7339ZM33.3372 47.6694V32.233H49.4258V47.6694H33.3372Z" fill="#FFCC00"/>
<path d="M27.6067 106.038C26.7046 106.038 25.8054 105.994 24.909 105.911C24.0098 105.826 23.1192 105.7 22.2343 105.529C21.3494 105.362 20.4759 105.15 19.6111 104.9C18.7491 104.647 17.8985 104.356 17.0652 104.026C16.2318 103.693 15.4185 103.325 14.6224 102.916C13.8262 102.509 13.053 102.064 12.3027 101.583C11.5524 101.102 10.8307 100.585 10.132 100.036C9.43609 99.4887 8.76884 98.9061 8.13022 98.296C7.4916 97.6832 6.88734 97.0429 6.31459 96.3723C5.74183 95.7045 5.20631 95.0092 4.70515 94.2892C4.20399 93.5692 3.74006 92.8272 3.31336 92.0632C2.88952 91.2992 2.50291 90.5188 2.15926 89.719C1.81275 88.9193 1.50919 88.1059 1.24859 87.2759C0.985119 86.4487 0.767473 85.6078 0.58992 84.7586C0.41523 83.9094 0.283497 83.0548 0.194719 82.1946C0.105944 81.3317 0.0601234 80.4687 0.0601234 79.6031C0.96221 79.6031 1.8643 79.6443 2.76065 79.7295C3.65988 79.8147 4.55051 79.9411 5.43541 80.1115C6.32032 80.2791 7.19376 80.4907 8.05862 80.7408C8.92061 80.9936 9.76829 81.2849 10.6016 81.6147C11.4379 81.9472 12.2512 82.3155 13.0473 82.725C13.8434 83.1317 14.6166 83.5769 15.3641 84.0578C16.1144 84.5388 16.8389 85.0527 17.5377 85.6023C18.2336 86.1519 18.9008 86.7318 19.5395 87.3446C20.1781 87.9575 20.7823 88.5978 21.3551 89.2683C21.9278 89.9361 22.4634 90.6314 22.9645 91.3514C23.4657 92.0715 23.9296 92.8135 24.3563 93.5774C24.7802 94.3387 25.1668 95.1219 25.5104 95.9216C25.8569 96.7213 26.1605 97.5348 26.4211 98.3647C26.6846 99.1919 26.9022 100.03 27.0798 100.879C27.2544 101.728 27.3862 102.586 27.475 103.446C27.5637 104.309 27.6067 105.172 27.6067 106.038Z" fill="#FFCC00"/>
<path d="M55.1533 79.6031L55.1533 81.1888C55.1533 82.0022 55.1132 82.8157 55.0302 83.6236C54.9471 84.4343 54.8211 85.2395 54.6579 86.0365C54.4918 86.8335 54.2856 87.6222 54.0393 88.4027C53.793 89.1804 53.5067 89.9471 53.183 90.6974C52.8594 91.4504 52.4957 92.1841 52.0977 92.9014C51.6968 93.6187 51.2615 94.3167 50.7918 94.9928C50.3193 95.6715 49.8153 96.3229 49.2769 96.9522C48.7385 97.5815 48.1715 98.1834 47.5701 98.7605C46.9715 99.3348 46.3444 99.8817 45.6886 100.396C45.0328 100.912 44.3512 101.399 43.6467 101.849C42.9422 102.303 42.2148 102.721 41.4674 103.103C40.7199 103.487 39.9524 103.834 39.1706 104.147C38.386 104.457 37.5898 104.732 36.7765 104.969C35.9661 105.202 35.1442 105.4 34.3137 105.559C33.4803 105.719 32.6441 105.837 31.7993 105.917C30.9545 105.996 30.1097 106.038 29.262 106.038H27.6068V104.452C27.6068 103.638 27.6497 102.825 27.7328 102.014C27.8158 101.206 27.9389 100.401 28.105 99.6042C28.2711 98.8044 28.4773 98.0157 28.7236 97.238C28.9699 96.4603 29.2534 95.6935 29.5799 94.9433C29.9035 94.1903 30.2643 93.4565 30.6653 92.7365C31.0662 92.0192 31.5015 91.324 31.9711 90.6452C32.4437 89.9691 32.9477 89.3178 33.4861 88.6885C34.0245 88.0591 34.5915 87.4573 35.1929 86.8802C35.7914 86.3058 36.4186 85.7589 37.0744 85.2423C37.7302 84.7256 38.4117 84.242 39.1162 83.7913C39.8207 83.3378 40.5481 82.9201 41.2956 82.5381C42.043 82.1534 42.8105 81.8043 43.5923 81.4938C44.377 81.1833 45.1731 80.9084 45.9864 80.6721C46.7969 80.4358 47.6188 80.2379 48.4492 80.0812C49.2826 79.9219 50.1188 79.8009 50.9636 79.7212C51.8084 79.6415 52.6533 79.6031 53.5009 79.6031H55.1533Z" fill="#FFDE59"/>
<path d="M41.3813 79.603C33.7752 79.603 27.6066 73.6862 27.6066 66.3843C27.6066 73.6862 21.4409 79.603 13.8348 79.603C21.4409 79.603 27.6066 85.5197 27.6066 92.8188C27.6066 85.5197 33.7752 79.603 41.3813 79.603Z" fill="#FFCC00"/>
<mask id="mask5_702_178" style="mask-type:luminance" maskUnits="userSpaceOnUse" x="82" y="0" width="29" height="27">
<path d="M110.702 26.9622L82.1098 26.9622V0.29953L110.702 0.29953V26.9622Z" fill="white"/>
</mask>
<g mask="url(#mask5_702_178)">
<path d="M110.246 13.5155C102.64 13.5155 96.4745 7.59871 96.4745 0.299601C96.4745 7.59871 90.3088 13.5155 82.6998 13.5155C90.3088 13.5155 96.4745 19.435 96.4745 26.7341C96.4745 19.435 102.64 13.5155 110.246 13.5155Z" fill="#FFCC00"/>
</g>
<mask id="mask6_702_178" style="mask-type:luminance" maskUnits="userSpaceOnUse" x="0" y="131" width="28" height="28">
<path d="M27.8588 159H4.76837e-05L4.76837e-05 131.788H27.8588L27.8588 159Z" fill="white"/>
</mask>
<g mask="url(#mask6_702_178)">
<path d="M27.6068 132.472H0.0602455L0.0602455 158.907L27.6068 132.472Z" fill="#FFDE59"/>
</g>
<mask id="mask7_702_178" style="mask-type:luminance" maskUnits="userSpaceOnUse" x="54" y="0" width="29" height="27">
<path d="M82.843 26.9622L54.9843 26.9622V0.29953L82.843 0.29953V26.9622Z" fill="white"/>
</mask>
<g mask="url(#mask7_702_178)">
<path d="M82.6997 0.299601V26.7341L55.1531 26.7341C70.3683 26.7341 82.6997 14.8978 82.6997 0.299601Z" fill="#FFCC00"/>
<path d="M55.1531 26.7341V0.299601L82.6997 0.299601L55.1531 26.7341Z" fill="#FFCC00"/>
</g>
<mask id="mask8_702_178" style="mask-type:luminance" maskUnits="userSpaceOnUse" x="27" y="0" width="29" height="27">
<path d="M55.7175 26.9622L27.1257 26.9622L27.1257 0.29953L55.7175 0.29953L55.7175 26.9622Z" fill="white"/>
</mask>
<g mask="url(#mask8_702_178)">
<path d="M55.1533 26.7341L55.1533 0.299601L27.6068 26.7341L55.1533 26.7341Z" fill="#6690B8"/>
</g>
</g>
</svg>
