<svg width="312" height="312" viewBox="0 0 312 312" fill="none" xmlns="http://www.w3.org/2000/svg">
<mask id="mask0_189_650" style="mask-type:luminance" maskUnits="userSpaceOnUse" x="0" y="0" width="312" height="312">
<path d="M0 0H312V312H0V0Z" fill="white"/>
</mask>
<g mask="url(#mask0_189_650)">
<path d="M102.61 9.30475C102.61 6.04062 105.262 4.08532 108.353 5.07621C108.692 5.19279 109.025 5.31466 109.353 5.45773C109.819 5.6432 110.237 5.89225 110.618 6.21548C110.999 6.53871 111.317 6.91494 111.571 7.34415C111.825 7.76806 112.005 8.22907 112.111 8.71657C112.217 9.20407 112.238 9.69157 112.18 10.1897C112.143 10.6719 112.032 11.1382 111.852 11.5939C111.672 12.0443 111.428 12.4576 111.126 12.8338C110.819 13.2153 110.47 13.5386 110.068 13.8141C109.666 14.0897 109.231 14.2963 108.771 14.4394C108.289 14.5719 107.802 14.6302 107.305 14.6037C106.807 14.5825 106.325 14.4818 105.86 14.3016C105.394 14.1268 104.97 13.8777 104.584 13.5651C104.198 13.2524 103.869 12.8815 103.599 12.4629C102.927 11.5197 102.599 10.4652 102.61 9.30475ZM230.442 49.5818C230.05 49.5818 229.658 49.5394 229.272 49.4652C228.885 49.3857 228.51 49.2691 228.15 49.1155C227.784 48.9671 227.44 48.7817 227.112 48.5591C226.784 48.3418 226.482 48.0928 226.202 47.8172C225.926 47.5364 225.678 47.2344 225.455 46.9058C225.238 46.5826 225.048 46.2329 224.9 45.8725C224.746 45.5069 224.63 45.1307 224.55 44.7492C224.471 44.3624 224.434 43.9702 224.428 43.5781C224.428 40.4518 226.985 37.691 229.896 37.6645C233.131 37.6645 236.206 40.6319 236.206 43.8272C236.206 44.2087 236.169 44.5796 236.089 44.9505C236.015 45.3215 235.904 45.6818 235.761 46.0315C235.613 46.3759 235.433 46.7098 235.221 47.0224C235.015 47.335 234.777 47.6265 234.507 47.8914C234.237 48.1617 233.951 48.4001 233.633 48.6068C233.321 48.8187 232.988 48.9936 232.638 49.142C232.294 49.285 231.934 49.3963 231.564 49.4705C231.193 49.5447 230.817 49.5818 230.442 49.5818ZM207.252 51.8232C205.113 51.8232 203.467 50.3925 203.467 48.4849C203.467 47.9656 203.568 47.4622 203.758 46.98C203.949 46.4978 204.224 46.0686 204.584 45.6871C204.939 45.3109 205.352 45.0088 205.823 44.7916C206.294 44.569 206.786 44.4418 207.305 44.41C207.813 44.4153 208.3 44.5107 208.771 44.7068C209.237 44.8975 209.655 45.1678 210.02 45.5228C210.385 45.8725 210.671 46.2806 210.883 46.7469C211.089 47.2079 211.206 47.6901 211.227 48.1988C211.206 48.7075 211.089 49.1844 210.878 49.6454C210.661 50.1011 210.37 50.5038 209.994 50.8429C209.623 51.1821 209.2 51.4364 208.723 51.606C208.247 51.7808 207.76 51.8497 207.252 51.8232ZM51.6991 55.4901C48.5444 55.4901 46.1836 53.4182 46.0883 50.5356C46.0565 49.9845 46.12 49.4387 46.2788 48.9088C46.4376 48.3789 46.6811 47.8914 47.0093 47.4463C47.3428 47.0012 47.7398 46.625 48.2003 46.323C48.6661 46.0156 49.1637 45.7984 49.7036 45.6712C50.7252 45.3956 51.7415 45.3903 52.7631 45.6553C53.7847 45.9202 54.6739 46.4183 55.4362 47.1496C55.7802 47.4887 56.0714 47.8649 56.3096 48.2888C56.5425 48.7128 56.7065 49.1579 56.8071 49.6348C56.9024 50.1064 56.9289 50.5833 56.8812 51.0655C56.8336 51.5477 56.7171 52.0087 56.5319 52.4591C56.3254 52.9201 56.0502 53.344 55.7167 53.7255C55.3832 54.1071 55.0021 54.4356 54.5734 54.7005C54.1446 54.9708 53.6841 55.1721 53.1918 55.3099C52.7048 55.4424 52.2073 55.5007 51.6991 55.4901ZM272.533 30.5269C272.38 30.4739 272.226 30.4315 272.073 30.405C267.5 30.405 262.926 30.405 258.348 30.405C258.03 30.3732 257.723 30.4209 257.427 30.5534C255.537 31.486 253.997 32.8266 252.816 34.5753C252.461 35.1105 252.25 35.6986 252.17 36.3345C252.096 36.9704 252.17 37.5903 252.393 38.1944C252.986 39.8371 254.462 40.4094 255.966 39.5297C256.617 39.1694 257.162 38.6819 257.585 38.0672C258.014 37.4526 258.279 36.7743 258.385 36.0325C258.485 35.3542 258.739 35.2005 259.332 35.5185C259.697 35.7145 259.988 35.9901 260.195 36.3504C260.825 37.3519 261.01 38.4329 260.745 39.5827C260.565 40.3352 260.258 41.0346 259.824 41.6758C259.396 42.317 258.861 42.8628 258.231 43.3132C257.601 43.7583 256.913 44.0815 256.161 44.2829C255.415 44.4789 254.658 44.5372 253.885 44.463C252.896 44.3465 252.795 44.3889 252.763 45.3533C252.663 48.2359 247.946 50.2388 245.633 48.1723C244.934 47.5364 244.342 46.8105 243.855 45.9944C243.632 45.4751 243.288 45.0565 242.822 44.7333C242.441 45.8778 242.378 47.0383 242.632 48.22C242.997 51.0019 244.04 53.5931 245.077 56.1789C245.824 57.8269 246.395 59.5331 246.787 61.2977C246.835 61.5732 246.671 61.9336 247.094 62.0978C247.205 62.0236 247.311 61.9389 247.406 61.8488C251.646 57.085 256.278 52.6975 260.878 48.2941C261.539 47.6689 261.963 46.9111 262.138 46.0156C262.794 43.1383 263.911 40.4518 265.488 37.9613C267.066 35.4708 269.008 33.3088 271.327 31.486L272.533 30.5269ZM281.278 39.5297C280.923 39.5827 280.833 39.8053 280.701 39.9749C278.817 42.4759 276.556 44.569 273.92 46.2541C271.279 47.9391 268.431 49.1049 265.372 49.7619C264.747 49.905 264.223 50.223 263.8 50.7052C259.269 55.3841 254.822 60.1425 249.952 64.477C249.841 64.6148 249.746 64.7632 249.672 64.9274C252.647 65.2401 255.193 66.6125 257.876 67.5981C259.544 68.2658 261.264 68.7638 263.037 69.0871C264.35 69.3732 265.663 69.3732 266.981 69.0871C266.981 68.5519 266.573 68.4565 266.293 68.2552C265.546 67.8365 264.853 67.349 264.202 66.7927C263.868 66.5065 263.593 66.1727 263.366 65.7965C263.143 65.4149 262.979 65.0122 262.884 64.583C262.789 64.1538 262.762 63.7193 262.81 63.2795C262.852 62.8397 262.963 62.4211 263.143 62.0183C263.821 60.1266 265.075 59.0562 267.118 58.9927C267.246 58.9609 267.362 58.9079 267.473 58.8284C267.42 58.4151 267.351 58.0071 267.325 57.6096C267.298 56.942 267.373 56.2902 267.547 55.6437C267.727 55.0026 267.997 54.4038 268.357 53.8421C268.722 53.2804 269.162 52.7929 269.675 52.369C270.189 51.9451 270.76 51.6113 271.38 51.3622C272.004 51.092 272.661 50.9754 273.343 51.0072C274.026 51.039 274.672 51.2191 275.27 51.5477C275.778 51.7861 276.154 52.1677 276.387 52.6763C276.588 53.148 276.419 53.4023 275.895 53.4553C275.122 53.5348 274.418 53.7891 273.772 54.2236C273.132 54.6634 272.634 55.2251 272.274 55.914C271.385 57.403 271.988 58.892 273.624 59.4802C274.296 59.7186 274.979 59.7822 275.683 59.6709C276.382 59.5543 277.017 59.2841 277.578 58.8496C278.864 57.9011 279.912 56.7406 280.733 55.3735C281.193 54.6899 281.416 53.9269 281.405 53.1003C281.405 48.9724 281.405 44.834 281.405 40.7008C281.447 40.2981 281.4 39.906 281.262 39.5297H281.278ZM268.235 87.4107C267.844 87.4054 267.452 87.3683 267.066 87.2888C266.679 87.2094 266.309 87.0928 265.943 86.9391C265.578 86.7855 265.234 86.6 264.906 86.3827C264.583 86.1655 264.276 85.9164 264.001 85.6356C263.72 85.36 263.471 85.058 263.249 84.7295C263.032 84.4062 262.842 84.0618 262.688 83.6962C262.535 83.3359 262.418 82.9596 262.339 82.5728C262.259 82.186 262.217 81.7992 262.212 81.4071C262.212 81.0255 262.254 80.6546 262.333 80.2837C262.408 79.9128 262.519 79.5577 262.667 79.208C262.815 78.8583 262.99 78.5297 263.201 78.2171C263.413 77.9045 263.651 77.613 263.921 77.3481C264.186 77.0831 264.477 76.8447 264.795 76.638C265.107 76.4261 265.435 76.2512 265.785 76.1081C266.134 75.9598 266.494 75.8538 266.864 75.7796C267.235 75.7001 267.605 75.663 267.981 75.663C268.796 75.7001 269.575 75.8856 270.316 76.2194C271.062 76.5533 271.718 77.009 272.29 77.5918C272.856 78.1747 273.301 78.8424 273.619 79.5948C273.936 80.342 274.106 81.1262 274.127 81.9422C274.079 84.8778 271.364 87.4107 268.225 87.4107H268.235ZM263.662 100.674C264.16 100.695 264.636 100.806 265.086 101.008C265.541 101.209 265.943 101.49 266.293 101.845C266.642 102.2 266.912 102.608 267.103 103.069C267.293 103.525 267.394 104.007 267.404 104.505C267.383 105.024 267.272 105.522 267.06 105.994C266.849 106.471 266.557 106.89 266.187 107.25C265.816 107.615 265.388 107.896 264.906 108.092C264.43 108.288 263.927 108.389 263.408 108.394C261.428 108.394 259.962 106.741 259.999 104.526C259.988 104.033 260.073 103.551 260.248 103.09C260.428 102.624 260.687 102.216 261.031 101.856C261.375 101.495 261.772 101.22 262.222 101.018C262.677 100.817 263.154 100.711 263.646 100.7L263.662 100.674ZM232.601 17.4545C212.667 17.4545 192.738 17.4545 172.803 17.4545C171.967 17.3962 171.274 17.6823 170.723 18.3182C168.341 20.8458 164.165 19.7595 162.852 16.3523C162.741 16.0874 162.656 15.8118 162.603 15.531C162.55 15.2501 162.529 14.964 162.54 14.6725C162.55 14.3864 162.593 14.1056 162.667 13.8247C162.741 13.5439 162.847 13.2789 162.979 13.0246C163.111 12.7702 163.27 12.5318 163.456 12.3092C163.646 12.092 163.852 11.8959 164.08 11.721C164.313 11.5462 164.557 11.3978 164.821 11.2812C165.081 11.1647 165.356 11.0746 165.636 11.0163C167.796 10.5235 169.712 11.064 171.02 12.9133C171.252 13.2524 171.559 13.5121 171.941 13.6816C172.316 13.8565 172.713 13.9148 173.126 13.8671C197.592 13.9095 222.062 13.9678 246.522 14.0314C262.46 14.0685 278.393 14.1638 294.331 14.1638C297.057 14.1638 297.581 15.0965 297.581 17.3909C297.645 50.0587 297.724 82.7318 297.825 115.405C297.825 123.178 297.909 130.947 297.915 138.725C297.867 139.165 297.936 139.589 298.121 139.992C298.306 140.395 298.582 140.718 298.952 140.967C299.365 141.279 299.725 141.65 300.027 142.074C300.323 142.504 300.551 142.965 300.704 143.463C300.858 143.961 300.932 144.469 300.926 144.989C300.921 145.513 300.831 146.017 300.667 146.515C300.593 146.78 300.492 147.034 300.365 147.283C300.238 147.527 300.085 147.755 299.91 147.967C299.736 148.179 299.534 148.375 299.317 148.544C299.1 148.714 298.867 148.857 298.619 148.979C298.37 149.095 298.11 149.191 297.841 149.254C297.571 149.318 297.301 149.355 297.025 149.36C296.75 149.366 296.475 149.339 296.205 149.286C295.93 149.233 295.67 149.148 295.416 149.037C291.446 147.437 291.097 142.965 293.701 140.898C294.183 140.495 294.373 139.981 294.268 139.361C294.268 135.896 294.268 132.414 294.268 128.981C294.178 92.4871 294.077 55.9988 293.966 19.5052C293.966 17.5446 294.135 17.7565 292.256 17.7565H232.601V17.4545ZM306.945 205.237C306.945 207.654 304.997 209.429 302.424 209.402C299.529 209.37 297.099 207.055 297.158 204.352C297.184 203.717 297.332 203.107 297.602 202.53C297.867 201.952 298.232 201.449 298.698 201.014C299.164 200.585 299.693 200.256 300.291 200.034C300.884 199.811 301.503 199.705 302.139 199.726C305.473 199.801 306.887 202.943 306.945 205.237ZM266.287 260.738C266.287 263.393 264.774 265.391 262.497 265.846C261.91 265.979 261.317 266.005 260.719 265.921C260.121 265.836 259.56 265.645 259.03 265.359C258.501 265.067 258.041 264.691 257.649 264.23C257.257 263.769 256.961 263.255 256.76 262.688C256.13 261.204 256.114 259.715 256.707 258.216C257.014 257.336 257.532 256.621 258.268 256.059C259.009 255.498 259.84 255.185 260.767 255.127C261.661 255.037 262.519 255.19 263.329 255.593C264.138 255.996 264.774 256.584 265.245 257.357C265.943 258.375 266.287 259.504 266.287 260.738ZM266.917 249.028C265.536 249.796 264.075 250.379 262.545 250.776C257.712 251.772 252.911 251.645 248.137 250.4C247.83 250.326 247.539 250.22 247.258 250.071C246.782 249.902 246.512 249.563 246.454 249.065C246.395 248.561 246.581 248.169 247.004 247.894C247.576 247.459 248.185 247.083 248.825 246.76C254.229 243.851 259.205 240.337 263.747 236.21C268.304 232.066 272.115 227.318 275.18 221.971C275.715 221.033 276.138 220.053 276.445 219.015C278.51 212.306 280.002 205.465 280.918 198.502C281.019 197.607 281.066 196.711 281.056 195.811C281.082 184.126 281.103 172.437 281.119 160.748C281.119 155.364 281.183 149.97 281.209 144.575C281.267 144.046 281.23 143.526 281.098 143.012C280.595 143.224 280.42 143.701 280.14 144.056C279.515 144.899 278.801 145.656 277.996 146.329C277.192 147.002 276.318 147.575 275.376 148.036C274.434 148.502 273.449 148.846 272.422 149.074C271.401 149.302 270.363 149.408 269.315 149.387C268.601 149.392 267.891 149.334 267.182 149.207C266.478 149.085 265.795 148.889 265.128 148.634C264.456 148.38 263.821 148.062 263.212 147.686C262.603 147.31 262.037 146.88 261.508 146.393C260.984 145.911 260.502 145.381 260.078 144.803C259.65 144.231 259.279 143.622 258.967 142.975C258.655 142.334 258.406 141.666 258.221 140.972C258.035 140.278 257.914 139.579 257.861 138.863C257.585 135.769 258.083 132.854 260.211 130.411C260.285 130.284 260.343 130.141 260.38 129.993C255.923 129.118 252.483 126.649 249.561 123.343C248.365 122.034 247.459 120.54 246.851 118.87C246.597 118.33 246.512 117.758 246.591 117.159C246.623 116.873 246.766 116.661 247.02 116.528C247.348 116.396 247.507 116.661 247.655 116.873C247.798 117.079 248.02 117.381 248.211 117.636C250.418 120.582 253.107 123.004 256.273 124.885C258.639 126.337 261.206 127.041 263.985 126.988C265.282 126.988 266.584 126.909 267.881 126.893C268.177 126.893 268.569 126.824 268.728 127.153C268.886 127.481 268.574 127.852 268.315 128.048C266.965 129.108 265.769 130.321 264.731 131.688C263.503 133.236 262.932 134.995 263.022 136.966C263.032 137.242 263.064 137.517 263.112 137.787C263.159 138.058 263.223 138.328 263.302 138.588C263.387 138.853 263.482 139.107 263.598 139.361C263.715 139.61 263.842 139.849 263.99 140.082C264.138 140.315 264.297 140.538 264.472 140.75C264.652 140.962 264.837 141.163 265.038 141.348C265.239 141.534 265.456 141.709 265.679 141.868C265.901 142.027 266.139 142.17 266.377 142.302C266.621 142.429 266.875 142.541 267.129 142.636C267.388 142.731 267.653 142.811 267.918 142.874C268.188 142.933 268.458 142.975 268.733 143.002C269.008 143.028 269.283 143.039 269.553 143.028C269.829 143.018 270.104 142.991 270.374 142.943C270.644 142.896 270.914 142.837 271.178 142.753C271.438 142.673 271.697 142.578 271.946 142.461C272.195 142.35 272.438 142.217 272.671 142.074C273.693 141.401 274.582 140.585 275.339 139.621C276.99 137.47 278.361 135.154 279.462 132.674C280.727 130.051 281.336 127.285 281.283 124.376C281.225 103.927 281.283 83.4736 281.326 63.0251V61.1281C279.039 62.8715 276.678 63.8518 274.106 63.8147C273.83 64.0425 273.92 64.2227 273.941 64.3923C274.074 65.2242 274.058 66.0508 273.899 66.8721C273.735 67.6988 273.439 68.4671 272.999 69.1825C272.565 69.8978 272.015 70.5178 271.358 71.0371C270.702 71.5564 269.972 71.9485 269.178 72.2081C266.811 73.0613 264.398 72.9023 262 72.3618C259.644 71.7577 257.368 70.9364 255.177 69.8978C253.716 69.1931 252.223 68.589 250.688 68.075C250.117 67.8948 249.534 67.8206 248.936 67.8577C248.883 68.0644 248.963 68.2022 249.164 68.271C255.341 71.8743 257.914 78.1535 256.034 85.0686C255.844 85.7628 255.611 86.441 255.362 87.114C254.785 88.5977 254.372 90.1238 254.124 91.6922C253.875 93.2607 253.795 94.8398 253.885 96.4295C253.975 98.0138 254.235 99.577 254.658 101.108C255.087 102.64 255.669 104.108 256.41 105.512C257.517 107.78 259.073 109.677 261.079 111.198C261.968 111.918 262.969 112.411 264.085 112.665C264.821 112.861 265.552 112.846 266.282 112.612C267.007 112.384 267.621 111.982 268.114 111.399C269.141 110.228 269.897 108.908 270.384 107.43C270.871 105.952 271.051 104.436 270.924 102.884C270.903 102.364 270.808 101.856 270.633 101.363C270.459 100.87 270.215 100.409 269.903 99.9903C269.585 99.5717 269.22 99.2114 268.796 98.9041C268.373 98.5967 267.912 98.3583 267.415 98.194C266.367 97.7966 265.287 97.4946 264.223 97.1448C263.964 97.06 263.704 97.0018 263.45 96.8905C263.085 96.7262 262.656 96.5461 262.662 96.0691C262.672 95.5975 263.09 95.4015 263.477 95.2796C266.092 94.4901 269.95 94.2728 272.639 97.0494C273.507 97.9503 274.196 98.9677 274.704 100.112C275.207 101.251 275.508 102.449 275.593 103.694C275.942 107.112 275.281 110.323 273.619 113.328C270.898 118.224 265.695 119.941 260.576 117.668C258.453 116.708 256.638 115.341 255.129 113.561C254.044 112.358 253.091 111.049 252.282 109.64C251.472 108.235 250.821 106.757 250.323 105.21C249.825 103.668 249.497 102.083 249.338 100.467C249.174 98.8511 249.185 97.2349 249.37 95.624C249.381 95.4704 249.381 95.322 249.37 95.1736C248.904 95.02 248.624 95.4015 248.317 95.5763C246.507 96.6308 244.564 97.0336 242.484 96.7739C238.524 96.2493 235.708 92.3493 236.555 88.5977C237.138 85.98 239.509 84.0936 241.991 84.3162C242.68 84.3586 243.32 84.5599 243.902 84.9255C244.485 85.2912 244.95 85.7734 245.289 86.3774C245.644 86.9709 245.797 87.6174 245.75 88.3115C245.707 89.0004 245.469 89.6204 245.035 90.1662C244.776 90.4894 244.5 90.7967 244.045 90.7437C243.59 90.6961 243.415 90.2668 243.347 89.8535C243.267 89.4137 243.156 88.9845 243.008 88.5606C242.812 87.9618 242.404 87.6121 241.78 87.5167C241.155 87.4213 240.663 87.628 240.292 88.1367C239.969 88.4758 239.752 88.8679 239.641 89.3183C239.53 89.7687 239.535 90.2191 239.657 90.6643C239.864 91.4697 240.271 92.1533 240.88 92.7202C241.489 93.2819 242.203 93.6369 243.024 93.78C243.923 93.9602 244.807 93.9019 245.681 93.5946C248.518 92.4765 250.694 90.7066 251.588 87.628C252.567 84.6447 252.673 81.6296 251.906 78.588C251.461 76.7493 250.572 75.1649 249.233 73.8296C246.983 71.71 243.754 70.7615 240.71 73.7236C237.847 76.5162 235.036 79.3246 231.934 81.8893C231.611 82.1012 231.447 82.398 231.437 82.7795C231.474 85.5667 230.415 88.0466 229.298 90.5106C223.82 102.619 214.922 111.171 202.615 116.163C200.598 117.048 198.507 117.715 196.353 118.171C195.998 118.25 195.644 118.298 195.284 118.319C195.03 118.351 194.786 118.319 194.548 118.235C194.31 118.144 194.103 118.007 193.934 117.816C193.759 117.63 193.643 117.413 193.579 117.164C193.511 116.92 193.505 116.671 193.564 116.422C193.701 115.209 193.966 114.027 194.368 112.877C198.529 100.806 205.542 91.0299 216.949 84.7984C219.357 83.3836 221.867 82.1913 224.476 81.2163C225.873 80.6811 227.319 80.3897 228.811 80.342C229.346 80.3526 229.764 80.1459 230.076 79.7114C232.517 76.7758 235.174 74.0257 237.863 71.3179C240.848 68.3028 240.652 64.6837 237.392 61.9494C234.872 59.8405 231.881 59.2682 228.7 59.353C226.757 59.459 224.878 59.8511 223.057 60.5399C220.453 61.4566 217.865 65.3619 218.013 68.1227C218.034 69.0023 218.309 69.7971 218.823 70.5125C219.336 71.2225 220.009 71.7259 220.84 72.0227C221.305 72.2187 221.792 72.277 222.295 72.1975C222.793 72.1234 223.243 71.922 223.634 71.6041C224.767 70.6609 224.54 69.2725 223.169 68.748C222.75 68.589 222.29 68.5519 221.861 68.4247C220.998 68.1598 220.855 67.5716 221.496 66.9357C221.787 66.6655 222.121 66.4588 222.486 66.3052C222.851 66.1568 223.232 66.072 223.629 66.0508C224.026 66.0349 224.413 66.0879 224.794 66.2045C225.175 66.3263 225.519 66.5012 225.836 66.745C226.239 67.0576 226.577 67.4285 226.853 67.8577C227.128 68.2869 227.324 68.748 227.44 69.246C227.557 69.7441 227.583 70.2475 227.525 70.7562C227.467 71.2596 227.324 71.7418 227.096 72.2028C226.81 72.7804 226.44 73.2944 225.979 73.7501C225.524 74.2058 225.005 74.5768 224.423 74.8576C223.846 75.1384 223.232 75.3186 222.592 75.3981C221.951 75.4776 221.316 75.4511 220.686 75.3133C220.22 75.2126 219.765 75.0643 219.326 74.8735C218.886 74.6827 218.474 74.4496 218.077 74.1793C217.685 73.9038 217.325 73.5965 216.991 73.252C216.658 72.9076 216.362 72.5314 216.102 72.1287C215.843 71.7259 215.626 71.302 215.451 70.8569C215.276 70.4065 215.144 69.9508 215.059 69.4792C214.975 69.0076 214.938 68.5307 214.943 68.0538C214.954 67.5716 215.006 67.1 215.107 66.6284C215.441 65.1871 215.996 63.8412 216.785 62.5906C216.25 62.4369 215.705 62.4211 215.16 62.5376C212.328 62.7178 209.554 62.384 206.85 61.5414C204.139 60.6989 201.667 59.3954 199.434 57.6414C197.851 56.4333 196.496 55.0079 195.379 53.3546C194.41 51.9716 193.759 50.4561 193.431 48.7975C192.695 44.7333 193.939 41.3632 197.306 38.9946C199.18 37.6539 201.249 36.769 203.515 36.3504C205.786 35.9318 208.03 36.0113 210.264 36.5994C210.962 36.7743 211.629 37.0287 212.27 37.3678C217.007 39.7682 217.764 43.9437 216.621 48.1882C216.573 48.363 216.494 48.522 216.399 48.6757C215.996 49.3062 215.562 49.3539 215.171 48.7287C214.98 48.3789 214.826 48.008 214.715 47.6212C214.403 46.4448 214.022 45.295 213.572 44.1716C213.381 43.6947 213.133 43.2549 212.815 42.8575C212.503 42.4547 212.132 42.105 211.719 41.8136C211.301 41.5221 210.851 41.2943 210.364 41.13C209.883 40.9711 209.385 40.881 208.877 40.8651C207.448 40.7697 206.05 40.934 204.679 41.3526C203.314 41.7712 202.064 42.4177 200.932 43.292C199.09 44.6803 198.645 46.5455 199.513 48.6916C200.069 49.9951 200.858 51.1344 201.879 52.1094C203.361 53.5719 205.034 54.7747 206.897 55.7073C208.76 56.6399 210.719 57.2599 212.783 57.5725C216.949 58.3144 221.004 57.9064 224.947 56.3485C229.632 54.5416 234.253 54.6105 238.646 57.3288C240.785 58.6005 242.415 60.3545 243.526 62.5906C243.601 62.8609 243.765 63.0516 244.019 63.1629C244.056 62.3204 243.923 61.5096 243.622 60.7254C243.098 59.2417 242.5 57.7845 241.817 56.3644C240.599 53.5613 239.451 50.7317 239.096 47.6583C238.879 45.9785 239.038 44.3359 239.572 42.7303C240.885 38.9416 244.675 36.9863 247.544 37.8659C247.713 37.8871 247.883 37.8871 248.052 37.8659C248.02 36.5571 248.222 35.28 248.656 34.0454C249.09 32.8054 249.73 31.6874 250.577 30.6859C250.228 30.299 249.841 30.4368 249.513 30.4368C227.917 30.4739 206.32 30.5216 184.724 30.5693C184.179 30.5322 183.649 30.5958 183.125 30.7547C179.6 32.1007 176.133 33.5791 173.084 35.8629C172.009 36.6259 171.062 37.5215 170.257 38.56C169.776 39.18 169.426 39.8689 169.199 40.616C168.971 41.3685 168.886 42.1315 168.939 42.9157C168.992 43.7 169.188 44.4418 169.516 45.1572C169.844 45.8672 170.289 46.4978 170.85 47.0436C172.533 48.7499 174.635 49.0042 176.837 48.628C178.001 48.4319 179.055 47.9656 179.992 47.2397C181.31 46.2912 182.479 45.1784 183.485 43.896C183.797 43.4827 184.147 42.8575 184.75 43.1065C185.348 43.3609 185.115 43.9808 185.047 44.4683C184.909 45.6765 184.861 46.8846 184.904 48.0981C184.92 50.5303 185.507 52.8141 186.677 54.9443C188.583 58.3727 191.107 61.2553 194.252 63.5974C194.495 63.7935 194.76 63.963 195.009 64.1538C195.252 64.3446 195.453 64.5194 195.321 64.8268C195.194 65.0811 194.982 65.2136 194.691 65.2242C194.193 65.2666 193.706 65.2083 193.235 65.044C192.023 64.6572 190.912 64.0849 189.901 63.3166C186.042 60.3863 183.125 56.783 182.04 51.9451C182.003 51.8285 181.95 51.7119 181.892 51.606C181.765 51.4841 181.638 51.4841 181.511 51.606C177.726 54.6052 173.56 54.6687 169.315 52.9413C164.609 51.0496 161.915 45.9944 162.587 40.8916C162.799 39.0052 163.381 37.2459 164.339 35.6032C165.298 33.9659 166.541 32.5935 168.077 31.4807L168.706 30.9879C168.754 30.9349 168.796 30.8819 168.833 30.8236C168.431 30.4474 167.928 30.6011 167.484 30.6011C161.174 30.6011 154.822 30.6329 148.491 30.6382C138.789 30.6382 129.092 30.7335 119.394 30.6382C115.165 30.6647 110.978 31.0886 106.834 31.9046C102.25 32.7895 97.7239 33.9076 93.2511 35.2588C92.0019 35.6297 90.811 36.149 89.6835 36.8114C81.7013 41.4585 75.2911 47.7855 70.0138 55.3099C68.394 57.6361 66.9013 60.0365 65.5357 62.5164C65.2075 63.1152 64.9058 63.6981 64.5406 64.281C64.1753 64.8638 63.7677 65.4626 62.9843 65.3778C62.2062 65.2984 61.9204 64.6466 61.7245 63.9789C61.6769 63.7988 61.6028 63.6292 61.5657 63.4596C60.3959 58.8549 60.2689 54.2236 61.1899 49.5659C61.5446 47.9232 62.1533 46.3812 63.0267 44.9399C62.3439 44.6379 61.6346 44.4259 60.8988 44.3094C56.299 43.0853 51.7785 41.6281 47.3269 39.9431C47.0728 39.8583 46.8346 39.7364 46.6123 39.5827C46.4376 39.4662 46.3159 39.3125 46.2418 39.1164C46.1677 38.9204 46.1624 38.719 46.2153 38.5177C46.3159 38.0672 46.5911 37.797 47.0411 37.7175C47.311 37.6804 47.5757 37.6804 47.8456 37.7175C53.9488 38.205 60.0519 38.1255 66.1391 37.4685C74.386 36.7001 82.4794 35.1316 90.414 32.7577C91.9966 32.2808 93.5687 31.7403 95.1461 31.2263C95.3843 31.1469 95.6807 31.1416 95.8289 30.7283H94.3627C66.2185 30.7918 38.069 30.8554 9.90893 30.919C8.97202 30.8395 8.19921 31.1628 7.60107 31.8887C7.28348 32.2278 6.92354 32.5087 6.52125 32.7259C6.11367 32.9485 5.68492 33.1022 5.2297 33.1816C4.77448 33.2664 4.31926 33.2717 3.85875 33.2081C3.40353 33.1446 2.96948 33.0068 2.55661 32.8001C2.15432 32.6041 1.79438 32.3497 1.47678 32.0371C1.15919 31.7244 0.894525 31.3747 0.693382 30.9773C0.492238 30.5799 0.354614 30.1613 0.285802 29.7215C0.216989 29.2763 0.222282 28.8365 0.296389 28.3967C0.396961 27.5913 0.714555 26.8812 1.25976 26.2772C1.79967 25.6678 2.46662 25.2704 3.25531 25.0743C4.98091 24.5603 6.64829 24.8359 7.78634 26.2719C8.07217 26.6428 8.42682 26.9183 8.86087 27.0985C9.28962 27.2787 9.73954 27.3369 10.2001 27.2787C25.7834 27.2204 41.3667 27.1939 56.9447 27.1939H58.5221C58.1622 26.8283 57.744 26.5633 57.257 26.4043C54.6898 25.1856 52.5461 23.4528 50.8204 21.1902C48.6555 18.2228 47.6657 14.9322 48.5179 11.2812C49.7618 5.90814 55.8279 2.697 60.9782 4.57811C64.6411 5.91874 67.0019 9.79224 66.3508 13.422C66.3456 13.8512 66.2132 14.238 65.9697 14.5825C65.7209 14.9269 65.3928 15.1759 64.9958 15.319C64.8899 14.6884 64.837 14.0526 64.6888 13.4644C64.0589 10.8732 62.7991 8.78015 60.1366 7.88994C59.5914 7.69388 59.0303 7.5773 58.4533 7.54551C57.8764 7.50841 57.3047 7.5561 56.7436 7.68328C56.1772 7.81045 55.6426 8.01711 55.1397 8.29265C54.6316 8.57349 54.1764 8.91793 53.7688 9.33124C51.9426 10.9898 51.6091 13.0882 52.1649 15.3879C52.6096 17.1789 53.4935 18.7156 54.8221 19.9927C56.7118 21.8367 58.9191 23.1455 61.4493 23.9085C65.2816 25.0584 69.188 25.8691 73.1633 26.3355C77.7102 26.9077 82.2782 27.1727 86.8622 27.1303L139.392 27.0402C139.848 27.1038 140.292 27.072 140.732 26.9448C140.657 26.505 140.255 26.5845 140.006 26.5103C133.898 24.5444 127.636 23.4952 121.226 23.3522C115.964 23.2727 110.724 23.5959 105.51 24.3166C104.933 24.396 104.356 24.4384 103.769 24.4437C103.425 24.4861 103.097 24.4172 102.795 24.2424C102.493 24.0622 102.271 23.8132 102.139 23.4899C102.027 23.1826 102.011 22.87 102.096 22.5573C102.181 22.2394 102.345 21.9744 102.599 21.7678C103.07 21.2856 103.578 20.8458 104.118 20.4484C107.379 18.0691 110.894 16.2145 114.932 15.5522C115.684 15.425 115.742 15.1071 115.562 14.45C114.006 7.70447 118.293 2.76589 122.877 0.434365C123.206 0.2648 123.55 0.148223 123.91 0.0740389C124.153 0.00515205 124.402 -0.00544476 124.645 0.0369465C124.894 0.0846364 125.122 0.180016 125.328 0.328387C125.529 0.476755 125.693 0.662218 125.81 0.884773C125.926 1.10733 125.99 1.34578 126 1.60013C126.022 1.95515 126 2.31018 125.937 2.66521C125.63 4.71589 125.741 6.74537 126.265 8.75366C126.789 10.7566 127.689 12.5795 128.959 14.2168C130.96 16.8239 133.406 18.9064 136.296 20.459C140.176 22.5785 144.262 24.1682 148.555 25.228C150.985 25.8585 153.446 26.3778 155.928 26.7965C156.728 26.913 157.532 26.9607 158.342 26.9448L281.32 26.77C281.86 26.7382 282.4 26.7382 282.935 26.77C283.21 26.7753 283.469 26.8283 283.723 26.9342C283.977 27.0455 284.2 27.1939 284.39 27.3846C284.586 27.5807 284.734 27.8032 284.84 28.0523C284.951 28.3066 285.004 28.5663 285.01 28.8418C285.036 29.2922 285.036 29.7427 285.01 30.1931C284.936 70.1045 284.846 110.021 284.74 149.927C284.719 153.944 285.179 157.897 286.127 161.797C287.106 166.073 288.556 170.174 290.483 174.117C291.796 176.856 293.532 179.299 295.702 181.429C297.047 182.775 298.582 183.856 300.307 184.667C302.033 185.478 303.843 185.965 305.738 186.14C306.5 186.209 307.262 186.193 308.025 186.103C308.649 186.008 309.279 185.955 309.914 185.949C311.333 185.949 312.011 186.946 311.614 188.318C311.566 188.493 311.508 188.662 311.428 188.827C309.115 193.246 305.807 196.245 300.619 196.664C299.54 196.722 298.47 196.627 297.417 196.378C296.432 196.171 296.395 196.171 296.205 197.204C295.469 201.237 293.606 204.734 291.219 207.993C290.843 208.501 290.425 208.968 289.959 209.397C289.747 209.646 289.482 209.81 289.165 209.885C288.847 209.959 288.535 209.932 288.239 209.8C287.942 209.667 287.709 209.461 287.545 209.18C287.381 208.899 287.312 208.597 287.339 208.274C287.36 207.325 287.429 206.387 287.556 205.449C288.392 199.605 288.641 193.728 288.297 187.836C287.937 182.335 286.91 176.968 285.221 171.727C285.158 171.52 285.031 171.372 284.84 171.271C284.84 171.595 284.766 171.902 284.766 172.246C284.724 190.565 284.629 208.915 284.66 227.26C284.618 234.758 285.565 242.123 287.503 249.367C288.212 252.218 289.551 254.724 291.526 256.896C292.987 258.518 294.792 259.535 296.935 259.954C297.576 260.102 298.227 260.139 298.878 260.065C299.534 259.996 300.159 259.816 300.752 259.535C301.345 259.249 301.874 258.878 302.345 258.412C302.811 257.951 303.192 257.426 303.478 256.833C303.795 256.25 304.012 255.63 304.134 254.978C304.251 254.326 304.267 253.669 304.177 253.012C304.081 252.355 303.891 251.73 303.6 251.131C303.308 250.538 302.933 249.997 302.472 249.526C301.112 248.169 299.481 247.401 297.571 247.226C297.227 247.194 296.851 247.295 296.491 246.977C296.665 246.373 297.062 246.007 297.682 245.88C298.82 245.493 299.968 245.456 301.133 245.758C301.657 245.88 302.16 246.044 302.652 246.256C303.139 246.473 303.605 246.728 304.049 247.03C304.489 247.332 304.902 247.671 305.278 248.053C305.653 248.429 305.992 248.842 306.294 249.282C306.596 249.727 306.85 250.193 307.067 250.686C307.278 251.174 307.442 251.682 307.559 252.207C307.675 252.726 307.744 253.256 307.76 253.791C307.776 254.326 307.744 254.856 307.665 255.386C307.58 256.07 307.427 256.737 307.204 257.389C306.977 258.036 306.691 258.656 306.331 259.244C305.976 259.832 305.558 260.378 305.087 260.876C304.616 261.379 304.097 261.819 303.525 262.211C302.959 262.598 302.356 262.921 301.72 263.181C301.085 263.441 300.429 263.631 299.751 263.753C299.074 263.87 298.391 263.918 297.703 263.891C297.02 263.865 296.343 263.769 295.676 263.6C292.923 262.964 290.594 261.602 288.688 259.514C287.365 258.094 286.269 256.504 285.412 254.761C285.237 254.427 285.206 253.982 284.629 253.691V254.957C284.629 270.732 284.602 286.507 284.544 302.282C284.507 302.658 284.565 303.018 284.724 303.363C284.877 303.707 285.11 303.988 285.417 304.21C285.809 304.534 286.137 304.915 286.397 305.355C286.661 305.8 286.836 306.272 286.926 306.775C287.021 307.279 287.021 307.782 286.936 308.285C286.852 308.789 286.682 309.26 286.423 309.705C286.211 310.119 285.936 310.484 285.597 310.802C285.264 311.12 284.883 311.375 284.454 311.565C284.03 311.751 283.586 311.862 283.125 311.899C282.659 311.936 282.204 311.894 281.754 311.772C281.008 311.618 280.362 311.274 279.817 310.733C279.272 310.198 278.917 309.557 278.753 308.81C278.515 308.031 278.504 307.252 278.737 306.468C278.965 305.684 279.394 305.032 280.013 304.507C280.685 303.983 280.997 303.299 280.95 302.446C280.992 274.086 281.045 245.721 281.114 217.361V216.397C280.648 216.492 280.664 216.842 280.574 217.107C277.583 225.797 275.577 234.705 274.55 243.84C273.968 248.937 273.714 254.051 273.777 259.18C273.777 260.754 273.92 262.338 274.047 263.886C274.074 264.246 274.074 264.606 274.047 264.967C273.979 265.438 273.709 265.73 273.243 265.83C272.777 265.931 272.412 265.777 272.152 265.38C271.962 265.025 271.803 264.654 271.681 264.273C269.855 259.482 268.336 254.597 267.118 249.621C267.066 249.414 266.997 249.218 266.917 249.028Z" fill="#FFC764"/>
</g>
</svg>
