<svg width="530" height="106" viewBox="0 0 530 106" fill="none" xmlns="http://www.w3.org/2000/svg">
<g opacity="0.6" filter="url(#filter0_d_1_224)">
<path d="M58.303 97.33C50.4117 97.33 43.1853 96.665 36.624 95.335C30.0627 93.9163 24.122 92.0987 18.802 89.882C13.482 87.6653 8.64967 85.3157 4.305 82.833L15.211 61.819C23.191 66.6957 31.1267 70.198 39.018 72.326C46.998 74.454 54.2243 75.518 60.697 75.518C62.9137 75.518 65.352 75.385 68.012 75.119C70.7607 74.7643 73.066 74.055 74.928 72.991C76.8787 71.927 77.854 70.2423 77.854 67.937C77.854 66.6957 77.455 65.7203 76.657 65.011C75.9477 64.213 74.8393 63.548 73.332 63.016C71.8247 62.484 69.9627 62.0407 67.746 61.686C65.618 61.3313 63.1797 61.0653 60.431 60.888C57.771 60.622 54.8007 60.356 51.52 60.09C45.2247 59.558 39.5057 58.5827 34.363 57.164C29.309 55.7453 24.92 53.8833 21.196 51.578C17.5607 49.184 14.7233 46.3023 12.684 42.933C10.7333 39.5637 9.758 35.7067 9.758 31.362C9.758 26.3967 10.9993 22.0077 13.482 18.195C15.9647 14.2937 19.4227 11.0573 23.856 8.48599C28.2893 5.826 33.3877 3.831 39.151 2.501C44.9143 1.17099 51.0767 0.505993 57.638 0.505993C64.554 0.505993 70.7163 1.08233 76.125 2.23499C81.6223 3.38766 86.4547 4.895 90.622 6.757C94.878 8.619 98.3803 10.481 101.129 12.343L89.558 30.431C86.7207 28.7463 83.3957 27.3277 79.583 26.175C75.859 25.0223 72.002 24.1357 68.012 23.515C64.1107 22.8057 60.298 22.451 56.574 22.451C53.0273 22.451 49.791 22.6727 46.865 23.116C44.0277 23.5593 41.7667 24.313 40.082 25.377C38.486 26.3523 37.688 27.7267 37.688 29.5C37.688 31.096 38.486 32.3817 40.082 33.357C41.7667 34.2437 43.8503 34.953 46.333 35.485C48.9043 35.9283 51.5643 36.283 54.313 36.549C57.0617 36.7263 59.5443 36.948 61.761 37.214C67.081 37.6573 72.3123 38.278 77.455 39.076C82.6863 39.874 87.43 41.204 91.686 43.066C95.942 44.928 99.3113 47.6323 101.794 51.179C104.365 54.7257 105.651 59.5137 105.651 65.543C105.651 72.2817 103.567 78.045 99.4 82.833C95.2327 87.5323 89.558 91.1233 82.376 93.606C75.2827 96.0887 67.2583 97.33 58.303 97.33ZM150.09 96V25.643H112.584V2.89999H214.861V25.643H176.424V96H150.09ZM208.361 96L254.911 2.89999H278.319L324.603 96H297.87L271.935 44.795C270.871 42.667 269.896 40.7163 269.009 38.943C268.211 37.1697 267.502 35.485 266.881 33.889C266.261 32.2043 265.64 30.564 265.019 28.968C264.487 27.372 264 25.776 263.556 24.18L269.009 24.047C268.477 25.7317 267.901 27.4163 267.28 29.101C266.66 30.7857 265.995 32.4703 265.285 34.155C264.576 35.8397 263.778 37.5687 262.891 39.342C262.093 41.1153 261.251 42.933 260.364 44.795L234.562 96H208.361ZM230.306 81.902L238.552 63.282H294.545L298.003 81.902H230.306ZM355.668 96V25.643H318.162V2.89999H420.439V25.643H382.002V96H355.668ZM478.552 97.33C470.661 97.33 463.434 96.665 456.873 95.335C450.312 93.9163 444.371 92.0987 439.051 89.882C433.731 87.6653 428.899 85.3157 424.554 82.833L435.46 61.819C443.44 66.6957 451.376 70.198 459.267 72.326C467.247 74.454 474.473 75.518 480.946 75.518C483.163 75.518 485.601 75.385 488.261 75.119C491.01 74.7643 493.315 74.055 495.177 72.991C497.128 71.927 498.103 70.2423 498.103 67.937C498.103 66.6957 497.704 65.7203 496.906 65.011C496.197 64.213 495.088 63.548 493.581 63.016C492.074 62.484 490.212 62.0407 487.995 61.686C485.867 61.3313 483.429 61.0653 480.68 60.888C478.02 60.622 475.05 60.356 471.769 60.09C465.474 59.558 459.755 58.5827 454.612 57.164C449.558 55.7453 445.169 53.8833 441.445 51.578C437.81 49.184 434.972 46.3023 432.933 42.933C430.982 39.5637 430.007 35.7067 430.007 31.362C430.007 26.3967 431.248 22.0077 433.731 18.195C436.214 14.2937 439.672 11.0573 444.105 8.48599C448.538 5.826 453.637 3.831 459.4 2.501C465.163 1.17099 471.326 0.505993 477.887 0.505993C484.803 0.505993 490.965 1.08233 496.374 2.23499C501.871 3.38766 506.704 4.895 510.871 6.757C515.127 8.619 518.629 10.481 521.378 12.343L509.807 30.431C506.97 28.7463 503.645 27.3277 499.832 26.175C496.108 25.0223 492.251 24.1357 488.261 23.515C484.36 22.8057 480.547 22.451 476.823 22.451C473.276 22.451 470.04 22.6727 467.114 23.116C464.277 23.5593 462.016 24.313 460.331 25.377C458.735 26.3523 457.937 27.7267 457.937 29.5C457.937 31.096 458.735 32.3817 460.331 33.357C462.016 34.2437 464.099 34.953 466.582 35.485C469.153 35.9283 471.813 36.283 474.562 36.549C477.311 36.7263 479.793 36.948 482.01 37.214C487.33 37.6573 492.561 38.278 497.704 39.076C502.935 39.874 507.679 41.204 511.935 43.066C516.191 44.928 519.56 47.6323 522.043 51.179C524.614 54.7257 525.9 59.5137 525.9 65.543C525.9 72.2817 523.816 78.045 519.649 82.833C515.482 87.5323 509.807 91.1233 502.625 93.606C495.532 96.0887 487.507 97.33 478.552 97.33Z" fill="#565656"/>
</g>
<defs>
<filter id="filter0_d_1_224" x="0.304993" y="0.505981" width="529.595" height="104.824" filterUnits="userSpaceOnUse" color-interpolation-filters="sRGB">
<feFlood flood-opacity="0" result="BackgroundImageFix"/>
<feColorMatrix in="SourceAlpha" type="matrix" values="0 0 0 0 0 0 0 0 0 0 0 0 0 0 0 0 0 0 127 0" result="hardAlpha"/>
<feOffset dy="4"/>
<feGaussianBlur stdDeviation="2"/>
<feComposite in2="hardAlpha" operator="out"/>
<feColorMatrix type="matrix" values="0 0 0 0 0 0 0 0 0 0 0 0 0 0 0 0 0 0 0.25 0"/>
<feBlend mode="normal" in2="BackgroundImageFix" result="effect1_dropShadow_1_224"/>
<feBlend mode="normal" in="SourceGraphic" in2="effect1_dropShadow_1_224" result="shape"/>
</filter>
</defs>
</svg>
