<svg width="374" height="392" viewBox="0 0 374 392" fill="none" xmlns="http://www.w3.org/2000/svg">
<g opacity="0.6">
<mask id="mask0_189_3988" style="mask-type:luminance" maskUnits="userSpaceOnUse" x="0" y="0" width="374" height="392">
<path d="M374 0H0V391.196H374V0Z" fill="white"/>
</mask>
<g mask="url(#mask0_189_3988)">
<path d="M27.0788 344.012L10.8541 334.293V353.731L27.0788 344.012Z" fill="#D62828"/>
<path d="M57.4086 389.283L35.3505 376.07L57.4086 362.862V389.283Z" fill="#F77F00"/>
<path d="M83.2374 344.984L61.1844 358.192V331.771L83.2374 344.984Z" fill="#F77F00"/>
<mask id="mask1_189_3988" style="mask-type:luminance" maskUnits="userSpaceOnUse" x="6" y="361" width="26" height="30">
<path d="M6.58448 361.104H31.6056V390.074H6.58448V361.104Z" fill="white"/>
</mask>
<g mask="url(#mask1_189_3988)">
<path d="M30.9986 376.07L7.60817 390.074V362.066L30.9986 376.07Z" fill="#D62828"/>
</g>
<path d="M31.8577 374.51L8.47752 360.505L31.8577 346.501V374.51Z" fill="#F77F00"/>
<path d="M56.9817 360.505L33.5964 374.51V346.501L56.9817 360.505Z" fill="#D62828"/>
<path d="M83.2528 376.118L61.1793 389.347V362.889L83.2528 376.118Z" fill="#D62828"/>
<path d="M109.246 360.548L87.1675 373.778V347.324L109.246 360.548Z" fill="#F77F00"/>
<path d="M216.471 82.3416L245.396 99.6637V65.0088L216.471 82.3416Z" fill="#D62828"/>
<path d="M17.3718 83.453L63.7257 111.221V55.6906L17.3718 83.453Z" fill="#D62828"/>
<path d="M257.927 59.1422V102.239L293.89 80.6907L257.927 59.1422Z" fill="#003049"/>
<path d="M293.484 27.0305L261.456 7.83826V46.212L293.484 27.0305Z" fill="#003049"/>
<mask id="mask2_189_3988" style="mask-type:luminance" maskUnits="userSpaceOnUse" x="251" y="1" width="50" height="25">
<path d="M251.528 1.27173H300.253V25.9886H251.528V1.27173Z" fill="white"/>
</mask>
<g mask="url(#mask2_189_3988)">
<path d="M299.086 -30.3751L252.732 -2.60735L299.086 25.1604V-30.3751Z" fill="#D62828"/>
</g>
<path d="M290.809 35.0771L261.004 52.9229L290.809 70.774V35.0771Z" fill="#F77F00"/>
<path d="M272.727 163.978L279.09 167.798V160.168L272.727 163.978Z" fill="#F77F00"/>
<path d="M292.383 136.221L259.424 116.478V155.963L292.383 136.221Z" fill="#D62828"/>
<path d="M296.776 83.453L255.042 108.453L296.776 133.453V83.453Z" fill="#F77F00"/>
<path d="M334.236 121.859L310.274 136.221L334.236 150.572V121.859Z" fill="#F77F00"/>
<path d="M327.024 186.039L317.497 191.746L327.024 197.457V186.039Z" fill="#D62828"/>
<path d="M175.709 355.456L166.182 361.163L175.709 366.864V355.456Z" fill="#D62828"/>
<path d="M303.093 85.494V131.412L341.417 108.453L303.093 85.494Z" fill="#D62828"/>
<path d="M327.224 163.978L317.296 158.031V169.935L327.224 163.978Z" fill="#D62828"/>
<path d="M339.616 4.35986L304.899 25.1603L339.616 45.9554V4.35986Z" fill="#F77F00"/>
<path d="M337.842 52.9228L306.673 34.2543V71.5914L337.842 52.9228Z" fill="#D62828"/>
<path d="M340.167 59.2384L304.353 80.6907L340.167 102.143V59.2384Z" fill="#003049"/>
<path d="M157.972 52.8374L111.618 25.0696V80.5998L157.972 52.8374Z" fill="#003049"/>
<mask id="mask3_189_3988" style="mask-type:luminance" maskUnits="userSpaceOnUse" x="359" y="71" width="15" height="20">
<path d="M359.514 71.1266H373.228V90.276H359.514V71.1266Z" fill="white"/>
</mask>
<g mask="url(#mask3_189_3988)">
<path d="M360.826 71.3669V90.0088L376.387 80.6905L360.826 71.3669Z" fill="#D62828"/>
</g>
<mask id="mask4_189_3988" style="mask-type:luminance" maskUnits="userSpaceOnUse" x="350" y="2" width="24" height="45">
<path d="M350.296 2.73572H373.228V46.5059H350.296V2.73572Z" fill="white"/>
</mask>
<g mask="url(#mask4_189_3988)">
<path d="M386.238 25.1604L350.975 4.03406V46.2815L386.238 25.1604Z" fill="#003049"/>
</g>
<mask id="mask5_189_3988" style="mask-type:luminance" maskUnits="userSpaceOnUse" x="345" y="164" width="29" height="57">
<path d="M345.028 164.138H373.228V220.219H345.028V164.138Z" fill="white"/>
</mask>
<g mask="url(#mask5_189_3988)">
<path d="M345.697 219.198L391.521 191.746L345.697 164.299V219.198Z" fill="#D62828"/>
</g>
<mask id="mask6_189_3988" style="mask-type:luminance" maskUnits="userSpaceOnUse" x="188" y="344" width="48" height="47">
<path d="M188.317 344.69H235.725V390.074H188.317V344.69Z" fill="white"/>
</mask>
<g mask="url(#mask6_189_3988)">
<path d="M189.603 400.658L235.427 373.211L189.603 345.759V400.658Z" fill="#D62828"/>
</g>
<mask id="mask7_189_3988" style="mask-type:luminance" maskUnits="userSpaceOnUse" x="354" y="35" width="20" height="37">
<path d="M354.246 35.5634H373.228V71.1266H354.246V35.5634Z" fill="white"/>
</mask>
<g mask="url(#mask7_189_3988)">
<path d="M354.396 52.9228L382.817 69.9457V35.8999L354.396 52.9228Z" fill="#F77F00"/>
</g>
<mask id="mask8_189_3988" style="mask-type:luminance" maskUnits="userSpaceOnUse" x="362" y="101" width="12" height="16">
<path d="M362.148 101.219H373.228V116.265H362.148V101.219Z" fill="white"/>
</mask>
<g mask="url(#mask8_189_3988)">
<path d="M374.489 101.406L362.729 108.453L374.489 115.495V101.406Z" fill="#F77F00"/>
</g>
<mask id="mask9_189_3988" style="mask-type:luminance" maskUnits="userSpaceOnUse" x="348" y="112" width="26" height="49">
<path d="M348.979 112.161H373.228V160.035H348.979V112.161Z" fill="white"/>
</mask>
<g mask="url(#mask9_189_3988)">
<path d="M388.182 136.221L349.03 112.765V159.666L388.182 136.221Z" fill="#003049"/>
</g>
<path d="M344.22 275.044L300.3 248.729V301.358L344.22 275.044Z" fill="#F77F00"/>
<path d="M268.792 200.273L283.026 191.746L268.792 183.224V200.273Z" fill="#003049"/>
<path d="M295.084 242.488V196.538L256.734 219.519L295.084 242.488Z" fill="#F77F00"/>
<mask id="mask10_189_3988" style="mask-type:luminance" maskUnits="userSpaceOnUse" x="117" y="347" width="40" height="44">
<path d="M117.204 347.426H156.711V390.074H117.204V347.426Z" fill="white"/>
</mask>
<g mask="url(#mask10_189_3988)">
<path d="M156.336 393.958V348.008L117.981 370.978L156.336 393.958Z" fill="#F77F00"/>
</g>
<path d="M243.827 264.379V230.178L215.282 247.276L243.827 264.379Z" fill="#D62828"/>
<path d="M365.795 250.642L371.418 247.276L365.795 243.91V250.642Z" fill="#F77F00"/>
<mask id="mask11_189_3988" style="mask-type:luminance" maskUnits="userSpaceOnUse" x="355" y="259" width="19" height="31">
<path d="M355.563 259.885H373.228V289.977H355.563V259.885Z" fill="white"/>
</mask>
<g mask="url(#mask11_189_3988)">
<path d="M380.461 289.246V260.847L356.757 275.044L380.461 289.246Z" fill="#003049"/>
</g>
<path d="M208.719 140.42L248.056 163.978L208.719 187.541V140.42Z" fill="#003049"/>
<mask id="mask12_189_3988" style="mask-type:luminance" maskUnits="userSpaceOnUse" x="208" y="1" width="41" height="21">
<path d="M208.07 1.27173H248.894V21.8852H208.07V1.27173Z" fill="white"/>
</mask>
<g mask="url(#mask12_189_3988)">
<path d="M208.719 -26.1702L248.056 -2.60736L208.719 20.9554V-26.1702Z" fill="#003049"/>
</g>
<mask id="mask13_189_3988" style="mask-type:luminance" maskUnits="userSpaceOnUse" x="300" y="1" width="42" height="21">
<path d="M300.253 1.27173H341.077V21.8852H300.253V1.27173Z" fill="white"/>
</mask>
<g mask="url(#mask13_189_3988)">
<path d="M301.421 -26.1702L340.758 -2.60736L301.421 20.9554V-26.1702Z" fill="#003049"/>
</g>
<mask id="mask14_189_3988" style="mask-type:luminance" maskUnits="userSpaceOnUse" x="348" y="1" width="26" height="21">
<path d="M348.979 1.27173H373.228V21.8852H348.979V1.27173Z" fill="white"/>
</mask>
<g mask="url(#mask14_189_3988)">
<path d="M350.111 -2.60736L389.448 -26.1702V20.9554L350.111 -2.60736Z" fill="#D62828"/>
</g>
<path d="M162.37 1.60291L201.707 25.1604L162.37 48.7178V1.60291Z" fill="#F77F00"/>
<path d="M116.294 80.5998L155.631 57.037V104.157L116.294 80.5998Z" fill="#F77F00"/>
<path d="M160.307 57.037L199.644 80.5998L160.307 104.157V57.037Z" fill="#003049"/>
<mask id="mask15_189_3988" style="mask-type:luminance" maskUnits="userSpaceOnUse" x="209" y="1" width="43" height="50">
<path d="M209.387 1.27173H251.528V50.6093H209.387V1.27173Z" fill="white"/>
</mask>
<g mask="url(#mask15_189_3988)">
<path d="M209.485 25.155L251.183 0.17627V50.139L209.485 25.155Z" fill="#D62828"/>
</g>
<path d="M207.931 27.9387L249.64 52.9228L207.931 77.9068V27.9387Z" fill="#F77F00"/>
<mask id="mask16_189_3988" style="mask-type:luminance" maskUnits="userSpaceOnUse" x="180" y="320" width="75" height="71">
<path d="M180.415 320.069H254.162V390.074H180.415V320.069Z" fill="white"/>
</mask>
<g mask="url(#mask16_189_3988)">
<path d="M221.934 354.211L213.245 359.415L221.934 364.62V354.211Z" stroke="#003049" stroke-width="2.27514" stroke-miterlimit="10"/>
</g>
<mask id="mask17_189_3988" style="mask-type:luminance" maskUnits="userSpaceOnUse" x="0" y="335" width="62" height="56">
<path d="M0.9002 335.115H61.8943V390.074H0.9002V335.115Z" fill="white"/>
</mask>
<g mask="url(#mask17_189_3988)">
<path d="M8.36435 381.119L29.7228 393.916V368.328L8.36435 381.119Z" stroke="#003049" stroke-width="2.27514" stroke-miterlimit="10"/>
</g>
<mask id="mask18_189_3988" style="mask-type:luminance" maskUnits="userSpaceOnUse" x="6" y="329" width="92" height="62">
<path d="M6.58448 329.644H97.4507V390.074H6.58448V329.644Z" fill="white"/>
</mask>
<g mask="url(#mask18_189_3988)">
<path d="M38.972 363.995V395.812L65.5364 379.906L38.972 363.995Z" stroke="#003049" stroke-width="2.27514" stroke-miterlimit="10"/>
</g>
<path d="M65.2329 340.277L41.5801 326.112V354.446L65.2329 340.277Z" stroke="#003049" stroke-width="2.27514" stroke-miterlimit="10"/>
<mask id="mask19_189_3988" style="mask-type:luminance" maskUnits="userSpaceOnUse" x="9" y="311" width="88" height="80">
<path d="M9.21828 311.863H96.1338V390.074H9.21828V311.863Z" fill="white"/>
</mask>
<g mask="url(#mask19_189_3988)">
<path d="M63.2627 346.218L41.2509 359.4L63.2627 372.581V346.218Z" stroke="#003049" stroke-width="2.27514" stroke-miterlimit="10"/>
</g>
<mask id="mask20_189_3988" style="mask-type:luminance" maskUnits="userSpaceOnUse" x="104" y="331" width="90" height="60">
<path d="M104.035 331.012H193.584V390.074H104.035V331.012Z" fill="white"/>
</mask>
<g mask="url(#mask20_189_3988)">
<path d="M161.305 379.912L136.973 365.341V394.493L161.305 379.912Z" stroke="#003049" stroke-width="2.27514" stroke-miterlimit="10"/>
</g>
<mask id="mask21_189_3988" style="mask-type:luminance" maskUnits="userSpaceOnUse" x="101" y="307" width="97" height="84">
<path d="M101.401 307.759H197.535V390.074H101.401V307.759Z" fill="white"/>
</mask>
<g mask="url(#mask21_189_3988)">
<path d="M164.551 340.955L133.727 359.416L164.551 377.876V340.955Z" stroke="#003049" stroke-width="2.27514" stroke-miterlimit="10"/>
</g>
<mask id="mask22_189_3988" style="mask-type:luminance" maskUnits="userSpaceOnUse" x="142" y="335" width="84" height="56">
<path d="M142.225 335.115H225.19V390.074H142.225V335.115Z" fill="white"/>
</mask>
<g mask="url(#mask22_189_3988)">
<path d="M192.211 369.316L174.515 379.912L192.211 390.518V369.316Z" stroke="#003049" stroke-width="2.27514" stroke-miterlimit="10"/>
</g>
<mask id="mask23_189_3988" style="mask-type:luminance" maskUnits="userSpaceOnUse" x="136" y="309" width="95" height="82">
<path d="M136.958 309.127H230.458V390.074H136.958V309.127Z" fill="white"/>
</mask>
<g mask="url(#mask23_189_3988)">
<path d="M169.211 342.462V376.369L197.514 359.415L169.211 342.462Z" stroke="#003049" stroke-width="2.27514" stroke-miterlimit="10"/>
</g>
<path d="M99.2973 323.537L73.6641 338.893L99.2973 354.26V323.537Z" stroke="#003049" stroke-width="2.27514" stroke-miterlimit="10"/>
<mask id="mask24_189_3988" style="mask-type:luminance" maskUnits="userSpaceOnUse" x="42" y="311" width="89" height="80">
<path d="M42.1408 311.863H130.373V390.074H42.1408V311.863Z" fill="white"/>
</mask>
<g mask="url(#mask24_189_3988)">
<path d="M97.9856 359.4L74.9758 345.615V373.185L97.9856 359.4Z" stroke="#003049" stroke-width="2.27514" stroke-miterlimit="10"/>
</g>
<mask id="mask25_189_3988" style="mask-type:luminance" maskUnits="userSpaceOnUse" x="40" y="331" width="92" height="60">
<path d="M40.8239 331.012H131.69V390.074H40.8239V331.012Z" fill="white"/>
</mask>
<g mask="url(#mask25_189_3988)">
<path d="M99.7037 364.059L73.2577 379.906L99.7037 395.743V364.059Z" stroke="#003049" stroke-width="2.27514" stroke-miterlimit="10"/>
</g>
<mask id="mask26_189_3988" style="mask-type:luminance" maskUnits="userSpaceOnUse" x="82" y="339" width="78" height="52">
<path d="M82.9648 339.219H159.345V390.074H82.9648V339.219Z" fill="white"/>
</mask>
<g mask="url(#mask26_189_3988)">
<path d="M114.961 373.024V386.788L126.448 379.906L114.961 373.024Z" stroke="#003049" stroke-width="2.27514" stroke-miterlimit="10"/>
</g>
<path d="M133.727 338.893L107.687 323.297V354.495L133.727 338.893Z" stroke="#003049" stroke-width="2.27514" stroke-miterlimit="10"/>
<mask id="mask27_189_3988" style="mask-type:luminance" maskUnits="userSpaceOnUse" x="77" y="313" width="87" height="78">
<path d="M77.6971 313.23H163.296V390.074H77.6971V313.23Z" fill="white"/>
</mask>
<g mask="url(#mask27_189_3988)">
<path d="M110.218 359.4L131.201 371.966V346.833L110.218 359.4Z" stroke="#003049" stroke-width="2.27514" stroke-miterlimit="10"/>
</g>
<mask id="mask28_189_3988" style="mask-type:luminance" maskUnits="userSpaceOnUse" x="171" y="328" width="94" height="63">
<path d="M171.197 328.276H264.697V390.074H171.197V328.276Z" fill="white"/>
</mask>
<g mask="url(#mask28_189_3988)">
<path d="M232.042 379.911L203.137 362.605V397.228L232.042 379.911Z" stroke="#003049" stroke-width="2.27514" stroke-miterlimit="10"/>
</g>
<mask id="mask29_189_3988" style="mask-type:luminance" maskUnits="userSpaceOnUse" x="0" y="284" width="66" height="105">
<path d="M0.9002 284.506H65.845V388.46H0.9002V284.506Z" fill="white"/>
</mask>
<g mask="url(#mask29_189_3988)">
<path d="M3.20478 336.002L33.9976 317.548V354.447L3.20478 336.002Z" stroke="#003049" stroke-width="2.27514" stroke-miterlimit="10"/>
</g>
<mask id="mask30_189_3988" style="mask-type:luminance" maskUnits="userSpaceOnUse" x="0" y="307" width="66" height="84">
<path d="M0.9002 307.759H65.845V390.074H0.9002V307.759Z" fill="white"/>
</mask>
<g mask="url(#mask30_189_3988)">
<path d="M2.05763 340.955L32.8556 359.4L2.05763 377.844V340.955Z" stroke="#003049" stroke-width="2.27514" stroke-miterlimit="10"/>
</g>
<path d="M163.131 52.9228L204.83 27.9387V77.9068L163.131 52.9228Z" fill="#D62828"/>
<path d="M66.8173 55.621L108.526 80.5997L66.8173 105.584V55.621Z" fill="#003049"/>
<path d="M116.268 25.0696L155.646 1.48547V48.6592L116.268 25.0696Z" fill="#D62828"/>
<path d="M69.9141 52.8373L109.298 29.2424V76.4215L69.9141 52.8373Z" fill="#F77F00"/>
</g>
</g>
</svg>
