<svg width="426" height="446" viewBox="0 0 426 446" fill="none" xmlns="http://www.w3.org/2000/svg">
<g opacity="0.65">
<path d="M29.9712 392.598L11.3989 381.473V403.729L29.9712 392.598Z" fill="#FDAB0A"/>
<path d="M64.6954 444.432L39.4462 429.308L64.6954 414.179V444.432Z" fill="#4EABE0"/>
<path d="M94.2684 393.714L69.0192 408.838V378.585L94.2684 393.714Z" fill="#4EABE0"/>
<mask id="mask0_189_4288" style="mask-type:luminance" maskUnits="userSpaceOnUse" x="7" y="412" width="29" height="34">
<path d="M7.66995 412.123H35.4741V445.339H7.66995V412.123Z" fill="white"/>
</mask>
<g mask="url(#mask0_189_4288)">
<path d="M34.4606 429.308L7.68558 445.339V413.272L34.4606 429.308Z" fill="#FDAB0A"/>
</g>
<path d="M35.4483 427.515L8.67847 411.484L35.4483 395.448V427.515Z" fill="#4EABE0"/>
<path d="M64.2041 411.484L37.4395 427.515V395.448L64.2041 411.484Z" fill="#FDAB0A"/>
<path d="M94.2839 429.362L69.0088 444.502V414.216L94.2839 429.362Z" fill="#FDAB0A"/>
<path d="M124.038 411.538L98.7628 426.678V396.393L124.038 411.538Z" fill="#4EABE0"/>
<path d="M246.798 93.0005L279.914 112.837V73.159L246.798 93.0005Z" fill="#FDAB0A"/>
<path d="M18.8619 94.2725L71.9257 126.066V62.4896L18.8619 94.2725Z" fill="#FDAB0A"/>
<path d="M294.261 66.445V115.783L335.435 91.1114L294.261 66.445Z" fill="#003049"/>
<path d="M334.969 29.6762L298.3 7.69864V51.6376L334.969 29.6762Z" fill="#003049"/>
<mask id="mask1_189_4288" style="mask-type:luminance" maskUnits="userSpaceOnUse" x="287" y="0" width="56" height="29">
<path d="M287.036 0.184967H342.644V28.796H287.036V0.184967Z" fill="white"/>
</mask>
<g mask="url(#mask1_189_4288)">
<path d="M341.377 -36.0471L288.313 -4.2535L341.377 27.5348V-36.0471Z" fill="#FDAB0A"/>
</g>
<path d="M331.907 38.8912L297.783 59.3231L331.907 79.7603V38.8912Z" fill="#4EABE0"/>
<path d="M311.204 186.476L318.486 190.845V182.113L311.204 186.476Z" fill="#4EABE0"/>
<path d="M333.707 154.693L295.973 132.088V177.293L333.707 154.693Z" fill="#FDAB0A"/>
<path d="M338.734 94.2725L290.956 122.9L338.734 151.521V94.2725Z" fill="#4EABE0"/>
<path d="M381.625 138.249L354.188 154.693L381.625 171.127V138.249Z" fill="#4EABE0"/>
<path d="M373.36 211.733L362.458 218.27L373.36 224.801V211.733Z" fill="#FDAB0A"/>
<path d="M200.132 405.704L189.23 412.241L200.132 418.767V405.704Z" fill="#FDAB0A"/>
<path d="M345.97 96.6178V149.187L389.843 122.9L345.97 96.6178Z" fill="#FDAB0A"/>
<path d="M373.593 186.476L362.225 179.666V193.292L373.593 186.476Z" fill="#FDAB0A"/>
<path d="M387.785 3.72174L348.033 27.5348L387.785 51.3424V3.72174Z" fill="#4EABE0"/>
<path d="M385.752 59.3231L350.071 37.9466V80.6995L385.752 59.3231Z" fill="#FDAB0A"/>
<path d="M388.411 66.5523L347.408 91.1113L388.411 115.676V66.5523Z" fill="#003049"/>
<path d="M179.822 59.2211L126.758 27.4328V91.0094L179.822 59.2211Z" fill="#003049"/>
<mask id="mask2_189_4288" style="mask-type:luminance" maskUnits="userSpaceOnUse" x="411" y="79" width="15" height="24">
<path d="M411.493 79.6315H426V102.988H411.493V79.6315Z" fill="white"/>
</mask>
<g mask="url(#mask2_189_4288)">
<path d="M412.067 80.4419V101.781L429.874 91.1113L412.067 80.4419Z" fill="#FDAB0A"/>
</g>
<mask id="mask3_189_4288" style="mask-type:luminance" maskUnits="userSpaceOnUse" x="399" y="2" width="27" height="51">
<path d="M399.577 2.6913H426V52.1529H399.577V2.6913Z" fill="white"/>
</mask>
<g mask="url(#mask3_189_4288)">
<path d="M441.159 27.5348L400.782 3.34608V51.7182L441.159 27.5348Z" fill="#003049"/>
</g>
<mask id="mask4_189_4288" style="mask-type:luminance" maskUnits="userSpaceOnUse" x="394" y="186" width="32" height="64">
<path d="M394.281 186.798H426V249.999H394.281V186.798Z" fill="white"/>
</mask>
<g mask="url(#mask4_189_4288)">
<path d="M394.741 249.693L447.205 218.27L394.741 186.841V249.693Z" fill="#FDAB0A"/>
</g>
<mask id="mask5_189_4288" style="mask-type:luminance" maskUnits="userSpaceOnUse" x="215" y="394" width="55" height="52">
<path d="M215.539 394.262H269.824V445.339H215.539V394.262Z" fill="white"/>
</mask>
<g mask="url(#mask5_189_4288)">
<path d="M216.041 457.457L268.505 426.029L216.041 394.6V457.457Z" fill="#FDAB0A"/>
</g>
<mask id="mask6_189_4288" style="mask-type:luminance" maskUnits="userSpaceOnUse" x="403" y="39" width="23" height="41">
<path d="M403.549 39.7875H426V79.6315H403.549V39.7875Z" fill="white"/>
</mask>
<g mask="url(#mask6_189_4288)">
<path d="M404.702 59.3234L437.239 78.8107V39.8307L404.702 59.3234Z" fill="#4EABE0"/>
</g>
<mask id="mask7_189_4288" style="mask-type:luminance" maskUnits="userSpaceOnUse" x="414" y="113" width="12" height="19">
<path d="M414.141 113.98H426V131.841H414.141V113.98Z" fill="white"/>
</mask>
<g mask="url(#mask7_189_4288)">
<path d="M427.707 114.833L414.245 122.9L427.707 130.966V114.833Z" fill="#4EABE0"/>
</g>
<mask id="mask8_189_4288" style="mask-type:luminance" maskUnits="userSpaceOnUse" x="398" y="127" width="28" height="56">
<path d="M398.253 127.719H426V182.676H398.253V127.719Z" fill="white"/>
</mask>
<g mask="url(#mask8_189_4288)">
<path d="M443.383 154.693L398.563 127.837V181.533L443.383 154.693Z" fill="#003049"/>
</g>
<path d="M393.055 313.64L342.768 283.51V343.765L393.055 313.64Z" fill="#4EABE0"/>
<path d="M306.7 228.027L322.991 218.27L306.7 208.507V228.027Z" fill="#003049"/>
<path d="M336.795 276.361V223.749L292.896 250.058L336.795 276.361Z" fill="#4EABE0"/>
<mask id="mask9_189_4288" style="mask-type:luminance" maskUnits="userSpaceOnUse" x="133" y="397" width="46" height="49">
<path d="M133.451 397.01H178.467V445.339H133.451V397.01Z" fill="white"/>
</mask>
<g mask="url(#mask9_189_4288)">
<path d="M177.955 449.783V397.176L134.046 423.474L177.955 449.783Z" fill="#4EABE0"/>
</g>
<path d="M278.119 301.425V262.268L245.443 281.846L278.119 301.425Z" fill="#FDAB0A"/>
<path d="M417.751 285.7L424.19 281.846L417.751 277.988V285.7Z" fill="#4EABE0"/>
<mask id="mask10_189_4288" style="mask-type:luminance" maskUnits="userSpaceOnUse" x="406" y="296" width="20" height="36">
<path d="M406.197 296.713H426V331.061H406.197V296.713Z" fill="white"/>
</mask>
<g mask="url(#mask10_189_4288)">
<path d="M434.544 329.896V297.378L407.407 313.64L434.544 329.896Z" fill="#003049"/>
</g>
<path d="M237.923 159.497L282.96 186.476L237.923 213.45V159.497Z" fill="#003049"/>
<mask id="mask11_189_4288" style="mask-type:luminance" maskUnits="userSpaceOnUse" x="236" y="0" width="48" height="24">
<path d="M236.724 0.184967H283.064V23.3003H236.724V0.184967Z" fill="white"/>
</mask>
<g mask="url(#mask11_189_4288)">
<path d="M237.923 -31.233L282.96 -4.25351L237.923 22.7206V-31.233Z" fill="#003049"/>
</g>
<mask id="mask12_189_4288" style="mask-type:luminance" maskUnits="userSpaceOnUse" x="343" y="0" width="48" height="24">
<path d="M343.968 0.184967H390.309V23.3003H343.968V0.184967Z" fill="white"/>
</mask>
<g mask="url(#mask12_189_4288)">
<path d="M344.057 -31.233L389.089 -4.25351L344.057 22.7206V-31.233Z" fill="#003049"/>
</g>
<mask id="mask13_189_4288" style="mask-type:luminance" maskUnits="userSpaceOnUse" x="399" y="0" width="27" height="24">
<path d="M399.577 0.184967H426V23.3003H399.577V0.184967Z" fill="white"/>
</mask>
<g mask="url(#mask13_189_4288)">
<path d="M399.794 -4.25351L444.831 -31.233V22.7206L399.794 -4.25351Z" fill="#FDAB0A"/>
</g>
<mask id="mask14_189_4288" style="mask-type:luminance" maskUnits="userSpaceOnUse" x="183" y="0" width="48" height="55">
<path d="M183.763 0.184967H230.104V54.9007H183.763V0.184967Z" fill="white"/>
</mask>
<g mask="url(#mask14_189_4288)">
<path d="M184.86 0.560638L229.897 27.5348L184.86 54.5036V0.560638Z" fill="#4EABE0"/>
</g>
<path d="M132.111 91.0094L177.148 64.0299V117.984L132.111 91.0094Z" fill="#4EABE0"/>
<path d="M182.501 64.0299L227.533 91.0094L182.501 117.984V64.0299Z" fill="#003049"/>
<mask id="mask15_189_4288" style="mask-type:luminance" maskUnits="userSpaceOnUse" x="238" y="0" width="50" height="57">
<path d="M238.048 0.184967H287.036V56.2747H238.048V0.184967Z" fill="white"/>
</mask>
<g mask="url(#mask15_189_4288)">
<path d="M238.803 27.5294L286.539 -1.07091V56.1351L238.803 27.5294Z" fill="#FDAB0A"/>
</g>
<path d="M237.023 30.7174L284.771 59.3231L237.023 87.9288V30.7174Z" fill="#4EABE0"/>
<mask id="mask16_189_4288" style="mask-type:luminance" maskUnits="userSpaceOnUse" x="206" y="365" width="84" height="81">
<path d="M206.271 365.409H289.684V445.339H206.271V365.409Z" fill="white"/>
</mask>
<g mask="url(#mask16_189_4288)">
<path d="M253.051 404.282L243.106 410.234L253.051 416.191V404.282Z" stroke="#003049" stroke-width="2.592" stroke-miterlimit="10"/>
</g>
<mask id="mask17_189_4288" style="mask-type:luminance" maskUnits="userSpaceOnUse" x="0" y="381" width="70" height="65">
<path d="M0 381.897H69.8984V445.339H0V381.897Z" fill="white"/>
</mask>
<g mask="url(#mask17_189_4288)">
<path d="M8.54916 435.083L33.002 449.74V420.436L8.54916 435.083Z" stroke="#003049" stroke-width="2.592" stroke-miterlimit="10"/>
</g>
<mask id="mask18_189_4288" style="mask-type:luminance" maskUnits="userSpaceOnUse" x="6" y="376" width="105" height="70">
<path d="M6.34595 376.401H110.943V445.339H6.34595V376.401Z" fill="white"/>
</mask>
<g mask="url(#mask18_189_4288)">
<path d="M43.5889 415.477V451.913L74.0049 433.698L43.5889 415.477Z" stroke="#003049" stroke-width="2.592" stroke-miterlimit="10"/>
</g>
<path d="M73.6532 388.326L46.5731 372.102V404.545L73.6532 388.326Z" stroke="#003049" stroke-width="2.592" stroke-miterlimit="10"/>
<mask id="mask19_189_4288" style="mask-type:luminance" maskUnits="userSpaceOnUse" x="8" y="357" width="101" height="89">
<path d="M8.99396 357.166H108.295V445.339H8.99396V357.166Z" fill="white"/>
</mask>
<g mask="url(#mask19_189_4288)">
<path d="M71.3931 395.126L46.1955 410.218L71.3931 425.31V395.126Z" stroke="#003049" stroke-width="2.592" stroke-miterlimit="10"/>
</g>
<mask id="mask20_189_4288" style="mask-type:luminance" maskUnits="userSpaceOnUse" x="118" y="379" width="103" height="67">
<path d="M118.887 379.149H220.835V445.339H118.887V379.149Z" fill="white"/>
</mask>
<g mask="url(#mask20_189_4288)">
<path d="M183.644 433.703L155.783 417.018V450.4L183.644 433.703Z" stroke="#003049" stroke-width="2.592" stroke-miterlimit="10"/>
</g>
<mask id="mask21_189_4288" style="mask-type:luminance" maskUnits="userSpaceOnUse" x="114" y="350" width="111" height="96">
<path d="M114.915 350.296H224.807V445.339H114.915V350.296Z" fill="white"/>
</mask>
<g mask="url(#mask21_189_4288)">
<path d="M187.358 389.099L152.07 410.234L187.358 431.374V389.099Z" stroke="#003049" stroke-width="2.592" stroke-miterlimit="10"/>
</g>
<mask id="mask22_189_4288" style="mask-type:luminance" maskUnits="userSpaceOnUse" x="161" y="383" width="96" height="63">
<path d="M161.255 383.27H256.584V445.339H161.255V383.27Z" fill="white"/>
</mask>
<g mask="url(#mask22_189_4288)">
<path d="M219.025 421.569L198.767 433.703L219.025 445.849V421.569Z" stroke="#003049" stroke-width="2.592" stroke-miterlimit="10"/>
</g>
<mask id="mask23_189_4288" style="mask-type:luminance" maskUnits="userSpaceOnUse" x="155" y="353" width="107" height="93">
<path d="M155.959 353.044H261.88V445.339H155.959V353.044Z" fill="white"/>
</mask>
<g mask="url(#mask23_189_4288)">
<path d="M192.695 390.827V429.646L225.097 410.234L192.695 390.827Z" stroke="#003049" stroke-width="2.592" stroke-miterlimit="10"/>
</g>
<path d="M112.655 369.155L83.304 386.743L112.655 404.336V369.155Z" stroke="#003049" stroke-width="2.592" stroke-miterlimit="10"/>
<mask id="mask24_189_4288" style="mask-type:luminance" maskUnits="userSpaceOnUse" x="47" y="355" width="102" height="91">
<path d="M47.3902 355.792H148.015V445.339H47.3902V355.792Z" fill="white"/>
</mask>
<g mask="url(#mask24_189_4288)">
<path d="M111.155 410.218L84.8038 394.434V426.002L111.155 410.218Z" stroke="#003049" stroke-width="2.592" stroke-miterlimit="10"/>
</g>
<mask id="mask25_189_4288" style="mask-type:luminance" maskUnits="userSpaceOnUse" x="46" y="377" width="105" height="69">
<path d="M46.0662 377.775H150.663V445.339H46.0662V377.775Z" fill="white"/>
</mask>
<g mask="url(#mask25_189_4288)">
<path d="M113.12 415.553L82.8385 433.698L113.12 451.833V415.553Z" stroke="#003049" stroke-width="2.592" stroke-miterlimit="10"/>
</g>
<mask id="mask26_189_4288" style="mask-type:luminance" maskUnits="userSpaceOnUse" x="93" y="387" width="89" height="59">
<path d="M93.7305 387.392H181.115V445.339H93.7305V387.392Z" fill="white"/>
</mask>
<g mask="url(#mask26_189_4288)">
<path d="M130.586 425.814V441.577L143.738 433.698L130.586 425.814Z" stroke="#003049" stroke-width="2.592" stroke-miterlimit="10"/>
</g>
<path d="M152.07 386.743L122.254 368.882V404.599L152.07 386.743Z" stroke="#003049" stroke-width="2.592" stroke-miterlimit="10"/>
<mask id="mask27_189_4288" style="mask-type:luminance" maskUnits="userSpaceOnUse" x="88" y="357" width="99" height="89">
<path d="M88.4345 357.166H186.411V445.339H88.4345V357.166Z" fill="white"/>
</mask>
<g mask="url(#mask27_189_4288)">
<path d="M125.155 410.218L149.179 424.606V395.829L125.155 410.218Z" stroke="#003049" stroke-width="2.592" stroke-miterlimit="10"/>
</g>
<mask id="mask28_189_4288" style="mask-type:luminance" maskUnits="userSpaceOnUse" x="194" y="375" width="108" height="71">
<path d="M194.355 375.027H301.6V445.339H194.355V375.027Z" fill="white"/>
</mask>
<g mask="url(#mask28_189_4288)">
<path d="M264.626 433.703L231.531 413.889V453.534L264.626 433.703Z" stroke="#003049" stroke-width="2.592" stroke-miterlimit="10"/>
</g>
<mask id="mask29_189_4288" style="mask-type:luminance" maskUnits="userSpaceOnUse" x="0" y="324" width="76" height="119">
<path d="M0 324.191H75.1944V442.35H0V324.191Z" fill="white"/>
</mask>
<g mask="url(#mask29_189_4288)">
<path d="M2.63766 383.431L37.8946 362.302V404.545L2.63766 383.431Z" stroke="#003049" stroke-width="2.592" stroke-miterlimit="10"/>
</g>
<mask id="mask30_189_4288" style="mask-type:luminance" maskUnits="userSpaceOnUse" x="0" y="350" width="74" height="96">
<path d="M0 350.296H73.8704V445.339H0V350.296Z" fill="white"/>
</mask>
<g mask="url(#mask30_189_4288)">
<path d="M1.32401 389.099L36.5861 410.218L1.32401 431.337V389.099Z" stroke="#003049" stroke-width="2.592" stroke-miterlimit="10"/>
</g>
<path d="M185.734 59.3231L233.47 30.7174V87.9288L185.734 59.3231Z" fill="#FDAB0A"/>
<path d="M75.4685 62.4091L123.216 91.0094L75.4685 119.615V62.4091Z" fill="#003049"/>
<mask id="mask31_189_4288" style="mask-type:luminance" maskUnits="userSpaceOnUse" x="130" y="0" width="49" height="55">
<path d="M130.803 0.184967H178.467V54.9007H130.803V0.184967Z" fill="white"/>
</mask>
<g mask="url(#mask31_189_4288)">
<path d="M132.08 27.4328L177.164 0.426453V54.4445L132.08 27.4328Z" fill="#FDAB0A"/>
</g>
<path d="M79.0164 59.2211L124.1 32.2094V86.2275L79.0164 59.2211Z" fill="#4EABE0"/>
</g>
</svg>
