<svg width="440" height="484" viewBox="0 0 440 484" fill="none" xmlns="http://www.w3.org/2000/svg">
<g opacity="0.65" filter="url(#filter0_d_189_4497)">
<mask id="mask0_189_4497" style="mask-type:luminance" maskUnits="userSpaceOnUse" x="2" y="0" width="438" height="480">
<path d="M439.333 0.453613H2V479.158H439.333V0.453613Z" fill="white"/>
</mask>
<g mask="url(#mask0_189_4497)">
<path d="M17.349 425.487L-0.21875 414.959V436.009L17.349 425.487Z" fill="#4EABE0"/>
<path d="M50.1823 474.5L26.3073 460.194L50.1823 445.894V474.5Z" fill="#264078"/>
<path d="M78.1511 426.535L54.2709 440.841V412.235L78.1511 426.535Z" fill="#264078"/>
<mask id="mask1_189_4497" style="mask-type:luminance" maskUnits="userSpaceOnUse" x="-5" y="444" width="27" height="32">
<path d="M-5 444.916H21.6667V475.359H-5V444.916Z" fill="white"/>
</mask>
<g mask="url(#mask1_189_4497)">
<path d="M21.5938 460.194L-3.72913 475.359V445.035L21.5938 460.194Z" fill="#4EABE0"/>
</g>
<path d="M22.5261 458.503L-2.79163 443.343L22.5261 428.178V458.503Z" fill="#264078"/>
<path d="M49.7188 443.343L24.4062 458.503V428.178L49.7188 443.343Z" fill="#4EABE0"/>
<path d="M78.1667 460.248L54.2656 474.57V445.926L78.1667 460.248Z" fill="#4EABE0"/>
<path d="M106.302 443.392L82.401 457.714V429.07L106.302 443.392Z" fill="#264078"/>
<path d="M222.391 142.18L253.708 160.939V123.416L222.391 142.18Z" fill="#4EABE0"/>
<path d="M6.84375 143.385L57.0208 173.445V113.326L6.84375 143.385Z" fill="#4EABE0"/>
<path d="M267.276 117.065V163.722L306.214 140.396L267.276 117.065Z" fill="#003049"/>
<path d="M305.771 82.2931L271.094 61.5184V103.062L305.771 82.2931Z" fill="#003049"/>
<mask id="mask2_189_4497" style="mask-type:luminance" maskUnits="userSpaceOnUse" x="260" y="54" width="53" height="28">
<path d="M260.333 54.4116H312.333V81.0447H260.333V54.4116Z" fill="white"/>
</mask>
<g mask="url(#mask2_189_4497)">
<path d="M311.833 20.1474L261.651 50.2123L311.833 80.2773V20.1474Z" fill="#4EABE0"/>
</g>
<path d="M302.875 91.0106L270.609 110.331L302.875 129.658V91.0106Z" fill="#264078"/>
<path d="M283.297 230.57L290.188 234.704V226.446L283.297 230.57Z" fill="#264078"/>
<path d="M304.578 200.516L268.896 179.141V221.89L304.578 200.516Z" fill="#4EABE0"/>
<path d="M309.333 143.385L264.151 170.451L309.333 197.516V143.385Z" fill="#264078"/>
<path d="M349.896 184.962L323.948 200.516L349.896 216.053V184.962Z" fill="#264078"/>
<path d="M342.078 254.452L331.771 260.635L342.078 266.812V254.452Z" fill="#4EABE0"/>
<path d="M178.26 437.879L167.948 444.056L178.26 450.228V437.879Z" fill="#4EABE0"/>
<path d="M316.172 145.596V195.311L357.667 170.451L316.172 145.596Z" fill="#4EABE0"/>
<path d="M342.302 230.57L331.547 224.128V237.017L342.302 230.57Z" fill="#4EABE0"/>
<path d="M355.719 57.7516L318.13 80.2773L355.719 102.787V57.7516Z" fill="#264078"/>
<path d="M353.797 110.331L320.052 90.1188V130.544L353.797 110.331Z" fill="#4EABE0"/>
<path d="M356.313 117.168L317.536 140.396L356.313 163.625V117.168Z" fill="#003049"/>
<path d="M159.057 110.24L108.875 80.1746V140.294L159.057 110.24Z" fill="#003049"/>
<mask id="mask3_189_4497" style="mask-type:luminance" maskUnits="userSpaceOnUse" x="377" y="129" width="16" height="23">
<path d="M377.667 129.469H392.109V151.605H377.667V129.469Z" fill="white"/>
</mask>
<g mask="url(#mask3_189_4497)">
<path d="M378.682 130.301V150.481L395.526 140.396L378.682 130.301Z" fill="#4EABE0"/>
</g>
<mask id="mask4_189_4497" style="mask-type:luminance" maskUnits="userSpaceOnUse" x="367" y="56" width="26" height="48">
<path d="M367 56.141H392.109V103.181H367V56.141Z" fill="white"/>
</mask>
<g mask="url(#mask4_189_4497)">
<path d="M406.193 80.2773L368.01 57.4003V103.138L406.193 80.2773Z" fill="#003049"/>
</g>
<mask id="mask5_189_4497" style="mask-type:luminance" maskUnits="userSpaceOnUse" x="361" y="230" width="32" height="62">
<path d="M361.667 230.467H392.109V291.343H361.667V230.467Z" fill="white"/>
</mask>
<g mask="url(#mask5_189_4497)">
<path d="M362.297 290.354L411.911 260.635L362.297 230.916V290.354Z" fill="#4EABE0"/>
</g>
<mask id="mask6_189_4497" style="mask-type:luminance" maskUnits="userSpaceOnUse" x="192" y="426" width="51" height="50">
<path d="M192.333 426.93H243V475.359H192.333V426.93Z" fill="white"/>
</mask>
<g mask="url(#mask6_189_4497)">
<path d="M193.302 486.817L242.917 457.097L193.302 427.378V486.817Z" fill="#4EABE0"/>
</g>
<mask id="mask7_189_4497" style="mask-type:luminance" maskUnits="userSpaceOnUse" x="371" y="90" width="22" height="40">
<path d="M371 90.7295H392.109V129.469H371V90.7295Z" fill="white"/>
</mask>
<g mask="url(#mask7_189_4497)">
<path d="M371.719 110.331L402.484 128.761V91.9023L371.719 110.331Z" fill="#264078"/>
</g>
<mask id="mask8_189_4497" style="mask-type:luminance" maskUnits="userSpaceOnUse" x="380" y="162" width="13" height="18">
<path d="M380.333 162.674H392.109V179.276H380.333V162.674Z" fill="white"/>
</mask>
<g mask="url(#mask8_189_4497)">
<path d="M393.469 162.825L380.74 170.451L393.469 178.076V162.825Z" fill="#264078"/>
</g>
<mask id="mask9_189_4497" style="mask-type:luminance" maskUnits="userSpaceOnUse" x="365" y="173" width="28" height="54">
<path d="M365.667 173.742H392.109V226.316H365.667V173.742Z" fill="white"/>
</mask>
<g mask="url(#mask9_189_4497)">
<path d="M408.297 200.516L365.911 175.12V225.895L408.297 200.516Z" fill="#003049"/>
</g>
<path d="M360.703 350.819L313.146 322.327V379.306L360.703 350.819Z" fill="#264078"/>
<path d="M279.042 269.86L294.448 260.635L279.042 251.404V269.86Z" fill="#003049"/>
<path d="M307.5 315.566V265.818L265.984 290.7L307.5 315.566Z" fill="#264078"/>
<mask id="mask10_189_4497" style="mask-type:luminance" maskUnits="userSpaceOnUse" x="115" y="429" width="43" height="47">
<path d="M115 429.697H157.667V475.359H115V429.697Z" fill="white"/>
</mask>
<g mask="url(#mask10_189_4497)">
<path d="M157.286 479.559V429.811L115.766 454.682L157.286 479.559Z" fill="#264078"/>
</g>
<path d="M252.016 339.264V302.238L221.109 320.754L252.016 339.264Z" fill="#4EABE0"/>
<path d="M384.057 324.396L390.146 320.754L384.057 317.106V324.396Z" fill="#264078"/>
<mask id="mask11_189_4497" style="mask-type:luminance" maskUnits="userSpaceOnUse" x="373" y="334" width="20" height="34">
<path d="M373.667 334.233H392.109V367.438H373.667V334.233Z" fill="white"/>
</mask>
<g mask="url(#mask11_189_4497)">
<path d="M399.938 366.189V335.443L374.276 350.819L399.938 366.189Z" fill="#003049"/>
</g>
<path d="M214 205.061L256.589 230.57L214 256.079V205.061Z" fill="#003049"/>
<mask id="mask12_189_4497" style="mask-type:luminance" maskUnits="userSpaceOnUse" x="213" y="54" width="45" height="23">
<path d="M213.667 54.4116H257.667V76.8941H213.667V54.4116Z" fill="white"/>
</mask>
<g mask="url(#mask12_189_4497)">
<path d="M214 24.7033L256.589 50.2123L214 75.7213V24.7033Z" fill="#003049"/>
</g>
<mask id="mask13_189_4497" style="mask-type:luminance" maskUnits="userSpaceOnUse" x="313" y="54" width="45" height="23">
<path d="M313.667 54.4116H357.667V76.8941H313.667V54.4116Z" fill="white"/>
</mask>
<g mask="url(#mask13_189_4497)">
<path d="M314.365 24.7033L356.953 50.2123L314.365 75.7213V24.7033Z" fill="#003049"/>
</g>
<mask id="mask14_189_4497" style="mask-type:luminance" maskUnits="userSpaceOnUse" x="367" y="54" width="26" height="23">
<path d="M367 54.4116H392.109V76.8941H367V54.4116Z" fill="white"/>
</mask>
<g mask="url(#mask14_189_4497)">
<path d="M367.078 50.2123L409.667 24.7033V75.7213L367.078 50.2123Z" fill="#4EABE0"/>
</g>
<path d="M163.818 54.7629L206.406 80.2773L163.818 105.776V54.7629Z" fill="#264078"/>
<path d="M113.938 140.294L156.526 114.785V165.803L113.938 140.294Z" fill="#264078"/>
<path d="M161.589 114.785L204.177 140.294L161.589 165.803V114.785Z" fill="#003049"/>
<mask id="mask15_189_4497" style="mask-type:luminance" maskUnits="userSpaceOnUse" x="213" y="54" width="48" height="54">
<path d="M213.667 54.4116H260.333V107.332H213.667V54.4116Z" fill="white"/>
</mask>
<g mask="url(#mask15_189_4497)">
<path d="M214.828 80.2665L259.974 53.2226V107.316L214.828 80.2665Z" fill="#4EABE0"/>
</g>
<path d="M213.151 83.2822L258.302 110.331L213.151 137.381V83.2822Z" fill="#264078"/>
<mask id="mask16_189_4497" style="mask-type:luminance" maskUnits="userSpaceOnUse" x="184" y="400" width="79" height="76">
<path d="M184.333 400.642H263V475.359H184.333V400.642Z" fill="white"/>
</mask>
<g mask="url(#mask16_189_4497)">
<path d="M228.307 436.534L218.901 442.165L228.307 447.796V436.534Z" stroke="#003049" stroke-width="2.43403" stroke-miterlimit="10"/>
</g>
<mask id="mask17_189_4497" style="mask-type:luminance" maskUnits="userSpaceOnUse" x="-11" y="415" width="66" height="61">
<path d="M-11 415.861H55V475.359H-11V415.861Z" fill="white"/>
</mask>
<g mask="url(#mask17_189_4497)">
<path d="M-2.9115 465.658L20.2135 479.521V451.812L-2.9115 465.658Z" stroke="#003049" stroke-width="2.43403" stroke-miterlimit="10"/>
</g>
<mask id="mask18_189_4497" style="mask-type:luminance" maskUnits="userSpaceOnUse" x="-5" y="410" width="99" height="66">
<path d="M-5 410.327H93.6667V475.359H-5V410.327Z" fill="white"/>
</mask>
<g mask="url(#mask18_189_4497)">
<path d="M30.224 447.121V481.574L58.9844 464.345L30.224 447.121Z" stroke="#003049" stroke-width="2.43403" stroke-miterlimit="10"/>
</g>
<path d="M58.6563 421.444L33.0469 406.107V436.782L58.6563 421.444Z" stroke="#003049" stroke-width="2.43403" stroke-miterlimit="10"/>
<mask id="mask19_189_4497" style="mask-type:luminance" maskUnits="userSpaceOnUse" x="-3" y="390" width="94" height="86">
<path d="M-2.33337 390.958H91V475.359H-2.33337V390.958Z" fill="white"/>
</mask>
<g mask="url(#mask19_189_4497)">
<path d="M56.5208 427.876L32.6926 442.149L56.5208 456.417V427.876Z" stroke="#003049" stroke-width="2.43403" stroke-miterlimit="10"/>
</g>
<mask id="mask20_189_4497" style="mask-type:luminance" maskUnits="userSpaceOnUse" x="101" y="411" width="97" height="65">
<path d="M101.667 411.711H197.667V475.359H101.667V411.711Z" fill="white"/>
</mask>
<g mask="url(#mask20_189_4497)">
<path d="M162.667 464.356L136.323 448.58V480.142L162.667 464.356Z" stroke="#003049" stroke-width="2.43403" stroke-miterlimit="10"/>
</g>
<mask id="mask21_189_4497" style="mask-type:luminance" maskUnits="userSpaceOnUse" x="97" y="385" width="105" height="91">
<path d="M97.6666 385.424H201.667V475.359H97.6666V385.424Z" fill="white"/>
</mask>
<g mask="url(#mask21_189_4497)">
<path d="M166.182 422.179L132.812 442.165L166.182 462.151V422.179Z" stroke="#003049" stroke-width="2.43403" stroke-miterlimit="10"/>
</g>
<mask id="mask22_189_4497" style="mask-type:luminance" maskUnits="userSpaceOnUse" x="141" y="415" width="90" height="61">
<path d="M141.667 415.861H231V475.359H141.667V415.861Z" fill="white"/>
</mask>
<g mask="url(#mask22_189_4497)">
<path d="M196.13 452.882L176.974 464.356L196.13 475.84V452.882Z" stroke="#003049" stroke-width="2.43403" stroke-miterlimit="10"/>
</g>
<mask id="mask23_189_4497" style="mask-type:luminance" maskUnits="userSpaceOnUse" x="136" y="386" width="101" height="90">
<path d="M136.333 386.807H236.333V475.359H136.333V386.807Z" fill="white"/>
</mask>
<g mask="url(#mask23_189_4497)">
<path d="M171.229 423.812V460.519L201.87 442.165L171.229 423.812Z" stroke="#003049" stroke-width="2.43403" stroke-miterlimit="10"/>
</g>
<path d="M95.5365 403.318L67.7812 419.947L95.5365 436.582V403.318Z" stroke="#003049" stroke-width="2.43403" stroke-miterlimit="10"/>
<mask id="mask24_189_4497" style="mask-type:luminance" maskUnits="userSpaceOnUse" x="33" y="390" width="97" height="86">
<path d="M33.6666 390.958H129.667V475.359H33.6666V390.958Z" fill="white"/>
</mask>
<g mask="url(#mask24_189_4497)">
<path d="M94.1198 442.149L69.2031 427.222V457.076L94.1198 442.149Z" stroke="#003049" stroke-width="2.43403" stroke-miterlimit="10"/>
</g>
<mask id="mask25_189_4497" style="mask-type:luminance" maskUnits="userSpaceOnUse" x="32" y="410" width="99" height="66">
<path d="M32.3334 410.327H131V475.359H32.3334V410.327Z" fill="white"/>
</mask>
<g mask="url(#mask25_189_4497)">
<path d="M95.974 447.191L67.3438 464.345L95.974 481.499V447.191Z" stroke="#003049" stroke-width="2.43403" stroke-miterlimit="10"/>
</g>
<mask id="mask26_189_4497" style="mask-type:luminance" maskUnits="userSpaceOnUse" x="77" y="420" width="84" height="56">
<path d="M77.6666 420.012H160.333V475.359H77.6666V420.012Z" fill="white"/>
</mask>
<g mask="url(#mask26_189_4497)">
<path d="M112.495 456.898V471.798L124.932 464.345L112.495 456.898Z" stroke="#003049" stroke-width="2.43403" stroke-miterlimit="10"/>
</g>
<path d="M132.813 419.947L104.615 403.058V436.836L132.813 419.947Z" stroke="#003049" stroke-width="2.43403" stroke-miterlimit="10"/>
<mask id="mask27_189_4497" style="mask-type:luminance" maskUnits="userSpaceOnUse" x="72" y="392" width="94" height="84">
<path d="M72.3334 392.341H165.667V475.359H72.3334V392.341Z" fill="white"/>
</mask>
<g mask="url(#mask27_189_4497)">
<path d="M107.359 442.149L130.078 455.752V428.54L107.359 442.149Z" stroke="#003049" stroke-width="2.43403" stroke-miterlimit="10"/>
</g>
<mask id="mask28_189_4497" style="mask-type:luminance" maskUnits="userSpaceOnUse" x="172" y="408" width="103" height="68">
<path d="M172.333 408.944H275V475.359H172.333V408.944Z" fill="white"/>
</mask>
<g mask="url(#mask28_189_4497)">
<path d="M239.25 464.356L207.958 445.613V483.104L239.25 464.356Z" stroke="#003049" stroke-width="2.43403" stroke-miterlimit="10"/>
</g>
<mask id="mask29_189_4497" style="mask-type:luminance" maskUnits="userSpaceOnUse" x="-11" y="360" width="72" height="113">
<path d="M-11 360.52H60.3333V472.587H-11V360.52Z" fill="white"/>
</mask>
<g mask="url(#mask29_189_4497)">
<path d="M-8.5 416.813L24.8386 396.838V436.782L-8.5 416.813Z" stroke="#003049" stroke-width="2.43403" stroke-miterlimit="10"/>
</g>
<mask id="mask30_189_4497" style="mask-type:luminance" maskUnits="userSpaceOnUse" x="-11" y="385" width="70" height="91">
<path d="M-11 385.424H59V475.359H-11V385.424Z" fill="white"/>
</mask>
<g mask="url(#mask30_189_4497)">
<path d="M-9.74475 422.179L23.6042 442.149L-9.74475 462.118V422.179Z" stroke="#003049" stroke-width="2.43403" stroke-miterlimit="10"/>
</g>
<path d="M164.646 110.331L209.792 83.2822V137.381L164.646 110.331Z" fill="#4EABE0"/>
<path d="M60.375 113.25L105.526 140.294L60.375 167.343V113.25Z" fill="#003049"/>
<mask id="mask31_189_4497" style="mask-type:luminance" maskUnits="userSpaceOnUse" x="113" y="54" width="45" height="52">
<path d="M113.667 54.4116H157.667V105.948H113.667V54.4116Z" fill="white"/>
</mask>
<g mask="url(#mask31_189_4497)">
<path d="M113.906 80.1746L156.542 54.6386V105.716L113.906 80.1746Z" fill="#4EABE0"/>
</g>
<path d="M63.724 110.24L106.359 84.6927V135.77L63.724 110.24Z" fill="#264078"/>
</g>
</g>
<defs>
<filter id="filter0_d_189_4497" x="-2" y="54.4116" width="398.109" height="428.947" filterUnits="userSpaceOnUse" color-interpolation-filters="sRGB">
<feFlood flood-opacity="0" result="BackgroundImageFix"/>
<feColorMatrix in="SourceAlpha" type="matrix" values="0 0 0 0 0 0 0 0 0 0 0 0 0 0 0 0 0 0 127 0" result="hardAlpha"/>
<feOffset dy="4"/>
<feGaussianBlur stdDeviation="2"/>
<feComposite in2="hardAlpha" operator="out"/>
<feColorMatrix type="matrix" values="0 0 0 0 0 0 0 0 0 0 0 0 0 0 0 0 0 0 0.25 0"/>
<feBlend mode="normal" in2="BackgroundImageFix" result="effect1_dropShadow_189_4497"/>
<feBlend mode="normal" in="SourceGraphic" in2="effect1_dropShadow_189_4497" result="shape"/>
</filter>
</defs>
</svg>
