<svg width="866" height="126" viewBox="0 0 866 126" fill="none" xmlns="http://www.w3.org/2000/svg">
<path d="M0.0500016 124V19H29.75V124H0.0500016ZM12.35 87.25V63.4H86.45V87.25H12.35ZM14.45 44.65V19H92.3V44.65H14.45ZM143.795 125.35C134.195 125.35 125.945 123.6 119.045 120.1C112.145 116.6 106.845 111.75 103.145 105.55C99.4445 99.35 97.5945 92.2 97.5945 84.1C97.5945 75.9 99.4945 68.7 103.295 62.5C107.095 56.2 112.445 51.3 119.345 47.8C126.345 44.2 134.495 42.4 143.795 42.4C149.295 42.4 154.345 43 158.945 44.2C163.545 45.3 167.595 46.85 171.095 48.85C174.595 50.75 177.395 52.8 179.495 55C181.695 57.1 183.095 59.1 183.695 61L176.945 62.2V44.05H204.245V124H176.345V101.5L181.895 104.05C181.595 106.55 180.395 109.05 178.295 111.55C176.195 114.05 173.445 116.35 170.045 118.45C166.645 120.55 162.695 122.25 158.195 123.55C153.795 124.75 148.995 125.35 143.795 125.35ZM151.145 102.4C156.545 102.4 161.145 101.65 164.945 100.15C168.845 98.65 171.845 96.5 173.945 93.7C176.045 90.9 177.095 87.7 177.095 84.1C177.095 80.3 176.045 77.05 173.945 74.35C171.845 71.55 168.845 69.4 164.945 67.9C161.145 66.3 156.545 65.5 151.145 65.5C145.845 65.5 141.245 66.3 137.345 67.9C133.445 69.4 130.445 71.55 128.345 74.35C126.245 77.05 125.195 80.3 125.195 84.1C125.195 87.7 126.245 90.9 128.345 93.7C130.445 96.5 133.445 98.65 137.345 100.15C141.245 101.65 145.845 102.4 151.145 102.4ZM277.814 125.5C267.114 125.5 257.664 123.7 249.464 120.1C241.364 116.5 235.014 111.55 230.414 105.25C225.814 98.95 223.514 91.85 223.514 83.95C223.514 75.85 225.764 68.7 230.264 62.5C234.864 56.3 241.064 51.4 248.864 47.8C256.764 44.2 265.664 42.4 275.564 42.4C284.864 42.4 293.414 43.5 301.214 45.7C309.114 47.8 316.014 50.95 321.914 55.15L306.614 75.25C304.314 73.55 301.614 72.05 298.514 70.75C295.414 69.35 292.164 68.25 288.764 67.45C285.364 66.65 281.864 66.25 278.264 66.25C272.764 66.25 268.064 67 264.164 68.5C260.364 70 257.464 72.05 255.464 74.65C253.464 77.25 252.464 80.3 252.464 83.8C252.464 87.3 253.464 90.4 255.464 93.1C257.564 95.7 260.514 97.75 264.314 99.25C268.114 100.75 272.664 101.5 277.964 101.5C282.764 101.5 286.964 101.15 290.564 100.45C294.164 99.75 297.264 98.95 299.864 98.05C302.564 97.05 304.914 96.1 306.914 95.2L321.764 114.85C315.764 117.95 309.164 120.5 301.964 122.5C294.764 124.5 286.714 125.5 277.814 125.5ZM341.612 124V44.05H369.512V124H341.612ZM355.562 27.4C350.562 27.4 346.612 26.25 343.712 23.95C340.912 21.55 339.512 18.2 339.512 13.9C339.512 9.89999 340.962 6.64999 343.862 4.15C346.762 1.54999 350.662 0.249993 355.562 0.249993C360.662 0.249993 364.612 1.44999 367.412 3.84999C370.312 6.14999 371.762 9.49999 371.762 13.9C371.762 17.9 370.312 21.15 367.412 23.65C364.512 26.15 360.562 27.4 355.562 27.4ZM402.847 124V13H430.747V124H402.847ZM463.838 124V44.05H491.738V124H463.838ZM477.788 27.4C472.788 27.4 468.838 26.25 465.938 23.95C463.138 21.55 461.738 18.2 461.738 13.9C461.738 9.89999 463.188 6.64999 466.088 4.15C468.988 1.54999 472.888 0.249993 477.788 0.249993C482.888 0.249993 486.838 1.44999 489.638 3.84999C492.538 6.14999 493.988 9.49999 493.988 13.9C493.988 17.9 492.538 21.15 489.638 23.65C486.738 26.15 482.788 27.4 477.788 27.4ZM533.323 124V19.3H561.223V124H533.323ZM511.123 67.75V44.05H587.173V67.75H511.123ZM611.553 124V44.05H639.453V124H611.553ZM625.503 27.4C620.503 27.4 616.553 26.25 613.653 23.95C610.853 21.55 609.453 18.2 609.453 13.9C609.453 9.89999 610.903 6.64999 613.803 4.15C616.703 1.54999 620.603 0.249993 625.503 0.249993C630.603 0.249993 634.553 1.44999 637.353 3.84999C640.253 6.14999 641.703 9.49999 641.703 13.9C641.703 17.9 640.253 21.15 637.353 23.65C634.453 26.15 630.503 27.4 625.503 27.4ZM714.788 125.5C703.388 125.5 693.438 123.75 684.938 120.25C676.538 116.65 670.038 111.7 665.438 105.4C660.838 99.1 658.538 92 658.538 84.1C658.538 77.7 659.938 71.95 662.738 66.85C665.538 61.65 669.338 57.25 674.138 53.65C679.038 50.05 684.638 47.3 690.938 45.4C697.338 43.4 704.038 42.4 711.038 42.4C718.338 42.4 725.038 43.4 731.138 45.4C737.338 47.3 742.738 50.1 747.338 53.8C751.938 57.4 755.488 61.7 757.988 66.7C760.588 71.7 761.788 77.3 761.588 83.5L761.438 90.4H677.438L673.988 74.2H739.088L736.388 78.85V76C736.188 73.6 734.888 71.5 732.488 69.7C730.188 67.9 727.188 66.5 723.488 65.5C719.888 64.4 715.938 63.85 711.638 63.85C706.738 63.85 702.188 64.5 697.988 65.8C693.888 67 690.538 68.95 687.938 71.65C685.438 74.25 684.188 77.65 684.188 81.85C684.188 85.75 685.588 89.3 688.388 92.5C691.188 95.7 695.238 98.25 700.538 100.15C705.838 102.05 712.138 103 719.438 103C726.738 103 732.588 102.3 736.988 100.9C741.388 99.4 744.538 98.2 746.438 97.3L758.288 114.4C754.188 116.8 749.788 118.85 745.088 120.55C740.488 122.25 735.638 123.5 730.538 124.3C725.538 125.1 720.288 125.5 714.788 125.5ZM819.588 125.5C808.788 125.5 799.038 124.2 790.338 121.6C781.638 119 774.638 115.15 769.338 110.05L785.838 95.2C789.538 98.3 794.438 100.85 800.538 102.85C806.638 104.85 813.738 105.85 821.838 105.85C823.738 105.85 825.588 105.75 827.388 105.55C829.288 105.35 830.988 105.05 832.488 104.65C833.988 104.15 835.138 103.55 835.938 102.85C836.838 102.15 837.288 101.25 837.288 100.15C837.288 98.75 836.038 97.7 833.538 97C831.138 96.3 828.138 95.75 824.538 95.35C821.038 94.95 817.788 94.6 814.788 94.3C807.788 93.4 801.688 92.45 796.488 91.45C791.288 90.45 786.838 88.9 783.138 86.8C779.838 84.8 777.188 82.3 775.188 79.3C773.288 76.2 772.338 72.45 772.338 68.05C772.338 63.95 773.538 60.3 775.938 57.1C778.438 53.9 781.738 51.2 785.838 49C790.038 46.8 794.838 45.15 800.238 44.05C805.738 42.95 811.488 42.4 817.488 42.4C823.088 42.4 828.738 42.8 834.438 43.6C840.138 44.4 845.588 45.65 850.788 47.35C855.988 49.05 860.638 51.35 864.738 54.25L851.088 71.05C848.488 69.45 845.188 67.95 841.188 66.55C837.288 65.05 832.938 63.85 828.138 62.95C823.438 61.95 818.488 61.45 813.288 61.45C811.488 61.45 809.738 61.55 808.038 61.75C806.338 61.85 804.788 62.1 803.388 62.5C802.088 62.9 801.038 63.4 800.238 64C799.438 64.6 799.038 65.3 799.038 66.1C799.038 66.7 799.238 67.25 799.638 67.75C800.038 68.25 800.538 68.7 801.138 69.1C802.938 70.1 805.638 70.85 809.238 71.35C812.938 71.85 816.888 72.4 821.088 73C830.588 74.3 838.338 75.85 844.338 77.65C850.338 79.45 854.938 81.55 858.138 83.95C860.738 85.85 862.538 88.05 863.538 90.55C864.638 92.95 865.188 95.7 865.188 98.8C865.188 104.1 863.338 108.75 859.638 112.75C855.938 116.65 850.688 119.75 843.888 122.05C837.088 124.35 828.988 125.5 819.588 125.5Z" fill="#EBEBEB"/>
</svg>
