<svg width="303" height="313" viewBox="0 0 303 313" fill="none" xmlns="http://www.w3.org/2000/svg">
<g opacity="0.4">
<mask id="mask0_189_563" style="mask-type:luminance" maskUnits="userSpaceOnUse" x="0" y="0" width="303" height="313">
<path d="M0.5 312.221V0.541138H302.167V312.221H0.5Z" fill="white" stroke="white"/>
</mask>
<g mask="url(#mask0_189_563)">
<mask id="mask1_189_563" style="mask-type:luminance" maskUnits="userSpaceOnUse" x="0" y="156" width="152" height="156">
<path d="M1.13025 156.881H151.5V311.465H1.13025V156.881Z" fill="white" stroke="white"/>
</mask>
<g mask="url(#mask1_189_563)">
<path d="M100.828 208.11H100.328V208.61V260.095H76.2761H75.7761H51.2292H50.9418L1.13025 208.408V157.864L50.3692 208.957L51.2292 209.849V208.61C51.2292 180.16 73.4497 157.124 100.828 157.124H150.427V208.11H100.828ZM51.2337 287.086C64.9646 286.81 76.0151 275.307 76.2715 261.1C89.4257 261.371 100.073 272.396 100.324 286.096C86.5879 286.371 75.537 297.869 75.2806 312.076C62.1268 311.805 51.4847 300.781 51.2337 287.086ZM50.2292 287.091V312.081H1.13025V261.095H50.2292V286.591V287.091ZM111.245 166.939H110.745V167.439V197.796V198.296H111.245H140.505H141.005V197.796V167.439V166.939H140.505H111.245ZM90.4063 250.281H90.9063V249.781V219.424V218.924H90.4063H61.1459H60.6459V219.424V249.781V250.281H61.1459H90.4063Z" fill="#F77F00" stroke="black"/>
</g>
<mask id="mask2_189_563" style="mask-type:luminance" maskUnits="userSpaceOnUse" x="100" y="207" width="152" height="105">
<path d="M100.5 208.072H251.5V311.465H100.5V208.072Z" fill="white" stroke="white"/>
</mask>
<g mask="url(#mask2_189_563)">
<path d="M200.524 261.098C200.266 289.147 178.411 311.8 151.429 312.078C151.688 284.034 173.537 261.376 200.524 261.098ZM151.427 211.728V209.11H153.932C179.644 209.11 200.526 230.746 200.526 257.477H201.026H201.526C201.526 230.746 222.403 209.11 248.115 209.11H250.625V211.728C250.625 238.459 229.743 260.095 204.031 260.095H201.026H198.016C172.304 260.095 151.427 238.46 151.427 211.728ZM101.33 261.098C128.312 261.376 150.167 284.034 150.425 312.078C123.438 311.8 101.589 289.147 101.33 261.098Z" fill="#F77F00" stroke="black"/>
</g>
<path d="M171.007 260.595C160.902 262.659 152.949 270.898 150.927 281.349C148.904 270.898 140.948 262.659 130.842 260.595C140.948 258.532 148.904 250.293 150.927 239.845C152.949 250.293 160.903 258.532 171.007 260.595Z" fill="#F77F00" stroke="black"/>
<mask id="mask3_189_563" style="mask-type:luminance" maskUnits="userSpaceOnUse" x="200" y="260" width="101" height="52">
<path d="M200.5 260.647H300.13V311.465H200.5V260.647Z" fill="white" stroke="white"/>
</mask>
<g mask="url(#mask3_189_563)">
<path d="M251.625 261.835L300.048 312.081H251.625V286.591V261.835ZM226.073 261.095C239.613 261.095 250.625 272.49 250.625 286.591C250.625 300.686 239.613 312.081 226.073 312.081C212.533 312.081 201.526 300.686 201.526 286.591C201.526 272.49 212.533 261.095 226.073 261.095Z" fill="#F77F00" stroke="black"/>
</g>
<mask id="mask4_189_563" style="mask-type:luminance" maskUnits="userSpaceOnUse" x="0" y="0" width="102" height="209">
<path d="M1.13025 1.16812H100.833V208.456H1.13025V1.16812Z" fill="white" stroke="white"/>
</mask>
<g mask="url(#mask4_189_563)">
<path d="M50.2292 105.139V198.178C45.5975 174.364 25.4203 156.371 1.13025 156.127V105.139H50.2292ZM50.2292 52.6536C50.2292 80.9354 28.2737 103.858 1.13025 104.136V1.16812H50.2292V52.6536ZM100.326 156.122C73.3394 155.844 51.4897 133.191 51.2315 105.142C78.2129 105.42 100.068 128.078 100.326 156.122ZM11.0469 10.9824H10.5469V11.4824V41.8392V42.3392H11.0469H40.3073H40.8073V41.8392V11.4824V10.9824H40.3073H11.0469Z" fill="#F77F00" stroke="black"/>
</g>
<mask id="mask5_189_563" style="mask-type:luminance" maskUnits="userSpaceOnUse" x="200" y="260" width="52" height="52">
<path d="M200.5 260.647H251.5V311.465H200.5V260.647Z" fill="white" stroke="white"/>
</mask>
<g mask="url(#mask5_189_563)">
<path d="M230.856 261.587L230.856 261.587C230.072 261.424 229.277 261.302 228.475 261.217C227.679 261.138 226.878 261.095 226.073 261.095C225.273 261.095 224.467 261.138 223.671 261.217C222.869 261.302 222.074 261.424 221.29 261.587L221.286 261.588L221.286 261.588C220.497 261.747 219.723 261.947 218.953 262.191C218.182 262.434 217.427 262.715 216.688 263.032C215.942 263.356 215.217 263.711 214.507 264.103C213.799 264.494 213.11 264.923 212.442 265.389L212.44 265.39C211.773 265.85 211.13 266.347 210.506 266.878C209.883 267.408 209.291 267.964 208.719 268.557C208.153 269.145 207.611 269.765 207.101 270.412L207.1 270.413C206.591 271.052 206.116 271.724 205.665 272.421C205.221 273.115 204.807 273.831 204.423 274.564C204.046 275.299 203.704 276.057 203.397 276.826L203.396 276.828C203.085 277.601 202.814 278.385 202.585 279.184L202.584 279.188L202.584 279.188C202.349 279.982 202.155 280.793 201.996 281.611C201.838 282.433 201.72 283.254 201.644 284.086L201.644 284.089C201.562 284.919 201.526 285.751 201.526 286.591C201.526 287.425 201.562 288.257 201.644 289.087L201.644 289.09C201.72 289.922 201.838 290.743 201.996 291.565C202.155 292.383 202.349 293.195 202.584 293.994L202.585 293.996C202.814 294.792 203.085 295.58 203.396 296.347L203.397 296.351C203.703 297.124 204.046 297.876 204.424 298.613C204.807 299.35 205.221 300.066 205.665 300.761C206.115 301.456 206.591 302.124 207.101 302.77C207.611 303.415 208.152 304.03 208.719 304.619L208.359 304.966L208.719 304.619C209.291 305.212 209.883 305.768 210.506 306.298C211.13 306.828 211.773 307.326 212.441 307.792C213.11 308.253 213.799 308.682 214.507 309.073C215.219 309.466 215.943 309.826 216.686 310.143L216.687 310.143C217.427 310.461 218.182 310.742 218.953 310.985C219.722 311.228 220.497 311.429 221.287 311.594C222.076 311.753 222.871 311.88 223.669 311.959L223.67 311.959C224.466 312.038 225.273 312.081 226.073 312.081C226.878 312.081 227.679 312.038 228.476 311.959L228.477 311.959C229.275 311.88 230.07 311.753 230.859 311.594C231.649 311.429 232.424 311.228 233.193 310.985C233.964 310.742 234.719 310.461 235.465 310.143C236.203 309.826 236.927 309.466 237.639 309.073C238.347 308.682 239.036 308.253 239.705 307.792C240.373 307.326 241.016 306.828 241.64 306.298C242.264 305.767 242.86 305.212 243.425 304.621L243.427 304.619C243.993 304.031 244.535 303.411 245.046 302.769C245.557 302.121 246.037 301.454 246.48 300.762L246.481 300.76C246.929 300.068 247.338 299.352 247.723 298.613C248.1 297.876 248.443 297.124 248.749 296.351L248.75 296.347C249.061 295.58 249.332 294.792 249.561 293.996L249.562 293.994C249.797 293.195 249.991 292.383 250.15 291.565L230.856 261.587ZM230.856 261.587L230.86 261.588M230.856 261.587L230.86 261.588M230.86 261.588C231.649 261.747 232.423 261.947 233.193 262.191C233.963 262.434 234.718 262.715 235.463 263.032C236.205 263.356 236.93 263.711 237.639 264.103C238.347 264.494 239.036 264.923 239.704 265.389L239.706 265.39M230.86 261.588L239.706 265.39M239.706 265.39C240.373 265.85 241.016 266.347 241.64 266.878C242.264 267.409 242.86 267.964 243.425 268.556L243.427 268.557M239.706 265.39L243.427 268.557M243.427 268.557C243.993 269.145 244.535 269.765 245.045 270.412L245.046 270.413M243.427 268.557L245.046 270.413M245.046 270.413C245.556 271.053 246.036 271.726 246.48 272.42L246.481 272.422M245.046 270.413L246.481 272.422M246.481 272.422C246.929 273.114 247.338 273.829 247.723 274.563C248.1 275.299 248.442 276.057 248.749 276.826L248.75 276.828M246.481 272.422L248.75 276.828M248.75 276.828C249.061 277.601 249.332 278.385 249.561 279.184L249.562 279.188M248.75 276.828L249.562 279.188M249.562 279.188C249.797 279.982 249.991 280.793 250.15 281.611L249.562 279.188ZM250.502 284.089L250.502 284.086C250.426 283.254 250.308 282.433 250.15 281.611L250.502 284.089ZM250.502 284.089C250.584 284.921 250.625 285.753 250.625 286.591C250.625 287.423 250.584 288.255 250.502 289.087L250.502 289.09M250.502 284.089L250.502 289.09M250.502 289.09C250.426 289.922 250.308 290.743 250.15 291.565L250.502 289.09Z" fill="#6690B8" stroke="black"/>
</g>
<mask id="mask6_189_563" style="mask-type:luminance" maskUnits="userSpaceOnUse" x="50" y="260" width="52" height="52">
<path d="M51.1667 260.647H100.833V311.465H51.1667V260.647Z" fill="white" stroke="white"/>
</mask>
<g mask="url(#mask6_189_563)">
<path d="M51.2337 287.086C64.9646 286.81 76.0151 275.307 76.2715 261.1C89.4256 261.371 100.073 272.396 100.324 286.096C86.5879 286.371 75.537 297.869 75.2806 312.076C62.1267 311.805 51.4846 300.781 51.2337 287.086Z" fill="#FFDE59" stroke="black"/>
</g>
<mask id="mask7_189_563" style="mask-type:luminance" maskUnits="userSpaceOnUse" x="0" y="103" width="52" height="55">
<path d="M1.13025 104.307H51.5V157.265H1.13025V104.307Z" fill="white" stroke="white"/>
</mask>
<g mask="url(#mask7_189_563)">
<path d="M1.13025 105.139H50.2292V156.124H1.13025V105.139Z" fill="#6690B8" stroke="black"/>
</g>
<mask id="path-17-inside-1_189_563" fill="white">
<path d="M50.7292 104.639C52.3698 104.639 54.0052 104.725 55.6354 104.888C57.2709 105.055 58.8906 105.304 60.5 105.639C62.1094 105.968 63.6979 106.385 65.2709 106.876C66.8386 107.374 68.3854 107.947 69.9011 108.595C71.4167 109.249 72.8959 109.973 74.3438 110.778C75.7917 111.578 77.1979 112.454 78.5625 113.4C79.9271 114.345 81.2396 115.361 82.5104 116.442C83.7761 117.518 84.9896 118.664 86.1511 119.863C87.3125 121.069 88.4115 122.328 89.4531 123.646C90.4948 124.96 91.4688 126.327 92.3802 127.743C93.2969 129.159 94.1354 130.618 94.9115 132.121C95.6823 133.623 96.3854 135.158 97.0104 136.731C97.6406 138.303 98.1927 139.903 98.6667 141.535C99.1459 143.162 99.5417 144.816 99.8646 146.486C100.182 148.156 100.422 149.836 100.583 151.528C100.745 153.225 100.828 154.922 100.828 156.624C99.1875 156.624 97.5469 156.543 95.9167 156.376C94.2813 156.208 92.6615 155.96 91.0521 155.625C89.4427 155.295 87.8542 154.879 86.2813 154.387C84.7136 153.89 83.1719 153.317 81.6563 152.668C80.1354 152.014 78.6563 151.29 77.2084 150.485C75.7604 149.685 74.3542 148.81 72.9948 147.864C71.6302 146.918 70.3125 145.907 69.0417 144.826C67.7761 143.746 66.5625 142.605 65.4011 141.4C64.2396 140.195 63.1406 138.936 62.099 137.617C61.0573 136.304 60.0834 134.936 59.1719 133.52C58.2604 132.104 57.4167 130.645 56.6406 129.143C55.8698 127.646 55.1667 126.105 54.5417 124.533C53.9115 122.96 53.3594 121.36 52.8854 119.728C52.4063 118.101 52.0104 116.453 51.6875 114.783C51.3698 113.113 51.1302 111.427 50.9688 109.735C50.8073 108.038 50.7292 106.341 50.7292 104.639Z"/>
</mask>
<path d="M50.7292 104.639C52.3698 104.639 54.0052 104.725 55.6354 104.888C57.2709 105.055 58.8906 105.304 60.5 105.639C62.1094 105.968 63.6979 106.385 65.2709 106.876C66.8386 107.374 68.3854 107.947 69.9011 108.595C71.4167 109.249 72.8959 109.973 74.3438 110.778C75.7917 111.578 77.1979 112.454 78.5625 113.4C79.9271 114.345 81.2396 115.361 82.5104 116.442C83.7761 117.518 84.9896 118.664 86.1511 119.863C87.3125 121.069 88.4115 122.328 89.4531 123.646C90.4948 124.96 91.4688 126.327 92.3802 127.743C93.2969 129.159 94.1354 130.618 94.9115 132.121C95.6823 133.623 96.3854 135.158 97.0104 136.731C97.6406 138.303 98.1927 139.903 98.6667 141.535C99.1459 143.162 99.5417 144.816 99.8646 146.486C100.182 148.156 100.422 149.836 100.583 151.528C100.745 153.225 100.828 154.922 100.828 156.624C99.1875 156.624 97.5469 156.543 95.9167 156.376C94.2813 156.208 92.6615 155.96 91.0521 155.625C89.4427 155.295 87.8542 154.879 86.2813 154.387C84.7136 153.89 83.1719 153.317 81.6563 152.668C80.1354 152.014 78.6563 151.29 77.2084 150.485C75.7604 149.685 74.3542 148.81 72.9948 147.864C71.6302 146.918 70.3125 145.907 69.0417 144.826C67.7761 143.746 66.5625 142.605 65.4011 141.4C64.2396 140.195 63.1406 138.936 62.099 137.617C61.0573 136.304 60.0834 134.936 59.1719 133.52C58.2604 132.104 57.4167 130.645 56.6406 129.143C55.8698 127.646 55.1667 126.105 54.5417 124.533C53.9115 122.96 53.3594 121.36 52.8854 119.728C52.4063 118.101 52.0104 116.453 51.6875 114.783C51.3698 113.113 51.1302 111.427 50.9688 109.735C50.8073 108.038 50.7292 106.341 50.7292 104.639Z" fill="#F1F1F1"/>
<path d="M50.7292 104.639V103.639H49.7292V104.639H50.7292ZM55.6354 104.888L55.7373 103.893L55.7344 103.892L55.6354 104.888ZM60.5 105.639L60.2962 106.618L60.2993 106.618L60.5 105.639ZM65.2709 106.876L65.5732 105.923L65.5693 105.922L65.2709 106.876ZM69.9011 108.595L70.2972 107.677L70.2945 107.676L69.9011 108.595ZM74.3438 110.778L73.8577 111.652L73.8602 111.654L74.3438 110.778ZM82.5104 116.442L81.8626 117.204L81.8629 117.204L82.5104 116.442ZM86.1511 119.863L86.8711 119.169L86.8696 119.168L86.1511 119.863ZM89.4531 123.646L88.6684 124.266L88.6697 124.268L89.4531 123.646ZM92.3802 127.743L91.5394 128.284L91.5408 128.286L92.3802 127.743ZM94.9115 132.121L95.8012 131.664L95.8 131.662L94.9115 132.121ZM97.0104 136.731L96.0811 137.1L96.0822 137.103L97.0104 136.731ZM98.6667 141.535L97.7064 141.814L97.7074 141.818L98.6667 141.535ZM99.8646 146.486L100.847 146.299L100.846 146.296L99.8646 146.486ZM100.583 151.528L101.579 151.433L101.579 151.433L100.583 151.528ZM100.828 156.624V157.624H101.828V156.624H100.828ZM95.9167 156.376L96.0189 155.381L96.0186 155.381L95.9167 156.376ZM91.0521 155.625L91.2559 154.646L91.2528 154.645L91.0521 155.625ZM86.2813 154.387L85.979 155.34L85.9828 155.341L86.2813 154.387ZM81.6563 152.668L81.2613 153.587L81.2629 153.588L81.6563 152.668ZM77.2084 150.485L77.6944 149.611L77.6919 149.61L77.2084 150.485ZM72.9948 147.864L73.5659 147.043L73.5645 147.042L72.9948 147.864ZM69.0417 144.826L68.3923 145.587L68.3938 145.588L69.0417 144.826ZM65.4011 141.4L64.681 142.094L65.4011 141.4ZM62.099 137.617L62.8837 136.997L62.8824 136.996L62.099 137.617ZM59.1719 133.52L60.0128 132.979L59.1719 133.52ZM56.6406 129.143L55.7516 129.601L55.7522 129.602L56.6406 129.143ZM54.5417 124.533L55.471 124.163L55.4699 124.161L54.5417 124.533ZM52.8854 119.728L53.8458 119.449L53.8447 119.446L52.8854 119.728ZM51.6875 114.783L50.7051 114.97L50.7057 114.973L51.6875 114.783ZM50.9688 109.735L49.9733 109.83L49.9733 109.83L50.9688 109.735ZM50.7292 105.639C52.3346 105.639 53.937 105.724 55.5365 105.883L55.7344 103.892C54.0735 103.727 52.405 103.639 50.7292 103.639V105.639ZM55.5335 105.882C57.1356 106.047 58.7214 106.29 60.2962 106.618L60.7039 104.66C59.0599 104.318 57.4061 104.064 55.7373 103.893L55.5335 105.882ZM60.2993 106.618C61.8733 106.941 63.4292 107.348 64.9724 107.831L65.5693 105.922C63.9667 105.421 62.3455 104.996 60.7007 104.659L60.2993 106.618ZM64.9685 107.83C66.506 108.317 68.0224 108.879 69.5077 109.514L70.2945 107.676C68.7484 107.014 67.1711 106.43 65.5732 105.923L64.9685 107.83ZM69.5049 109.513C70.9911 110.154 72.4402 110.864 73.8577 111.652L74.8298 109.905C73.3515 109.082 71.8423 108.343 70.2972 107.677L69.5049 109.513ZM73.8602 111.654C75.2776 112.437 76.6552 113.294 77.9929 114.221L79.1322 112.578C77.7407 111.613 76.3057 110.72 74.8273 109.903L73.8602 111.654ZM77.9929 114.221C79.3286 115.147 80.615 116.143 81.8626 117.204L83.1583 115.681C81.8642 114.58 80.5257 113.544 79.1322 112.578L77.9929 114.221ZM81.8629 117.204C83.1019 118.257 84.2919 119.381 85.4326 120.559L86.8696 119.168C85.6873 117.947 84.4502 116.778 83.158 115.68L81.8629 117.204ZM85.431 120.557C86.5696 121.739 87.647 122.973 88.6684 124.266L90.2379 123.027C89.176 121.682 88.0555 120.398 86.8711 119.169L85.431 120.557ZM88.6697 124.268C89.6899 125.554 90.6448 126.895 91.5394 128.284L93.2211 127.202C92.2927 125.76 91.2997 124.365 90.2366 123.025L88.6697 124.268ZM91.5408 128.286C92.4383 129.673 93.2606 131.104 94.023 132.58L95.8 131.662C95.0103 130.133 94.1555 128.645 93.2197 127.2L91.5408 128.286ZM94.0217 132.577C94.779 134.053 95.4687 135.559 96.0811 137.1L97.9397 136.361C97.3021 134.757 96.5856 133.193 95.8012 131.664L94.0217 132.577ZM96.0822 137.103C96.7003 138.645 97.2416 140.214 97.7064 141.814L99.627 141.256C99.1438 139.592 98.581 137.962 97.9387 136.359L96.0822 137.103ZM97.7074 141.818C98.1769 143.412 98.5654 145.034 98.8828 146.676L100.846 146.296C100.518 144.597 100.115 142.912 99.6259 141.253L97.7074 141.818ZM98.8822 146.673C99.1941 148.312 99.4294 149.962 99.5879 151.623L101.579 151.433C101.414 149.711 101.17 147.999 100.847 146.299L98.8822 146.673ZM99.5879 151.623C99.7464 153.289 99.8281 154.955 99.8281 156.624H101.828C101.828 154.889 101.743 153.161 101.579 151.433L99.5879 151.623ZM100.828 155.624C99.2204 155.624 97.6139 155.545 96.0189 155.381L95.8145 157.371C97.4799 157.542 99.1546 157.624 100.828 157.624V155.624ZM96.0186 155.381C94.4165 155.217 92.8307 154.973 91.2559 154.646L90.8483 156.604C92.4922 156.946 94.1461 157.2 95.8148 157.371L96.0186 155.381ZM91.2528 154.645C89.6788 154.323 88.1229 153.915 86.5797 153.433L85.9828 155.341C87.5855 155.842 89.2067 156.267 90.8514 156.604L91.2528 154.645ZM86.5836 153.434C85.0468 152.946 83.5356 152.385 82.0497 151.749L81.2629 153.588C82.8082 154.249 84.3803 154.833 85.979 155.34L86.5836 153.434ZM82.0513 151.75C80.5606 151.109 79.1119 150.399 77.6944 149.611L76.7223 151.359C78.2007 152.181 79.7103 152.92 81.2613 153.587L82.0513 151.75ZM77.6919 149.61C76.2744 148.827 74.8974 147.969 73.5659 147.043L72.4237 148.685C73.811 149.65 75.2464 150.544 76.7248 151.36L77.6919 149.61ZM73.5645 147.042C72.2263 146.114 70.9348 145.124 69.6896 144.065L68.3938 145.588C69.6902 146.691 71.0341 147.722 72.4252 148.686L73.5645 147.042ZM69.6911 144.066C68.4496 143.006 67.2597 141.888 66.1211 140.706L64.681 142.094C65.8653 143.323 67.1025 144.485 68.3923 145.587L69.6911 144.066ZM66.1211 140.706C64.9826 139.525 63.9052 138.29 62.8837 136.997L61.3143 138.237C62.3761 139.581 63.4967 140.865 64.681 142.094L66.1211 140.706ZM62.8824 136.996C61.8622 135.709 60.9073 134.369 60.0128 132.979L58.331 134.062C59.2594 135.504 60.2524 136.898 61.3155 138.238L62.8824 136.996ZM60.0128 132.979C59.1185 131.59 58.2907 130.158 57.5291 128.684L55.7522 129.602C56.5427 131.132 57.4023 132.619 58.331 134.062L60.0128 132.979ZM57.5297 128.685C56.7733 127.216 56.0837 125.705 55.471 124.163L53.6124 124.902C54.2497 126.506 54.9663 128.075 55.7516 129.601L57.5297 128.685ZM55.4699 124.161C54.8519 122.618 54.3105 121.05 53.8458 119.449L51.9251 120.007C52.4083 121.671 52.9711 123.302 53.6134 124.905L55.4699 124.161ZM53.8447 119.446C53.3751 117.851 52.9866 116.234 52.6693 114.593L50.7057 114.973C51.0343 116.672 51.4374 118.352 51.9262 120.011L53.8447 119.446ZM52.6699 114.596C52.358 112.957 52.1228 111.301 51.9642 109.64L49.9733 109.83C50.1377 111.553 50.3816 113.269 50.7051 114.97L52.6699 114.596ZM51.9643 109.641C51.8059 107.976 51.7292 106.311 51.7292 104.639H49.7292C49.7292 106.372 49.8087 108.101 49.9733 109.83L51.9643 109.641Z" fill="black" mask="url(#path-17-inside-1_189_563)"/>
<path d="M140.505 198.296H141.005V197.796V167.439V166.939H140.505H111.245H110.745V167.439V197.796V198.296H111.245H140.505ZM150.427 208.11H101.328V157.124H150.427V208.11Z" fill="#FFDE59" stroke="black"/>
<mask id="mask8_189_563" style="mask-type:luminance" maskUnits="userSpaceOnUse" x="0" y="0" width="52" height="54">
<path d="M1.13025 1.16812H51.5V53.4993H1.13025V1.16812Z" fill="white" stroke="white"/>
</mask>
<g mask="url(#mask8_189_563)">
<path d="M40.3073 42.3392H40.8073V41.8392V11.4824V10.9824H40.3073H11.0469H10.5469V11.4824V41.8392V42.3392H11.0469H40.3073ZM50.2292 52.1536H1.13025V1.16812H50.2292V52.1536Z" fill="#FFDE59" stroke="black"/>
</g>
<path d="M90.4063 250.281H90.9063V249.781V219.424V218.924H90.4063H61.1459H60.6459V219.424V249.781V250.281H61.1459H90.4063ZM100.328 260.095H51.2292V209.11H100.328V260.095Z" fill="#F1F1F1" stroke="black"/>
<mask id="mask9_189_563" style="mask-type:luminance" maskUnits="userSpaceOnUse" x="150" y="260" width="52" height="52">
<path d="M151.167 260.647H200.833V311.465H151.167V260.647Z" fill="white" stroke="white"/>
</mask>
<g mask="url(#mask9_189_563)">
<path d="M200.063 270.739C199.74 272.409 199.344 274.058 198.865 275.685C198.391 277.317 197.839 278.916 197.208 280.489L200.063 270.739ZM200.063 270.739L199.572 270.645C199.572 270.645 199.572 270.646 199.571 270.646L200.063 270.739ZM151.665 307.532C151.824 305.856 152.062 304.191 152.377 302.536C152.697 300.881 153.089 299.243 153.563 297.633L153.564 297.631C154.033 296.015 154.58 294.431 155.204 292.873L155.204 292.872C155.823 291.315 156.519 289.795 157.283 288.306C158.052 286.818 158.888 285.372 159.79 283.97C160.693 282.567 161.658 281.213 162.689 279.913L162.689 279.913C163.721 278.607 164.809 277.36 165.958 276.167C167.11 274.978 168.311 273.844 169.563 272.78L169.564 272.78C170.822 271.709 172.127 270.703 173.478 269.767L173.478 269.766C174.824 268.83 176.215 267.964 177.648 267.172L177.649 267.172C179.082 266.375 180.546 265.658 182.051 265.011C183.551 264.369 185.078 263.802 186.629 263.31C188.187 262.823 189.759 262.411 191.35 262.085L191.352 262.085C192.944 261.753 194.546 261.507 196.165 261.341C197.613 261.197 199.068 261.114 200.524 261.098C200.509 262.616 200.428 264.13 200.284 265.644M200.284 265.644C200.284 265.644 200.284 265.644 200.284 265.644L200.781 265.692L200.284 265.644Z" fill="#F1F1F1" stroke="black"/>
</g>
<path d="M180.094 216.846C178.813 215.955 177.49 215.133 176.13 214.382C174.771 213.625 173.375 212.944 171.953 212.328M180.094 216.846L171.953 212.328M180.094 216.846C181.375 217.733 182.615 218.689 183.807 219.705L180.094 216.846ZM171.953 212.328L171.754 212.787C171.755 212.787 171.755 212.787 171.755 212.787C171.756 212.788 171.756 212.788 171.756 212.788L171.953 212.328ZM151.649 216.475L151.151 216.522L151.649 216.475L151.649 216.475ZM151.649 216.475C151.499 214.897 151.427 213.313 151.427 211.728V209.11H153.932C155.456 209.11 156.976 209.19 158.496 209.345C160.016 209.5 161.52 209.73 163.018 210.04L151.649 216.475ZM152.319 221.169C152.319 221.168 152.319 221.168 152.319 221.168C152.319 221.168 152.319 221.168 152.319 221.167L151.828 221.262L152.319 221.169ZM156.93 234.54C156.929 234.539 156.929 234.539 156.929 234.539C156.929 234.538 156.929 234.538 156.929 234.538L156.484 234.767L156.93 234.54ZM159.281 238.611C159.28 238.61 159.28 238.61 159.28 238.61C159.28 238.609 159.28 238.609 159.279 238.609L158.859 238.88L159.281 238.611ZM180.192 256.418C180.192 256.418 180.192 256.417 180.192 256.417L179.995 256.877L180.192 256.418ZM201.026 260.095H200.526V260.595H201.026V260.095ZM198.995 243.29L198.515 243.43C198.515 243.43 198.515 243.431 198.515 243.431L198.995 243.29ZM192.668 230.601C192.668 230.601 192.668 230.601 192.668 230.601L193.089 230.33L192.668 230.601ZM167.45 211.189C167.45 211.189 167.45 211.189 167.45 211.19L167.599 210.712L167.449 211.189C167.449 211.189 167.449 211.189 167.45 211.189Z" fill="#FFDE59" stroke="black"/>
<path d="M130.842 260.595C140.948 258.532 148.904 250.293 150.927 239.845C152.949 250.293 160.903 258.532 171.007 260.595C160.902 262.659 152.949 270.898 150.927 281.349C148.904 270.898 140.948 262.659 130.842 260.595Z" fill="#F1F1F1" stroke="black"/>
<mask id="mask10_189_563" style="mask-type:luminance" maskUnits="userSpaceOnUse" x="0" y="103" width="52" height="55">
<path d="M1.13025 104.307H51.5V157.265H1.13025V104.307Z" fill="white" stroke="white"/>
</mask>
<g mask="url(#mask10_189_563)">
<path d="M5.59661 130.634C15.7014 128.57 23.6545 120.329 25.6771 109.879C27.6998 120.329 35.6534 128.57 45.7612 130.634C35.6535 132.698 27.6998 140.936 25.6771 151.384C23.6545 140.936 15.7013 132.698 5.59661 130.634Z" fill="#F1F1F1" stroke="black"/>
</g>
<mask id="mask11_189_563" style="mask-type:luminance" maskUnits="userSpaceOnUse" x="250" y="260" width="51" height="52">
<path d="M251.167 260.647H300.13V311.465H251.167V260.647Z" fill="white" stroke="white"/>
</mask>
<g mask="url(#mask11_189_563)">
<path d="M300.048 312.081H251.625V261.835L300.048 312.081Z" fill="#FFDE59" stroke="black"/>
</g>
<mask id="mask12_189_563" style="mask-type:luminance" maskUnits="userSpaceOnUse" x="0" y="156" width="52" height="53">
<path d="M1.13025 156.881H51.5V208.456H1.13025V156.881Z" fill="white" stroke="white"/>
</mask>
<g mask="url(#mask12_189_563)">
<path d="M50.2292 157.124V198.178C46.2091 177.508 30.4776 161.224 10.5105 157.124H50.2292Z" fill="#F1F1F1" stroke="black"/>
<path d="M1.13025 157.864L49.553 208.11H1.13025V157.864Z" fill="#F1F1F1" stroke="black"/>
</g>
<mask id="mask13_189_563" style="mask-type:luminance" maskUnits="userSpaceOnUse" x="0" y="207" width="52" height="55">
<path d="M1.13025 208.072H51.5V261.03H1.13025V208.072Z" fill="white" stroke="white"/>
</mask>
<g mask="url(#mask13_189_563)">
<path d="M50.2292 259.356L1.8065 209.11H50.2292V259.356Z" fill="#6690B8" stroke="black"/>
</g>
</g>
</g>
</svg>
