<svg width="90" height="90" viewBox="0 0 90 90" fill="none" xmlns="http://www.w3.org/2000/svg">
<mask id="mask0_189_2409" style="mask-type:luminance" maskUnits="userSpaceOnUse" x="0" y="0" width="90" height="90">
<path d="M0 0H90V90H0V0Z" fill="white"/>
</mask>
<g mask="url(#mask0_189_2409)">
<path d="M89.2307 90.698H1.47762C0.682783 90.698 0.0357056 90.056 0.0357056 89.2612V81.0631C0.0357056 67.4235 11.1328 56.3264 24.7725 56.3264H65.9358C79.5754 56.3264 90.6726 67.4235 90.6726 81.0631V89.2612C90.6726 90.056 90.0255 90.698 89.2307 90.698ZM45.3567 52.4592C30.8917 52.4592 19.1271 40.6946 19.1271 26.2296C19.1271 11.7697 30.8917 -3.05176e-05 45.3567 -3.05176e-05C59.8166 -3.05176e-05 71.5812 11.7697 71.5812 26.2296C71.5812 40.6946 59.8166 52.4592 45.3567 52.4592Z" fill="#FFCC00"/>
</g>
</svg>
