<svg width="181" height="181" viewBox="0 0 181 181" fill="none" xmlns="http://www.w3.org/2000/svg">
<mask id="mask0_1555_744" style="mask-type:luminance" maskUnits="userSpaceOnUse" x="0" y="0" width="181" height="181">
<path d="M181 181L181 0L0 0L0 181L181 181Z" fill="white"/>
</mask>
<g mask="url(#mask0_1555_744)">
<mask id="mask1_1555_744" style="mask-type:luminance" maskUnits="userSpaceOnUse" x="0" y="0" width="181" height="181">
<path d="M180.377 0.624756L180.377 180.259L0.742264 180.259L0.742264 0.624756L180.377 0.624756Z" fill="white"/>
</mask>
<g mask="url(#mask1_1555_744)">
<path d="M173.322 73.7934C172.959 73.4124 172.983 72.9614 172.932 72.5378C172.81 71.5199 172.749 70.499 172.749 69.4719C172.77 63.0325 172.749 56.59 172.798 50.1505C172.84 45.3567 173.026 40.569 173.243 35.7783C173.419 31.8408 173.617 27.9034 173.837 23.966C174.114 18.8887 174.413 13.8115 174.736 8.73431C174.903 6.27798 175.019 3.83385 175.297 1.40495C175.327 1.14286 175.266 0.8503 175.553 0.643066C175.86 1.25562 175.815 1.92304 175.851 2.55388C175.921 3.80033 175.93 5.04677 175.94 6.29932C175.994 13.0649 175.873 19.8274 175.705 26.6051C175.482 35.4125 175.236 44.22 175.114 53.0304C175.041 58.2265 174.669 63.4073 174.151 68.5729C174.032 70.0906 173.818 71.5961 173.511 73.0863C173.453 73.3149 173.386 73.5557 173.322 73.7934ZM166.846 12.4736C167.056 13.1228 167.178 13.7841 167.208 14.4637C167.483 17.8008 167.601 21.1409 167.705 24.4871C167.867 30.0793 167.65 35.6716 167.595 41.2608C167.513 50.1749 167.285 59.0859 167.406 68C167.394 70.3314 167.675 72.6292 168.248 74.8905C168.705 76.6398 169.552 78.1757 170.786 79.4984C171.511 80.2785 172.27 81.0496 173.044 81.7932C174.495 83.2011 175.464 84.9565 176.442 86.6967C176.808 87.3946 177.018 88.1351 177.076 88.9184C177.268 90.6524 177.146 92.3621 176.714 94.0504C176.522 94.8062 176.223 95.5132 175.815 96.1776C175.54 96.6256 175.306 97.0919 175.117 97.5825C175.007 97.805 174.946 98.0366 174.931 98.2835C174.919 98.5334 174.952 98.7711 175.038 99.0027C175.123 99.2374 175.248 99.4415 175.418 99.6244C175.586 99.8042 175.784 99.9444 176.013 100.045C176.479 100.298 176.979 100.444 177.512 100.481C178.042 100.52 178.557 100.444 179.057 100.258C179.2 100.206 179.335 100.142 179.472 100.075C179.578 100.005 179.697 99.9779 179.828 99.9901C179.956 100.005 180.066 100.054 180.16 100.146C180.243 100.228 180.298 100.325 180.316 100.441C180.337 100.557 180.322 100.667 180.27 100.773C179.377 102.806 178.14 104.534 175.888 105.186C173.236 105.954 170.427 104.269 169.595 101.486C169.372 100.785 169.317 100.069 169.43 99.341C169.503 98.8838 169.339 98.6949 168.93 98.5151C168.33 98.2408 167.784 97.8842 167.294 97.4423C166.803 97.0004 166.392 96.4946 166.059 95.9247C165.724 95.3548 165.486 94.7453 165.343 94.1022C165.197 93.4592 165.154 92.807 165.212 92.1488C165.255 91.6733 165.38 91.2192 165.593 90.7895C165.73 90.5122 165.931 90.2958 166.2 90.1404C166.264 90.0825 166.334 90.0703 166.413 90.1038C166.489 90.1374 166.532 90.1983 166.532 90.2837C166.578 90.5 166.581 90.7286 166.602 90.9511C166.623 91.2467 166.681 91.5362 166.776 91.8196C166.87 92.103 166.995 92.3712 167.154 92.6242C167.312 92.8771 167.498 93.1087 167.711 93.316C167.928 93.5232 168.162 93.7 168.421 93.8523C168.677 94.0017 168.952 94.1175 169.238 94.2028C169.521 94.2851 169.814 94.3338 170.113 94.346C170.411 94.3613 170.707 94.3369 171 94.279C171.292 94.218 171.572 94.1266 171.841 93.9986C173.532 93.252 174.41 91.8227 174.818 90.1008C175.297 88.0894 174.794 86.2426 173.709 84.5329C173.319 83.9234 172.871 83.3657 172.365 82.8537C171.752 82.229 171.149 81.5951 170.512 80.9947C168.202 78.8218 166.958 76.1004 166.465 73.0193C166.123 70.7428 165.959 68.4541 165.974 66.1532C165.947 58.903 166.032 51.6255 166.169 44.3632C166.3 36.8327 166.431 29.3144 166.562 21.7991C166.602 19.3824 166.562 16.9566 166.602 14.549C166.553 13.842 166.635 13.1502 166.846 12.4736ZM170.137 129.835C170.177 130.021 170.305 130.072 170.402 130.139C172.67 131.746 173.413 133.958 172.996 136.631C172.715 138.395 172.02 140.032 171.344 141.671C171.106 142.305 170.811 142.909 170.457 143.485C170.363 143.622 170.308 143.799 170.043 143.89C170.018 143.521 170.052 143.159 170.14 142.802C170.503 141.272 170.996 139.779 171.301 138.234C171.46 137.475 171.557 136.71 171.591 135.936C171.685 133.321 170.161 131.374 167.601 130.822C165.651 130.405 163.938 130.944 162.433 132.178C161.64 132.812 161.007 133.574 160.525 134.464C160.041 135.354 159.751 136.305 159.653 137.313C159.556 138.103 159.684 138.855 160.034 139.569C160.629 140.763 161.662 141.019 162.759 140.266C162.92 140.151 163.073 140.023 163.216 139.882C163.338 139.77 163.414 139.553 163.634 139.666C163.85 139.779 163.795 139.959 163.81 140.132C163.823 140.577 163.688 140.97 163.408 141.312C163.186 141.604 162.914 141.842 162.597 142.025C162.28 142.208 161.939 142.321 161.573 142.366C161.211 142.412 160.851 142.388 160.501 142.287C160.147 142.189 159.827 142.025 159.538 141.799C158.919 141.297 158.48 140.669 158.221 139.916C157.682 138.508 157.645 137.088 158.118 135.656C159.138 132.364 161.183 130.045 164.594 129.082C164.706 129.048 164.819 129.006 164.935 128.966C164.88 128.664 164.627 128.558 164.459 128.384C162.841 126.717 161.9 124.761 161.979 122.405C161.991 121.539 162.21 120.729 162.64 119.973C162.863 119.546 163.164 119.187 163.542 118.894C163.923 118.601 164.347 118.4 164.813 118.291C165.118 118.227 165.419 118.217 165.727 118.266C166.032 118.315 166.318 118.416 166.587 118.568C166.855 118.723 167.083 118.921 167.278 119.162C167.473 119.4 167.62 119.668 167.714 119.961C167.806 120.156 167.824 120.357 167.778 120.564C167.729 120.774 167.62 120.945 167.455 121.079C167.208 120.988 167.248 120.78 167.187 120.625C167.144 120.509 167.093 120.403 167.026 120.299C166.958 120.195 166.879 120.104 166.791 120.019C166.699 119.936 166.602 119.863 166.495 119.802C166.392 119.744 166.279 119.696 166.16 119.662C166.044 119.628 165.922 119.61 165.8 119.604C165.678 119.601 165.557 119.61 165.438 119.635C165.319 119.659 165.203 119.696 165.09 119.747C164.981 119.799 164.877 119.863 164.783 119.939C164.185 120.421 163.853 121.043 163.78 121.804C163.713 122.408 163.728 123.011 163.832 123.612C163.935 124.209 164.121 124.782 164.389 125.33C164.658 125.876 164.996 126.373 165.407 126.821C165.819 127.272 166.285 127.653 166.806 127.97C167.358 128.293 167.955 128.439 168.595 128.405C168.775 128.393 168.949 128.363 169.119 128.314C169.293 128.265 169.457 128.198 169.616 128.116C169.771 128.034 169.921 127.933 170.058 127.82C170.195 127.708 170.317 127.58 170.43 127.439C170.539 127.299 170.634 127.15 170.713 126.991C170.792 126.83 170.856 126.665 170.902 126.492C170.945 126.318 170.972 126.144 170.981 125.964C170.987 125.788 170.978 125.611 170.951 125.434C170.939 125.129 170.795 124.91 170.518 124.782C170.216 124.66 169.997 124.831 169.793 125.023C169.537 125.334 169.253 125.611 168.939 125.861C168.677 126.016 168.516 125.94 168.467 125.65C168.315 124.828 169.156 123.426 169.948 123.176C170.18 123.109 170.414 123.087 170.655 123.106C170.893 123.127 171.121 123.188 171.338 123.292C171.554 123.395 171.746 123.532 171.914 123.706C172.078 123.877 172.209 124.075 172.307 124.294C172.517 124.751 172.633 125.233 172.651 125.736C172.67 126.239 172.59 126.726 172.411 127.196C172.042 128.344 171.429 129.033 170.137 129.835ZM152.391 147.989C152.19 147.98 152.001 147.934 151.818 147.852C151.635 147.773 151.474 147.66 151.334 147.517C151.193 147.373 151.084 147.209 151.008 147.023C150.931 146.84 150.889 146.648 150.886 146.447C150.892 146.276 150.928 146.115 150.998 145.959C151.065 145.807 151.163 145.67 151.285 145.554C151.41 145.438 151.55 145.347 151.709 145.289C151.867 145.228 152.029 145.197 152.199 145.204C152.4 145.213 152.589 145.258 152.772 145.341C152.955 145.423 153.116 145.536 153.257 145.679C153.397 145.822 153.507 145.987 153.583 146.17C153.659 146.355 153.702 146.547 153.705 146.749C153.702 146.916 153.665 147.081 153.598 147.236C153.528 147.392 153.433 147.529 153.308 147.645C153.187 147.76 153.043 147.849 152.885 147.91C152.726 147.968 152.562 147.995 152.391 147.989ZM146.589 150.79C146.79 150.805 146.982 150.854 147.162 150.942C147.344 151.027 147.503 151.146 147.637 151.296C147.771 151.445 147.875 151.613 147.945 151.801C148.015 151.99 148.045 152.185 148.039 152.387C148.042 152.557 148.006 152.722 147.939 152.877C147.869 153.036 147.771 153.17 147.646 153.286C147.518 153.401 147.375 153.484 147.213 153.539C147.049 153.593 146.884 153.612 146.714 153.593C146.519 153.581 146.333 153.536 146.156 153.453C145.979 153.368 145.824 153.255 145.693 153.112C145.559 152.972 145.458 152.807 145.388 152.624C145.318 152.444 145.284 152.256 145.287 152.061C145.284 151.884 145.318 151.716 145.385 151.558C145.452 151.396 145.549 151.253 145.674 151.134C145.802 151.012 145.946 150.924 146.11 150.863C146.275 150.805 146.445 150.781 146.619 150.79H146.589ZM136.925 136.862C136.876 137.027 136.998 137.134 137.059 137.262C137.781 138.697 138.29 140.206 138.586 141.784C138.948 143.546 139.195 145.325 139.643 147.072C140.174 149.409 141.118 151.567 142.474 153.548C143.038 154.383 143.733 155.096 144.556 155.678C145.449 156.278 145.531 156.269 146.339 155.605C147.997 154.236 150.554 154.258 151.971 155.657C153.458 157.107 153.059 159.344 151.032 160.243C150.703 160.393 150.358 160.429 150.005 160.353C149.825 160.316 149.67 160.222 149.67 160.012C149.67 159.801 149.816 159.78 149.965 159.737C150.386 159.603 150.727 159.359 150.995 159.012C151.815 158.021 151.495 156.885 150.27 156.473C150.002 156.388 149.725 156.342 149.441 156.339C149.161 156.336 148.883 156.376 148.612 156.452C148.341 156.531 148.085 156.647 147.85 156.802C147.613 156.955 147.402 157.141 147.219 157.357C147.04 157.577 146.899 157.82 146.799 158.082C146.698 158.348 146.644 158.622 146.631 158.905C146.619 159.189 146.653 159.466 146.732 159.74C146.811 160.012 146.933 160.264 147.095 160.499C147.552 161.182 148.158 161.691 148.908 162.032C149.786 162.456 150.715 162.675 151.693 162.684C152.669 162.696 153.601 162.495 154.491 162.09C155.335 161.74 155.96 161.154 156.368 160.335C156.551 160.021 156.618 159.682 156.572 159.323C156.469 158.506 156.14 157.793 155.579 157.186C155.417 156.985 155.213 156.851 154.966 156.778C153.217 156.415 151.931 155.327 150.77 154.048C149.77 152.926 148.89 151.716 148.128 150.421C147.034 148.598 145.845 146.84 144.565 145.146C144.449 144.984 144.34 144.816 144.239 144.646C144.202 144.591 144.19 144.533 144.202 144.466C144.218 144.402 144.251 144.353 144.306 144.317C144.419 144.228 144.504 144.067 144.669 144.161C144.794 144.231 144.916 144.308 145.031 144.393C147.027 145.944 149.173 147.27 151.306 148.611C152.547 149.376 153.68 150.275 154.704 151.308C155.731 152.274 156.426 153.438 156.786 154.8C156.862 155.099 157.014 155.349 157.246 155.547C157.746 155.971 158.313 156.257 158.946 156.415C159.236 156.51 159.532 156.537 159.833 156.492C160.132 156.449 160.409 156.342 160.659 156.169C161.412 155.711 161.948 155.071 162.262 154.246C162.607 153.417 162.777 152.554 162.774 151.655C162.768 150.756 162.591 149.894 162.241 149.068C161.93 148.306 161.445 147.678 160.79 147.181C160.421 146.877 160.001 146.685 159.529 146.605C159.053 146.526 158.593 146.572 158.145 146.746C157.697 146.916 157.325 147.187 157.023 147.562C156.725 147.937 156.539 148.361 156.472 148.836C156.307 149.537 156.438 150.18 156.862 150.762C156.962 150.915 157.087 151.046 157.24 151.149C157.392 151.253 157.56 151.323 157.74 151.36C157.919 151.396 158.099 151.396 158.282 151.36C158.462 151.326 158.626 151.256 158.782 151.152C159.282 150.875 159.632 150.467 159.833 149.927C159.891 149.766 159.894 149.546 160.138 149.583C160.239 149.607 160.321 149.659 160.385 149.741C160.449 149.824 160.479 149.918 160.473 150.022C160.485 150.171 160.485 150.32 160.473 150.473C160.409 150.829 160.278 151.165 160.08 151.472C159.885 151.78 159.638 152.039 159.343 152.253C159.044 152.463 158.718 152.612 158.364 152.697C158.008 152.783 157.651 152.798 157.292 152.746C156.725 152.63 156.231 152.38 155.807 151.987C155.384 151.597 155.094 151.125 154.936 150.57C154.799 150.186 154.716 149.79 154.689 149.382C154.662 148.973 154.692 148.571 154.777 148.172C154.863 147.773 155 147.392 155.192 147.029C155.384 146.669 155.622 146.343 155.905 146.048C156.329 145.575 156.344 145.557 156.073 145.015C155.631 144.186 155.036 143.488 154.293 142.918C152.711 141.662 150.956 140.733 149.03 140.126C147.119 139.532 145.178 139.084 143.2 138.782C141.1 138.42 139.04 137.932 137.15 136.893C137.089 136.835 137.019 136.826 136.943 136.862H136.925ZM167.65 163.894V163.108C167.62 156.418 167.784 149.729 167.854 143.034C167.854 142.385 167.876 141.735 167.918 141.086C167.937 140.611 167.879 140.142 167.748 139.684C167.486 138.688 166.931 137.99 165.874 137.774C164.347 137.463 164.021 136.302 164.179 135.141C164.264 134.299 164.575 133.556 165.112 132.904C166.05 131.816 167.4 131.892 168.232 133.056C168.814 133.958 169.122 134.945 169.15 136.018C169.265 137.441 169.256 138.865 169.122 140.285C168.723 144.826 168.891 149.351 168.949 153.91C169.003 158.381 168.994 162.852 169.016 167.326C169.016 167.6 169.034 167.874 169.061 168.145C169.073 168.258 169.061 168.368 169.025 168.478C168.988 168.584 168.93 168.682 168.854 168.764C168.775 168.846 168.683 168.91 168.577 168.953C168.473 168.996 168.363 169.014 168.248 169.008C166.504 168.895 164.755 168.98 163.009 168.956C157.791 168.895 152.574 168.898 147.354 168.761C144.629 168.694 141.917 169.02 139.204 169.124C137.726 169.23 136.257 169.151 134.801 168.889C134.13 168.758 133.524 168.481 132.987 168.054C132.031 167.256 131.951 166.027 132.853 165.174C133.298 164.735 133.819 164.421 134.414 164.229C135.011 164.037 135.617 163.992 136.233 164.086C136.614 164.178 136.943 164.354 137.227 164.626C137.507 164.894 137.702 165.214 137.812 165.589C138.022 167.039 139.022 167.694 140.841 167.798C141.688 167.847 142.538 167.78 143.38 167.761C149.971 167.64 156.566 167.551 163.158 167.53C163.429 167.53 163.698 167.53 164.036 167.53C163.911 167.237 163.673 167.167 163.509 167.061C162.073 166.14 160.93 164.942 160.074 163.467C159.501 162.556 159.221 161.56 159.23 160.484C159.269 159.53 159.593 159.183 160.559 159.134C161.241 159.113 161.896 159.234 162.527 159.497C164.481 160.264 165.928 161.639 167.093 163.349C167.217 163.528 167.352 163.711 167.483 163.885C167.507 163.912 167.544 163.9 167.65 163.894ZM158.258 158.095C158.297 158.521 158.313 158.948 158.31 159.378C158.261 160.085 158.069 160.752 157.727 161.374C157.383 161.996 156.926 162.517 156.356 162.937C155.384 163.69 154.287 164.141 153.071 164.293C150.998 164.595 149.03 164.315 147.268 163.138C146.025 162.306 145.092 161.215 144.833 159.689C144.769 159.301 144.864 158.823 144.669 158.533C144.471 158.241 144.01 158.238 143.687 158.064C143.081 157.708 142.542 157.266 142.072 156.742C140.174 154.748 138.869 152.423 138.153 149.769C137.224 146.679 136.535 143.537 136.084 140.34C135.806 138.478 135.112 136.786 133.999 135.262C133.301 134.235 132.549 133.233 131.842 132.212C131.683 131.983 131.342 131.706 131.619 131.441C131.893 131.179 132.116 131.544 132.341 131.688C133.122 132.23 133.911 132.776 134.661 133.339C136.748 134.949 139.101 135.89 141.725 136.164C144.839 136.503 147.838 137.393 150.813 138.307C153.123 139.029 155.14 140.236 156.865 141.934C157.59 142.628 158.27 143.36 158.535 144.368C158.547 144.457 158.587 144.53 158.657 144.585C158.727 144.64 158.809 144.661 158.898 144.652C161.723 144.698 163.219 146.465 164.094 148.861C164.463 149.872 164.621 150.915 164.566 151.99C164.514 153.066 164.252 154.087 163.78 155.056C163.012 156.711 161.762 157.817 159.913 158.153C159.355 158.244 158.803 158.229 158.252 158.107L158.258 158.095ZM129.08 164.811L129.282 164.132C130.324 160.603 133.908 157.83 137.58 157.717C138.994 157.674 140.317 157.979 141.408 158.933C141.633 159.103 141.828 159.305 141.99 159.539C142.154 159.771 142.276 160.021 142.362 160.292C142.447 160.563 142.487 160.84 142.487 161.124C142.484 161.407 142.438 161.685 142.35 161.956C142.154 162.608 141.764 163.105 141.179 163.452C140.899 163.632 140.591 163.723 140.259 163.723C140.058 163.723 139.823 163.702 139.741 163.501C139.655 163.297 139.89 163.218 140 163.099C140.11 162.992 140.21 162.882 140.305 162.767C141.155 161.66 140.896 160.545 139.652 159.929C139.006 159.621 138.327 159.493 137.617 159.536C134.536 159.64 131.534 162.124 130.915 165.144C130.726 165.96 130.726 166.777 130.918 167.594C131.11 168.411 131.47 169.142 132.003 169.791C133.091 171.147 134.575 171.604 136.273 171.489C137.641 171.358 138.988 171.102 140.311 170.727C141.277 170.477 142.222 170.142 143.209 169.977C143.462 169.898 143.712 169.898 143.962 169.977C143.864 170.251 143.599 170.34 143.41 170.446C141.079 171.604 138.695 172.677 136.09 172.964C135.547 173.04 135.005 173.043 134.462 172.97C133.92 172.897 133.399 172.753 132.896 172.54C132.393 172.324 131.927 172.043 131.5 171.702C131.077 171.358 130.702 170.964 130.385 170.52C130.251 170.349 130.172 170.129 129.946 169.998L129.629 170.504C129.4 170.864 129.123 171.184 128.8 171.464C128.477 171.742 128.12 171.97 127.733 172.144C127.343 172.321 126.938 172.436 126.514 172.494C126.091 172.549 125.667 172.546 125.247 172.479C124.506 172.388 123.927 172.034 123.507 171.419C123.357 171.205 123.26 170.971 123.214 170.715C123.165 170.459 123.174 170.206 123.241 169.953C123.305 169.703 123.421 169.474 123.586 169.273C123.75 169.072 123.951 168.916 124.183 168.801C124.646 168.523 125.143 168.38 125.682 168.374C126.027 168.374 126.121 168.566 125.938 168.862C125.725 169.139 125.484 169.386 125.213 169.605C125.006 169.825 124.756 170.041 124.85 170.379C124.945 170.715 125.305 170.815 125.631 170.861C125.829 170.885 126.03 170.885 126.228 170.864C126.426 170.839 126.621 170.794 126.81 170.727C126.999 170.66 127.176 170.571 127.346 170.462C127.514 170.352 127.666 170.227 127.807 170.081C127.944 169.934 128.063 169.776 128.166 169.605C128.267 169.432 128.346 169.249 128.407 169.057C128.465 168.865 128.501 168.67 128.514 168.469C128.529 168.27 128.517 168.072 128.486 167.874C128.407 167.371 128.224 166.911 127.935 166.494C126.551 164.583 124.719 163.541 122.324 163.632C121.681 163.641 121.096 163.824 120.563 164.181C119.999 164.574 119.609 165.089 119.706 165.817C119.74 166.152 119.871 166.442 120.099 166.689C120.331 166.936 120.611 167.091 120.944 167.149C121.014 167.173 121.078 167.207 121.139 167.249C121.032 167.448 120.87 167.582 120.657 167.649C120.444 167.719 120.236 167.707 120.032 167.612C119.557 167.454 119.164 167.176 118.853 166.78C118.545 166.384 118.371 165.936 118.332 165.436C118.295 164.885 118.405 164.367 118.661 163.876C118.917 163.388 119.28 163.001 119.749 162.715C120.852 161.977 122.062 161.694 123.375 161.868C124.342 161.962 125.262 162.224 126.137 162.648C127.008 163.074 127.782 163.638 128.453 164.342C128.608 164.498 128.773 164.65 128.934 164.805C128.974 164.839 129.01 164.827 129.071 164.827L129.08 164.811ZM153.711 97.2869C153.104 96.4458 152.943 95.4736 152.87 94.4588C152.669 91.6185 152.961 88.8269 153.744 86.0872L153.79 85.947C153.903 85.63 154.031 85.307 154.445 85.3466C154.857 85.3862 154.927 85.7093 154.969 86.0719C155.064 86.8399 155.076 87.614 155.186 88.382C155.548 90.8535 156.478 93.0844 157.983 95.0805C159.388 96.973 161.125 98.5456 162.853 100.261C162.872 99.9048 162.802 99.5695 162.643 99.2495C161.573 95.6443 161.485 92.0543 162.704 88.4795C163.052 87.3976 163.573 86.4072 164.267 85.5112C165.109 84.4324 166.187 83.707 167.504 83.3352C170.405 82.5154 173.523 84.9779 173.154 88.3759C173.093 89.0616 172.871 89.6894 172.484 90.2593C172.316 90.5305 172.103 90.7591 171.847 90.9419C171.591 91.1278 171.307 91.2589 171 91.3351C170.692 91.4082 170.381 91.4234 170.067 91.3747C169.753 91.3259 169.46 91.2223 169.186 91.0577C168.65 90.7682 168.202 90.3781 167.836 89.8905C167.473 89.4029 167.227 88.8604 167.102 88.2631C167.019 87.9797 167.007 87.6963 167.065 87.4068C167.12 87.1203 167.239 86.8613 167.422 86.6296C167.583 86.4011 167.803 86.2457 168.074 86.1725C168.348 86.0963 168.613 86.1146 168.872 86.2274C169.332 86.4834 169.436 86.9527 169.183 87.6109C169.113 87.7908 169.077 87.9767 169.07 88.1717C169.064 88.3667 169.092 88.5557 169.15 88.7385C169.208 88.9244 169.296 89.0951 169.412 89.2505C169.528 89.4029 169.665 89.537 169.826 89.6437C170.369 90.0398 170.878 89.9454 171.204 89.3481C171.414 88.9519 171.524 88.5313 171.533 88.0833C171.545 87.6384 171.454 87.2117 171.262 86.8094C171.124 86.462 170.929 86.1573 170.673 85.886C170.417 85.6179 170.119 85.4076 169.78 85.2552C169.442 85.0998 169.089 85.0175 168.717 85.0023C168.345 84.987 167.985 85.0449 167.635 85.1699C166.504 85.5782 165.651 86.3127 165.075 87.3671C164.164 88.9793 163.637 90.7073 163.499 92.5571C163.137 96.3452 164.082 99.8286 165.959 103.102C166.736 104.415 167.601 105.665 168.552 106.856C169.464 108.066 170.408 109.258 171.277 110.513C172.38 112.077 173.191 113.783 173.709 115.63C173.748 115.779 173.733 115.993 173.974 116.09L174.102 112.933L174.245 109.264C174.245 109.127 174.245 108.932 174.452 108.95C174.599 108.95 174.608 109.124 174.617 109.245C174.647 109.971 174.681 110.696 174.705 111.421C174.974 119.836 175.086 128.25 175.162 136.667C175.275 148.525 175.37 160.386 175.452 172.251C175.452 172.848 175.452 173.451 175.452 174.064C175.418 174.932 175.013 175.322 174.132 175.347C173.535 175.365 172.938 175.347 172.319 175.347C157.865 175.316 143.401 175.155 128.946 174.984C124.076 174.929 119.209 174.81 114.339 174.707C112.767 174.676 111.194 174.606 109.625 174.554C109.476 174.557 109.329 174.542 109.183 174.509C109.107 174.484 109.058 174.433 109.037 174.356C109.031 174.305 109.043 174.259 109.079 174.219C109.113 174.177 109.156 174.158 109.207 174.158C109.406 174.131 109.607 174.128 109.802 174.122L115.72 173.924C115.866 173.924 116.016 173.924 116.168 173.899C116.168 173.631 115.976 173.692 115.86 173.665C113.919 173.119 112.127 172.26 110.484 171.089C109.168 170.175 107.918 169.185 106.66 168.188C104.728 166.616 102.606 165.369 100.293 164.446C96.7216 163.099 93.0981 162.873 89.4349 164.065C88.545 164.345 87.7222 164.754 86.9664 165.299C86.0582 165.924 85.467 166.768 85.1927 167.838C85.1196 168.1 85.0861 168.365 85.0922 168.636C85.0983 168.907 85.147 169.172 85.2354 169.428C85.3238 169.688 85.4457 169.925 85.6072 170.145C85.7687 170.364 85.9577 170.553 86.1771 170.715C86.3874 170.903 86.622 171.059 86.8811 171.178C87.1401 171.297 87.4083 171.376 87.6887 171.415C87.969 171.455 88.2525 171.455 88.5328 171.412C88.8132 171.37 89.0814 171.287 89.3374 171.166C90.081 170.839 90.1816 170.196 89.6361 169.599C89.3983 169.313 89.1027 169.124 88.7401 169.038C88.3774 168.953 88.027 168.984 87.6887 169.136C87.07 169.368 86.6007 169.267 86.3508 168.852C86.2167 168.612 86.1771 168.359 86.2289 168.091C86.2838 167.822 86.4178 167.603 86.6312 167.435C87.0395 167.036 87.5211 166.884 88.0818 166.981C88.7797 167.07 89.4136 167.323 89.9774 167.74C90.5442 168.161 90.9709 168.691 91.2604 169.331C91.8425 170.574 91.3488 171.87 90.0932 172.574C89.6239 172.82 89.1302 172.982 88.606 173.061C88.0818 173.137 87.5607 173.128 87.0426 173.031C86.5215 172.93 86.0339 172.747 85.5767 172.485C85.1196 172.22 84.7173 171.885 84.3729 171.486C84.1109 171.19 83.8914 170.864 83.7147 170.507C83.541 170.151 83.4191 169.779 83.3459 169.389C83.2758 168.999 83.2575 168.606 83.2941 168.213C83.3307 167.816 83.4191 167.435 83.5623 167.064C83.8274 166.314 84.2175 165.637 84.7356 165.031C85.2537 164.427 85.8632 163.937 86.5641 163.559C88.3134 162.584 90.1846 162.014 92.1808 161.849C94.7834 161.587 97.322 161.883 99.7966 162.73C99.9337 162.779 100.074 162.815 100.257 162.864C100.257 162.629 100.107 162.544 99.9977 162.434C98.8823 161.292 97.7791 160.137 96.5875 159.067C95.5239 158.07 94.3415 157.241 93.0402 156.583C91.7389 155.928 90.3705 155.465 88.9382 155.199C88.2007 155.065 87.4571 154.986 86.7074 154.956C86.4605 154.947 86.2106 154.919 85.9668 154.873C85.8358 154.864 85.723 154.815 85.6255 154.727C85.531 154.639 85.4731 154.529 85.4548 154.398C85.4152 154.072 85.6285 153.898 85.8998 153.785C86.0399 153.728 86.1832 153.682 86.3295 153.645C89.1942 152.835 92.1107 152.576 95.0729 152.865C95.9353 152.929 96.7277 153.2 97.4469 153.682C97.7029 153.017 98.029 152.393 98.4252 151.801C98.8457 151.14 99.3791 150.585 100.025 150.137C100.333 149.915 100.677 149.775 101.052 149.72C101.64 149.659 101.969 149.949 101.954 150.534C101.933 150.781 101.884 151.021 101.814 151.259C101.616 152.03 101.451 152.81 101.308 153.596C100.988 155.654 101.253 157.628 102.097 159.53C103.381 162.73 105.371 165.406 108.062 167.557C109.079 168.362 110.103 169.16 111.133 169.95C113.568 171.769 116.293 172.857 119.31 173.214C121.836 173.573 124.375 173.732 126.926 173.689C142.133 173.448 157.34 173.29 172.548 173.217C173.361 173.217 173.328 173.271 173.337 172.369C173.407 162.882 173.483 153.395 173.556 143.902C173.617 137.761 173.742 131.621 173.809 125.477C173.828 122.746 173.547 120.043 172.968 117.373C172.499 115.17 171.6 113.159 170.268 111.339C169.265 109.904 168.187 108.529 167.029 107.216C164.347 104.272 161.141 102.139 157.191 101.27C155.445 100.88 153.72 101.121 152.004 101.544C151.62 101.639 151.236 101.758 150.843 101.831C150.078 101.974 149.691 101.578 149.834 100.81C149.971 100.234 150.255 99.7432 150.678 99.3318C151.382 98.6065 152.193 98.0366 153.113 97.613C153.333 97.5399 153.531 97.4332 153.711 97.2869ZM12.7007 166.664C13.874 166.503 15.0534 166.442 16.2359 166.485C25.9514 166.539 35.6579 166.177 45.3674 166.034C52.456 165.93 59.5446 165.805 66.6362 165.869C69.2144 165.838 71.7713 166.079 74.3008 166.594C75.5411 166.853 76.7206 167.286 77.836 167.893C78.9483 168.502 79.954 169.255 80.8439 170.157C81.7399 171.059 82.6176 171.97 83.5745 172.826C84.6929 173.847 85.9912 174.497 87.4784 174.78C88.4231 174.978 89.3648 174.96 90.3035 174.725C91.2391 174.49 92.0771 174.064 92.8177 173.442C93.3023 173.07 93.6832 172.613 93.9605 172.071C94.2379 171.528 94.3872 170.952 94.4024 170.343C94.4329 169.895 94.378 169.456 94.2439 169.029C94.1099 168.603 93.9026 168.213 93.6223 167.862C93.3419 167.515 93.0066 167.225 92.6196 167.003C92.2295 166.777 91.8151 166.631 91.3732 166.561C91.1507 166.521 90.9252 166.506 90.7057 166.466C90.4833 166.427 90.2547 166.555 90.1999 166.28C90.1572 166.07 90.3431 165.918 90.4863 165.781C90.9831 165.366 91.556 165.147 92.2021 165.116C92.8543 165.061 93.5004 165.104 94.1373 165.244C94.7773 165.384 95.3807 165.616 95.9506 165.939C96.5174 166.265 97.0264 166.664 97.4713 167.143C97.9193 167.621 98.285 168.155 98.5684 168.743C98.8549 169.374 98.8549 169.374 99.5162 169.319C99.8545 169.288 100.193 169.288 100.534 169.319C100.872 169.349 101.205 169.413 101.534 169.505C101.86 169.599 102.177 169.724 102.481 169.876C102.786 170.029 103.073 170.209 103.344 170.416C103.612 170.623 103.862 170.855 104.091 171.108C104.316 171.364 104.517 171.635 104.694 171.927C104.871 172.22 105.017 172.525 105.136 172.845C105.252 173.165 105.34 173.491 105.398 173.826C105.499 174.466 105.471 175.103 105.316 175.731C105.16 176.362 104.889 176.935 104.499 177.453C103.594 178.66 102.448 179.552 101.058 180.138C100.778 180.266 100.485 180.36 100.226 180.092C99.9703 179.824 100.104 179.537 100.226 179.26C100.443 178.787 100.558 178.294 100.568 177.776C100.577 177.255 100.482 176.758 100.281 176.279C99.7905 175.009 98.7513 174.582 97.5109 175.115C97.1848 175.24 96.874 175.396 96.5753 175.575C94.8108 176.727 92.8268 177.026 90.7728 177.087C88.8071 177.114 86.9969 176.599 85.339 175.542C83.4709 174.366 81.7917 172.964 80.2984 171.339C79.4298 170.431 78.4394 169.678 77.3301 169.084C76.2238 168.487 75.0505 168.078 73.8101 167.859C72.4601 167.609 71.0978 167.451 69.7234 167.381C65.0576 167.118 60.3918 167.292 55.7199 167.341C47.5829 167.423 39.446 167.548 31.306 167.658C26.8383 167.722 22.3706 167.569 17.909 167.344C16.3364 167.301 14.77 167.161 13.2157 166.926C13.0481 166.899 12.8561 166.929 12.7007 166.664ZM0.626312 175.389C1.41258 175.176 2.21103 175.063 3.02473 175.057C7.03531 174.774 11.0459 174.512 15.0565 174.268C17.8968 174.091 20.7401 173.951 23.5774 173.79C28.9106 173.488 34.2469 173.229 39.5892 173.012C45.3277 172.778 51.0693 172.668 56.8109 172.72C61.2542 172.762 65.7006 172.564 70.1409 172.662C71.2685 172.689 72.3808 172.826 73.4993 172.948C73.6578 172.954 73.7919 173.015 73.9016 173.131C73.7949 173.338 73.5846 173.335 73.4018 173.378C71.11 173.924 68.7634 174.036 66.429 174.28C58.7705 175.085 51.0724 175.024 43.3895 175.197C33.5977 175.423 23.806 175.725 14.0355 175.85C10.2139 175.901 6.39532 175.935 2.57674 175.767C1.89714 175.786 1.24802 175.661 0.626312 175.389Z" fill="#FFF1B8"/>
</g>
</g>
</svg>
