<svg width="181" height="181" viewBox="0 0 181 181" fill="none" xmlns="http://www.w3.org/2000/svg">
<mask id="mask0_1555_729" style="mask-type:luminance" maskUnits="userSpaceOnUse" x="0" y="0" width="181" height="181">
<path d="M0 0L0 181H181V0H0Z" fill="white"/>
</mask>
<g mask="url(#mask0_1555_729)">
<mask id="mask1_1555_729" style="mask-type:luminance" maskUnits="userSpaceOnUse" x="0" y="0" width="181" height="181">
<path d="M0.623047 180.375L0.623047 0.740555H180.258V180.375H0.623047Z" fill="white"/>
</mask>
<g mask="url(#mask1_1555_729)">
<path d="M7.67826 107.207C8.04092 107.588 8.01654 108.039 8.06835 108.462C8.19025 109.48 8.2512 110.501 8.2512 111.528C8.22987 117.968 8.2512 124.41 8.20244 130.85C8.15977 135.643 7.97387 140.431 7.7575 145.222C7.58074 149.159 7.38265 153.097 7.16323 157.034C6.8859 162.111 6.58724 167.188 6.2642 172.266C6.09658 174.722 5.98078 177.166 5.70345 179.595C5.67298 179.857 5.73393 180.15 5.44746 180.357C5.13965 179.744 5.18537 179.077 5.1488 178.446C5.0787 177.2 5.06956 175.953 5.06042 174.701C5.00556 167.935 5.12746 161.173 5.29508 154.395C5.51755 145.587 5.7644 136.78 5.8863 127.97C5.95944 122.774 6.33125 117.593 6.84933 112.427C6.96818 110.909 7.18151 109.404 7.48931 107.914C7.54722 107.685 7.61426 107.444 7.67826 107.207ZM14.1543 168.526C13.944 167.877 13.8221 167.216 13.7916 166.536C13.5174 163.199 13.3985 159.859 13.2949 156.513C13.1334 150.921 13.3497 145.328 13.4046 139.739C13.4869 130.825 13.7155 121.914 13.5936 113C13.6057 110.669 13.3254 108.371 12.7524 106.11C12.2953 104.36 11.4481 102.824 10.2138 101.502C9.48851 100.721 8.72967 99.9504 7.95559 99.2068C6.50496 97.7989 5.53584 96.0435 4.55757 94.3033C4.19187 93.6054 3.98159 92.8649 3.92368 92.0816C3.73169 90.3476 3.85359 88.6379 4.28634 86.9496C4.47834 86.1938 4.777 85.4868 5.18537 84.8224C5.45965 84.3744 5.69431 83.9081 5.88326 83.4175C5.99297 83.195 6.05392 82.9634 6.06916 82.7165C6.08135 82.4666 6.04782 82.2289 5.96249 81.9973C5.87716 81.7626 5.75221 81.5585 5.58155 81.3756C5.41393 81.1958 5.21584 81.0556 4.98728 80.9551C4.521 80.7021 4.0212 80.5558 3.48788 80.5193C2.95761 80.4796 2.44257 80.5558 1.94278 80.7417C1.79954 80.7935 1.66545 80.8575 1.52831 80.9246C1.42164 80.9947 1.30279 81.0221 1.17175 81.0099C1.04375 80.9947 0.934037 80.9459 0.839563 80.8545C0.757279 80.7722 0.702423 80.6747 0.684138 80.5589C0.662805 80.4431 0.678043 80.3334 0.729851 80.2267C1.62278 78.194 2.86009 76.466 5.11223 75.8138C7.76359 75.0459 10.5734 76.7311 11.4054 79.5136C11.6279 80.2145 11.6827 80.9307 11.57 81.659C11.4968 82.1162 11.6614 82.3051 12.0698 82.4849C12.6701 82.7592 13.2157 83.1158 13.7063 83.5577C14.197 83.9996 14.6084 84.5054 14.9406 85.0753C15.2758 85.6452 15.5135 86.2547 15.6567 86.8978C15.803 87.5408 15.8457 88.193 15.7878 88.8512C15.7451 89.3267 15.6202 89.7808 15.4068 90.2105C15.2697 90.4878 15.0686 90.7042 14.8004 90.8596C14.7364 90.9175 14.6663 90.9297 14.5871 90.8962C14.5109 90.8626 14.4682 90.8017 14.4682 90.7163C14.4225 90.5 14.4194 90.2714 14.3981 90.0489C14.3768 89.7533 14.3189 89.4638 14.2244 89.1804C14.1299 88.897 14.005 88.6288 13.8465 88.3758C13.688 88.1229 13.5021 87.8913 13.2888 87.684C13.0724 87.4768 12.8378 87.3 12.5787 87.1477C12.3227 86.9983 12.0484 86.8825 11.762 86.7972C11.4786 86.7149 11.186 86.6662 10.8873 86.654C10.5887 86.6387 10.2931 86.6631 10.0005 86.721C9.70793 86.782 9.42756 86.8734 9.15937 87.0014C7.46798 87.748 6.59029 89.1773 6.18192 90.8992C5.70345 92.9106 6.2063 94.7574 7.29122 96.4671C7.68131 97.0766 8.1293 97.6343 8.63519 98.1463C9.24775 98.771 9.85116 99.4049 10.4881 100.005C12.7981 102.178 14.0415 104.9 14.5352 107.981C14.8766 110.257 15.0411 112.546 15.0259 114.847C15.0533 122.097 14.968 129.375 14.8309 136.637C14.6998 144.167 14.5688 151.686 14.4377 159.201C14.3981 161.618 14.4377 164.043 14.3981 166.451C14.4469 167.158 14.3646 167.85 14.1543 168.526ZM10.8629 51.1653C10.8233 50.9794 10.6953 50.9276 10.5978 50.8605C8.33044 49.2545 7.58683 47.0419 8.00435 44.3692C8.28472 42.6047 8.97956 40.9682 9.65612 39.3286C9.89383 38.6947 10.1894 38.0913 10.543 37.5153C10.6374 37.3782 10.6923 37.2014 10.9574 37.11C10.9818 37.4787 10.9483 37.8414 10.8599 38.198C10.4972 39.7278 10.0035 41.2211 9.69879 42.7662C9.54031 43.5251 9.44279 44.29 9.40927 45.0641C9.31479 47.6789 10.8386 49.6263 13.3985 50.1779C15.3489 50.5954 17.0617 50.056 18.5672 48.8217C19.3595 48.1878 19.9934 47.4259 20.4749 46.536C20.9595 45.6462 21.249 44.6953 21.3465 43.6866C21.444 42.8973 21.316 42.1445 20.9656 41.4314C20.3713 40.2368 19.3382 39.9808 18.2411 40.7335C18.0795 40.8493 17.9272 40.9773 17.7839 41.1175C17.662 41.2303 17.5858 41.4466 17.3664 41.3339C17.15 41.2211 17.2049 41.0413 17.1897 40.8676C17.1775 40.4227 17.3116 40.0295 17.5919 39.6882C17.8144 39.3956 18.0856 39.1579 18.4026 38.9751C18.7195 38.7922 19.0609 38.6795 19.4266 38.6337C19.7892 38.588 20.1488 38.6124 20.4993 38.713C20.8528 38.8105 21.1728 38.9751 21.4623 39.2006C22.081 39.7034 22.5198 40.3312 22.7789 41.084C23.3183 42.4919 23.3549 43.9121 22.8825 45.3445C21.8616 48.6358 19.8166 50.955 16.4064 51.918C16.2937 51.9515 16.1809 51.9942 16.0651 52.0338C16.12 52.3355 16.3729 52.4422 16.5405 52.6159C18.1588 54.2829 19.1005 56.2394 19.0212 58.5952C19.009 59.4607 18.7896 60.2713 18.3599 61.0271C18.1374 61.4538 17.8357 61.8134 17.4578 62.106C17.0769 62.3985 16.6533 62.5997 16.187 62.7094C15.8823 62.7734 15.5806 62.7825 15.2728 62.7338C14.968 62.685 14.6815 62.5844 14.4133 62.4321C14.1452 62.2766 13.9166 62.0785 13.7215 61.8378C13.5265 61.6001 13.3802 61.3319 13.2858 61.0393C13.1943 60.8443 13.176 60.6431 13.2218 60.4359C13.2705 60.2256 13.3802 60.055 13.5448 59.9209C13.7916 60.0123 13.752 60.2195 13.813 60.375C13.8556 60.4908 13.9075 60.5974 13.9745 60.701C14.0415 60.8047 14.1208 60.8961 14.2092 60.9814C14.3006 61.0637 14.3981 61.1368 14.5048 61.1978C14.6084 61.2557 14.7211 61.3045 14.84 61.338C14.9558 61.3715 15.0777 61.3898 15.1996 61.3959C15.3215 61.3989 15.4434 61.3898 15.5623 61.3654C15.6811 61.341 15.7969 61.3045 15.9097 61.2527C16.0194 61.2008 16.123 61.1368 16.2175 61.0607C16.8148 60.5791 17.147 59.9574 17.2201 59.1956C17.2872 58.5921 17.2719 57.9887 17.1683 57.3884C17.0647 56.791 16.8788 56.2181 16.6106 55.6695C16.3424 55.124 16.0042 54.6273 15.5927 54.1793C15.1813 53.7283 14.7151 53.3473 14.1939 53.0304C13.6423 52.7073 13.045 52.561 12.405 52.5946C12.2252 52.6068 12.0515 52.6372 11.8808 52.686C11.7071 52.7348 11.5426 52.8018 11.3841 52.8841C11.2287 52.9664 11.0793 53.0669 10.9422 53.1797C10.805 53.2925 10.6831 53.4205 10.5704 53.5606C10.4607 53.7008 10.3662 53.8502 10.287 54.0086C10.2077 54.1702 10.1437 54.3347 10.098 54.5084C10.0553 54.6821 10.0279 54.8559 10.0188 55.0357C10.0127 55.2124 10.0218 55.3892 10.0493 55.5659C10.0614 55.8707 10.2047 56.0901 10.482 56.2181C10.7837 56.34 11.0031 56.1693 11.2073 55.9773C11.4633 55.6665 11.7467 55.3892 12.0606 55.1393C12.3227 54.9838 12.4842 55.06 12.533 55.3496C12.6854 56.1724 11.8443 57.5743 11.0519 57.8242C10.8203 57.8912 10.5856 57.9125 10.3449 57.8943C10.1072 57.8729 9.87859 57.812 9.66222 57.7084C9.44584 57.6047 9.25384 57.4676 9.08623 57.2939C8.92166 57.1232 8.79062 56.9251 8.6931 56.7057C8.48281 56.2486 8.36701 55.7671 8.34872 55.2642C8.33044 54.7614 8.40967 54.2738 8.58948 53.8044C8.95823 52.6555 9.57079 51.9668 10.8629 51.1653ZM28.6088 33.011C28.81 33.0202 28.9989 33.0659 29.1818 33.1482C29.3646 33.2274 29.5261 33.3402 29.6663 33.4834C29.8065 33.6266 29.9162 33.7912 29.9924 33.9771C30.0686 34.1599 30.1113 34.3519 30.1143 34.5531C30.1082 34.7237 30.0716 34.8853 30.0016 35.0407C29.9345 35.1931 29.837 35.3302 29.7151 35.446C29.5901 35.5618 29.4499 35.6532 29.2915 35.7112C29.133 35.7721 28.9715 35.8026 28.8008 35.7965C28.5997 35.7873 28.4107 35.7416 28.2279 35.6593C28.045 35.5771 27.8835 35.4643 27.7433 35.3211C27.6031 35.1778 27.4934 35.0133 27.4172 34.8304C27.341 34.6445 27.2984 34.4525 27.2953 34.2514C27.2984 34.0838 27.3349 33.9192 27.402 33.7638C27.4721 33.6083 27.5666 33.4712 27.6915 33.3554C27.8134 33.2396 27.9566 33.1512 28.1151 33.0903C28.2736 33.0324 28.4382 33.0049 28.6088 33.011ZM34.4114 30.2103C34.2102 30.1951 34.0182 30.1463 33.8384 30.058C33.6556 29.9726 33.4971 29.8538 33.363 29.7044C33.2289 29.5551 33.1253 29.3875 33.0552 29.1985C32.9851 29.0096 32.9546 28.8145 32.9607 28.6134C32.9577 28.4427 32.9942 28.2782 33.0613 28.1228C33.1314 27.9643 33.2289 27.8302 33.3539 27.7144C33.4819 27.5986 33.6251 27.5163 33.7866 27.4614C33.9512 27.4066 34.1157 27.3883 34.2864 27.4066C34.4814 27.4188 34.6674 27.4645 34.8441 27.5468C35.0209 27.6321 35.1763 27.7449 35.3073 27.8881C35.4414 28.0283 35.542 28.1929 35.6121 28.3757C35.6822 28.5555 35.7157 28.7445 35.7127 28.9395C35.7157 29.1163 35.6822 29.2839 35.6151 29.4424C35.5481 29.6039 35.4506 29.7471 35.3256 29.866C35.1976 29.9879 35.0544 30.0762 34.8898 30.1372C34.7253 30.1951 34.5546 30.2195 34.3809 30.2103H34.4114ZM44.0751 44.1376C44.1239 43.9731 44.002 43.8664 43.941 43.7384C43.2188 42.303 42.7098 40.7945 42.4142 39.2158C42.0516 37.4543 41.8047 35.6746 41.3567 33.9283C40.8264 31.5909 39.8817 29.4332 38.5255 27.4523C37.9618 26.6173 37.2669 25.9041 36.4441 25.3221C35.5511 24.7217 35.4689 24.7308 34.6613 25.3952C33.0034 26.7635 30.4465 26.7422 29.0294 25.3434C27.5422 23.8928 27.9414 21.6559 29.968 20.7568C30.2972 20.6075 30.6415 20.5709 30.9951 20.6471C31.1749 20.6837 31.3303 20.7782 31.3303 20.9884C31.3303 21.1987 31.184 21.2201 31.0347 21.2627C30.6141 21.3968 30.2728 21.6406 30.0046 21.988C29.1848 22.9785 29.5048 24.1152 30.7299 24.5267C30.9981 24.612 31.2754 24.6577 31.5589 24.6607C31.8392 24.6638 32.1166 24.6242 32.3878 24.548C32.659 24.4688 32.915 24.3529 33.1497 24.1975C33.3874 24.0451 33.5977 23.8592 33.7805 23.6429C33.9603 23.4234 34.1005 23.1796 34.2011 22.9175C34.3016 22.6524 34.3565 22.3781 34.3687 22.0947C34.3809 21.8113 34.3474 21.534 34.2681 21.2597C34.1889 20.9884 34.067 20.7355 33.9055 20.5008C33.4483 19.8182 32.8419 19.3092 32.0922 18.9679C31.2145 18.5443 30.285 18.3249 29.3067 18.3158C28.3315 18.3036 27.3989 18.5047 26.5091 18.91C25.6649 19.2605 25.0401 19.8456 24.6318 20.6654C24.4489 20.9793 24.3819 21.3176 24.4276 21.6772C24.5312 22.4939 24.8603 23.2071 25.4211 23.8135C25.5826 24.0147 25.7868 24.1488 26.0336 24.2219C27.7829 24.5845 29.069 25.6725 30.2301 26.9525C31.2297 28.074 32.1105 29.2839 32.8723 30.5791C33.9664 32.4015 35.155 34.1599 36.4349 35.8544C36.5507 36.0159 36.6604 36.1835 36.761 36.3542C36.7976 36.409 36.8098 36.4669 36.7976 36.534C36.7823 36.598 36.7488 36.6467 36.694 36.6833C36.5812 36.7717 36.4959 36.9332 36.3313 36.8387C36.2064 36.7686 36.0845 36.6925 35.9687 36.6071C33.9725 35.0559 31.827 33.7302 29.6938 32.3893C28.4534 31.6244 27.3197 30.7254 26.2957 29.6922C25.2687 28.7262 24.5739 27.562 24.2143 26.1998C24.1381 25.9011 23.9857 25.6512 23.7541 25.4531C23.2543 25.0295 22.6874 24.743 22.0535 24.5845C21.764 24.4901 21.4684 24.4626 21.1667 24.5084C20.8681 24.551 20.5907 24.6577 20.3408 24.8314C19.5881 25.2885 19.0517 25.9285 18.7378 26.7544C18.3934 27.5833 18.2228 28.4458 18.2258 29.3448C18.2319 30.2439 18.4087 31.1063 18.7591 31.9322C19.07 32.6941 19.5546 33.3219 20.2098 33.8186C20.5785 34.1234 20.9991 34.3154 21.4715 34.3946C21.9469 34.4738 22.4071 34.4281 22.8551 34.2544C23.303 34.0838 23.6748 33.8125 23.9766 33.4377C24.2752 33.0628 24.4611 32.6392 24.5282 32.1638C24.6927 31.4629 24.5617 30.8198 24.1381 30.2378C24.0375 30.0854 23.9126 29.9543 23.7602 29.8507C23.6078 29.7471 23.4402 29.677 23.2604 29.6404C23.0806 29.6039 22.9008 29.6039 22.7179 29.6404C22.5381 29.674 22.3735 29.744 22.2181 29.8477C21.7183 30.125 21.3678 30.5334 21.1667 31.0728C21.1088 31.2343 21.1058 31.4537 20.862 31.4172C20.7614 31.3928 20.6791 31.341 20.6151 31.2587C20.5511 31.1764 20.5206 31.0819 20.5267 30.9783C20.5145 30.829 20.5145 30.6797 20.5267 30.5273C20.5907 30.1707 20.7218 29.8355 20.9199 29.5277C21.1149 29.2199 21.3618 28.9608 21.6574 28.7475C21.956 28.5372 22.2821 28.3879 22.6356 28.3026C22.9922 28.2172 23.3488 28.202 23.7084 28.2538C24.2752 28.3696 24.7689 28.6195 25.1925 29.0126C25.6161 29.4027 25.9056 29.8751 26.0641 30.4297C26.2013 30.8137 26.2835 31.2099 26.311 31.6183C26.3384 32.0267 26.3079 32.4289 26.2226 32.8282C26.1373 33.2274 26.0001 33.6083 25.8081 33.971C25.6161 34.3306 25.3784 34.6567 25.095 34.9523C24.6714 35.4247 24.6562 35.443 24.9274 35.9854C25.3693 36.8144 25.9636 37.5123 26.7072 38.0821C28.2888 39.3377 30.0442 40.2672 31.9703 40.8737C33.8811 41.468 35.8224 41.916 37.8002 42.2177C39.9 42.5803 41.9601 43.0679 43.8496 44.1071C43.9106 44.1651 43.9807 44.1742 44.0568 44.1376H44.0751ZM13.3497 17.1059V17.8921C13.3802 24.5815 13.2157 31.2709 13.1456 37.9663C13.1456 38.6155 13.1242 39.2646 13.0816 39.9137C13.0633 40.3891 13.1212 40.8585 13.2522 41.3156C13.5143 42.3121 14.069 43.01 15.1265 43.2264C16.6533 43.5373 16.9794 44.6984 16.8209 45.8595C16.7356 46.7006 16.4247 47.4442 15.8884 48.0964C14.9497 49.1844 13.5996 49.1082 12.7677 47.944C12.1856 47.0419 11.8778 46.0545 11.8504 44.9818C11.7345 43.5586 11.7437 42.1354 11.8778 40.7152C12.277 36.1744 12.1094 31.6488 12.0515 27.0896C11.9966 22.6189 12.0058 18.1481 11.9844 13.6743C11.9844 13.4001 11.9662 13.1258 11.9387 12.8545C11.9265 12.7418 11.9387 12.6321 11.9753 12.5224C12.0119 12.4157 12.0698 12.3182 12.146 12.2359C12.2252 12.1536 12.3166 12.0896 12.4233 12.0469C12.5269 12.0043 12.6366 11.986 12.7524 11.9921C14.4956 12.1048 16.2449 12.0195 17.9912 12.0439C23.2086 12.1048 28.426 12.1018 33.6464 12.2389C36.3709 12.306 39.0832 11.9799 41.7956 11.8763C43.2736 11.7696 44.7425 11.8488 46.1993 12.1109C46.8697 12.242 47.4762 12.5193 48.0126 12.946C48.9695 13.7444 49.0487 14.9726 48.1467 15.8259C47.7017 16.2647 47.1806 16.5786 46.5863 16.7706C45.989 16.9626 45.3825 17.0083 44.7669 16.9139C44.386 16.8224 44.0568 16.6457 43.7734 16.3745C43.493 16.1063 43.298 15.7863 43.1883 15.4114C42.978 13.9608 41.9784 13.3056 40.159 13.202C39.3118 13.1532 38.4615 13.2202 37.6204 13.2385C31.0286 13.3604 24.4337 13.4488 17.8418 13.4701C17.5706 13.4701 17.3024 13.4701 16.9641 13.4701C17.0891 13.7627 17.3268 13.8328 17.4914 13.9395C18.9268 14.8598 20.0696 16.0575 20.926 17.5325C21.4989 18.4437 21.7793 19.4403 21.7701 20.5161C21.7305 21.47 21.4075 21.8174 20.4414 21.8661C19.7587 21.8875 19.1035 21.7656 18.4727 21.5035C16.5192 20.7355 15.0716 19.3611 13.9075 17.6514C13.7825 17.4716 13.6484 17.2887 13.5174 17.115C13.493 17.0876 13.4564 17.0998 13.3497 17.1059ZM22.7423 22.9053C22.7027 22.4787 22.6874 22.052 22.6905 21.6223C22.7392 20.9153 22.9312 20.2479 23.2726 19.6262C23.6169 19.0045 24.0741 18.4834 24.644 18.0628C25.6161 17.3101 26.7132 16.859 27.9292 16.7066C30.0016 16.4049 31.9703 16.6853 33.7318 17.8617C34.9752 18.6936 35.9077 19.7847 36.1667 21.3115C36.2307 21.6985 36.1363 22.177 36.3313 22.4665C36.5294 22.7591 36.9896 22.7621 37.3126 22.9358C37.9191 23.2924 38.4585 23.7343 38.9278 24.2585C40.8264 26.2516 42.1308 28.5768 42.847 31.2313C43.7765 34.3215 44.4652 37.4635 44.9163 40.6604C45.1936 42.5224 45.8884 44.2138 47.0008 45.7376C47.6987 46.7646 48.4514 47.7673 49.1584 48.7882C49.3169 49.0168 49.6582 49.2941 49.3809 49.5592C49.1066 49.8213 48.8842 49.4556 48.6586 49.3124C47.8785 48.7699 47.0892 48.2244 46.3395 47.6606C44.2519 46.0515 41.8992 45.1098 39.2752 44.8355C36.1606 44.4972 33.1619 43.6073 30.1875 42.6931C27.8774 41.9708 25.8599 40.764 24.135 39.0665C23.4097 38.3717 22.7301 37.6402 22.465 36.6315C22.4528 36.5431 22.4132 36.47 22.3431 36.4151C22.273 36.3603 22.1907 36.3389 22.1023 36.3481C19.2772 36.3024 17.7809 34.5348 16.9062 32.1394C16.5375 31.1276 16.379 30.0854 16.4339 29.0096C16.4857 27.9338 16.7478 26.9129 17.2201 25.9438C17.9881 24.2889 19.2376 23.1827 21.0875 22.8475C21.6452 22.756 22.1968 22.7713 22.7484 22.8932L22.7423 22.9053ZM51.9195 16.1886L51.7184 16.8682C50.6761 20.3972 47.0922 23.1705 43.4199 23.2832C42.0058 23.3259 40.6832 23.0212 39.5922 22.0673C39.3667 21.8966 39.1716 21.6955 39.0101 21.4608C38.8455 21.2292 38.7236 20.9793 38.6383 20.7081C38.553 20.4368 38.5134 20.1595 38.5134 19.8761C38.5164 19.5927 38.5621 19.3153 38.6505 19.0441C38.8455 18.3919 39.2356 17.8952 39.8208 17.5478C40.1011 17.368 40.4089 17.2765 40.7411 17.2765C40.9423 17.2765 41.1769 17.2979 41.2592 17.499C41.3445 17.7032 41.1099 17.7824 41.0002 17.9013C40.8904 18.0079 40.7899 18.1177 40.6954 18.2335C39.8451 19.3397 40.1042 20.4551 41.3476 21.0707C41.9937 21.3785 42.6733 21.5065 43.3833 21.4639C46.4644 21.3602 49.4662 18.8765 50.0849 15.8564C50.2738 15.0396 50.2738 14.2229 50.0819 13.4061C49.8899 12.5894 49.5302 11.858 48.9969 11.2089C47.9089 9.85271 46.4248 9.39557 44.7273 9.51138C43.359 9.64243 42.0119 9.89842 40.6893 10.2733C39.7232 10.5232 38.7785 10.8584 37.7911 11.023C37.5381 11.1022 37.2882 11.1022 37.0383 11.023C37.1359 10.7487 37.401 10.6603 37.59 10.5536C39.9213 9.39557 42.3045 8.32283 44.9102 8.03636C45.4526 7.96017 45.9951 7.95712 46.5376 8.03027C47.08 8.10341 47.6011 8.24664 48.104 8.45998C48.6068 8.67635 49.0731 8.95673 49.4998 9.29805C49.9234 9.64243 50.2982 10.0356 50.6152 10.4805C50.7493 10.6512 50.8285 10.8706 51.054 11.0016L51.371 10.4957C51.5995 10.1361 51.8769 9.81613 52.1999 9.53577C52.5229 9.25844 52.8795 9.02986 53.2665 8.85616C53.6566 8.6794 54.062 8.5636 54.4856 8.50569C54.9092 8.45084 55.3328 8.45389 55.7533 8.52092C56.4939 8.61235 57.0729 8.96587 57.4935 9.58147C57.6428 9.7948 57.7403 10.0295 57.7861 10.2855C57.8348 10.5415 57.8257 10.7944 57.7586 11.0473C57.6946 11.2972 57.5788 11.5258 57.4143 11.7269C57.2497 11.9281 57.0485 12.0835 56.8169 12.1993C56.3537 12.4766 55.857 12.6199 55.3175 12.626C54.9732 12.626 54.8787 12.434 55.0615 12.1384C55.2749 11.861 55.5156 11.6142 55.7869 11.3948C55.9941 11.1753 56.244 10.959 56.1495 10.6207C56.055 10.2855 55.6954 10.1849 55.3693 10.1392C55.1713 10.1148 54.9701 10.1148 54.772 10.1361C54.5739 10.1605 54.3789 10.2062 54.1899 10.2733C54.001 10.3403 53.8242 10.4287 53.6536 10.5384C53.486 10.6481 53.3336 10.7731 53.1934 10.9193C53.0563 11.0656 52.9374 11.2241 52.8338 11.3948C52.7332 11.5685 52.654 11.7513 52.593 11.9433C52.5351 12.1353 52.4986 12.3304 52.4864 12.5315C52.4711 12.7296 52.4833 12.9277 52.5138 13.1258C52.593 13.6286 52.7759 14.0888 53.0654 14.5063C54.449 16.4171 56.2806 17.4594 58.6759 17.368C59.319 17.3588 59.9041 17.176 60.4374 16.8194C61.0012 16.4263 61.3913 15.9112 61.2938 15.1829C61.2603 14.8476 61.1292 14.5581 60.9006 14.3113C60.669 14.0644 60.3887 13.909 60.0565 13.8511C59.9864 13.8267 59.9224 13.7932 59.8614 13.7505C59.9681 13.5524 60.1296 13.4183 60.3429 13.3513C60.5563 13.2812 60.7635 13.2934 60.9677 13.3879C61.4431 13.5463 61.8362 13.8237 62.1471 14.2198C62.4549 14.616 62.6286 15.064 62.6682 15.5638C62.7048 16.1154 62.5951 16.6335 62.3391 17.1242C62.0831 17.6118 61.7204 17.9988 61.2511 18.2853C60.1479 19.0228 58.938 19.3062 57.6245 19.1325C56.6585 19.038 55.7381 18.7759 54.8635 18.3523C53.9919 17.9257 53.2178 17.3619 52.5473 16.6579C52.3919 16.5025 52.2273 16.3501 52.0658 16.1947C52.0262 16.1611 51.9896 16.1733 51.9287 16.1733L51.9195 16.1886ZM27.2892 83.7131C27.8957 84.5542 28.0572 85.5264 28.1304 86.5412C28.3315 89.3815 28.0389 92.1731 27.2557 94.9128L27.21 95.053C27.0972 95.37 26.9692 95.693 26.5548 95.6534C26.1434 95.6138 26.0733 95.2907 26.0306 94.9281C25.9361 94.1601 25.9239 93.386 25.8142 92.618C25.4516 90.1465 24.5221 87.9156 23.0166 85.9195C21.6117 84.027 19.8745 82.4544 18.1466 80.7387C18.1283 81.0952 18.1984 81.4305 18.3569 81.7505C19.4266 85.3557 19.5149 88.9457 18.2959 92.5205C17.9485 93.6024 17.4274 94.5928 16.7325 95.4888C15.8914 96.5676 14.8126 97.293 13.496 97.6648C10.5948 98.4846 7.47712 96.0221 7.84588 92.6241C7.90683 91.9384 8.1293 91.3106 8.51634 90.7407C8.68395 90.4695 8.89728 90.2409 9.15327 90.0581C9.40927 89.8722 9.69269 89.7411 10.0005 89.6649C10.3083 89.5918 10.6191 89.5766 10.933 89.6253C11.2469 89.6741 11.5395 89.7777 11.8138 89.9423C12.3502 90.2318 12.7981 90.6219 13.1638 91.1095C13.5265 91.5971 13.7734 92.1396 13.8983 92.7369C13.9806 93.0203 13.9928 93.3037 13.9349 93.5932C13.88 93.8797 13.7612 94.1387 13.5783 94.3704C13.4168 94.5989 13.1974 94.7543 12.9261 94.8275C12.6519 94.9037 12.3867 94.8854 12.1277 94.7726C11.6675 94.5166 11.5639 94.0473 11.8168 93.3891C11.8869 93.2092 11.9235 93.0233 11.9296 92.8283C11.9357 92.6333 11.9083 92.4443 11.8504 92.2615C11.7925 92.0756 11.7041 91.9049 11.5883 91.7495C11.4725 91.5971 11.3353 91.463 11.1738 91.3563C10.6313 90.9602 10.1224 91.0546 9.79631 91.6519C9.58603 92.0481 9.47632 92.4687 9.46717 92.9167C9.45498 93.3616 9.54641 93.7883 9.7384 94.1906C9.87554 94.538 10.0706 94.8427 10.3266 95.114C10.5826 95.3821 10.8812 95.5924 11.2195 95.7448C11.5578 95.9002 11.9113 95.9825 12.2831 95.9977C12.6549 96.013 13.0145 95.9551 13.365 95.8301C14.4956 95.4218 15.3489 94.6873 15.9249 93.6329C16.8361 92.0207 17.3634 90.2927 17.5005 88.4429C17.8632 84.6548 16.9184 81.1714 15.0411 77.8984C14.264 76.5849 13.3985 75.3354 12.4477 74.1438C11.5365 72.9339 10.5917 71.7423 9.72317 70.4867C8.61995 68.9233 7.80931 67.2167 7.29122 65.3699C7.25161 65.2206 7.26684 65.0072 7.02609 64.9097L6.89809 68.067L6.75485 71.7362C6.75485 71.8734 6.75485 72.0684 6.54762 72.0501C6.40134 72.0501 6.3922 71.8764 6.38305 71.7545C6.35258 71.0292 6.31905 70.3039 6.29467 69.5786C6.02649 61.1643 5.91373 52.75 5.83754 44.3327C5.72478 32.4747 5.63031 20.6136 5.54803 8.7495C5.54803 8.15218 5.54803 7.54875 5.54803 6.9362C5.58155 6.06766 5.98687 5.67757 6.86761 5.65318C7.46493 5.6349 8.06225 5.65318 8.68091 5.65318C23.1354 5.68365 37.5991 5.84518 52.0536 6.01584C56.9236 6.07069 61.7905 6.18956 66.6605 6.29317C68.233 6.32364 69.8056 6.39374 71.3751 6.44554C71.5244 6.4425 71.6707 6.45773 71.817 6.49126C71.8932 6.51564 71.9419 6.56744 71.9632 6.64363C71.9693 6.69545 71.9572 6.74117 71.9206 6.78078C71.8871 6.82344 71.8444 6.84172 71.7926 6.84172C71.5945 6.86916 71.3934 6.87221 71.1983 6.8783L65.28 7.07639C65.1337 7.07639 64.9844 7.07639 64.832 7.10077C64.832 7.36896 65.024 7.308 65.1398 7.33543C67.0811 7.88094 68.873 8.74036 70.5157 9.91061C71.8322 10.8249 73.0817 11.8153 74.3403 12.8119C76.2725 14.3844 78.3936 15.6309 80.7067 16.5543C84.2784 17.9013 87.9019 18.1268 91.5651 16.9352C92.455 16.6548 93.2778 16.2465 94.0336 15.7009C94.9418 15.0762 95.533 14.232 95.8073 13.1623C95.8804 12.9003 95.9139 12.6351 95.9078 12.3639C95.9017 12.0927 95.853 11.8275 95.7646 11.5715C95.6762 11.3125 95.5543 11.0748 95.3928 10.8553C95.2313 10.6359 95.0423 10.447 94.8229 10.2855C94.6126 10.0965 94.378 9.94109 94.1189 9.82224C93.8599 9.70337 93.5917 9.62415 93.3113 9.58452C93.031 9.54491 92.7475 9.54491 92.4672 9.58757C92.1868 9.63023 91.9186 9.71252 91.6626 9.83443C90.919 10.1605 90.8184 10.8035 91.3639 11.4009C91.6017 11.6873 91.8973 11.8763 92.2599 11.9616C92.6226 12.0469 92.973 12.0165 93.3113 11.8641C93.93 11.6325 94.3993 11.733 94.6492 12.1475C94.7833 12.3883 94.8229 12.6412 94.7711 12.9094C94.7162 13.1776 94.5822 13.397 94.3688 13.5646C93.9605 13.9639 93.4789 14.1162 92.9182 14.0187C92.2203 13.9303 91.5864 13.6774 91.0226 13.2599C90.4558 12.8393 90.0291 12.309 89.7396 11.669C89.1575 10.4256 89.6512 9.13043 90.9068 8.42645C91.3761 8.1796 91.8698 8.01808 92.394 7.93884C92.9182 7.86266 93.4393 7.8718 93.9574 7.96931C94.4785 8.06989 94.9661 8.25275 95.4233 8.51483C95.8804 8.77997 96.2827 9.1152 96.6271 9.51442C96.8891 9.81004 97.1086 10.1361 97.2853 10.4927C97.459 10.8493 97.5809 11.2211 97.6541 11.6111C97.7242 12.0012 97.7425 12.3944 97.7059 12.7875C97.6693 13.1837 97.5809 13.5646 97.4377 13.9364C97.1726 14.6861 96.7825 15.3627 96.2644 15.9691C95.7463 16.5726 95.1368 17.0632 94.4359 17.4411C92.6866 18.4163 90.8154 18.9862 88.8192 19.1508C86.2166 19.4129 83.678 19.1172 81.2034 18.27C81.0663 18.2213 80.9261 18.1847 80.7432 18.1359C80.7432 18.3706 80.8926 18.4559 81.0023 18.5656C82.1177 19.7085 83.2209 20.8635 84.4125 21.9332C85.4761 22.9297 86.6585 23.7587 87.9598 24.4169C89.2611 25.0722 90.6295 25.5354 92.0618 25.8005C92.7993 25.9346 93.5429 26.0139 94.2926 26.0443C94.5395 26.0535 94.7894 26.0809 95.0332 26.1266C95.1642 26.1358 95.277 26.1845 95.3745 26.2729C95.469 26.3613 95.5269 26.471 95.5452 26.602C95.5848 26.9281 95.3715 27.1018 95.1002 27.2146C94.9601 27.2725 94.8168 27.3182 94.6705 27.3548C91.8058 28.1654 88.8893 28.4245 85.9271 28.1349C85.0647 28.071 84.2723 27.7997 83.5531 27.3182C83.2971 27.9826 82.971 28.6073 82.5748 29.1985C82.1543 29.8599 81.6209 30.4145 80.9749 30.8625C80.667 31.085 80.3227 31.2252 79.9478 31.28C79.3596 31.341 79.0305 31.0515 79.0458 30.4663C79.0671 30.2195 79.1158 29.9787 79.1859 29.741C79.384 28.97 79.5486 28.1898 79.6918 27.4035C80.0118 25.3464 79.7467 23.3716 78.9025 21.47C77.6195 18.27 75.6294 15.5943 72.9385 13.4427C71.9206 12.6382 70.8966 11.8397 69.8665 11.0504C67.4315 9.231 64.707 8.14304 61.69 7.78647C59.1635 7.42685 56.6249 7.26839 54.0741 7.31105C38.8669 7.5518 23.6596 7.71028 8.45234 7.78342C7.63864 7.78342 7.67217 7.72856 7.66302 8.63065C7.59293 18.1177 7.51674 27.6047 7.4436 37.0978C7.38265 43.2386 7.2577 49.3794 7.19065 55.5233C7.17237 58.2539 7.45274 60.957 8.03178 63.6267C8.5011 65.8301 9.40013 67.8415 10.7319 69.6608C11.7345 71.0962 12.8134 72.4707 13.9714 73.7842C16.6533 76.7281 19.8593 78.8614 23.8089 79.7299C25.5552 80.12 27.2801 79.8793 28.9959 79.4557C29.3799 79.3612 29.7638 79.2423 30.157 79.1692C30.9219 79.026 31.309 79.4221 31.1657 80.1901C31.0286 80.7661 30.7452 81.2568 30.3215 81.6682C29.6176 82.3935 28.8069 82.9634 27.8866 83.387C27.6671 83.4601 27.469 83.5668 27.2892 83.7131ZM168.299 14.3356C167.126 14.4972 165.947 14.5581 164.764 14.5155C155.049 14.4606 145.342 14.8233 135.633 14.9665C128.544 15.0701 121.455 15.1951 114.364 15.1311C111.786 15.1615 109.229 14.9208 106.699 14.4057C105.459 14.1467 104.279 13.7139 103.164 13.1075C102.052 12.498 101.046 11.7452 100.156 10.8432C99.2601 9.94109 98.3824 9.02986 97.4255 8.17351C96.3071 7.15257 95.0088 6.50345 93.5216 6.22003C92.5769 6.02194 91.6352 6.04022 90.6965 6.27489C89.7609 6.50955 88.9229 6.9362 88.1823 7.55791C87.6977 7.9297 87.3168 8.38684 87.0395 8.92929C86.7621 9.47176 86.6128 10.0477 86.5976 10.6573C86.5671 11.1052 86.622 11.5441 86.7561 11.9707C86.8901 12.3974 87.0974 12.7875 87.3777 13.138C87.6581 13.4854 87.9934 13.7749 88.3804 13.9974C88.7705 14.2229 89.1849 14.3692 89.6268 14.4393C89.8493 14.4789 90.0748 14.4941 90.2943 14.5337C90.5167 14.5734 90.7453 14.4454 90.8001 14.7196C90.8428 14.9299 90.6569 15.0823 90.5137 15.2194C90.0169 15.6339 89.444 15.8533 88.7979 15.8838C88.1457 15.9387 87.4996 15.896 86.8627 15.7558C86.2227 15.6156 85.6193 15.384 85.0494 15.061C84.4826 14.7349 83.9736 14.3356 83.5287 13.8572C83.0807 13.3787 82.715 12.8454 82.4316 12.2572C82.1451 11.6264 82.1451 11.6264 81.4838 11.6812C81.1455 11.7117 80.8072 11.7117 80.4659 11.6812C80.1276 11.6508 79.7954 11.5868 79.4663 11.4953C79.1402 11.4009 78.8233 11.2759 78.5185 11.1235C78.2138 10.9712 77.9273 10.7914 77.6561 10.5841C77.3879 10.3769 77.138 10.1453 76.9094 9.89232C76.6839 9.63632 76.4828 9.3651 76.306 9.07253C76.1292 8.77997 75.983 8.47522 75.8641 8.15523C75.7483 7.83524 75.6599 7.50914 75.602 7.1739C75.5014 6.53392 75.5289 5.89699 75.6843 5.2692C75.8397 4.63835 76.111 4.06541 76.501 3.54733C77.4062 2.3405 78.552 1.44757 79.9417 0.862442C80.2221 0.734436 80.5147 0.639969 80.7737 0.908157C81.0297 1.17633 80.8956 1.4628 80.7737 1.74013C80.5573 2.21251 80.4415 2.70621 80.4324 3.22429C80.4232 3.74542 80.5177 4.24217 80.7189 4.72063C81.2095 5.99146 82.2487 6.41812 83.4891 5.8848C83.8152 5.75984 84.126 5.60442 84.4247 5.42462C86.1892 4.27264 88.1732 3.97398 90.2272 3.91304C92.1929 3.8856 94.0031 4.40063 95.661 5.45815C97.5291 6.63449 99.2083 8.03636 100.702 9.66071C101.57 10.5689 102.561 11.3216 103.67 11.9159C104.776 12.5132 105.95 12.9216 107.19 13.141C108.54 13.3909 109.902 13.5494 111.277 13.6195C115.942 13.8816 120.608 13.7079 125.28 13.6591C133.417 13.5768 141.554 13.4519 149.694 13.3421C154.162 13.2782 158.629 13.4305 163.091 13.6561C164.664 13.6987 166.23 13.8389 167.784 14.0736C167.952 14.101 168.144 14.0705 168.299 14.3356ZM180.374 5.61052C179.587 5.82385 178.789 5.9366 177.975 5.9427C173.965 6.22612 169.954 6.4882 165.944 6.73201C163.103 6.90877 160.26 7.04897 157.423 7.21048C152.089 7.51219 146.753 7.77122 141.411 7.98761C135.672 8.22226 129.931 8.33199 124.189 8.28017C119.746 8.2375 115.299 8.43559 110.859 8.33807C109.732 8.31064 108.619 8.17351 107.501 8.05161C107.342 8.0455 107.208 7.98456 107.098 7.86874C107.205 7.66151 107.415 7.66457 107.598 7.6219C109.89 7.07639 112.237 6.96362 114.571 6.71982C122.23 5.91527 129.928 5.97623 137.61 5.80252C147.402 5.577 157.194 5.27528 166.964 5.15034C170.786 5.09853 174.605 5.065 178.423 5.23262C179.103 5.21434 179.752 5.33928 180.374 5.61052Z" fill="#FFF1B8"/>
</g>
</g>
</svg>
