<svg width="312" height="312" viewBox="0 0 312 312" fill="none" xmlns="http://www.w3.org/2000/svg">
<mask id="mask0_189_656" style="mask-type:luminance" maskUnits="userSpaceOnUse" x="0" y="0" width="312" height="312">
<path d="M0 0H312V312H0V0Z" fill="white"/>
</mask>
<g mask="url(#mask0_189_656)">
<path d="M209.382 302.673C209.382 305.939 206.73 307.887 203.638 306.897C203.3 306.781 202.966 306.664 202.638 306.516C202.172 306.336 201.754 306.082 201.373 305.759C200.992 305.436 200.674 305.061 200.42 304.637C200.166 304.208 199.986 303.753 199.88 303.266C199.774 302.779 199.753 302.287 199.812 301.795C199.849 301.308 199.96 300.842 200.14 300.392C200.32 299.942 200.563 299.524 200.87 299.148C201.172 298.767 201.527 298.444 201.929 298.169C202.326 297.899 202.76 297.687 203.226 297.544C203.702 297.412 204.194 297.359 204.692 297.38C205.189 297.401 205.666 297.502 206.132 297.682C206.597 297.857 207.026 298.105 207.413 298.418C207.794 298.735 208.122 299.101 208.392 299.519C209.064 300.466 209.392 301.514 209.382 302.673ZM81.5517 262.44C81.9487 262.44 82.3351 262.482 82.7215 262.562C83.1079 262.641 83.4837 262.752 83.849 262.906C84.2089 263.054 84.553 263.239 84.8811 263.462C85.2093 263.679 85.511 263.927 85.7916 264.208C86.0721 264.483 86.3209 264.785 86.5379 265.113C86.7602 265.441 86.9455 265.785 87.099 266.151C87.2472 266.511 87.3636 266.886 87.443 267.273C87.5224 267.659 87.5648 268.046 87.5648 268.443C87.5648 271.566 85.0082 274.323 82.0969 274.344C78.8628 274.344 75.7875 271.38 75.7875 268.188C75.7875 267.813 75.8298 267.437 75.9039 267.066C75.978 266.696 76.0892 266.336 76.2374 265.992C76.3803 265.642 76.5603 265.309 76.772 264.997C76.9837 264.684 77.2219 264.393 77.4866 264.129C77.7565 263.864 78.0477 263.626 78.36 263.414C78.6723 263.202 79.0057 263.028 79.3551 262.885C79.7044 262.737 80.0644 262.631 80.4296 262.551C80.8001 262.477 81.1759 262.44 81.5517 262.44ZM104.741 260.201C106.88 260.201 108.526 261.63 108.526 263.536C108.526 264.06 108.425 264.557 108.235 265.039C108.044 265.526 107.769 265.955 107.414 266.331C107.054 266.712 106.641 267.008 106.17 267.23C105.704 267.447 105.207 267.574 104.688 267.606C104.185 267.601 103.693 267.506 103.227 267.315C102.756 267.119 102.338 266.849 101.973 266.5C101.608 266.145 101.322 265.738 101.11 265.277C100.904 264.811 100.787 264.33 100.766 263.822C100.787 263.319 100.904 262.837 101.115 262.382C101.332 261.921 101.623 261.524 101.999 261.18C102.37 260.842 102.793 260.587 103.27 260.418C103.746 260.249 104.238 260.175 104.741 260.201ZM260.291 256.544C263.446 256.544 265.807 258.613 265.902 261.487C265.934 262.043 265.87 262.583 265.711 263.112C265.558 263.647 265.309 264.134 264.981 264.579C264.647 265.023 264.25 265.394 263.79 265.701C263.324 266.002 262.827 266.219 262.287 266.346C261.27 266.622 260.249 266.627 259.227 266.362C258.206 266.103 257.316 265.6 256.56 264.87C256.21 264.536 255.919 264.155 255.686 263.732C255.448 263.308 255.284 262.864 255.189 262.387C255.088 261.916 255.062 261.44 255.109 260.958C255.157 260.476 255.273 260.016 255.459 259.571C255.67 259.105 255.94 258.687 256.274 258.301C256.607 257.92 256.988 257.597 257.417 257.327C257.851 257.057 258.306 256.856 258.798 256.724C259.285 256.586 259.783 256.528 260.291 256.544ZM39.4658 281.474C39.614 281.533 39.7675 281.57 39.9263 281.596C44.4943 281.596 49.0729 281.596 53.6462 281.596C53.9691 281.633 54.2761 281.58 54.5672 281.453C56.4569 280.516 57.9972 279.177 59.1775 277.43C59.5322 276.896 59.7492 276.313 59.8233 275.673C59.8974 275.038 59.8233 274.419 59.601 273.815C59.0082 272.174 57.5314 271.603 56.0334 272.487C55.3771 272.846 54.8372 273.328 54.4084 273.942C53.985 274.556 53.715 275.234 53.6091 275.975C53.5086 276.658 53.2545 276.806 52.6617 276.493C52.2964 276.292 52.0106 276.017 51.7989 275.657C51.169 274.657 50.9837 273.582 51.2484 272.428C51.4284 271.677 51.7354 270.978 52.1694 270.337C52.6034 269.697 53.1328 269.152 53.7626 268.707C54.3925 268.257 55.0859 267.934 55.8323 267.739C56.5786 267.537 57.3355 267.479 58.1083 267.559C59.0981 267.67 59.1987 267.627 59.2305 266.669C59.331 263.785 64.0525 261.784 66.3604 263.848C67.0644 264.483 67.6572 265.208 68.1389 266.024C68.3612 266.542 68.7105 266.966 69.1763 267.289C69.5521 266.14 69.6157 264.981 69.3616 263.806C68.9964 261.022 67.9589 258.433 66.9161 255.855C66.1698 254.209 65.5982 252.5 65.2065 250.737C65.1588 250.467 65.3229 250.107 64.9047 249.943C64.7883 250.017 64.6877 250.096 64.5872 250.186C60.3473 254.945 55.7158 259.328 51.1161 263.726C50.4544 264.351 50.0363 265.113 49.8563 266.008C49.1999 268.877 48.0831 271.56 46.5057 274.048C44.9337 276.541 42.9858 278.695 40.6674 280.516L39.4658 281.474ZM30.7162 272.487C31.0709 272.428 31.1608 272.206 31.2932 272.037C33.1775 269.538 35.4377 267.447 38.079 265.764C40.715 264.086 43.5627 262.917 46.6222 262.265C47.2521 262.117 47.7708 261.8 48.1942 261.318C52.7252 256.649 57.1714 251.891 62.0464 247.561C62.1523 247.423 62.2476 247.275 62.3217 247.116C59.3522 246.799 56.8009 245.428 54.1226 244.443C52.4499 243.782 50.7297 243.284 48.9565 242.956C47.6437 242.67 46.331 242.67 45.0131 242.956C45.0131 243.496 45.4206 243.586 45.7012 243.792C46.4475 244.205 47.1409 244.692 47.792 245.248C48.1254 245.534 48.4007 245.867 48.6283 246.248C48.8559 246.624 49.0147 247.026 49.11 247.455C49.2052 247.889 49.2317 248.318 49.1841 248.757C49.1417 249.197 49.0306 249.615 48.8506 250.017C48.1784 251.912 46.9186 252.976 44.8754 253.039C44.7484 253.071 44.6319 253.124 44.5208 253.204C44.5737 253.622 44.6425 254.024 44.669 254.421C44.6955 255.088 44.6214 255.739 44.4467 256.385C44.272 257.025 44.0021 257.629 43.6368 258.184C43.2769 258.745 42.8376 259.238 42.3188 259.661C41.8054 260.079 41.239 260.413 40.6197 260.662C39.9898 260.932 39.3335 261.048 38.6507 261.016C37.9679 260.984 37.3274 260.805 36.724 260.476C36.2158 260.238 35.8453 259.862 35.6071 259.349C35.406 258.883 35.5753 258.624 36.0994 258.571C36.8722 258.497 37.5815 258.237 38.2219 257.803C38.8624 257.369 39.3652 256.808 39.7199 256.12C40.6091 254.627 40.0057 253.14 38.3701 252.552C37.7032 252.314 37.0151 252.256 36.3111 252.367C35.6124 252.478 34.9772 252.748 34.4161 253.182C33.1352 254.13 32.0819 255.289 31.2614 256.655C30.8009 257.343 30.5786 258.1 30.5945 258.925C30.5945 263.054 30.5945 267.183 30.5945 271.311C30.5468 271.714 30.5945 272.105 30.7321 272.487H30.7162ZM43.7586 224.652C44.1556 224.658 44.542 224.7 44.9284 224.779C45.3148 224.859 45.6906 224.975 46.0505 225.123C46.4157 225.277 46.7598 225.462 47.088 225.679C47.4161 225.901 47.7179 226.15 47.9931 226.425C48.2736 226.701 48.5224 227.008 48.7447 227.331C48.967 227.659 49.1523 228.003 49.3058 228.363C49.4593 228.728 49.5758 229.098 49.6552 229.485C49.7345 229.871 49.7822 230.258 49.7875 230.655C49.7822 231.031 49.7398 231.406 49.6657 231.772C49.5863 232.142 49.4752 232.502 49.327 232.846C49.1841 233.195 49.0041 233.524 48.7924 233.836C48.5806 234.148 48.3424 234.439 48.0725 234.704C47.8078 234.969 47.5167 235.207 47.2044 235.419C46.8868 235.625 46.5587 235.8 46.2093 235.948C45.86 236.091 45.5 236.202 45.1348 236.276C44.7643 236.35 44.3885 236.387 44.0126 236.387C43.1975 236.35 42.4194 236.165 41.6784 235.831C40.932 235.498 40.2757 235.043 39.7093 234.46C39.1376 233.878 38.693 233.211 38.3754 232.465C38.0578 231.713 37.8885 230.93 37.8673 230.115C37.9149 227.182 40.6303 224.652 43.7744 224.652H43.7586ZM48.3319 211.403C47.8396 211.382 47.3632 211.276 46.908 211.07C46.4528 210.869 46.0505 210.594 45.7012 210.239C45.3571 209.879 45.0872 209.471 44.8913 209.016C44.7008 208.556 44.6002 208.079 44.5949 207.582C44.6108 207.063 44.7272 206.566 44.9337 206.089C45.1454 205.613 45.4365 205.195 45.807 204.835C46.1828 204.469 46.6063 204.194 47.088 203.993C47.5696 203.797 48.0672 203.697 48.5859 203.691C50.5656 203.691 52.0318 205.348 51.9947 207.555C52.0053 208.053 51.9259 208.529 51.7459 208.99C51.566 209.456 51.3066 209.863 50.9626 210.223C50.6238 210.583 50.2268 210.864 49.7716 211.065C49.3164 211.261 48.84 211.366 48.3477 211.377L48.3319 211.403ZM79.3974 294.538C99.3262 294.538 119.255 294.538 139.189 294.538C140.025 294.596 140.724 294.305 141.269 293.67C143.651 291.15 147.827 292.235 149.14 295.634C149.251 295.898 149.336 296.173 149.389 296.454C149.442 296.74 149.463 297.026 149.452 297.311C149.442 297.597 149.399 297.883 149.325 298.158C149.251 298.439 149.145 298.704 149.013 298.963C148.881 299.217 148.722 299.455 148.537 299.672C148.351 299.895 148.14 300.09 147.912 300.265C147.679 300.434 147.436 300.583 147.171 300.699C146.912 300.821 146.636 300.905 146.356 300.964C144.202 301.456 142.28 300.916 140.973 299.074C140.74 298.73 140.433 298.471 140.057 298.301C139.676 298.132 139.279 298.068 138.866 298.121C114.401 298.074 89.9361 298.021 65.4711 297.957C49.5334 297.92 33.601 297.825 17.6633 297.825C14.9373 297.825 14.4133 296.888 14.4133 294.601C14.3498 261.964 14.2704 229.326 14.1698 196.688C14.1698 188.923 14.0851 181.164 14.0798 173.393C14.1328 172.954 14.0639 172.536 13.8787 172.134C13.6881 171.731 13.4129 171.403 13.0477 171.154C12.6295 170.842 12.2696 170.477 11.9731 170.048C11.6714 169.625 11.4438 169.159 11.2903 168.666C11.1368 168.169 11.0627 167.656 11.068 167.137C11.0786 166.618 11.1633 166.11 11.3274 165.618C11.4015 165.348 11.5021 165.094 11.6291 164.85C11.7561 164.601 11.9096 164.374 12.0843 164.162C12.259 163.95 12.4601 163.76 12.6771 163.59C12.8942 163.416 13.1271 163.273 13.3758 163.151C13.6246 163.035 13.884 162.939 14.1539 162.876C14.4239 162.812 14.6938 162.781 14.9691 162.775C15.2496 162.77 15.5196 162.791 15.7948 162.849C16.0648 162.902 16.3241 162.982 16.5782 163.093C20.5481 164.697 20.9027 169.164 18.2932 171.223C17.8115 171.625 17.6209 172.139 17.7268 172.758C17.7268 176.22 17.7268 179.697 17.7268 183.133C17.8221 219.581 17.9227 256.035 18.0285 292.484C18.0285 294.443 17.8591 294.236 19.7382 294.236H79.3974V294.538ZM5.04969 106.959C5.04969 104.54 7.00287 102.767 9.57005 102.793C12.4654 102.825 14.895 105.143 14.8367 107.843C14.8103 108.478 14.6621 109.081 14.3974 109.658C14.1275 110.235 13.7622 110.738 13.2964 111.172C12.8306 111.606 12.3013 111.929 11.7032 112.157C11.1104 112.379 10.4964 112.48 9.86117 112.458C6.52119 112.384 5.10791 109.245 5.04969 106.959ZM45.7117 51.5183C45.7117 48.8611 47.2256 46.8656 49.4964 46.4104C50.0839 46.2781 50.6767 46.2569 51.2749 46.3416C51.873 46.421 52.4341 46.6115 52.9634 46.9027C53.4927 47.1938 53.9532 47.5696 54.3449 48.0248C54.7366 48.4853 55.033 48.9988 55.2341 49.5651C55.864 51.0472 55.8799 52.5399 55.2871 54.0325C54.9854 54.9112 54.4613 55.6311 53.7256 56.1922C52.9845 56.7532 52.1535 57.0602 51.2325 57.1185C50.3327 57.2137 49.4752 57.0549 48.6706 56.6527C47.8608 56.2504 47.2203 55.6628 46.7492 54.89C46.0505 53.8737 45.7065 52.7516 45.7117 51.5183ZM45.0766 63.2162C46.4581 62.4434 47.919 61.8611 49.4487 61.4694C54.2814 60.4743 59.0823 60.5961 63.8567 61.84C64.1637 61.9141 64.4548 62.0252 64.7407 62.1681C65.2117 62.3375 65.4817 62.6763 65.5399 63.1791C65.5982 63.682 65.4129 64.0684 64.9894 64.3436C64.4178 64.7777 63.8091 65.1535 63.1686 65.4817C57.7643 68.3823 52.7887 71.897 48.2472 76.015C43.6898 80.1596 39.8787 84.8969 36.8139 90.2377C36.2793 91.1746 35.8612 92.1592 35.5489 93.1913C33.4845 99.8978 31.9919 106.726 31.0762 113.681C30.9756 114.576 30.9332 115.47 30.9385 116.37C30.9121 128.041 30.8909 139.718 30.875 151.395C30.875 156.778 30.8115 162.166 30.7903 167.555C30.7268 168.079 30.7639 168.598 30.8962 169.111C31.399 168.905 31.579 168.423 31.8543 168.068C32.4788 167.227 33.1934 166.47 33.998 165.798C34.8078 165.125 35.6812 164.559 36.6234 164.093C37.5603 163.633 38.5448 163.283 39.5717 163.056C40.5933 162.828 41.6307 162.728 42.6788 162.743C43.3986 162.738 44.1079 162.796 44.8119 162.923C45.5159 163.05 46.1987 163.241 46.8709 163.495C47.5379 163.754 48.1731 164.067 48.7818 164.443C49.3905 164.824 49.9622 165.252 50.4862 165.734C51.0155 166.221 51.4919 166.75 51.9206 167.322C52.3441 167.894 52.7146 168.502 53.0269 169.148C53.3392 169.794 53.588 170.461 53.7732 171.149C53.9585 171.842 54.0802 172.541 54.1332 173.256C54.4084 176.347 53.9109 179.258 51.783 181.698C51.7089 181.831 51.6507 181.968 51.6136 182.116C56.0705 182.995 59.5163 185.462 62.4381 188.759C63.6344 190.072 64.5342 191.559 65.1429 193.227C65.397 193.772 65.4817 194.338 65.4023 194.936C65.3705 195.222 65.2276 195.434 64.9736 195.566C64.6454 195.699 64.4866 195.434 64.3437 195.228C64.1955 195.016 63.9731 194.714 63.7879 194.465C61.5753 191.517 58.8864 189.103 55.7211 187.219C53.3551 185.769 50.7879 185.07 48.0143 185.118C46.7122 185.118 45.4153 185.202 44.1132 185.213C43.8168 185.213 43.4251 185.282 43.2663 184.954C43.1075 184.625 43.4198 184.255 43.6792 184.059C45.0289 183 46.2252 181.794 47.2626 180.423C48.4907 178.882 49.0623 177.125 48.9723 175.151C48.9617 174.875 48.93 174.6 48.8823 174.33C48.84 174.06 48.7765 173.796 48.6918 173.531C48.6124 173.266 48.5118 173.012 48.3954 172.763C48.2842 172.515 48.1519 172.271 48.0037 172.038C47.8608 171.805 47.6967 171.583 47.522 171.371C47.3473 171.16 47.1568 170.964 46.9556 170.773C46.7545 170.588 46.5428 170.413 46.3152 170.254C46.0929 170.096 45.86 169.953 45.6165 169.826C45.373 169.699 45.1189 169.582 44.8648 169.487C44.6055 169.392 44.3408 169.312 44.0762 169.254C43.8062 169.191 43.5363 169.148 43.261 169.122C42.9911 169.095 42.7158 169.09 42.4406 169.095C42.1653 169.106 41.8901 169.138 41.6201 169.18C41.3502 169.228 41.0802 169.291 40.8209 169.37C40.5562 169.45 40.3021 169.55 40.0481 169.662C39.7993 169.778 39.5558 169.905 39.3229 170.053C38.3013 170.72 37.4121 171.535 36.6551 172.499C35.0037 174.648 33.6328 176.961 32.5371 179.438C31.2667 182.058 30.658 184.821 30.7109 187.732C30.7692 208.153 30.7109 228.585 30.6686 249.011V250.906C32.9605 249.165 35.316 248.186 37.8937 248.223C38.1637 248 38.0737 247.815 38.0578 247.646C37.9202 246.815 37.9361 245.994 38.1002 245.169C38.259 244.348 38.5607 243.575 38.9947 242.861C39.4341 242.146 39.9793 241.527 40.6356 241.008C41.2972 240.489 42.0224 240.098 42.8217 239.838C45.1877 238.986 47.5961 239.145 49.9939 239.69C52.3494 240.288 54.6254 241.109 56.8221 242.151C58.2777 242.85 59.7704 243.459 61.3054 243.967C61.8771 244.147 62.4646 244.221 63.0627 244.189C63.1104 243.978 63.0363 243.84 62.8351 243.771C56.658 240.177 54.0802 233.905 55.9646 226.992C56.1499 226.298 56.3828 225.626 56.6315 224.949C57.2085 223.472 57.6214 221.947 57.8701 220.375C58.1189 218.809 58.1983 217.231 58.1083 215.649C58.0183 214.061 57.7643 212.504 57.3355 210.975C56.9121 209.44 56.3245 207.973 55.5835 206.571C54.4772 204.305 52.921 202.416 50.9149 200.891C50.0257 200.171 49.0253 199.684 47.9137 199.43C47.1727 199.234 46.4422 199.25 45.7117 199.478C44.9866 199.706 44.3726 200.108 43.8803 200.69C42.8534 201.86 42.1018 203.183 41.6148 204.66C41.1279 206.131 40.9479 207.645 41.0696 209.196C41.0908 209.72 41.1914 210.228 41.3608 210.721C41.5354 211.213 41.7789 211.668 42.0965 212.086C42.4088 212.504 42.7793 212.87 43.2028 213.177C43.6262 213.478 44.0867 213.717 44.579 213.881C45.6271 214.283 46.7069 214.585 47.7708 214.929C48.0301 215.013 48.2895 215.077 48.5436 215.183C48.9088 215.347 49.3376 215.532 49.3323 216.003C49.327 216.474 48.9035 216.67 48.5171 216.792C45.9076 217.581 42.0436 217.803 39.3547 215.024C38.4866 214.129 37.7985 213.108 37.2956 211.965C36.7875 210.827 36.4911 209.636 36.4011 208.386C36.057 204.972 36.7134 201.765 38.3754 198.763C41.0961 193.878 46.3046 192.158 51.4178 194.434C53.5403 195.392 55.3559 196.757 56.8644 198.531C57.9548 199.737 58.9023 201.039 59.7122 202.447C60.522 203.85 61.1784 205.327 61.6706 206.873C62.1682 208.418 62.4964 209.995 62.6604 211.61C62.8192 213.224 62.8087 214.839 62.6234 216.453C62.6128 216.601 62.6128 216.75 62.6234 216.898C63.0945 217.051 63.3697 216.67 63.6767 216.495C65.487 215.442 67.4296 215.045 69.5098 215.305C73.4691 215.829 76.285 219.719 75.4381 223.467C74.8612 226.087 72.4846 227.966 70.0021 227.743C69.3139 227.701 68.6788 227.5 68.0912 227.135C67.509 226.77 67.0485 226.288 66.7097 225.69C66.3498 225.092 66.1963 224.446 66.2439 223.758C66.2915 223.064 66.5297 222.445 66.9585 221.905C67.2179 221.582 67.4984 221.27 67.9483 221.323C68.4035 221.37 68.5835 221.799 68.6523 222.212C68.7264 222.651 68.8376 223.085 68.9858 223.504C69.1816 224.102 69.5945 224.451 70.2138 224.546C70.8384 224.647 71.3359 224.441 71.7065 223.927C72.024 223.594 72.2411 223.202 72.3522 222.752C72.4687 222.297 72.4581 221.852 72.3363 221.402C72.1299 220.598 71.7223 219.915 71.1136 219.348C70.5049 218.787 69.7903 218.433 68.9699 218.295C68.0701 218.11 67.1861 218.168 66.318 218.475C63.4756 219.592 61.3001 221.36 60.4056 224.441C59.4263 227.421 59.3205 230.427 60.088 233.465C60.5326 235.302 61.4218 236.885 62.7663 238.219C65.0106 240.341 68.2394 241.283 71.283 238.324C74.1466 235.535 76.9626 232.73 80.0591 230.168C80.3819 229.961 80.546 229.665 80.5566 229.278C80.5196 226.494 81.5782 224.017 82.6951 221.556C88.1735 209.461 97.0713 200.923 109.378 195.932C111.4 195.053 113.485 194.381 115.645 193.925C115.994 193.851 116.349 193.804 116.709 193.783C116.963 193.751 117.206 193.777 117.445 193.867C117.683 193.952 117.889 194.095 118.064 194.28C118.233 194.471 118.35 194.688 118.419 194.931C118.482 195.18 118.487 195.423 118.429 195.672C118.297 196.884 118.027 198.065 117.625 199.213C113.464 211.271 106.451 221.037 95.044 227.267C92.6356 228.675 90.1267 229.866 87.5171 230.845C86.1197 231.375 84.6747 231.666 83.182 231.713C82.6474 231.703 82.2293 231.914 81.917 232.343C79.4768 235.281 76.8196 238.023 74.136 240.728C71.1507 243.739 71.3465 247.355 74.6018 250.086C77.1267 252.193 80.1173 252.77 83.2932 252.68C85.2358 252.579 87.1148 252.182 88.9357 251.494C91.5399 250.578 94.1283 246.677 93.9854 243.925C93.9589 243.046 93.6889 242.247 93.1702 241.537C92.6568 240.823 91.9846 240.32 91.1535 240.024C90.6877 239.833 90.2008 239.775 89.6979 239.849C89.2003 239.923 88.7504 240.124 88.3587 240.447C87.226 241.384 87.4536 242.776 88.8298 243.3C89.2427 243.454 89.7032 243.496 90.1319 243.618C91 243.882 91.1376 244.47 90.5025 245.11C90.206 245.375 89.8779 245.587 89.5074 245.735C89.1421 245.888 88.761 245.973 88.364 245.989C87.967 246.005 87.5806 245.957 87.1995 245.835C86.8237 245.719 86.4744 245.539 86.1568 245.296C85.7545 244.989 85.4157 244.618 85.1405 244.184C84.8652 243.755 84.6694 243.295 84.553 242.797C84.4418 242.3 84.41 241.797 84.4683 241.294C84.5318 240.786 84.6694 240.304 84.897 239.849C85.1828 239.267 85.5534 238.753 86.0139 238.298C86.4691 237.843 86.9878 237.478 87.5701 237.197C88.1523 236.911 88.761 236.731 89.4015 236.657C90.042 236.578 90.6771 236.604 91.307 236.737C91.7728 236.837 92.228 236.985 92.6674 237.176C93.1067 237.366 93.5249 237.599 93.9166 237.875C94.3083 238.145 94.6735 238.457 95.0017 238.801C95.3351 239.145 95.6315 239.515 95.8909 239.918C96.1503 240.325 96.3673 240.749 96.542 241.193C96.7166 241.638 96.849 242.098 96.9337 242.564C97.0183 243.035 97.0554 243.512 97.0501 243.993C97.0395 244.47 96.9866 244.941 96.886 245.412C96.5578 246.852 95.9968 248.202 95.2081 249.451C95.7427 249.599 96.2879 249.615 96.8331 249.498C99.6649 249.324 102.439 249.652 105.149 250.493C107.859 251.34 110.325 252.637 112.559 254.389C114.147 255.596 115.497 257.025 116.614 258.671C117.582 260.053 118.233 261.567 118.567 263.224C119.297 267.289 118.053 270.65 114.692 273.016C112.813 274.355 110.744 275.239 108.478 275.657C106.213 276.075 103.963 275.996 101.729 275.414C101.031 275.234 100.364 274.98 99.7232 274.641C94.9858 272.243 94.2289 268.077 95.3722 263.832C95.4198 263.663 95.4992 263.499 95.5998 263.351C95.9968 262.721 96.4308 262.668 96.8225 263.292C97.0183 263.647 97.1666 264.017 97.2777 264.404C97.59 265.574 97.9711 266.722 98.4263 267.85C98.6116 268.321 98.8604 268.76 99.178 269.162C99.4955 269.559 99.8608 269.909 100.279 270.2C100.692 270.496 101.147 270.724 101.629 270.883C102.11 271.047 102.608 271.131 103.121 271.147C104.545 271.243 105.943 271.079 107.314 270.666C108.679 270.248 109.928 269.602 111.061 268.723C112.903 267.336 113.348 265.473 112.48 263.329C111.924 262.033 111.135 260.895 110.114 259.915C108.632 258.454 106.959 257.258 105.096 256.327C103.233 255.39 101.274 254.77 99.215 254.458C95.044 253.717 90.9894 254.125 87.0513 255.681C82.3616 257.486 77.7407 257.417 73.3526 254.707C71.2089 253.431 69.5786 251.679 68.467 249.451C68.3982 249.181 68.2341 248.985 67.9748 248.874C67.9377 249.715 68.0701 250.525 68.3718 251.309C68.8958 252.796 69.4992 254.246 70.1767 255.665C71.3942 258.465 72.5428 261.292 72.8974 264.367C73.1144 266.039 72.9556 267.68 72.421 269.284C71.1136 273.074 67.3184 275.022 64.4495 274.143C64.2802 274.122 64.1108 274.122 63.9414 274.143C63.9731 275.456 63.772 276.726 63.338 277.965C62.9039 279.198 62.2635 280.315 61.4218 281.316C61.7659 281.702 62.1523 281.564 62.4805 281.564C84.0766 281.527 105.678 281.48 127.269 281.432C127.814 281.469 128.349 281.411 128.867 281.247C132.393 279.902 135.86 278.431 138.914 276.144C139.988 275.387 140.93 274.487 141.74 273.45C142.217 272.831 142.571 272.148 142.794 271.396C143.021 270.645 143.106 269.882 143.053 269.099C143 268.321 142.809 267.574 142.476 266.865C142.148 266.151 141.703 265.526 141.147 264.976C139.459 263.271 137.358 263.022 135.156 263.393C133.991 263.594 132.938 264.055 132.001 264.78C130.683 265.732 129.518 266.844 128.507 268.12C128.2 268.538 127.846 269.162 127.248 268.908C126.644 268.654 126.882 268.035 126.951 267.553C127.083 266.346 127.131 265.134 127.089 263.922C127.078 261.493 126.485 259.211 125.316 257.083C123.41 253.659 120.885 250.779 117.746 248.44C117.498 248.244 117.233 248.074 116.989 247.884C116.741 247.693 116.54 247.519 116.672 247.217C116.804 246.958 117.011 246.825 117.302 246.82C117.799 246.772 118.286 246.831 118.757 246.995C119.969 247.381 121.081 247.958 122.092 248.726C125.951 251.653 128.867 255.247 129.952 260.079C129.989 260.201 130.042 260.312 130.106 260.423C130.233 260.54 130.355 260.54 130.482 260.423C134.266 257.422 138.432 257.364 142.677 259.084C147.388 260.979 150.082 266.024 149.405 271.121C149.193 273.005 148.611 274.768 147.653 276.403C146.7 278.039 145.451 279.415 143.916 280.522L143.286 281.014C143.238 281.067 143.196 281.12 143.159 281.178C143.561 281.559 144.069 281.4 144.509 281.4C150.818 281.4 157.17 281.368 163.5 281.363C173.203 281.363 182.9 281.268 192.597 281.363C196.826 281.337 201.013 280.919 205.163 280.098C209.747 279.219 214.272 278.103 218.74 276.748C219.994 276.377 221.185 275.864 222.307 275.197C230.29 270.555 236.7 264.24 241.977 256.718C243.597 254.4 245.089 251.997 246.455 249.52C246.783 248.927 247.085 248.339 247.455 247.757C247.82 247.18 248.223 246.577 249.006 246.661C249.79 246.741 250.07 247.392 250.266 248.064C250.319 248.239 250.388 248.408 250.425 248.577C251.595 253.177 251.722 257.803 250.801 262.461C250.446 264.102 249.837 265.642 248.969 267.077C249.647 267.379 250.356 267.59 251.092 267.707C255.691 268.93 260.217 270.385 264.663 272.068C264.917 272.153 265.156 272.275 265.378 272.428C265.553 272.545 265.674 272.698 265.748 272.899C265.823 273.095 265.833 273.291 265.775 273.492C265.68 273.942 265.399 274.212 264.949 274.297C264.679 274.329 264.415 274.329 264.15 274.297C258.042 273.805 251.944 273.889 245.851 274.54C237.605 275.308 229.511 276.875 221.577 279.251C219.994 279.722 218.422 280.262 216.845 280.776C216.607 280.855 216.31 280.866 216.162 281.273H217.628C245.772 281.21 273.921 281.146 302.081 281.083C303.018 281.167 303.79 280.844 304.388 280.114C304.706 279.775 305.066 279.495 305.474 279.278C305.876 279.055 306.31 278.907 306.76 278.822C307.215 278.743 307.67 278.732 308.131 278.796C308.586 278.865 309.025 278.997 309.438 279.204C309.835 279.399 310.195 279.653 310.513 279.966C310.83 280.278 311.095 280.633 311.296 281.03C311.503 281.421 311.635 281.845 311.704 282.284C311.772 282.724 311.767 283.163 311.693 283.602C311.592 284.407 311.275 285.116 310.735 285.725C310.19 286.328 309.528 286.73 308.734 286.921C307.009 287.44 305.341 287.159 304.203 285.73C303.923 285.359 303.563 285.084 303.134 284.904C302.7 284.724 302.255 284.661 301.79 284.719C286.206 284.777 270.623 284.809 255.051 284.809H253.474C253.828 285.174 254.252 285.434 254.733 285.598C257.301 286.81 259.444 288.546 261.17 290.801C263.335 293.765 264.325 297.052 263.472 300.699C262.228 306.072 256.168 309.274 251.012 307.395C247.349 306.056 244.994 302.192 245.64 298.561C245.65 298.137 245.777 297.751 246.026 297.401C246.275 297.057 246.598 296.814 247 296.671C247.101 297.301 247.154 297.931 247.302 298.518C247.932 301.112 249.197 303.197 251.859 304.087C252.399 304.283 252.96 304.399 253.537 304.431C254.114 304.468 254.686 304.42 255.247 304.293C255.813 304.166 256.348 303.965 256.851 303.684C257.359 303.404 257.814 303.06 258.222 302.652C260.048 300.99 260.381 298.894 259.825 296.597C259.386 294.808 258.497 293.278 257.168 292.002C255.279 290.155 253.071 288.853 250.546 288.091C246.709 286.937 242.803 286.127 238.827 285.667C234.281 285.09 229.713 284.825 225.129 284.873L172.599 284.957C172.144 284.894 171.7 284.925 171.26 285.052C171.334 285.497 171.742 285.412 171.985 285.487C178.094 287.45 184.355 288.504 190.771 288.641C196.032 288.721 201.267 288.398 206.481 287.678C207.058 287.599 207.64 287.556 208.222 287.551C208.566 287.509 208.895 287.577 209.196 287.757C209.498 287.932 209.72 288.181 209.853 288.504C209.969 288.811 209.98 289.123 209.895 289.441C209.81 289.753 209.646 290.017 209.392 290.229C208.921 290.706 208.418 291.145 207.873 291.547C204.612 293.919 201.098 295.771 197.059 296.438C196.307 296.56 196.255 296.877 196.429 297.534C197.985 304.272 193.698 309.205 189.114 311.534C188.786 311.704 188.442 311.825 188.082 311.894C187.838 311.963 187.595 311.973 187.346 311.931C187.097 311.889 186.87 311.788 186.669 311.64C186.462 311.492 186.303 311.307 186.182 311.084C186.065 310.862 186.002 310.624 185.991 310.375C185.97 310.015 185.991 309.66 186.055 309.306C186.362 307.257 186.256 305.23 185.726 303.229C185.202 301.223 184.308 299.402 183.032 297.767C181.031 295.162 178.586 293.087 175.696 291.531C171.816 289.414 167.73 287.826 163.437 286.767C161.007 286.138 158.546 285.619 156.069 285.206C155.264 285.09 154.46 285.037 153.65 285.052L30.6739 285.232C30.134 285.259 29.5994 285.259 29.0595 285.232C28.7842 285.227 28.5249 285.169 28.2708 285.063C28.022 284.957 27.7997 284.809 27.6038 284.613C27.408 284.423 27.2598 284.2 27.1539 283.946C27.0481 283.697 26.9898 283.433 26.9845 283.163C26.9581 282.713 26.9581 282.258 26.9845 281.808C27.0586 241.94 27.1486 202.072 27.2545 162.204C27.2757 158.197 26.8152 154.243 25.8677 150.347C24.8885 146.081 23.4381 141.978 21.5114 138.046C20.204 135.304 18.4626 132.869 16.2977 130.736C14.9479 129.391 13.4129 128.311 11.6873 127.502C9.96174 126.697 8.15148 126.205 6.25653 126.03C5.49431 125.967 4.7321 125.977 3.97518 126.067C3.34529 126.162 2.71541 126.215 2.08023 126.221C0.661659 126.221 -0.0158657 125.231 0.381122 123.855C0.42876 123.68 0.486985 123.511 0.566382 123.352C2.87949 118.932 6.18772 115.936 11.375 115.518C12.4548 115.46 13.524 115.555 14.5774 115.804C15.5619 116.01 15.599 116.01 15.7895 114.978C16.5306 110.95 18.3885 107.456 20.7757 104.201C21.1515 103.693 21.5696 103.227 22.0354 102.798C22.2472 102.55 22.5118 102.391 22.8294 102.317C23.147 102.237 23.4593 102.269 23.761 102.396C24.0574 102.528 24.285 102.735 24.4491 103.015C24.6132 103.296 24.682 103.598 24.6556 103.921C24.6397 104.868 24.5656 105.805 24.4385 106.742C23.6022 112.585 23.3534 118.45 23.6975 124.342C24.0574 129.831 25.0843 135.193 26.7728 140.427C26.8363 140.634 26.9634 140.787 27.1539 140.883C27.1539 140.56 27.228 140.253 27.228 139.914C27.2757 121.616 27.3657 103.28 27.3392 84.9552C27.3815 77.4706 26.4288 70.1079 24.4915 62.8721C23.7875 60.0297 22.443 57.5207 20.474 55.3505C19.0078 53.7361 17.2028 52.7145 15.0591 52.3017C14.4186 52.1535 13.7675 52.1164 13.1165 52.1852C12.4601 52.2593 11.8355 52.434 11.2427 52.7198C10.6499 53.0004 10.1205 53.3709 9.64944 53.8367C9.18365 54.2972 8.80254 54.8265 8.51671 55.4141C8.19912 55.9963 7.9821 56.6156 7.86565 57.2667C7.74391 57.923 7.73332 58.5741 7.8233 59.2304C7.91329 59.8868 8.10384 60.5167 8.39497 61.1095C8.68609 61.7076 9.0619 62.2422 9.5277 62.7186C10.8828 64.0737 12.5183 64.8359 14.4292 65.0106C14.7679 65.0423 15.149 64.9417 15.509 65.2593C15.329 65.8628 14.932 66.228 14.3127 66.355C13.1747 66.7414 12.0261 66.7838 10.8616 66.4768C10.3428 66.3603 9.83471 66.1909 9.34244 65.9792C8.85547 65.7675 8.38967 65.5081 7.94505 65.2064C7.50571 64.9047 7.09285 64.5659 6.71703 64.1901C6.34122 63.809 6.00246 63.4014 5.70075 62.9568C5.39904 62.5175 5.14497 62.0464 4.93324 61.5594C4.71622 61.0672 4.55213 60.559 4.43568 60.0403C4.31923 59.5163 4.25042 58.9869 4.23454 58.4576C4.21866 57.923 4.25042 57.3884 4.32982 56.8591C4.41451 56.1763 4.56801 55.5146 4.79032 54.8636C5.01793 54.2125 5.30905 53.5932 5.6637 53.0057C6.01834 52.4181 6.4365 51.8729 6.90759 51.3754C7.37868 50.8778 7.9027 50.4332 8.46907 50.0468C9.03544 49.6551 9.63886 49.3322 10.274 49.0729C10.9092 48.8135 11.5656 48.6229 12.2431 48.5012C12.9206 48.3847 13.6034 48.3371 14.2915 48.3636C14.9797 48.39 15.6519 48.4906 16.3188 48.66C19.0713 49.2952 21.4003 50.6502 23.3058 52.7357C24.6291 54.1596 25.7248 55.7422 26.5876 57.4837C26.7569 57.8224 26.7887 58.2618 27.3657 58.5529V57.2878C27.3657 41.5354 27.3974 25.7724 27.4503 10.0146C27.4874 9.63882 27.4292 9.27888 27.2704 8.93483C27.1169 8.59077 26.884 8.31023 26.577 8.08792C26.1853 7.76504 25.8571 7.38393 25.5977 6.9446C25.3384 6.50527 25.1584 6.03417 25.0684 5.53133C24.9731 5.02848 24.9731 4.52562 25.0578 4.02278C25.1425 3.51463 25.3172 3.04354 25.5713 2.59892C25.783 2.18605 26.0582 1.82082 26.397 1.50323C26.7358 1.18564 27.1169 0.931571 27.5403 0.74631C27.9638 0.555756 28.4084 0.444599 28.8742 0.407547C29.3347 0.375788 29.7899 0.418133 30.2398 0.534583C30.9862 0.693377 31.6319 1.03743 32.1771 1.57204C32.7223 2.10665 33.077 2.75242 33.2411 3.49875C33.4845 4.27155 33.4898 5.05494 33.2569 5.83304C33.0293 6.61642 32.6059 7.26748 31.9813 7.7915C31.3091 8.31553 30.9968 8.99834 31.0444 9.85054C31.0021 38.1848 30.9491 66.5138 30.8803 94.8428V95.8114C31.3514 95.7162 31.3302 95.3615 31.4202 95.0969C34.4108 86.4161 36.4222 77.5183 37.4438 68.3929C38.0261 63.3009 38.2854 58.193 38.2219 53.0692C38.2219 51.4971 38.0737 49.9145 37.9467 48.3689C37.9202 48.0089 37.9202 47.649 37.9467 47.2891C38.0208 46.818 38.2854 46.5321 38.7512 46.4316C39.2223 46.331 39.5823 46.4792 39.8416 46.8815C40.0322 47.2361 40.191 47.6014 40.3127 47.9825C42.1389 52.7675 43.658 57.6478 44.8754 62.6233C44.9337 62.8245 44.9972 63.0203 45.0766 63.2162Z" fill="#FFC764"/>
</g>
</svg>
