<svg width="42" height="37" viewBox="0 0 42 37" fill="none" xmlns="http://www.w3.org/2000/svg">
<path d="M37.875 19.5234C40.6094 19.5234 41.9766 20.9883 41.9766 23.918V31.7695C41.9766 34.6992 40.6094 36.1641 37.875 36.1641H28.7344C26 36.1641 24.6328 34.6992 24.6328 31.7695V23.918C24.6328 18.8789 24.9648 14.6602 25.6289 11.2617C26.293 7.82422 27.9922 5.05078 30.7266 2.94141C32.7188 1.41797 34.2812 1.26172 35.4141 2.47266L37.6406 4.875C39.0469 6.35937 38.832 7.82422 36.9961 9.26953C35.7461 10.2461 34.9062 11.5156 34.4766 13.0781C34.0469 14.6406 33.832 16.7891 33.832 19.5234H37.875ZM13.2656 19.5234C16 19.5234 17.3672 20.9883 17.3672 23.918V31.7695C17.3672 34.6992 16 36.1641 13.2656 36.1641H4.125C1.39062 36.1641 0.0234375 34.6992 0.0234375 31.7695V23.918C0.0234375 18.8789 0.355469 14.6602 1.01953 11.2617C1.68359 7.82422 3.38281 5.05078 6.11719 2.94141C8.10938 1.41797 9.67188 1.26172 10.8047 2.47266L13.0312 4.875C14.4375 6.35937 14.2227 7.82422 12.3867 9.26953C11.1367 10.2461 10.2969 11.5156 9.86719 13.0781C9.4375 14.6406 9.22266 16.7891 9.22266 19.5234H13.2656Z" fill="#FFF1B8"/>
</svg>
