<svg width="120" height="90" viewBox="0 0 120 90" fill="none" xmlns="http://www.w3.org/2000/svg">
<mask id="mask0_214_53" style="mask-type:luminance" maskUnits="userSpaceOnUse" x="42" y="0" width="36" height="46">
<path d="M42.0075 0H77.9215V45.1274H42.0075V0Z" fill="white"/>
</mask>
<g mask="url(#mask0_214_53)">
<path d="M42.3883 22.5256C42.3883 10.1394 50.2846 0.10202 60.0247 0.10202C69.7687 0.10202 77.665 10.1394 77.665 22.5256C77.665 34.9067 69.7687 44.9492 60.0247 44.9492C50.2846 44.9492 42.3883 34.9067 42.3883 22.5256Z" fill="#4EABE0"/>
</g>
<mask id="mask1_214_53" style="mask-type:luminance" maskUnits="userSpaceOnUse" x="29" y="43" width="62" height="47">
<path d="M29.3732 43.8229H90.8679V90H29.3732V43.8229Z" fill="white"/>
</mask>
<g mask="url(#mask1_214_53)">
<path d="M90.3429 78.3322L87.8258 66.0072C85.7775 55.9647 80.2421 48.001 73.1315 43.981C69.512 47.5578 64.9666 49.6926 60.0245 49.6926C55.0863 49.6926 50.5409 47.5578 46.9215 43.981C39.8108 48.001 34.2754 55.9647 32.2272 66.0072L29.714 78.3322C28.4474 84.5381 32.131 90.5911 37.1734 90.5911H82.8796C87.9219 90.5911 91.6095 84.5381 90.3429 78.3322Z" fill="#4EABE0"/>
</g>
<path d="M10.3461 19.652C10.3461 9.74199 16.6671 1.707 24.4672 1.707C32.2632 1.707 38.5842 9.74199 38.5842 19.652C38.5842 29.5671 32.2632 37.6021 24.4672 37.6021C16.6671 37.6021 10.3461 29.5671 10.3461 19.652Z" fill="#4EABE0"/>
<path d="M28.9924 65.8444C30.9524 56.2401 35.6301 48.251 41.8108 43.0744C39.8868 40.43 37.554 38.2952 34.9527 36.8278C32.0587 39.6912 28.4192 41.4032 24.467 41.4032C20.5109 41.4032 16.8714 39.6912 13.9774 36.8278C8.2817 40.0428 3.85658 46.4219 2.21319 54.4568L0.201049 64.321C-0.81304 69.2887 2.13704 74.1342 6.17335 74.1342H27.3009L28.9924 65.8444Z" fill="#4EABE0"/>
<path d="M109.791 19.652C109.791 9.74199 103.47 1.707 95.6741 1.707C87.878 1.707 81.557 9.74199 81.557 19.652C81.557 29.5671 87.878 37.6021 95.6741 37.6021C103.47 37.6021 109.791 29.5671 109.791 19.652Z" fill="#4EABE0"/>
<mask id="mask2_214_53" style="mask-type:luminance" maskUnits="userSpaceOnUse" x="78" y="36" width="42" height="39">
<path d="M78.326 36.6598H120V74.3891H78.326V36.6598Z" fill="white"/>
</mask>
<g mask="url(#mask2_214_53)">
<path d="M91.1444 65.8442C89.1844 56.2399 84.5107 48.2508 78.326 43.0742C80.254 40.4298 82.5868 38.295 85.1841 36.8276C88.0821 39.691 91.7176 41.403 95.6737 41.403C99.6299 41.403 103.265 39.691 106.163 36.8276C111.855 40.0426 116.284 46.4217 117.924 54.4567L119.94 64.3208C120.954 69.2885 118.004 74.134 113.963 74.134H92.8399L91.1444 65.8442Z" fill="#4EABE0"/>
</g>
</svg>
