<svg width="664" height="581" viewBox="0 0 664 581" fill="none" xmlns="http://www.w3.org/2000/svg">
<g opacity="0.3">
<mask id="mask0_1574_492" style="mask-type:luminance" maskUnits="userSpaceOnUse" x="0" y="0" width="664" height="581">
<path d="M663.286 0.625H0V581H663.286V0.625Z" fill="white"/>
</mask>
<g mask="url(#mask0_1574_492)">
<path d="M565.735 160.014C552.947 129 534.632 101.136 511.313 77.2146C488.118 53.4269 461.147 34.7318 431.116 21.6207C431.128 22.3242 431.15 23.039 431.161 23.7537C460.622 36.742 487.124 55.1691 509.929 78.5548C533.08 102.309 551.25 129.961 563.959 160.751C577.104 192.635 583.771 226.508 583.771 261.418C583.771 296.329 577.104 330.202 563.959 362.086C551.25 392.876 533.08 420.539 509.929 444.282C486.777 468.025 459.818 486.676 429.799 499.697C398.718 513.177 365.706 520.012 331.688 520.012C297.66 520.012 264.647 513.177 233.567 499.697C203.559 486.676 176.599 468.025 153.437 444.282C130.297 420.539 112.116 392.876 99.4178 362.086C86.262 330.202 79.6059 296.329 79.6059 261.418C79.6059 226.508 86.262 192.635 99.4178 160.751C112.116 129.961 130.297 102.309 153.437 78.5548C174.075 57.4027 197.729 40.3046 223.873 27.6178C223.873 26.9031 223.862 26.1883 223.862 25.4848C197.182 38.3056 173.059 55.6717 152.063 77.2146C128.734 101.136 110.429 129 97.6309 160.014C84.3858 192.133 77.6738 226.251 77.6738 261.418C77.6738 296.586 84.3858 330.704 97.6309 362.823C110.429 393.848 128.734 421.701 152.063 445.622C175.393 469.555 202.554 488.34 232.796 501.462C264.122 515.053 297.392 521.944 331.688 521.944C365.974 521.944 399.243 515.053 430.569 501.462C460.812 488.34 487.984 469.555 511.313 445.622C534.632 421.701 552.947 393.848 565.735 362.823C578.98 330.704 585.703 296.586 585.703 261.418C585.703 226.251 578.98 192.133 565.735 160.014Z" fill="#D62828"/>
<path d="M186.963 47.2734C186.025 47.1617 193.552 35.8151 194.132 35.2567C197.874 31.5378 202.508 28.8798 207.422 27.026C215.43 23.9994 233.086 22.0562 228.865 8.78873C228.865 8.78873 247.962 53.9295 186.963 47.2734Z" fill="#D62828"/>
<path d="M470.115 42.7951C469.679 31.884 456.546 24.636 447.5 21.7212C439.314 19.0744 424.851 16.3829 428.659 4.42209C426.549 11.0447 424.896 17.7901 426.404 24.7924C430.055 41.6895 449.287 44.1464 463.783 43.454C465.893 43.3647 468.06 43.2753 470.115 42.7951Z" fill="#D62828"/>
<mask id="mask1_1574_492" style="mask-type:luminance" maskUnits="userSpaceOnUse" x="162" y="0" width="27" height="55">
<path d="M162.963 0.881836H188.694V54.9458H162.963V0.881836Z" fill="white"/>
</mask>
<g mask="url(#mask1_1574_492)">
<path d="M185.207 0.937683C185.207 0.937683 185.799 10.5421 173.213 22.9832C167.607 28.5225 164.279 36.0497 164.469 43.923C164.547 47.3181 165.239 50.5903 167.104 52.9356C167.104 52.9356 198.296 37.5238 185.207 0.937683Z" fill="#D62828"/>
</g>
<path d="M227.76 66.8285C227.76 66.8285 218.591 63.8801 203.436 73.0155C196.691 77.0806 188.572 78.4543 180.989 76.3324C177.717 75.4166 174.713 73.9313 172.903 71.5525C172.903 71.5525 195.53 45.118 227.76 66.8285Z" fill="#D62828"/>
<path d="M149.225 26.9366C149.225 26.9366 149.817 36.541 137.231 48.9821C131.625 54.5214 128.286 62.0486 128.475 69.9108C128.554 73.317 129.257 76.5892 131.122 78.9233C131.122 78.9233 162.314 63.5228 149.225 26.9366Z" fill="#D62828"/>
<path d="M190.225 90.4598C190.225 90.4598 180.609 90.0912 168.481 102.979C163.064 108.708 155.626 112.226 147.753 112.226C144.347 112.226 141.063 111.601 138.685 109.791C138.685 109.791 153.337 78.2309 190.225 90.4598Z" fill="#D62828"/>
<path d="M105.627 46.916C105.627 46.916 110.775 57.7936 101.941 78.0857C98.0101 87.1094 97.6304 97.3951 101.506 106.452C103.17 110.361 105.504 113.834 108.754 115.677C108.754 115.677 137.813 83.3123 105.627 46.916Z" fill="#D62828"/>
<path d="M68.3271 84.3286C68.3271 84.3286 76.9376 94.5808 74.0005 118.368C72.6938 128.944 75.4411 139.967 82.1866 148.611C85.0902 152.341 88.5523 155.435 92.461 156.574C92.461 156.574 112.574 114.851 68.3271 84.3286Z" fill="#D62828"/>
<path d="M35.4932 130.151C35.4932 130.151 45.9687 138.515 47.7667 162.404C48.5708 173.036 53.4177 183.299 61.7378 190.446C65.3339 193.529 69.332 195.885 73.3971 196.242C73.3971 196.242 84.8889 151.37 35.4932 130.151Z" fill="#D62828"/>
<path d="M16.3164 183.556C16.3164 183.556 28.4113 189.296 35.6369 212.146C38.8533 222.308 45.9226 231.187 55.661 236.246C59.849 238.424 64.2938 239.809 68.3255 239.205C68.3255 239.205 69.2524 192.903 16.3164 183.556Z" fill="#D62828"/>
<path d="M3.10547 244.365C3.10547 244.365 16.2948 246.733 29.2496 266.88C35.0234 275.847 44.17 282.571 54.88 284.893C59.5035 285.899 64.1605 286.077 67.8795 284.447C67.8795 284.447 56.6445 239.518 3.10547 244.365Z" fill="#D62828"/>
<path d="M3.21582 295.168C3.21582 295.168 18.9626 297.603 34.9551 321.2C42.0802 331.698 53.1588 339.415 65.9684 341.872C71.4966 342.933 77.0358 343.011 81.4248 340.956C81.4248 340.956 66.7502 287.842 3.21582 295.168Z" fill="#D62828"/>
<path d="M14.4629 361.573C14.4629 361.573 30.3325 360.255 51.4064 379.452C60.7875 387.996 73.3737 392.91 86.4067 392.307C92.0242 392.039 97.4183 390.81 101.204 387.795C101.204 387.795 74.5128 339.594 14.4629 361.573Z" fill="#D62828"/>
<path d="M36.7773 417.066C36.7773 417.066 52.3454 413.693 75.7311 429.998C86.1396 437.246 99.2619 440.496 112.094 438.196C117.633 437.213 122.826 435.292 126.199 431.808C126.199 431.808 93.4658 387.471 36.7773 417.066Z" fill="#D62828"/>
<path d="M73.0273 471.253C73.0273 471.253 89.6117 466.06 116.627 481.46C128.655 488.317 143.207 490.54 156.932 486.776C162.851 485.157 168.301 482.566 171.618 478.445C171.618 478.445 131.692 433.516 73.0273 471.253Z" fill="#D62828"/>
<path d="M118.323 526.456C118.323 526.456 134.383 516.461 167.049 525.328C181.59 529.281 197.537 527.662 210.972 519.956C216.769 516.639 221.805 512.418 224.184 507.18C224.184 507.18 169.874 470.706 118.323 526.456Z" fill="#D62828"/>
<path d="M181.882 561.724C181.882 561.724 196.501 549.73 230.038 554.275C244.969 556.285 260.571 552.6 272.889 543.219C278.205 539.176 282.65 534.34 284.325 528.835C284.325 528.835 225.727 499.742 181.882 561.724Z" fill="#D62828"/>
<path d="M163.009 126.376C163.009 126.376 151.383 129.503 141.656 149.371C137.323 158.227 129.728 165.173 120.325 168.077C116.26 169.339 112.105 169.819 108.599 168.535C108.599 168.535 114.439 125.427 163.009 126.376Z" fill="#D62828"/>
<path d="M138.795 177.391C138.795 177.391 127.415 184.449 122.781 207.958C120.726 218.422 114.684 228.038 105.582 234.135C101.651 236.771 97.396 238.647 93.3197 238.502C93.3197 238.502 87.2332 192.591 138.795 177.391Z" fill="#D62828"/>
<path d="M124.209 230.539C124.209 230.539 115.085 240.345 116.827 264.244C117.586 274.887 114.303 285.742 107.133 294.029C104.04 297.614 100.421 300.54 96.4567 301.478C96.4567 301.478 78.4763 258.794 124.209 230.539Z" fill="#D62828"/>
<path d="M137.657 292.957C137.657 292.957 128.533 306.012 134.508 333.887C137.166 346.295 135.077 359.64 127.986 370.596C124.926 375.309 121.151 379.363 116.639 381.116C116.639 381.116 88.429 333.775 137.657 292.957Z" fill="#D62828"/>
<path d="M162.784 330.805C162.784 330.805 153.86 345.714 162.516 375.577C166.38 388.878 165.14 403.553 158.272 416.016C155.312 421.399 151.515 426.078 146.735 428.346C146.735 428.346 112.383 379.028 162.784 330.805Z" fill="#D62828"/>
<path d="M173.394 379.575C173.394 379.575 172.545 398.471 196.266 422.616C206.819 433.36 213.218 448.068 213.073 463.547C213.006 470.225 211.8 476.691 208.394 481.326C208.394 481.326 150.008 451.809 173.394 379.575Z" fill="#D62828"/>
<path d="M224.186 430.445C224.186 430.445 229.792 448.515 260.291 463.189C273.86 469.723 284.861 481.393 289.976 496.001C292.187 502.311 293.226 508.799 291.595 514.305C291.595 514.305 226.654 506.331 224.186 430.445Z" fill="#D62828"/>
<path d="M435.036 66.8285C435.036 66.8285 444.194 63.8801 459.349 73.0155C466.105 77.0806 474.213 78.4543 481.796 76.3324C485.08 75.4166 488.084 73.9313 489.882 71.5525C489.882 71.5525 467.267 45.118 435.036 66.8285Z" fill="#D62828"/>
<path d="M472.561 90.4598C472.561 90.4598 482.176 90.0912 494.316 102.979C499.721 108.708 507.159 112.226 515.043 112.226C518.438 112.226 521.733 111.601 524.112 109.791C524.112 109.791 509.448 78.2309 472.561 90.4598Z" fill="#D62828"/>
<path d="M499.789 126.376C499.789 126.376 511.404 129.503 521.142 149.371C525.475 158.227 533.058 165.173 542.462 168.077C546.527 169.339 550.692 169.819 554.199 168.535C554.199 168.535 548.358 125.427 499.789 126.376Z" fill="#D62828"/>
<path d="M523.988 177.391C523.988 177.391 535.38 184.449 540.003 207.958C542.069 218.422 548.1 228.038 557.213 234.135C561.144 236.771 565.399 238.647 569.464 238.502C569.464 238.502 575.551 192.591 523.988 177.391Z" fill="#D62828"/>
<path d="M538.572 230.539C538.572 230.539 547.696 240.345 545.965 264.244C545.195 274.887 548.489 285.742 555.659 294.029C558.753 297.614 562.371 300.54 566.336 301.478C566.336 301.478 584.305 258.794 538.572 230.539Z" fill="#D62828"/>
<path d="M525.128 292.957C525.128 292.957 534.263 306.012 528.288 333.887C525.63 346.295 527.719 359.64 534.799 370.596C537.859 375.309 541.634 379.363 546.157 381.116C546.157 381.116 574.367 333.775 525.128 292.957Z" fill="#D62828"/>
<path d="M500.01 330.805C500.01 330.805 508.934 345.714 500.278 375.577C496.414 388.878 497.654 403.553 504.511 416.016C507.482 421.399 511.279 426.078 516.059 428.346C516.059 428.346 550.411 379.028 500.01 330.805Z" fill="#D62828"/>
<path d="M489.401 379.575C489.401 379.575 490.25 398.471 466.529 422.616C455.975 433.36 449.576 448.068 449.721 463.547C449.777 470.225 450.994 476.691 454.401 481.326C454.401 481.326 512.786 451.809 489.401 379.575Z" fill="#D62828"/>
<path d="M438.609 430.445C438.609 430.445 433.003 448.515 402.503 463.189C388.923 469.723 377.934 481.393 372.819 496.001C370.608 502.311 369.569 508.799 371.2 514.305C371.2 514.305 436.13 506.331 438.609 430.445Z" fill="#D62828"/>
<mask id="mask2_1574_492" style="mask-type:luminance" maskUnits="userSpaceOnUse" x="474" y="0" width="27" height="55">
<path d="M474.595 0.881836H500.326V54.9458H474.595V0.881836Z" fill="white"/>
</mask>
<g mask="url(#mask2_1574_492)">
<path d="M479.015 0.937653C479.015 0.937653 478.423 10.5421 491.009 22.9831C496.615 28.5224 499.943 36.0496 499.765 43.923C499.675 47.3181 498.983 50.5903 497.118 52.9355C497.118 52.9355 465.926 37.5238 479.015 0.937653Z" fill="#D62828"/>
</g>
<path d="M515.01 26.9366C515.01 26.9366 514.407 36.541 526.993 48.9821C532.599 54.5214 535.938 62.0486 535.749 69.9108C535.67 73.317 534.967 76.5892 533.102 78.9233C533.102 78.9233 501.91 63.5228 515.01 26.9366Z" fill="#D62828"/>
<path d="M558.6 44.5484C558.6 44.5484 553.451 55.426 562.285 75.707C566.216 84.7418 566.596 95.0163 562.721 104.074C561.057 107.982 558.723 111.467 555.473 113.309C555.473 113.309 526.414 80.9447 558.6 44.5484Z" fill="#D62828"/>
<path d="M595.899 81.9498C595.899 81.9498 587.289 92.2132 590.215 115.99C591.532 126.577 588.796 137.588 582.04 146.232C579.125 149.963 575.663 153.067 571.765 154.206C571.765 154.206 551.652 112.483 595.899 81.9498Z" fill="#D62828"/>
<path d="M624.544 128.118C624.544 128.118 614.515 136.997 613.934 160.952C613.666 171.617 609.344 182.115 601.404 189.676C597.975 192.937 594.089 195.494 590.057 196.053C590.057 196.053 576.298 151.828 624.544 128.118Z" fill="#D62828"/>
<path d="M647.909 183.556C647.909 183.556 635.814 189.296 628.588 212.146C625.372 222.308 618.302 231.187 608.575 236.246C604.376 238.424 599.931 239.809 595.899 239.205C595.899 239.205 594.984 192.903 647.909 183.556Z" fill="#D62828"/>
<mask id="mask3_1574_492" style="mask-type:luminance" maskUnits="userSpaceOnUse" x="594" y="243" width="68" height="44">
<path d="M594.672 243.639H661.132V286.524H594.672V243.639Z" fill="white"/>
</mask>
<g mask="url(#mask3_1574_492)">
<path d="M661.122 244.365C661.122 244.365 647.943 246.733 634.978 266.88C629.215 275.847 620.057 282.571 609.347 284.893C604.724 285.899 600.078 286.077 596.348 284.447C596.348 284.447 607.583 239.518 661.122 244.365Z" fill="#D62828"/>
</g>
<mask id="mask4_1574_492" style="mask-type:luminance" maskUnits="userSpaceOnUse" x="580" y="292" width="82" height="52">
<path d="M580.375 292.242H661.13V343.704H580.375V292.242Z" fill="white"/>
</mask>
<g mask="url(#mask4_1574_492)">
<path d="M661.007 295.168C661.007 295.168 645.26 297.603 629.268 321.2C622.142 331.698 611.064 339.415 598.254 341.872C592.726 342.933 587.198 343.011 582.798 340.957C582.798 340.957 597.473 287.842 661.007 295.168Z" fill="#D62828"/>
</g>
<path d="M649.773 361.573C649.773 361.573 633.893 360.255 612.819 379.452C603.438 387.996 590.851 392.91 577.83 392.307C572.201 392.039 566.807 390.81 563.01 387.795C563.01 387.795 589.712 339.594 649.773 361.573Z" fill="#D62828"/>
<path d="M627.448 417.066C627.448 417.066 611.879 413.693 588.494 429.998C578.085 437.246 564.963 440.496 552.131 438.196C546.592 437.213 541.399 435.292 538.037 431.808C538.037 431.808 570.759 387.471 627.448 417.066Z" fill="#D62828"/>
<path d="M591.207 471.253C591.207 471.253 574.612 466.06 547.608 481.46C535.58 488.317 521.017 490.54 507.291 486.776C501.372 485.157 495.922 482.566 492.605 478.445C492.605 478.445 532.531 433.516 591.207 471.253Z" fill="#D62828"/>
<path d="M545.899 526.456C545.899 526.456 529.839 516.461 497.173 525.328C482.633 529.281 466.685 527.662 453.25 519.956C447.454 516.639 442.417 512.418 440.038 507.18C440.038 507.18 494.348 470.706 545.899 526.456Z" fill="#D62828"/>
<path d="M482.342 561.724C482.342 561.724 467.723 549.73 434.186 554.275C419.254 556.285 403.653 552.6 391.334 543.219C386.018 539.176 381.574 534.34 379.898 528.835C379.898 528.835 438.497 499.742 482.342 561.724Z" fill="#D62828"/>
<path d="M304.987 564.002C304.987 569.53 300.497 574.02 294.981 574.02C289.441 574.02 284.963 569.53 284.963 564.002C284.963 558.463 289.441 553.985 294.981 553.985C300.497 553.985 304.987 558.463 304.987 564.002Z" fill="#D62828"/>
<path d="M378.929 564.002C378.929 569.53 374.451 574.02 368.923 574.02C363.395 574.02 358.905 569.53 358.905 564.002C358.905 558.463 363.395 553.985 368.923 553.985C374.451 553.985 378.929 558.463 378.929 564.002Z" fill="#D62828"/>
<mask id="mask5_1574_492" style="mask-type:luminance" maskUnits="userSpaceOnUse" x="311" y="543" width="41" height="35">
<path d="M311.631 543.833H351.657V577.683H311.631V543.833Z" fill="white"/>
</mask>
<g mask="url(#mask5_1574_492)">
<path d="M348.943 561.724C348.943 571.25 341.215 578.979 331.689 578.979C322.152 578.979 314.435 571.25 314.435 561.724C314.435 552.198 322.152 544.47 331.689 544.47C341.215 544.47 348.943 552.198 348.943 561.724Z" fill="#FDAB0A"/>
</g>
<path d="M413.025 442.194H251.503V397.433H413.025V442.194Z" fill="#430D9B"/>
<path d="M313.394 296.24C314.108 297.245 314.79 298.317 315.437 299.445L313.394 296.24ZM232.884 154.921H261.898C266.488 184.337 273.491 213.731 283.397 241.595C286.323 249.837 289.606 257.566 293.358 264.981L293.336 264.948C242.667 231.622 233.744 181.579 232.884 154.921ZM259.352 136.695C259.553 138.337 259.765 139.99 259.989 141.642H233.096C233.32 138.471 233.577 136.695 233.577 136.695H217.941C218.824 264.445 315.292 299.445 315.482 299.512C324.684 315.616 325.958 342.375 319.335 358.2C319.335 358.2 285.184 386.812 285.184 397.433H330.112L331.307 136.695H259.352Z" fill="#FDAB0A"/>
<path d="M344.522 299.445C345.159 298.317 345.851 297.245 346.577 296.24L344.522 299.445ZM366.623 264.948L366.601 264.981C370.353 257.566 373.637 249.837 376.563 241.595C386.469 213.731 393.471 184.337 398.061 154.921H427.075C426.215 181.579 417.281 231.622 366.623 264.948ZM328.652 136.695L329.847 397.433H374.765C374.765 386.812 340.613 358.2 340.613 358.2C334.002 342.375 335.264 315.616 344.477 299.512C344.667 299.445 441.136 264.445 442.018 136.695H426.372C426.372 136.695 426.64 138.471 426.863 141.642H399.971C400.194 139.99 400.406 138.337 400.618 136.695H328.652Z" fill="#D62828"/>
</g>
</g>
</svg>
